<svg width="76" height="77" viewBox="0 0 76 77" fill="none" xmlns="http://www.w3.org/2000/svg">
<rect x="0.0458984" y="0.511719" width="75.7122" height="75.7122" rx="17.3056" fill="#FDE85C"/>
<path opacity="0.8" d="M44.3908 41.6124H31.4116C30.9813 41.6124 30.5686 41.7833 30.2644 42.0876C29.9601 42.3919 29.7892 42.8045 29.7892 43.2348C29.7892 43.6651 29.9601 44.0778 30.2644 44.382C30.5686 44.6863 30.9813 44.8572 31.4116 44.8572H44.3908C44.8211 44.8572 45.2338 44.6863 45.538 44.382C45.8423 44.0778 46.0132 43.6651 46.0132 43.2348C46.0132 42.8045 45.8423 42.3919 45.538 42.0876C45.2338 41.7833 44.8211 41.6124 44.3908 41.6124ZM44.3908 35.1228H34.6564C34.2261 35.1228 33.8134 35.2937 33.5092 35.598C33.2049 35.9022 33.034 36.3149 33.034 36.7452C33.034 37.1755 33.2049 37.5881 33.5092 37.8924C33.8134 38.1967 34.2261 38.3676 34.6564 38.3676H44.3908C44.8211 38.3676 45.2338 38.1967 45.538 37.8924C45.8423 37.5881 46.0132 37.1755 46.0132 36.7452C46.0132 36.3149 45.8423 35.9022 45.538 35.598C45.2338 35.2937 44.8211 35.1228 44.3908 35.1228ZM50.8804 25.3884H46.0132V23.766C46.0132 23.3357 45.8423 22.923 45.538 22.6187C45.2338 22.3145 44.8211 22.1436 44.3908 22.1436C43.9605 22.1436 43.5479 22.3145 43.2436 22.6187C42.9393 22.923 42.7684 23.3357 42.7684 23.766V25.3884H39.5236V23.766C39.5236 23.3357 39.3527 22.923 39.0484 22.6187C38.7442 22.3145 38.3315 22.1436 37.9012 22.1436C37.4709 22.1436 37.0582 22.3145 36.754 22.6187C36.4497 22.923 36.2788 23.3357 36.2788 23.766V25.3884H33.034V23.766C33.034 23.3357 32.8631 22.923 32.5588 22.6187C32.2545 22.3145 31.8419 22.1436 31.4116 22.1436C30.9813 22.1436 30.5686 22.3145 30.2644 22.6187C29.9601 22.923 29.7892 23.3357 29.7892 23.766V25.3884H24.922C24.4917 25.3884 24.079 25.5593 23.7748 25.8636C23.4705 26.1678 23.2996 26.5805 23.2996 27.0108V49.7244C23.2996 51.0153 23.8124 52.2533 24.7251 53.1661C25.6379 54.0788 26.8759 54.5916 28.1668 54.5916H47.6356C48.9265 54.5916 50.1645 54.0788 51.0773 53.1661C51.99 52.2533 52.5028 51.0153 52.5028 49.7244V27.0108C52.5028 26.5805 52.3319 26.1678 52.0276 25.8636C51.7234 25.5593 51.3107 25.3884 50.8804 25.3884V25.3884ZM49.258 49.7244C49.258 50.1547 49.0871 50.5674 48.7828 50.8716C48.4786 51.1759 48.0659 51.3468 47.6356 51.3468H28.1668C27.7365 51.3468 27.3238 51.1759 27.0196 50.8716C26.7153 50.5674 26.5444 50.1547 26.5444 49.7244V28.6332H29.7892V30.2556C29.7892 30.6859 29.9601 31.0985 30.2644 31.4028C30.5686 31.707 30.9813 31.878 31.4116 31.878C31.8419 31.878 32.2545 31.707 32.5588 31.4028C32.8631 31.0985 33.034 30.6859 33.034 30.2556V28.6332H36.2788V30.2556C36.2788 30.6859 36.4497 31.0985 36.754 31.4028C37.0582 31.707 37.4709 31.878 37.9012 31.878C38.3315 31.878 38.7442 31.707 39.0484 31.4028C39.3527 31.0985 39.5236 30.6859 39.5236 30.2556V28.6332H42.7684V30.2556C42.7684 30.6859 42.9393 31.0985 43.2436 31.4028C43.5479 31.707 43.9605 31.878 44.3908 31.878C44.8211 31.878 45.2338 31.707 45.538 31.4028C45.8423 31.0985 46.0132 30.6859 46.0132 30.2556V28.6332H49.258V49.7244Z" fill="#34296B"/>
</svg>
