<svg width="77" height="77" viewBox="0 0 77 77" fill="none" xmlns="http://www.w3.org/2000/svg">
<rect x="0.463867" y="0.498535" width="75.7122" height="75.7122" rx="17.3056" fill="#FDE85C"/>
<path opacity="0.8" d="M53.1985 22.2282C52.0355 22.0279 50.8579 21.9248 49.6778 21.9199C45.6516 21.9166 41.7094 23.0711 38.321 25.2459C34.9239 23.0997 30.9823 21.9735 26.9642 22.001C25.7841 22.0059 24.6065 22.109 23.4436 22.3093C23.0626 22.375 22.7177 22.5745 22.4708 22.8719C22.2239 23.1694 22.0913 23.5452 22.097 23.9317V43.4006C22.0935 43.6389 22.1426 43.8752 22.2408 44.0924C22.339 44.3097 22.4839 44.5026 22.6651 44.6575C22.8463 44.8124 23.0595 44.9255 23.2894 44.9886C23.5193 45.0518 23.7602 45.0635 23.9952 45.023C26.3201 44.6204 28.7021 44.6872 31.0008 45.2194C33.2996 45.7516 35.4685 46.7384 37.38 48.1218L37.5747 48.2353H37.7532C37.9331 48.3103 38.1261 48.3489 38.321 48.3489C38.5159 48.3489 38.7089 48.3103 38.8888 48.2353H39.0673L39.262 48.1218C41.1601 46.7075 43.3229 45.6887 45.6221 45.1257C47.9212 44.5628 50.31 44.4672 52.6468 44.8445C52.8818 44.8851 53.1228 44.8733 53.3527 44.8102C53.5825 44.747 53.7957 44.6339 53.9769 44.479C54.1582 44.3241 54.303 44.1312 54.4012 43.914C54.4994 43.6967 54.5485 43.4605 54.545 43.2221V23.7532C54.5282 23.3836 54.3854 23.0308 54.1405 22.7534C53.8956 22.476 53.5632 22.2907 53.1985 22.2282ZM36.6986 43.7899C33.697 42.2108 30.3558 41.3867 26.9642 41.3888C26.4288 41.3888 25.8934 41.3888 25.3418 41.3888V25.1647C25.8821 25.1336 26.4238 25.1336 26.9642 25.1647C30.4254 25.1609 33.8111 26.1766 36.6986 28.0851V43.7899ZM51.3002 41.4537C50.7486 41.4537 50.2132 41.4537 49.6778 41.4537C46.2862 41.4516 42.945 42.2757 39.9434 43.8548V28.0851C42.8309 26.1766 46.2166 25.1609 49.6778 25.1647C50.2182 25.1336 50.7599 25.1336 51.3002 25.1647V41.4537ZM53.1985 48.1866C52.0355 47.9863 50.8579 47.8832 49.6778 47.8784C45.6516 47.8751 41.7094 49.0296 38.321 51.2043C34.9326 49.0296 30.9904 47.8751 26.9642 47.8784C25.7841 47.8832 24.6065 47.9863 23.4436 48.1866C23.2324 48.2202 23.0299 48.2951 22.8478 48.4071C22.6656 48.5192 22.5074 48.6661 22.3823 48.8395C22.2571 49.0129 22.1675 49.2093 22.1185 49.4175C22.0696 49.6256 22.0622 49.8414 22.097 50.0524C22.1794 50.4737 22.4255 50.8452 22.7813 51.0854C23.1371 51.3257 23.5736 51.4151 23.9952 51.3341C26.3201 50.9316 28.7021 50.9984 31.0008 51.5305C33.2996 52.0627 35.4685 53.0496 37.38 54.4329C37.6548 54.6285 37.9837 54.7337 38.321 54.7337C38.6583 54.7337 38.9872 54.6285 39.262 54.4329C41.1735 53.0496 43.3425 52.0627 45.6412 51.5305C47.9399 50.9984 50.3219 50.9316 52.6468 51.3341C53.0684 51.4151 53.5049 51.3257 53.8607 51.0854C54.2165 50.8452 54.4626 50.4737 54.545 50.0524C54.5798 49.8414 54.5724 49.6256 54.5235 49.4175C54.4745 49.2093 54.3849 49.0129 54.2597 48.8395C54.1346 48.6661 53.9764 48.5192 53.7943 48.4071C53.6121 48.2951 53.4096 48.2202 53.1985 48.1866V48.1866Z" fill="#34296B"/>
</svg>
