<svg width="76" height="77" viewBox="0 0 76 77" fill="none" xmlns="http://www.w3.org/2000/svg">
<rect x="0.0458984" y="0.498535" width="75.7122" height="75.7122" rx="17.3056" fill="#FDE85C"/>
<path opacity="0.8" d="M52.5032 48.0892H49.2584V43.2219C49.2584 42.7917 49.0874 42.379 48.7832 42.0747C48.4789 41.7705 48.0662 41.5995 47.636 41.5995H39.5239V37.2028L41.3573 38.16C41.6246 38.2999 41.9257 38.3624 42.2266 38.3406C42.5276 38.3188 42.8164 38.2135 43.0608 38.0365C43.3052 37.8595 43.4954 37.6179 43.61 37.3388C43.7247 37.0597 43.7592 36.7542 43.7097 36.4565L43.0608 32.6114L45.8513 29.8696C46.0627 29.6632 46.2137 29.403 46.288 29.1171C46.3623 28.8311 46.3572 28.5304 46.2731 28.2472C46.1791 27.9588 46.0061 27.7026 45.7738 27.5076C45.5416 27.3126 45.2593 27.1866 44.959 27.1439L41.1463 26.5436L39.3617 23.0392C39.2288 22.7649 39.0214 22.5336 38.7632 22.3717C38.5049 22.2099 38.2063 22.124 37.9015 22.124C37.5968 22.124 37.2981 22.2099 37.0399 22.3717C36.7816 22.5336 36.5742 22.7649 36.4414 23.0392L34.6567 26.5436L30.7792 27.1115C30.4789 27.1542 30.1966 27.2801 29.9643 27.4751C29.732 27.6702 29.5591 27.9264 29.465 28.2147C29.381 28.4979 29.3758 28.7987 29.4502 29.0846C29.5245 29.3705 29.6755 29.6307 29.8869 29.8371L32.7423 32.6114L32.0933 36.4565C32.0439 36.7542 32.0784 37.0597 32.193 37.3388C32.3077 37.6179 32.4978 37.8595 32.7422 38.0365C32.9866 38.2135 33.2755 38.3188 33.5764 38.3406C33.8774 38.3624 34.1785 38.2999 34.4458 38.16L36.2791 37.2028V41.5995H28.1671C27.7368 41.5995 27.3242 41.7705 27.0199 42.0747C26.7156 42.379 26.5447 42.7917 26.5447 43.2219V48.0892H23.2999C22.8696 48.0892 22.4569 48.2601 22.1527 48.5643C21.8484 48.8686 21.6775 49.2813 21.6775 49.7116V52.9564C21.6775 53.3867 21.8484 53.7993 22.1527 54.1036C22.4569 54.4078 22.8696 54.5788 23.2999 54.5788C23.7302 54.5788 24.1428 54.4078 24.4471 54.1036C24.7514 53.7993 24.9223 53.3867 24.9223 52.9564V51.334H31.4119V52.9564C31.4119 53.3867 31.5828 53.7993 31.8871 54.1036C32.1914 54.4078 32.604 54.5788 33.0343 54.5788C33.4646 54.5788 33.8773 54.4078 34.1815 54.1036C34.4858 53.7993 34.6567 53.3867 34.6567 52.9564V49.7116C34.6567 49.2813 34.4858 48.8686 34.1815 48.5643C33.8773 48.2601 33.4646 48.0892 33.0343 48.0892H29.7895V44.8444H46.0136V48.0892H42.7687C42.3385 48.0892 41.9258 48.2601 41.6215 48.5643C41.3173 48.8686 41.1463 49.2813 41.1463 49.7116V52.9564C41.1463 53.3867 41.3173 53.7993 41.6215 54.1036C41.9258 54.4078 42.3385 54.5788 42.7687 54.5788C43.199 54.5788 43.6117 54.4078 43.916 54.1036C44.2202 53.7993 44.3911 53.3867 44.3911 52.9564V51.334H50.8808V52.9564C50.8808 53.3867 51.0517 53.7993 51.356 54.1036C51.6602 54.4078 52.0729 54.5788 52.5032 54.5788C52.9335 54.5788 53.3461 54.4078 53.6504 54.1036C53.9546 53.7993 54.1256 53.3867 54.1256 52.9564V49.7116C54.1256 49.2813 53.9546 48.8686 53.6504 48.5643C53.3461 48.2601 52.9335 48.0892 52.5032 48.0892ZM37.9015 32.8872C37.6352 32.8886 37.3733 32.9554 37.139 33.0819L35.8411 33.7633L36.0844 32.3032C36.127 32.0449 36.1065 31.7801 36.0245 31.5315C35.9426 31.2829 35.8017 31.0578 35.6139 30.8754L34.5594 29.8371L36.0195 29.6262C36.2808 29.5913 36.5296 29.4933 36.7444 29.3406C36.9592 29.188 37.1337 28.9853 37.2526 28.7501L37.9015 27.4197L38.5505 28.7501C38.6694 28.9853 38.8438 29.188 39.0587 29.3406C39.2735 29.4933 39.5223 29.5913 39.7835 29.6262L41.2437 29.8371L40.1891 30.8754C40.0013 31.0578 39.8605 31.2829 39.7785 31.5315C39.6966 31.7801 39.6761 32.0449 39.7186 32.3032L39.962 33.7633L38.6641 33.0819C38.4297 32.9554 38.1678 32.8886 37.9015 32.8872Z" fill="#34296B"/>
</svg>
