<svg width="77" height="77" viewBox="0 0 77 77" fill="none" xmlns="http://www.w3.org/2000/svg">
<rect x="0.463867" y="0.511719" width="75.7122" height="75.7122" rx="17.3056" fill="#FDE85C"/>
<path opacity="0.8" d="M52.9216 41.6129H51.2992V25.3889H52.9216C53.3519 25.3889 53.7646 25.2179 54.0688 24.9137C54.3731 24.6094 54.544 24.1967 54.544 23.7664C54.544 23.3362 54.3731 22.9235 54.0688 22.6192C53.7646 22.315 53.3519 22.144 52.9216 22.144H23.7184C23.2881 22.144 22.8754 22.315 22.5711 22.6192C22.2669 22.9235 22.0959 23.3362 22.0959 23.7664C22.0959 24.1967 22.2669 24.6094 22.5711 24.9137C22.8754 25.2179 23.2881 25.3889 23.7184 25.3889H25.3408V41.6129H23.7184C23.2881 41.6129 22.8754 41.7838 22.5711 42.0881C22.2669 42.3923 22.0959 42.805 22.0959 43.2353C22.0959 43.6656 22.2669 44.0783 22.5711 44.3825C22.8754 44.6868 23.2881 44.8577 23.7184 44.8577H36.6976V46.7235L29.3156 51.5907C29.0128 51.7781 28.7801 52.0601 28.6533 52.3929C28.5266 52.7258 28.5129 53.0911 28.6144 53.4325C28.7159 53.7739 28.927 54.0724 29.2149 54.282C29.5029 54.4916 29.8519 54.6006 30.208 54.5921C30.5269 54.5958 30.839 54.4993 31.1003 54.3163L36.6976 50.6172V52.9697C36.6976 53.4 36.8685 53.8127 37.1728 54.1169C37.477 54.4212 37.8897 54.5921 38.32 54.5921C38.7503 54.5921 39.1629 54.4212 39.4672 54.1169C39.7715 53.8127 39.9424 53.4 39.9424 52.9697V50.6172L45.5397 54.3163C45.801 54.4993 46.113 54.5958 46.432 54.5921C46.7786 54.5895 47.1153 54.4758 47.3926 54.2679C47.67 54.06 47.8735 53.7687 47.9732 53.4367C48.073 53.1048 48.0638 52.7496 47.9471 52.4232C47.8303 52.0968 47.612 51.8165 47.3243 51.6231L39.9424 46.7559V44.8577H52.9216C53.3519 44.8577 53.7646 44.6868 54.0688 44.3825C54.3731 44.0783 54.544 43.6656 54.544 43.2353C54.544 42.805 54.3731 42.3923 54.0688 42.0881C53.7646 41.7838 53.3519 41.6129 52.9216 41.6129ZM48.0544 41.6129H28.5856V25.3889H48.0544V41.6129ZM34.4424 38.7899C34.8749 39.0454 35.3679 39.1802 35.8702 39.1802C36.3724 39.1802 36.8655 39.0454 37.2979 38.7899L42.1651 35.9669C42.5812 35.7115 42.9249 35.3537 43.1633 34.9277C43.4017 34.5016 43.5268 34.0215 43.5268 33.5333C43.5268 33.0451 43.4017 32.565 43.1633 32.139C42.9249 31.7129 42.5812 31.3551 42.1651 31.0997L37.2979 28.2767C36.8655 28.0213 36.3724 27.8865 35.8702 27.8865C35.3679 27.8865 34.8749 28.0213 34.4424 28.2767C34.0067 28.5224 33.6455 28.8812 33.397 29.3153C33.1485 29.7495 33.0221 30.2427 33.031 30.7428V36.3888C33.0337 36.8779 33.1656 37.3576 33.4135 37.7793C33.6614 38.201 34.0164 38.5496 34.4424 38.7899ZM36.2758 31.3593L39.9424 33.5009L36.2433 35.6424L36.2758 31.3593Z" fill="#34296B"/>
</svg>
