<svg width="303" height="483" viewBox="0 0 303 483" fill="none" xmlns="http://www.w3.org/2000/svg">
<mask id="mask0_2_356" style="mask-type:alpha" maskUnits="userSpaceOnUse" x="0" y="0" width="441" height="609">
<rect y="90.481" width="277.086" height="548.083" transform="rotate(-19.0591 0 90.481)" fill="#C4C4C4"/>
</mask>
<g mask="url(#mask0_2_356)">
<rect x="194.532" y="311.793" width="45.8941" height="42.2226" transform="rotate(108.787 194.532 311.793)" fill="#062442"/>
<rect x="136.93" y="332.92" width="51.4014" height="7.34306" transform="rotate(18.7872 136.93 332.92)" fill="#062442"/>
<rect x="187.579" y="309.429" width="45.8941" height="27.5365" transform="rotate(108.787 187.579 309.429)" fill="#062442"/>
<rect x="137.59" y="319.572" width="58.7445" height="7.34306" transform="rotate(18.7872 137.59 319.572)" fill="#062442"/>
<rect x="138.254" y="306.223" width="66.0875" height="7.34306" transform="rotate(18.7872 138.254 306.223)" fill="#062442"/>
<rect x="137.18" y="292.284" width="77.1021" height="7.34306" transform="rotate(18.7872 137.18 292.284)" fill="#062442"/>
<rect x="157.172" y="250.609" width="64.2517" height="45.8941" transform="rotate(18.7872 157.172 250.609)" fill="#062442"/>
<rect x="165.862" y="253.565" width="7.34306" height="25.7007" transform="rotate(18.7872 165.862 253.565)" fill="#062442"/>
<rect x="178.028" y="257.704" width="7.34306" height="25.7007" transform="rotate(18.7872 178.028 257.704)" fill="#062442"/>
<rect x="208.756" y="264.278" width="3.67153" height="42.2226" transform="rotate(108.787 208.756 264.278)" fill="#062442"/>
<rect x="190.194" y="261.842" width="7.34306" height="25.7007" transform="rotate(18.7872 190.194 261.842)" fill="#062442"/>
<rect x="202.36" y="265.98" width="7.34306" height="25.7007" transform="rotate(18.7872 202.36 265.98)" fill="#062442"/>
<path d="M169.837 316.642C156.24 351.166 153.106 396.862 176.177 428.954C206.14 470.631 278.618 506.572 337.155 487.213C378.887 473.411 409.406 445.631 425.795 410.836C440.522 379.57 440.693 345.295 453.414 313.66C462.209 291.789 477.503 276.546 505.682 276.634" stroke="#062442" stroke-width="15.2245" stroke-linejoin="round"/>
<path d="M214.339 335.19C202.652 369.856 199.942 415.734 219.729 447.941C245.428 489.769 307.62 525.819 357.872 506.356C393.697 492.481 419.905 464.577 433.988 429.638C446.642 398.242 446.805 363.832 457.738 332.066C465.297 310.104 483.435 292.482 507.622 292.558" stroke="#062442" stroke-width="22.8368" stroke-linejoin="round"/>
<path d="M214.303 335.51C202.661 370.114 199.96 415.908 219.672 448.056C245.273 489.808 307.228 525.791 357.289 506.364C392.978 492.513 419.086 464.661 433.116 429.785C445.722 398.446 445.884 364.099 456.776 332.391C464.306 310.469 482.376 292.879 506.47 292.955" stroke="#089AFE" stroke-width="10.6572" stroke-linejoin="round"/>
<rect x="248.613" y="300.651" width="45.8941" height="42.2226" transform="rotate(108.274 248.613 300.651)" fill="#0665A7"/>
<rect x="248.613" y="300.651" width="45.8941" height="9.17882" transform="rotate(108.274 248.613 300.651)" fill="#062442"/>
<rect x="190.625" y="324.035" width="51.4014" height="5.50729" transform="rotate(18.2742 190.625 324.035)" fill="#089AFE"/>
<rect x="241.641" y="298.349" width="45.8941" height="27.5365" transform="rotate(108.274 241.641 298.349)" fill="#089AFE"/>
<rect x="191.168" y="310.683" width="58.7445" height="3.67153" transform="rotate(18.2742 191.168 310.683)" fill="#089AFE"/>
<rect x="192.289" y="295.585" width="66.0875" height="5.50729" transform="rotate(18.2742 192.289 295.585)" fill="#089AFE"/>
<rect x="191.086" y="281.656" width="77.1021" height="5.50729" transform="rotate(18.2742 191.086 281.656)" fill="#089AFE"/>
<rect x="210.709" y="239.803" width="64.2517" height="45.8941" transform="rotate(18.2742 210.709 239.803)" fill="#089AFE"/>
<rect x="240.342" y="249.589" width="33.0438" height="45.8941" transform="rotate(18.2742 240.342 249.589)" fill="#067DCA"/>
<rect x="250.357" y="301.227" width="14.6861" height="7.34306" transform="rotate(18.2742 250.357 301.227)" fill="#067DCA"/>
<rect x="225.949" y="293.168" width="31.208" height="7.34306" transform="rotate(18.2742 225.949 293.168)" fill="#067DCA"/>
<rect x="221.922" y="305.371" width="34.8795" height="7.34306" transform="rotate(18.2742 221.922 305.371)" fill="#067DCA"/>
<rect x="217.893" y="317.573" width="31.208" height="7.34306" transform="rotate(18.2742 217.893 317.573)" fill="#067DCA"/>
<rect x="213.863" y="329.775" width="27.5365" height="7.34306" transform="rotate(18.2742 213.863 329.775)" fill="#067DCA"/>
<rect x="223.65" y="300.142" width="16.5219" height="36.7153" transform="rotate(18.2742 223.65 300.142)" fill="#067DCA"/>
<rect x="192.945" y="322.867" width="7.34306" height="3.67153" transform="rotate(108.274 192.945 322.867)" fill="#062442"/>
<rect x="193.488" y="309.514" width="7.34306" height="3.67153" transform="rotate(108.274 193.488 309.514)" fill="#062442"/>
<rect x="194.029" y="296.161" width="7.34306" height="3.67153" transform="rotate(108.274 194.029 296.161)" fill="#062442"/>
<rect x="193.406" y="280.489" width="9.17882" height="3.67153" transform="rotate(108.274 193.406 280.489)" fill="#062442"/>
<rect x="207.959" y="294.961" width="5.50729" height="1.83576" transform="rotate(108.274 207.959 294.961)" fill="#062442"/>
<rect x="203.93" y="307.163" width="5.50729" height="1.83576" transform="rotate(108.274 203.93 307.163)" fill="#062442"/>
<rect x="199.902" y="319.365" width="5.50729" height="3.67153" transform="rotate(108.274 199.902 319.365)" fill="#062442"/>
<rect x="199.902" y="319.365" width="11.0146" height="1.83576" transform="rotate(-161.726 199.902 319.365)" fill="#062442"/>
<rect x="197.598" y="326.338" width="7.34306" height="1.83576" transform="rotate(-161.726 197.598 326.338)" fill="#062442"/>
<rect x="235.213" y="346.79" width="49.2085" height="3.97187" transform="rotate(-161.726 235.213 346.79)" fill="#062442"/>
<rect x="201.629" y="314.136" width="12.8503" height="3.67153" transform="rotate(-161.726 201.629 314.136)" fill="#062442"/>
<rect x="203.93" y="307.163" width="14.6861" height="1.83576" transform="rotate(-161.726 203.93 307.163)" fill="#062442"/>
<rect x="206.232" y="300.191" width="16.5219" height="3.67153" transform="rotate(-161.726 206.232 300.191)" fill="#062442"/>
<rect x="207.959" y="294.961" width="20.1934" height="1.83576" transform="rotate(-161.726 207.959 294.961)" fill="#062442"/>
<rect x="199.24" y="286.282" width="9.19289" height="3.67153" transform="rotate(-161.726 199.24 286.282)" fill="#062442"/>
<rect x="214.217" y="240.962" width="45.8941" height="5.53153" transform="rotate(108.274 214.217 240.962)" fill="#062442"/>
<rect x="219.422" y="242.682" width="7.34306" height="25.7007" transform="rotate(18.2742 219.422 242.682)" fill="#FFDB99"/>
<rect x="231.625" y="246.711" width="7.34306" height="25.7007" transform="rotate(18.2742 231.625 246.711)" fill="#FFDB99"/>
<rect x="262.41" y="253.01" width="3.67153" height="42.2226" transform="rotate(108.274 262.41 253.01)" fill="#0665A7"/>
<rect x="243.828" y="250.741" width="7.34306" height="25.7007" transform="rotate(18.2742 243.828 250.741)" fill="#FFDB99"/>
<rect x="256.031" y="254.769" width="7.34306" height="25.7007" transform="rotate(18.2742 256.031 254.769)" fill="#FFDB99"/>
</g>
</svg>
