<svg width="69" height="69" viewBox="0 0 69 69" fill="none" xmlns="http://www.w3.org/2000/svg">
<circle cx="34.5" cy="34.5" r="34.5" fill="#FEF3AE"/>
<g clip-path="url(#clip0_2_472)">
<path d="M34.5008 33.1439C36.2991 33.1439 38.0238 33.8583 39.2954 35.1299C40.567 36.4015 41.2814 38.1262 41.2814 39.9246V48.0614H27.7201V39.9246C27.7201 38.1262 28.4345 36.4015 29.7061 35.1299C30.9777 33.8583 32.7024 33.1439 34.5008 33.1439ZM25.3984 37.2204C25.1826 37.9484 25.0551 38.6997 25.0187 39.4581L25.0078 39.9246V48.0614H20.9395V41.9588C20.9392 40.7892 21.3707 39.6607 22.1513 38.7898C22.9319 37.9188 24.0066 37.3667 25.1692 37.2394L25.3998 37.2204H25.3984ZM43.6031 37.2204C44.81 37.294 45.9433 37.8252 46.7719 38.7057C47.6005 39.5862 48.0619 40.7497 48.0621 41.9588V48.0614H43.9937V39.9246C43.9937 38.9848 43.8581 38.0775 43.6031 37.2204ZM25.6859 29.0755C26.5851 29.0755 27.4474 29.4327 28.0832 30.0685C28.7191 30.7043 29.0762 31.5667 29.0762 32.4658C29.0762 33.365 28.7191 34.2274 28.0832 34.8632C27.4474 35.499 26.5851 35.8562 25.6859 35.8562C24.7867 35.8562 23.9244 35.499 23.2886 34.8632C22.6528 34.2274 22.2956 33.365 22.2956 32.4658C22.2956 31.5667 22.6528 30.7043 23.2886 30.0685C23.9244 29.4327 24.7867 29.0755 25.6859 29.0755ZM43.3156 29.0755C44.2148 29.0755 45.0771 29.4327 45.713 30.0685C46.3488 30.7043 46.706 31.5667 46.706 32.4658C46.706 33.365 46.3488 34.2274 45.713 34.8632C45.0771 35.499 44.2148 35.8562 43.3156 35.8562C42.4165 35.8562 41.5541 35.499 40.9183 34.8632C40.2825 34.2274 39.9253 33.365 39.9253 32.4658C39.9253 31.5667 40.2825 30.7043 40.9183 30.0685C41.5541 29.4327 42.4165 29.0755 43.3156 29.0755ZM34.5008 20.9387C35.9394 20.9387 37.3192 21.5102 38.3365 22.5275C39.3538 23.5448 39.9253 24.9246 39.9253 26.3632C39.9253 27.8019 39.3538 29.1817 38.3365 30.199C37.3192 31.2163 35.9394 31.7878 34.5008 31.7878C33.0621 31.7878 31.6823 31.2163 30.6651 30.199C29.6478 29.1817 29.0762 27.8019 29.0762 26.3632C29.0762 24.9246 29.6478 23.5448 30.6651 22.5275C31.6823 21.5102 33.0621 20.9387 34.5008 20.9387Z" fill="#FFD900"/>
</g>
<defs>
<clipPath id="clip0_2_472">
<rect width="32.5472" height="32.5472" fill="white" transform="translate(18.2266 18.2263)"/>
</clipPath>
</defs>
</svg>
