<svg width="69" height="69" viewBox="0 0 69 69" fill="none" xmlns="http://www.w3.org/2000/svg">
<circle cx="34.5" cy="34.5" r="34.5" fill="#FFCED7"/>
<g clip-path="url(#clip0_2_458)">
<path d="M34.4988 48.0611C27.0089 48.0611 20.9375 41.9897 20.9375 34.4998C20.9375 27.0099 27.0089 20.9385 34.4988 20.9385C41.9887 20.9385 48.0601 27.0099 48.0601 34.4998C48.0601 41.9897 41.9887 48.0611 34.4988 48.0611ZM27.7182 34.4998C27.7182 36.2981 28.4325 38.0228 29.7042 39.2944C30.9758 40.5661 32.7005 41.2805 34.4988 41.2805C36.2972 41.2805 38.0218 40.5661 39.2935 39.2944C40.5651 38.0228 41.2795 36.2981 41.2795 34.4998H38.5672C38.5672 35.5788 38.1386 36.6136 37.3756 37.3766C36.6126 38.1396 35.5778 38.5682 34.4988 38.5682C33.4198 38.5682 32.385 38.1396 31.622 37.3766C30.8591 36.6136 30.4304 35.5788 30.4304 34.4998H27.7182Z" fill="#E3719C"/>
</g>
<defs>
<clipPath id="clip0_2_458">
<rect width="32.5472" height="32.5472" fill="white" transform="translate(18.2266 18.2266)"/>
</clipPath>
</defs>
</svg>
