<svg width="246" height="294" viewBox="0 0 246 294" fill="none" xmlns="http://www.w3.org/2000/svg">
<path d="M179.063 136.259L208.559 94.6081L246.098 120.118L313.119 395.481L277.404 420.487L254.649 438.113L179.063 136.259Z" fill="#062442"/>
<path d="M103.633 110.584L186.155 93.9068L257.486 380.706L176.86 401.816L103.633 110.584Z" fill="#062442"/>
<path d="M184.144 90.783L184.786 93.5409L180.772 94.113L180.352 94.173L180.064 94.486L175.984 98.9224L175.977 98.9306L171.12 104.313L159.854 100.091L159.146 99.8255L158.605 100.352L147.499 111.161L135.307 105.838L134.578 105.52L134.005 106.071L123.149 116.497L106.89 110.991L105.279 109.925L133.199 55.642C133.265 55.5139 133.429 55.4731 133.547 55.5555L184.144 90.783Z" fill="white" stroke="#062442" stroke-width="2.38228"/>
<path d="M122.679 76.4866L132.162 55.2674C132.535 54.4338 133.583 54.1584 134.317 54.7012L153.438 68.8364L146.572 76.7232L139.711 81.0781L131.609 80.4449L122.679 76.4866Z" fill="#062442"/>
<path d="M126.836 75.453L134.335 59.4639L133.904 71.9295L134.731 75.2548L139.297 79.4156L132.026 78.5758L126.836 75.453Z" fill="#0665A7"/>
<path d="M109.77 110.227L123.742 114.263L134.195 104.152L208.858 402.186L182.421 399L109.77 110.227Z" fill="#FFDB99"/>
<path d="M158.62 98.0765L170.964 102.518L179.789 92.8115L255.466 393.521L232.223 396.106L158.62 98.0765Z" fill="#FFB5A6"/>
<path d="M134.195 104.152L148.167 108.188L158.621 98.0768L231.049 389.199L206.624 395.274L134.195 104.152Z" fill="#FFA7A7"/>
</svg>
