<svg width="130" height="241" viewBox="0 0 130 241" fill="none" xmlns="http://www.w3.org/2000/svg">
<rect x="62.7852" y="158.571" width="24.1071" height="246.428" fill="#062442"/>
<rect x="22.7129" y="4.45699" width="101.954" height="149.866" rx="17.2708" fill="#062442" stroke="#062442" stroke-width="8.91399"/>
<path d="M6 21.7275H48.62V49.3052H41.0988C41.9345 46.6124 40.9317 41.1155 30.2349 40.6698C19.5381 40.2241 9.62131 27.8559 6 21.7275Z" fill="#D4D4D4" stroke="#062442" stroke-width="6.12836"/>
<path d="M6 105.296H48.62V132.874H41.0988C41.9345 130.181 40.9317 124.684 30.2349 124.239C19.5381 123.793 9.62131 111.425 6 105.296Z" fill="#FFA7A7" stroke="#062442" stroke-width="6.12836"/>
<path d="M6 63.5122H48.62V91.0898H41.0988C41.9345 88.3971 40.9317 82.9001 30.2349 82.4544C19.5381 82.0087 9.62131 69.6406 6 63.5122Z" fill="#FFC7C7" stroke="#062442" stroke-width="6.12836"/>
<rect x="55.58" y="4.45699" width="69.0834" height="149.866" rx="6.68549" fill="#FFC7C7" stroke="#062442" stroke-width="8.91399"/>
<rect x="76.4739" y="105.018" width="28.4133" height="28.4133" rx="14.2067" fill="#6AA84F" stroke="#062442" stroke-width="5.01412"/>
<rect x="76.4739" y="63.2341" width="28.4133" height="28.4133" rx="14.2067" fill="#FFFF00" stroke="#062442" stroke-width="5.01412"/>
<rect x="76.4739" y="21.4494" width="28.4133" height="28.4133" rx="14.2067" fill="#FF0000" stroke="#062442" stroke-width="5.01412"/>
</svg>
