<svg width="244" height="242" viewBox="0 0 244 242" fill="none" xmlns="http://www.w3.org/2000/svg">
<g clip-path="url(#clip0_1_10586)">
<path d="M79.0749 94.0188C82.6357 98.6748 88.4661 100.593 94.2194 100.039C100.593 99.4277 106.017 96.1177 110.163 91.3175C115.119 85.5882 117.965 78.3144 119.713 71.0284C121.224 64.7394 122.044 58.2315 122.015 51.765C121.964 39.4432 118.823 25.9068 110.032 16.8015C105.903 12.517 100.573 9.27272 94.4848 9.01055C88.3971 8.74837 82.965 11.4089 78.4619 15.0872C67.8574 23.7765 61.7535 37.4324 57.8558 50.2528C53.8291 63.4763 51.9708 77.5079 51.7812 91.2949C51.4196 118.754 58.7415 146.518 76.0206 168.191C84.8929 179.32 96.1509 188.656 109.098 194.652C122.141 200.685 136.463 203.355 150.658 205.014C154.206 205.429 157.764 205.758 161.321 206.067C163.157 206.231 165.504 201.171 163.333 200.946C149.943 199.523 136.409 197.997 123.514 193.977C110.619 189.958 99.0104 183.321 89.1494 174.194C69.8524 156.333 59.0752 131.191 56.2649 105.289C54.924 92.9194 55.3187 80.3139 57.1783 68.0017C59.1347 54.9907 62.6293 42.0044 69.3617 30.603C74.7924 21.3895 84.325 11.7133 96.0533 14.8044C107.782 17.8955 114.018 29.8571 116.618 40.4881C119.45 52.1187 118.695 64.9779 115.096 76.3896C113.154 82.5418 109.961 88.7605 104.348 92.3026C99.8447 95.1499 93.6944 96.054 88.6396 94.2862C86.1168 93.3974 83.9212 91.902 82.2914 89.7867C81.0204 88.1341 77.9406 92.6126 79.0562 94.0573L79.0749 94.0188Z" fill="white" fill-opacity="0.46"/>
<path d="M153.858 215.551L179.191 211.627C180.717 211.394 182.284 209.03 181.874 207.498C181.034 204.358 178.802 202.224 176.371 200.216C173.371 197.729 170.314 195.301 167.267 192.882C161.125 188.017 154.945 183.19 148.671 178.498C147.321 177.487 144.67 181.854 146.136 183.016C151.931 187.62 157.811 192.097 163.606 196.701C166.412 198.923 169.209 201.173 171.978 203.453C174.466 205.498 177.529 207.611 178.418 210.893L181.101 206.765L155.787 210.669C154.595 210.849 153.75 212.046 153.342 213.103C153.157 213.584 152.676 215.74 153.868 215.56L153.858 215.551Z" fill="white" fill-opacity="0.46"/>
</g>
<defs>
<clipPath id="clip0_1_10586">
<rect width="133" height="210" fill="white" transform="translate(0 95.3003) rotate(-45.7698)"/>
</clipPath>
</defs>
</svg>
