<svg width="37" height="39" viewBox="0 0 37 39" fill="none" xmlns="http://www.w3.org/2000/svg">
<path d="M0.856445 37.3588C2.49359 35.6817 2.5393 33.2217 2.59073 30.3817C2.67073 25.9359 2.76787 20.5674 9.02216 15.8359H27.2336C33.4907 20.5674 33.5879 25.9359 33.6679 30.3817C33.7193 33.2217 33.765 35.6817 35.4022 37.3588H0.856445Z" fill="#E3719C" fill-opacity="0.2"/>
<path d="M0.856445 37.3588C2.49359 35.6817 2.5393 33.2217 2.59073 30.3817C2.67073 25.9359 2.76787 20.5674 9.02216 15.8359H27.2336C33.4907 20.5674 33.5879 25.9359 33.6679 30.3817C33.7193 33.2217 33.765 35.6817 35.4022 37.3588" stroke="#E3719C" stroke-width="1.66667" stroke-linecap="round" stroke-linejoin="round"/>
<path d="M27.5885 15.836H8.67138L6.30566 4.01025L12.2199 7.55882L18.1285 1.64453L24.04 7.55882L29.9542 4.01025L27.5857 15.836H27.5885Z" fill="#E3719C" fill-opacity="0.2"/>
<path d="M27.5885 15.836H8.67138L6.30566 4.01025L12.2199 7.55882L18.1285 1.64453L24.04 7.55882L29.9542 4.01025L27.5857 15.836H27.5885Z" stroke="#E3719C" stroke-width="1.66667" stroke-linecap="round" stroke-linejoin="round"/>
<path d="M26.8853 28.4894C27.0196 29.4523 26.871 30.4837 26.5796 31.4723C25.551 34.9837 21.7853 36.6037 18.131 36.6037C14.4739 36.6037 10.7082 34.9808 9.6796 31.4723C9.38817 30.4837 9.2396 29.4523 9.37674 28.4894C9.56356 27.2182 9.9111 25.9759 10.411 24.7923C13.2615 24.3303 15.9312 23.0972 18.131 21.2266C20.3293 23.0963 22.9969 24.3293 25.8453 24.7923C26.331 25.9551 26.7025 27.1923 26.8825 28.4894H26.8853Z" fill="white"/>
<path d="M26.8853 28.4894C27.0196 29.4523 26.871 30.4837 26.5796 31.4723C25.551 34.9837 21.7853 36.6037 18.1282 36.6037C14.471 36.6037 10.7082 34.9808 9.6796 31.4723C9.38817 30.4837 9.2396 29.4523 9.37674 28.4894C9.56356 27.2182 9.9111 25.9759 10.411 24.7923C13.2605 24.3298 15.9291 23.0967 18.1282 21.2266C20.3272 23.0967 22.9959 24.3298 25.8453 24.7923C26.3282 25.9551 26.7025 27.1923 26.8825 28.4894H26.8853Z" stroke="#E3719C" stroke-width="1.66667" stroke-linecap="round" stroke-linejoin="round"/>
</svg>
