<svg width="44" height="47" viewBox="0 0 44 47" fill="none" xmlns="http://www.w3.org/2000/svg">
<path d="M39.6947 17.1963L35.0047 9.9403L32.733 6.43079C31.9326 5.19512 31.0363 3.98203 30.343 2.6843C30.0893 2.21598 30.5628 2.0185 30.9687 2.00158C31.4985 1.97901 32.1693 2.19906 32.4963 2.63352C33.3926 3.8184 34.1423 5.13306 34.9484 6.38001L37.2201 9.88952L41.9157 17.1455C42.2201 17.6138 41.6507 17.8282 41.2674 17.8452C40.7545 17.8677 39.9935 17.6533 39.6947 17.1907V17.1963Z" fill="#FEDA00" stroke="#FEDA00"/>
<path d="M30.7032 25.1297C21.4642 22.0998 12.1914 19.1545 2.9862 16.0174C2.66489 15.9102 1.88698 15.6337 2.011 15.1541C2.13501 14.6971 2.98056 14.7986 3.28495 14.8945C12.5578 17.8173 21.7742 20.9262 31.0133 23.9617C31.3515 24.0746 32.1632 24.3623 32.0279 24.8645C31.9039 25.3385 31.0133 25.2425 30.6976 25.1353L30.7032 25.1297Z" fill="#FEDA00" stroke="#FEDA00"/>
<path d="M32.5866 35.7079L25.3882 40.3064L21.8482 42.569C20.6306 43.3476 19.4299 44.1996 18.1616 44.888C17.7275 45.1193 17.0567 44.9444 16.6565 44.7356C16.4479 44.6284 15.7884 44.1657 16.1717 43.878C17.333 43.0034 18.6125 42.2699 19.8358 41.4913L23.3758 39.2287L30.6926 34.5513C31.3465 34.1337 33.5505 35.0929 32.5923 35.7079H32.5866Z" fill="#FEDA00" stroke="#FEDA00"/>
</svg>
