<svg width="44" height="47" viewBox="0 0 44 47" fill="none" xmlns="http://www.w3.org/2000/svg">
<path d="M4.30529 17.1963L8.99526 9.9403L11.267 6.43079C12.0674 5.19512 12.9637 3.98203 13.657 2.6843C13.9107 2.21598 13.4372 2.0185 13.0313 2.00158C12.5015 1.97901 11.8307 2.19906 11.5037 2.63352C10.6074 3.8184 9.85772 5.13306 9.05163 6.38001L6.77993 9.88952L2.08432 17.1455C1.77993 17.6138 2.34926 17.8282 2.73258 17.8452C3.24554 17.8677 4.00653 17.6533 4.30529 17.1907V17.1963Z" fill="#FEDA00" stroke="#FEDA00"/>
<path d="M13.2968 25.1297C22.5358 22.0998 31.8086 19.1545 41.0138 16.0174C41.3351 15.9102 42.113 15.6337 41.989 15.1541C41.865 14.6971 41.0194 14.7986 40.715 14.8945C31.4422 17.8173 22.2258 20.9262 12.9867 23.9617C12.6485 24.0746 11.8368 24.3623 11.9721 24.8645C12.0961 25.3385 12.9867 25.2425 13.3024 25.1353L13.2968 25.1297Z" fill="#FEDA00" stroke="#FEDA00"/>
<path d="M11.4134 35.7079L18.6118 40.3064L22.1518 42.569C23.3694 43.3476 24.5701 44.1996 25.8384 44.888C26.2725 45.1193 26.9433 44.9444 27.3435 44.7356C27.5521 44.6284 28.2116 44.1657 27.8283 43.878C26.667 43.0034 25.3875 42.2699 24.1642 41.4913L20.6242 39.2287L13.3074 34.5513C12.6535 34.1337 10.4495 35.0929 11.4077 35.7079H11.4134Z" fill="#FEDA00" stroke="#FEDA00"/>
</svg>
