<svg width="40" height="41" viewBox="0 0 40 41" fill="none" xmlns="http://www.w3.org/2000/svg">
<path d="M37.328 24.1313C37.3277 23.4312 37.1894 22.738 36.9211 22.0913C36.6528 21.4446 36.2598 20.857 35.7645 20.3622C35.2691 19.8674 34.6812 19.475 34.0342 19.2075C33.3872 18.9399 32.6939 18.8023 31.9938 18.8027C31.0595 18.8027 30.6223 19.0513 29.8138 19.517L29.328 13.3113C29.328 12.6048 29.0476 11.9272 28.5483 11.4274C28.049 10.9275 27.3717 10.6463 26.6652 10.6456L21.1995 10.0599C21.6709 9.24844 21.9252 8.91701 21.928 7.97987C21.928 6.56588 21.3663 5.20981 20.3665 4.20998C19.3667 3.21014 18.0106 2.64844 16.5966 2.64844C15.1826 2.64844 13.8266 3.21014 12.8267 4.20998C11.8269 5.20981 11.2652 6.56588 11.2652 7.97987C11.2652 8.91701 11.5052 9.24844 11.9766 10.0599L5.33661 10.6456C4.62962 10.6456 3.95159 10.9264 3.45167 11.4263C2.95175 11.9263 2.6709 12.6043 2.6709 13.3113L2.75661 16.3542C2.7909 17.6913 4.10518 18.6427 5.40804 18.9599C6.3509 19.1884 7.23376 19.6627 7.9309 20.3599C8.42643 20.855 8.81953 21.4429 9.08773 22.09C9.35593 22.7372 9.49398 23.4308 9.49398 24.1313C9.49398 24.8318 9.35593 25.5254 9.08773 26.1726C8.81953 26.8197 8.42643 27.4076 7.9309 27.9027C7.23425 28.5919 6.36147 29.0763 5.40804 29.3027C4.10518 29.617 2.7909 30.5656 2.7509 31.9056L2.67376 34.6399C2.67376 35.3456 2.95376 36.0227 3.45376 36.5256C7.33947 39.0942 25.188 38.8313 28.5509 36.5256C28.7984 36.2779 28.9947 35.9839 29.1285 35.6603C29.2623 35.3368 29.3311 34.99 29.3309 34.6399L29.8166 28.7427C30.6252 29.2113 31.0595 29.457 31.9938 29.457C33.4072 29.4578 34.7632 28.8972 35.7635 27.8985C36.7638 26.8998 37.3265 25.5448 37.328 24.1313Z" fill="#E3719C" fill-opacity="0.2"/>
<path d="M37.328 24.1313C37.3277 23.4312 37.1894 22.738 36.9211 22.0913C36.6528 21.4446 36.2598 20.857 35.7645 20.3622C35.2692 19.8674 34.6812 19.475 34.0342 19.2075C33.3872 18.9399 32.6939 18.8023 31.9938 18.8027C31.0595 18.8027 30.6223 19.0513 29.8138 19.517L29.328 13.3113C29.328 12.6048 29.0476 11.9272 28.5483 11.4274C28.049 10.9275 27.3717 10.6463 26.6652 10.6456L21.1995 10.0599C21.6709 9.24844 21.9252 8.91701 21.928 7.97987C21.928 6.56588 21.3663 5.20981 20.3665 4.20998C19.3667 3.21014 18.0106 2.64844 16.5966 2.64844C15.1826 2.64844 13.8266 3.21014 12.8267 4.20998C11.8269 5.20981 11.2652 6.56588 11.2652 7.97987C11.2652 8.91701 11.5052 9.24844 11.9766 10.0599L5.33661 10.6456C4.62962 10.6456 3.95159 10.9264 3.45167 11.4264C2.95175 11.9263 2.6709 12.6043 2.6709 13.3113L2.75661 16.3542C2.7909 17.6913 4.10518 18.6427 5.40804 18.9599C6.3509 19.1884 7.23376 19.6627 7.9309 20.3599C8.42643 20.855 8.81953 21.4429 9.08773 22.09C9.35593 22.7372 9.49398 23.4308 9.49398 24.1313C9.49398 24.8318 9.35593 25.5254 9.08773 26.1726C8.81953 26.8197 8.42643 27.4076 7.9309 27.9027C7.23425 28.5919 6.36147 29.0763 5.40804 29.3027C4.10518 29.617 2.7909 30.5656 2.7509 31.9056L2.67376 34.6399C2.67376 35.3456 2.95376 36.0227 3.45376 36.5256C7.33947 39.0942 25.188 38.8313 28.5509 36.5256C28.7984 36.2779 28.9947 35.9839 29.1285 35.6603C29.2623 35.3368 29.3311 34.99 29.3309 34.6399L29.8166 28.7427C30.6252 29.2113 31.0595 29.457 31.9938 29.457C33.4072 29.4578 34.7632 28.8972 35.7635 27.8985C36.7638 26.8998 37.3265 25.5448 37.328 24.1313Z" stroke="#E3719C" stroke-width="1.66667" stroke-linecap="round" stroke-linejoin="round"/>
</svg>
