<svg width="64" height="86" viewBox="0 0 64 86" fill="none" xmlns="http://www.w3.org/2000/svg">
<path d="M57 2.41666L7.00001 2.41666C4.69882 2.41666 2.83334 4.28214 2.83334 6.58332L2.83334 16.1771C2.83334 19.2492 4.52354 22.0721 7.2315 23.5228L28.0648 34.6835C30.523 36.0004 33.477 36.0004 35.9352 34.6835L56.7685 23.5228C59.4765 22.0721 61.1667 19.2492 61.1667 16.1771L61.1667 6.58332C61.1667 4.28214 59.3012 2.41666 57 2.41666Z" fill="#9B2EF0"/>
<path fill-rule="evenodd" clip-rule="evenodd" d="M7 0.333328L57 0.333328C60.4518 0.333328 63.25 3.13155 63.25 6.58333L63.25 16.1772C63.25 20.0172 61.1373 23.5459 57.7523 25.3592L36.919 36.52C33.8462 38.1661 30.1538 38.1661 27.081 36.52L6.24769 25.3592C2.86274 23.5459 0.75 20.0172 0.75 16.1772L0.75 6.58333C0.75 3.13155 3.54822 0.333328 7 0.333328ZM7 2.41666L57 2.41666C59.3012 2.41666 61.1667 4.28214 61.1667 6.58333L61.1667 16.1772C61.1667 19.2492 59.4765 22.0721 56.7685 23.5228L35.9352 34.6835C33.477 36.0004 30.523 36.0004 28.0648 34.6835L7.23149 23.5228C4.52353 22.0721 2.83333 19.2492 2.83333 16.1772L2.83333 6.58333C2.83333 4.28214 4.69881 2.41666 7 2.41666Z" fill="#6303AF"/>
<path fill-rule="evenodd" clip-rule="evenodd" d="M4.91667 5.54167C5.49196 5.54167 5.95833 6.00804 5.95833 6.58334L5.95833 15.4058C5.95833 17.2973 6.98381 19.0401 8.63728 19.9587L28.86 31.1936C29.3629 31.473 29.5441 32.1072 29.2647 32.6101C28.9854 33.113 28.3512 33.2941 27.8483 33.0148L7.62552 21.7799C5.31067 20.4939 3.875 18.0539 3.875 15.4058L3.875 6.58334C3.875 6.00804 4.34137 5.54167 4.91667 5.54167Z" fill="#B860FE"/>
<path d="M53.3897 6.07571C53.3897 6.66556 52.9232 7.14374 52.3477 7.14374C51.7722 7.14374 51.3057 6.66556 51.3057 6.07571C51.3057 5.48585 51.7722 5.00768 52.3477 5.00768C52.9232 5.00768 53.3897 5.48585 53.3897 6.07571Z" fill="#800CDB"/>
<path d="M49.7301 6.3362C49.7301 7.06992 49.1498 7.66473 48.4339 7.66473C47.7181 7.66473 47.1378 7.06992 47.1378 6.3362C47.1378 5.60248 47.7181 5.00768 48.4339 5.00768C49.1498 5.00768 49.7301 5.60248 49.7301 6.3362Z" fill="#800CDB"/>
<path d="M52.9728 10.1394C52.9728 10.8732 52.3925 11.468 51.6767 11.468C50.9608 11.468 50.3806 10.8732 50.3806 10.1394C50.3806 9.40571 50.9608 8.81091 51.6767 8.81091C52.3925 8.81091 52.9728 9.40571 52.9728 10.1394Z" fill="#800CDB"/>
<path d="M55.9362 8.329C55.9362 8.69586 55.6461 8.99326 55.2881 8.99326C54.9302 8.99326 54.6401 8.69586 54.6401 8.329C54.6401 7.96213 54.9302 7.66473 55.2881 7.66473C55.6461 7.66473 55.9362 7.96213 55.9362 8.329Z" fill="#800CDB"/>
<path d="M49.0819 9.47518C49.0819 9.84204 48.7918 10.1394 48.4339 10.1394C48.0759 10.1394 47.7858 9.84204 47.7858 9.47518C47.7858 9.10831 48.0759 8.81091 48.4339 8.81091C48.7918 8.81091 49.0819 9.10831 49.0819 9.47518Z" fill="#800CDB"/>
<path d="M45.4706 5.41144C45.4706 5.7783 45.1804 6.0757 44.8225 6.0757C44.4646 6.0757 44.1745 5.7783 44.1745 5.41144C44.1745 5.04458 44.4646 4.74718 44.8225 4.74718C45.1804 4.74718 45.4706 5.04458 45.4706 5.41144Z" fill="#800CDB"/>
<path d="M55.2881 12.9658C55.2881 13.3327 54.998 13.6301 54.64 13.6301C54.2821 13.6301 53.992 13.3327 53.992 12.9658C53.992 12.5989 54.2821 12.3015 54.64 12.3015C54.998 12.3015 55.2881 12.5989 55.2881 12.9658Z" fill="#800CDB"/>
<path d="M51.9538 13.6301C51.9538 13.9969 51.6637 14.2943 51.3057 14.2943C50.9478 14.2943 50.6577 13.9969 50.6577 13.6301C50.6577 13.2632 50.9478 12.9658 51.3057 12.9658C51.6637 12.9658 51.9538 13.2632 51.9538 13.6301Z" fill="#800CDB"/>
<path d="M56.9973 4.94249C56.9973 5.30935 56.7072 5.60675 56.3493 5.60675C55.9913 5.60675 55.7012 5.30935 55.7012 4.94249C55.7012 4.57563 55.9913 4.27823 56.3493 4.27823C56.7072 4.27823 56.9973 4.57563 56.9973 4.94249Z" fill="#800CDB"/>
<path d="M58.4166 11.2205C58.4166 11.8175 57.9444 12.3015 57.3619 12.3015C56.7795 12.3015 56.3073 11.8175 56.3073 11.2205C56.3073 10.6234 56.7795 10.1394 57.3619 10.1394C57.9444 10.1394 58.4166 10.6234 58.4166 11.2205Z" fill="#800CDB"/>
<path d="M59.4713 6.58368C59.4713 7.18073 58.9991 7.66473 58.4166 7.66473C57.8341 7.66473 57.3619 7.18073 57.3619 6.58368C57.3619 5.98663 57.8341 5.50262 58.4166 5.50262C58.9991 5.50262 59.4713 5.98663 59.4713 6.58368Z" fill="#800CDB"/>
<path d="M57.3975 16.0396C57.3975 16.6367 56.9253 17.1207 56.3428 17.1207C55.7603 17.1207 55.2881 16.6367 55.2881 16.0396C55.2881 15.4426 55.7603 14.9586 56.3428 14.9586C56.9253 14.9586 57.3975 15.4426 57.3975 16.0396Z" fill="#800CDB"/>
<path d="M59.7915 14.2943C59.7915 14.6612 59.5014 14.9586 59.1435 14.9586C58.7855 14.9586 58.4954 14.6612 58.4954 14.2943C58.4954 13.9275 58.7855 13.6301 59.1435 13.6301C59.5014 13.6301 59.7915 13.9275 59.7915 14.2943Z" fill="#800CDB"/>
<path d="M10.0293 47.3041L3.875 55.5417L10.0293 63.7792L12.1126 75.4291L23.7624 77.5124L32 83.6667L40.2376 77.5124L51.8873 75.4291L53.9707 63.7793L60.125 55.5417L53.9707 47.304L51.8873 35.6543L40.2377 33.571L32 27.4167L23.7623 33.571L12.1126 35.6543L10.0293 47.3041Z" fill="#BCCCD2"/>
<path fill-rule="evenodd" clip-rule="evenodd" d="M2.206 56.7885C1.65354 56.0491 1.65354 55.0342 2.206 54.2948L8.06522 46.4521L10.0618 35.2876C10.2153 34.4291 10.8873 33.7571 11.7458 33.6035L22.9103 31.607L30.7531 25.7477C31.4926 25.1952 32.5074 25.1952 33.2469 25.7477L41.0897 31.607L52.2541 33.6035C53.1126 33.7571 53.7846 34.4291 53.9381 35.2876L55.9347 46.452L61.794 54.2948C62.3464 55.0342 62.3464 56.0491 61.794 56.7886L55.9347 64.6313L53.9381 75.7958C53.7846 76.6543 53.1126 77.3264 52.2541 77.4799L41.0896 79.4764L33.2469 85.3356C32.5074 85.8881 31.4926 85.8881 30.7531 85.3356L22.9104 79.4764L11.7458 77.4799C10.8873 77.3264 10.2153 76.6543 10.0618 75.7958L8.06522 64.6312L2.206 56.7885ZM10.0292 63.7792L12.1126 75.4291L23.7624 77.5124L32 83.6667L40.2376 77.5124L51.8873 75.4291L53.9707 63.7793L60.125 55.5417L53.9707 47.304L51.8873 35.6543L40.2377 33.571L32 27.4167L23.7623 33.571L12.1126 35.6543L10.0292 47.3041L3.87499 55.5417L10.0292 63.7792Z" fill="#81A5B0"/>
<path fill-rule="evenodd" clip-rule="evenodd" d="M50.2308 36.1021C50.7971 36.0008 51.3383 36.3778 51.4396 36.9441L53.3252 47.4882L58.8761 54.9182C59.1524 55.2879 59.1524 55.7954 58.8761 56.1651L53.3252 63.5951L51.4396 74.1393C51.3628 74.5686 51.0268 74.9046 50.5976 74.9813L40.0534 76.867L32.6234 82.4178C32.1625 82.7621 31.5098 82.6677 31.1655 82.2068C30.8212 81.7459 30.9157 81.0932 31.3765 80.7488L39.0039 75.0505C39.1338 74.9535 39.2844 74.8881 39.444 74.8596L49.5165 73.0583L51.3178 62.9857C51.3463 62.8262 51.4117 62.6755 51.5087 62.5457L56.7414 55.5417L51.5087 48.5376C51.4117 48.4078 51.3463 48.2571 51.3178 48.0976L49.3888 37.3108C49.2875 36.7445 49.6645 36.2033 50.2308 36.1021Z" fill="#A2B9C1"/>
<path fill-rule="evenodd" clip-rule="evenodd" d="M32.8345 28.8765C33.1788 29.3374 33.0843 29.9902 32.6234 30.3345L24.996 36.0329C24.8661 36.1299 24.7154 36.1953 24.5559 36.2238L14.4834 38.0251L12.6821 48.0976C12.6536 48.2572 12.5882 48.4079 12.4912 48.5377L6.79282 56.1651C6.4485 56.626 5.79576 56.7205 5.33488 56.3762C4.874 56.0318 4.77951 55.3791 5.12383 54.9182L10.6747 47.4883L12.5603 36.9441C12.6371 36.5148 12.9731 36.1788 13.4023 36.1021L23.9465 34.2164L31.3765 28.6655C31.8374 28.3212 32.4902 28.4157 32.8345 28.8765Z" fill="#D0DEE3"/>
<path d="M15.7254 49.4397L11.1667 55.5417L15.7254 61.6436L17.2686 70.2731L25.8981 71.8163L32 76.375L38.1019 71.8163L46.7314 70.2731L48.2746 61.6436L52.8333 55.5417L48.2746 49.4397L46.7314 40.8103L38.102 39.2671L32 34.7083L25.898 39.2671L17.2686 40.8103L15.7254 49.4397Z" fill="#D2E2E7"/>
<path fill-rule="evenodd" clip-rule="evenodd" d="M9.49765 56.7885C8.9452 56.0491 8.9452 55.0342 9.49765 54.2948L13.7613 48.5877L15.2178 40.4436C15.3713 39.585 16.0433 38.913 16.9018 38.7595L25.046 37.3031L30.7531 33.0393C31.4926 32.4869 32.5074 32.4869 33.2469 33.0393L38.954 37.3031L47.0981 38.7595C47.9566 38.913 48.6286 39.585 48.7821 40.4435L50.2386 48.5877L54.5023 54.2948C55.0548 55.0342 55.0548 56.0491 54.5023 56.7885L50.2386 62.4956L48.7821 70.6398C48.6286 71.4983 47.9566 72.1704 47.0981 72.3239L38.9539 73.7803L33.2469 78.044C32.5074 78.5964 31.4926 78.5964 30.7531 78.044L25.0461 73.7803L16.9018 72.3239C16.0433 72.1704 15.3713 71.4983 15.2178 70.6398L13.7613 62.4956L9.49765 56.7885ZM15.7254 61.6436L17.2686 70.2731L25.8981 71.8163L32 76.375L38.1019 71.8163L46.7313 70.2731L48.2746 61.6436L52.8333 55.5417L48.2746 49.4397L46.7313 40.8103L38.102 39.2671L32 34.7083L25.898 39.2671L17.2686 40.8103L15.7254 49.4397L11.1666 55.5417L15.7254 61.6436Z" fill="#81A5B0"/>
<path fill-rule="evenodd" clip-rule="evenodd" d="M45.0748 41.258C45.6411 41.1568 46.1823 41.5337 46.2836 42.1001L47.6291 49.6239L51.5845 54.9182C51.8607 55.2879 51.8607 55.7954 51.5845 56.1651L47.6291 61.4594L46.2836 68.9833C46.2068 69.4126 45.8708 69.7486 45.4416 69.8253L37.9177 71.1708L32.6234 75.1262C32.1625 75.4705 31.5098 75.376 31.1655 74.9151C30.8212 74.4542 30.9157 73.8015 31.3765 73.4572L36.8682 69.3543C36.9981 69.2573 37.1488 69.192 37.3083 69.1634L44.3605 67.9023L45.6217 60.8501C45.6502 60.6905 45.7156 60.5398 45.8126 60.41L49.4497 55.5417L45.8126 50.6733C45.7156 50.5435 45.6502 50.3928 45.6217 50.2333L44.2328 42.4668C44.1315 41.9005 44.5085 41.3593 45.0748 41.258Z" fill="#BAD0D7"/>
<path fill-rule="evenodd" clip-rule="evenodd" d="M32.8345 36.1682C33.1788 36.6291 33.0843 37.2818 32.6234 37.6261L27.1317 41.729C27.0018 41.826 26.8511 41.8914 26.6916 41.9199L19.6394 43.1811L18.3782 50.2333C18.3497 50.3928 18.2843 50.5435 18.1873 50.6734L14.0845 56.1651C13.7402 56.626 13.0874 56.7205 12.6265 56.3761C12.1657 56.0318 12.0712 55.3791 12.4155 54.9182L16.3708 49.6239L17.7163 42.1001C17.7931 41.6708 18.1291 41.3348 18.5583 41.258L26.0822 39.9125L31.3765 35.9572C31.8374 35.6128 32.4902 35.7073 32.8345 36.1682Z" fill="#E1F4FA"/>
<path d="M38.0995 63.875H25.9168V61.458L31.6664 55.3301C32.4557 54.4674 33.0376 53.7147 33.412 53.0718C33.7944 52.4289 33.9857 51.8185 33.9857 51.2407C33.9857 50.4513 33.7863 49.8328 33.3875 49.3852C32.9888 48.9295 32.4191 48.7017 31.6786 48.7017C30.881 48.7017 30.2503 48.9783 29.7865 49.5317C29.3307 50.077 29.1029 50.7972 29.1029 51.6924H25.5628C25.5628 50.61 25.8192 49.6212 26.3319 48.7261C26.8527 47.8309 27.5851 47.131 28.5291 46.6265C29.4732 46.1138 30.5433 45.8574 31.7396 45.8574C33.5706 45.8574 34.9907 46.2969 35.9998 47.1758C37.0171 48.0547 37.5257 49.2957 37.5257 50.8989C37.5257 51.7778 37.2979 52.673 36.8421 53.5845C36.3864 54.4959 35.6052 55.5579 34.4984 56.7705L30.4579 61.0308H38.0995V63.875Z" fill="#E6F7FD"/>
<path fill-rule="evenodd" clip-rule="evenodd" d="M40.1828 63.875C40.1828 65.0256 39.25 65.9583 38.0994 65.9583H25.9168C24.7662 65.9583 23.8335 65.0256 23.8335 63.875V61.458C23.8335 60.9284 24.0352 60.4187 24.3975 60.0325L30.1379 53.9143C30.8721 53.1112 31.3429 52.485 31.6116 52.0235L31.6215 52.0066C31.8676 51.5929 31.9023 51.3484 31.9023 51.2407C31.9023 51.0181 31.8739 50.8879 31.8533 50.824C31.8498 50.8131 31.8465 50.8041 31.8435 50.7967C31.8102 50.7909 31.7568 50.785 31.6785 50.785C31.5228 50.785 31.4574 50.8113 31.4444 50.817C31.4362 50.8206 31.4306 50.824 31.4245 50.8285C31.4182 50.8333 31.4044 50.8448 31.384 50.8689C31.3157 50.9512 31.1862 51.1579 31.1862 51.6924C31.1862 52.843 30.2535 53.7757 29.1029 53.7757H25.5628C24.4122 53.7757 23.4795 52.843 23.4795 51.6924C23.4795 50.2654 23.8218 48.9168 24.524 47.6907L24.5311 47.6783C25.2519 46.4395 26.271 45.4725 27.541 44.7924C28.822 44.098 30.2386 43.7741 31.7396 43.7741C33.8863 43.7741 35.8571 44.2904 37.365 45.602C38.9268 46.9531 39.6091 48.8198 39.6091 50.8989C39.6091 52.1492 39.2828 53.3615 38.7055 54.5162C38.1279 55.6714 37.2047 56.8957 36.0371 58.175C36.0282 58.1848 36.0191 58.1945 36.01 58.2041L35.305 58.9474H38.0994C39.25 58.9474 40.1828 59.8802 40.1828 61.0308V63.875ZM30.4578 61.0308L34.4984 56.7705C35.6051 55.5579 36.3864 54.4959 36.8421 53.5845C37.2979 52.673 37.5257 51.7778 37.5257 50.8989C37.5257 49.2957 37.0171 48.0547 35.9998 47.1758C34.9907 46.2969 33.5706 45.8574 31.7396 45.8574C30.5433 45.8574 29.4731 46.1138 28.5291 46.6265C27.5851 47.131 26.8527 47.8309 26.3319 48.7261C26.1687 49.0109 26.0315 49.3052 25.9203 49.609C25.682 50.26 25.5628 50.9544 25.5628 51.6924H29.1029C29.1029 50.7972 29.3307 50.077 29.7865 49.5317C30.2503 48.9783 30.881 48.7017 31.6785 48.7017C32.4191 48.7017 32.9888 48.9295 33.3875 49.3852C33.7863 49.8328 33.9857 50.4513 33.9857 51.2407C33.9857 51.8185 33.7944 52.4289 33.4119 53.0718C33.0376 53.7147 32.4557 54.4674 31.6663 55.3301L25.9168 61.458V63.875H38.0994V61.0308H30.4578Z" fill="#81A5B0"/>
</svg>
