<svg width="84" height="68" viewBox="0 0 84 68" fill="none" xmlns="http://www.w3.org/2000/svg">
<path d="M72.7839 50.4321L80.8105 44.2186C81.3756 43.7811 81.3138 42.9217 80.6773 42.5966C77.4922 40.9696 68.9311 36.9512 59.1443 35.3028C58.5424 35.2015 58 35.67 58 36.2804L58 58.2102C58 58.7044 58.3613 59.1235 58.8486 59.2054C66.9207 60.5625 74.5196 63.6287 78.6886 65.522C79.617 65.9436 80.6042 64.8524 80.07 63.9838L72.5443 51.7468C72.2767 51.3117 72.38 50.7448 72.7839 50.4321Z" fill="#9B2EF0"/>
<path fill-rule="evenodd" clip-rule="evenodd" d="M74.7183 51.4639L82.0347 45.8001C83.7003 44.5107 83.5947 41.841 81.5871 40.8155C78.3289 39.1512 69.557 35.0284 59.4765 33.3306C57.6272 33.0192 56 34.4605 56 36.2804L56 58.2102C56 59.7002 57.0857 60.9371 58.517 61.1777C66.3415 62.4932 73.7593 65.48 77.8616 67.343C79.2704 67.9828 80.6533 67.4195 81.4138 66.5753C82.1775 65.7275 82.5972 64.2752 81.7736 62.9361L74.7183 51.4639ZM80.8105 44.2186L72.7839 50.4321C72.38 50.7448 72.2767 51.3116 72.5443 51.7467L80.07 63.9838C80.6042 64.8523 79.617 65.9436 78.6886 65.522C74.5196 63.6287 66.9207 60.5625 58.8486 59.2054C58.3613 59.1235 58 58.7043 58 58.2102L58 36.2804C58 35.67 58.5424 35.2015 59.1443 35.3028C68.9311 36.9511 77.4922 40.9696 80.6773 42.5966C81.3138 42.9217 81.3756 43.7811 80.8105 44.2186Z" fill="#6303AF"/>
<path d="M75 46.524C75 39.3847 73.8567 35.8025 73.3163 34.5081C73.151 34.1122 72.8735 33.7819 72.5106 33.5532C71.0225 32.6155 66.3981 30.4056 58.6764 32.8946C58.2719 33.0249 58 33.4065 58 33.8314L58 57.1373C58 57.797 58.63 58.2751 59.2746 58.1345C64.6288 56.9667 69.0685 57.8448 71.3601 58.5256C72.3355 58.8154 73.3968 58.44 73.7018 57.4693C74.2708 55.6586 75 52.2257 75 46.524Z" fill="#6804B7"/>
<path fill-rule="evenodd" clip-rule="evenodd" d="M77 46.524C77 39.1727 75.8226 35.3202 75.1619 33.7376C74.8397 32.9659 74.2923 32.312 73.5768 31.8611C71.662 30.6545 66.4267 28.295 58.0628 30.991C56.8134 31.3937 56 32.5581 56 33.8315L56 57.1373C56 59.1534 57.8887 60.4838 59.7008 60.0885C64.6269 59.0141 68.7098 59.8246 70.7905 60.4428C72.4737 60.9429 74.8806 60.3896 75.6098 58.0688C76.2492 56.0341 77 52.395 77 46.524ZM73.3163 34.5081C73.8567 35.8025 75 39.3847 75 46.524C75 52.2257 74.2708 55.6586 73.7018 57.4693C73.3968 58.44 72.3355 58.8154 71.3601 58.5256C69.0685 57.8448 64.6288 56.9667 59.2746 58.1345C58.63 58.2751 58 57.797 58 57.1373L58 33.8315C58 33.4065 58.2719 33.0249 58.6764 32.8946C66.3981 30.4056 71.0225 32.6155 72.5106 33.5532C72.8735 33.7819 73.151 34.1122 73.3163 34.5081Z" fill="#6303AF"/>
<path d="M11.216 50.4321L3.18951 44.2186C2.62435 43.7811 2.68615 42.9217 3.32263 42.5966C6.50779 40.9696 15.0689 36.9512 24.8556 35.3028C25.4576 35.2015 26 35.67 26 36.2804L26 58.2102C26 58.7044 25.6387 59.1235 25.1514 59.2054C17.0793 60.5625 9.48034 63.6287 5.31136 65.522C4.38294 65.9436 3.39581 64.8524 3.92997 63.9838L11.4557 51.7468C11.7233 51.3117 11.6199 50.7448 11.216 50.4321Z" fill="#9B2EF0"/>
<path fill-rule="evenodd" clip-rule="evenodd" d="M9.28167 51.4639L1.96522 45.8001C0.299621 44.5107 0.405286 41.841 2.41284 40.8155C5.67109 39.1512 14.443 35.0284 24.5235 33.3306C26.3728 33.0192 28 34.4605 28 36.2804L28 58.2102C28 59.7002 26.9142 60.9371 25.483 61.1777C17.6585 62.4932 10.2406 65.48 6.13834 67.343C4.72955 67.9828 3.34666 67.4195 2.58618 66.5753C1.82249 65.7275 1.40279 64.2752 2.22635 62.9361L9.28167 51.4639ZM3.18951 44.2186L11.216 50.4321C11.6199 50.7448 11.7233 51.3116 11.4557 51.7467L3.92997 63.9838C3.39581 64.8523 4.38294 65.9436 5.31136 65.522C9.48034 63.6287 17.0793 60.5625 25.1514 59.2054C25.6387 59.1235 26 58.7043 26 58.2102L26 36.2804C26 35.67 25.4576 35.2015 24.8556 35.3028C15.0689 36.9511 6.50779 40.9696 3.32263 42.5966C2.68615 42.9217 2.62435 43.7811 3.18951 44.2186Z" fill="#6303AF"/>
<path fill-rule="evenodd" clip-rule="evenodd" d="M25.1183 57.3816C25.182 57.9302 24.7889 58.4265 24.2403 58.4902C20.8306 58.886 17.1195 59.8496 13.9555 60.8991C10.7743 61.9543 8.23366 63.0671 7.1428 63.7274C6.67032 64.0133 6.05547 63.8621 5.76949 63.3897C5.48352 62.9172 5.63471 62.3023 6.10719 62.0164C7.39133 61.2391 10.1007 60.0706 13.3258 59.0008C16.568 57.9254 20.4194 56.9203 24.0097 56.5035C24.5583 56.4399 25.0546 56.833 25.1183 57.3816Z" fill="#B860FE"/>
<path d="M8.99997 46.524C8.99997 39.3847 10.1433 35.8025 10.6837 34.5081C10.849 34.1122 11.1264 33.7819 11.4894 33.5532C12.9774 32.6155 17.6019 30.4056 25.3236 32.8946C25.728 33.0249 26 33.4065 26 33.8314L26 57.1373C26 57.797 25.37 58.2751 24.7254 58.1345C19.3712 56.9667 14.9315 57.8448 12.6399 58.5256C11.6645 58.8154 10.6032 58.44 10.2982 57.4693C9.7292 55.6586 8.99997 52.2257 8.99997 46.524Z" fill="#6804B7"/>
<path fill-rule="evenodd" clip-rule="evenodd" d="M6.99997 46.524C6.99997 39.1727 8.17735 35.3202 8.83809 33.7376C9.16025 32.9659 9.70769 32.312 10.4231 31.8611C12.3379 30.6545 17.5733 28.295 25.9372 30.991C27.1866 31.3937 28 32.5581 28 33.8315L28 57.1373C28 59.1534 26.1113 60.4838 24.2992 60.0885C19.3731 59.0141 15.2902 59.8246 13.2095 60.4428C11.5262 60.9429 9.11935 60.3896 8.39014 58.0688C7.75079 56.0341 6.99997 52.395 6.99997 46.524ZM10.6837 34.5081C10.1433 35.8025 8.99997 39.3847 8.99997 46.524C8.99997 52.2257 9.7292 55.6586 10.2982 57.4693C10.6032 58.44 11.6645 58.8154 12.6399 58.5256C14.9315 57.8448 19.3712 56.9667 24.7254 58.1345C25.37 58.2751 26 57.797 26 57.1373L26 33.8315C26 33.4065 25.728 33.0249 25.3236 32.8946C17.6019 30.4056 12.9774 32.6155 11.4894 33.5532C11.1264 33.7819 10.849 34.1122 10.6837 34.5081Z" fill="#6303AF"/>
<path d="M9.99997 46.1218C9.99997 41.0926 10.8259 37.0957 11.2909 35.2438C11.4761 34.5065 11.9059 33.8664 12.5364 33.4416C15.4056 31.5085 24.9321 26.1218 42 26.1218C58.9686 26.1218 68.4833 31.4461 71.4128 33.4075C72.0746 33.8506 72.5196 34.5294 72.7031 35.3044C73.1671 37.2629 74 41.4321 74 46.1218C74 49.7699 73.496 53.103 73.0537 55.3255C72.7819 56.6915 71.1773 57.2915 69.9568 56.6206C65.7421 54.3039 56.1712 50.1218 42 50.1218C27.7472 50.1218 18.1478 54.3522 13.9709 56.6604C12.7716 57.3232 11.206 56.7558 10.9309 55.4134C10.4924 53.2733 9.99997 50.0054 9.99997 46.1218Z" fill="#9B2EF0"/>
<path fill-rule="evenodd" clip-rule="evenodd" d="M7.99997 46.1218C7.99997 40.8827 8.85901 36.7165 9.35115 34.7567C9.64893 33.5709 10.3541 32.5003 11.4189 31.7829C14.574 29.6572 24.4836 24.1218 42 24.1218C59.4142 24.1218 69.3104 29.5929 72.5255 31.7456C73.639 32.4912 74.3587 33.6165 74.6493 34.8434L72.7031 35.3044C72.5196 34.5294 72.0746 33.8506 71.4128 33.4075C68.4833 31.4461 58.9686 26.1218 42 26.1218C24.9321 26.1218 15.4056 31.5085 12.5364 33.4416C11.9059 33.8664 11.4761 34.5065 11.2909 35.2438C10.8259 37.0957 9.99997 41.0926 9.99997 46.1218C9.99997 50.0054 10.4924 53.2733 10.9309 55.4134C11.206 56.7558 12.7716 57.3232 13.9709 56.6604C18.1478 54.3522 27.7472 50.1218 42 50.1218C56.1712 50.1218 65.7421 54.3039 69.9568 56.6206C71.1773 57.2915 72.7819 56.6915 73.0537 55.3255C73.496 53.103 74 49.7699 74 46.1218C74 41.4321 73.1671 37.2629 72.7031 35.3044L74.6493 34.8434C75.132 36.8811 76 41.2172 76 46.1218C76 49.9425 75.4735 53.4132 75.0153 55.7159C74.4341 58.6366 71.1863 59.5786 68.9934 58.3733C65.008 56.1826 55.7664 52.1218 42 52.1218C28.1543 52.1218 18.8857 56.2295 14.9382 58.4109C12.7857 59.6004 9.56759 58.7233 8.97165 55.8149C8.51279 53.5755 7.99997 50.17 7.99997 46.1218Z" fill="#6303AF"/>
<path d="M65.9074 35.1219C65.9074 35.7688 65.3958 36.2932 64.7647 36.2932C64.1336 36.2932 63.622 35.7688 63.622 35.1219C63.622 34.4751 64.1336 33.9507 64.7647 33.9507C65.3958 33.9507 65.9074 34.4751 65.9074 35.1219Z" fill="#800CDB"/>
<path d="M60.094 31.2435C60.094 31.7681 59.6792 32.1934 59.1674 32.1934C58.6556 32.1934 58.2407 31.7681 58.2407 31.2435C58.2407 30.719 58.6556 30.2937 59.1674 30.2937C59.6792 30.2937 60.094 30.719 60.094 31.2435Z" fill="#800CDB"/>
<path d="M61.0834 35.1219C61.0834 35.9266 60.447 36.5789 59.662 36.5789C58.877 36.5789 58.2407 35.9266 58.2407 35.1219C58.2407 34.3173 58.877 33.665 59.662 33.665C60.447 33.665 61.0834 34.3173 61.0834 35.1219Z" fill="#800CDB"/>
<path d="M64.9435 39.6548C64.9435 40.4594 64.3071 41.1117 63.5221 41.1117C62.7371 41.1117 62.1008 40.4594 62.1008 39.6548C62.1008 38.8502 62.7371 38.1979 63.5221 38.1979C64.3071 38.1979 64.9435 38.8502 64.9435 39.6548Z" fill="#800CDB"/>
<path d="M67.8893 38.9263C67.8893 39.3286 67.5711 39.6548 67.1786 39.6548C66.7861 39.6548 66.468 39.3286 66.468 38.9263C66.468 38.524 66.7861 38.1979 67.1786 38.1979C67.5711 38.1979 67.8893 38.524 67.8893 38.9263Z" fill="#800CDB"/>
<path d="M60.3727 40.1833C60.3727 40.5856 60.0545 40.9117 59.662 40.9117C59.2695 40.9117 58.9514 40.5856 58.9514 40.1833C58.9514 39.781 59.2695 39.4548 59.662 39.4548C60.0545 39.4548 60.3727 39.781 60.3727 40.1833Z" fill="#800CDB"/>
<path d="M56.2251 31.0222C56.2251 31.4245 55.9069 31.7506 55.5144 31.7506C55.1219 31.7506 54.8037 31.4245 54.8037 31.0222C54.8037 30.6198 55.1219 30.2937 55.5144 30.2937C55.9069 30.2937 56.2251 30.6198 56.2251 31.0222Z" fill="#800CDB"/>
<path d="M63.622 32.1934C63.622 32.5957 63.3038 32.9219 62.9113 32.9219C62.5188 32.9219 62.2007 32.5957 62.2007 32.1934C62.2007 31.7911 62.5188 31.465 62.9113 31.465C63.3038 31.465 63.622 31.7911 63.622 32.1934Z" fill="#800CDB"/>
<path d="M67.1787 44.0112C67.1787 44.4135 66.8605 44.7397 66.468 44.7397C66.0755 44.7397 65.7574 44.4135 65.7574 44.0112C65.7574 43.6089 66.0755 43.2828 66.468 43.2828C66.8605 43.2828 67.1787 43.6089 67.1787 44.0112Z" fill="#800CDB"/>
<path d="M63.5222 44.7397C63.5222 45.142 63.204 45.4681 62.8115 45.4681C62.419 45.4681 62.1008 45.142 62.1008 44.7397C62.1008 44.3374 62.419 44.0112 62.8115 44.0112C63.204 44.0112 63.5222 44.3374 63.5222 44.7397Z" fill="#800CDB"/>
<path d="M71.7662 49.7059C71.7662 50.1082 71.448 50.4343 71.0555 50.4343C70.663 50.4343 70.3448 50.1082 70.3448 49.7059C70.3448 49.3036 70.663 48.9774 71.0555 48.9774C71.448 48.9774 71.7662 49.3036 71.7662 49.7059Z" fill="#800CDB"/>
<path d="M69.0531 35.2126C69.0531 35.6149 68.7349 35.941 68.3424 35.941C67.9499 35.941 67.6317 35.6149 67.6317 35.2126C67.6317 34.8103 67.9499 34.4841 68.3424 34.4841C68.7349 34.4841 69.0531 34.8103 69.0531 35.2126Z" fill="#800CDB"/>
<path d="M70.6096 42.0973C70.6096 42.752 70.0917 43.2828 69.453 43.2828C68.8142 43.2828 68.2964 42.752 68.2964 42.0973C68.2964 41.4425 68.8142 40.9117 69.453 40.9117C70.0917 40.9117 70.6096 41.4425 70.6096 42.0973Z" fill="#800CDB"/>
<path d="M71.7661 37.0124C71.7661 37.6671 71.2483 38.1979 70.6095 38.1979C69.9707 38.1979 69.4529 37.6671 69.4529 37.0124C69.4529 36.3576 69.9707 35.8268 70.6095 35.8268C71.2483 35.8268 71.7661 36.3576 71.7661 37.0124Z" fill="#800CDB"/>
<path d="M69.492 47.3821C69.492 48.0369 68.9742 48.5676 68.3354 48.5676C67.6967 48.5676 67.1788 48.0369 67.1788 47.3821C67.1788 46.7274 67.6967 46.1966 68.3354 46.1966C68.9742 46.1966 69.492 46.7274 69.492 47.3821Z" fill="#800CDB"/>
<path d="M72.1173 45.4681C72.1173 45.8705 71.7991 46.1966 71.4066 46.1966C71.0141 46.1966 70.6959 45.8705 70.6959 45.4681C70.6959 45.0658 71.0141 44.7397 71.4066 44.7397C71.7991 44.7397 72.1173 45.0658 72.1173 45.4681Z" fill="#800CDB"/>
<path fill-rule="evenodd" clip-rule="evenodd" d="M13.5828 35.0538C14.1036 35.2376 14.3768 35.8088 14.1929 36.3296C13.3506 38.7163 13.0373 42.1303 13.0124 45.5104C12.9931 48.1435 13.1486 50.688 13.3348 52.5885C23.6948 47.6681 47.4377 41.7431 69.8314 53.2321C70.3228 53.4842 70.5168 54.0869 70.2647 54.5783C70.0126 55.0697 69.4099 55.2636 68.9185 55.0115C46.3063 43.4105 22.1657 50.1818 12.9644 55.0074C12.6744 55.1595 12.3282 55.16 12.0378 55.0086C11.7474 54.8573 11.5495 54.5733 11.508 54.2484C11.2529 52.2501 10.9871 48.9489 11.0125 45.4957C11.0377 42.0675 11.3493 38.3773 12.307 35.664C12.4908 35.1432 13.062 34.87 13.5828 35.0538Z" fill="#B860FE"/>
<path d="M20.9081 21.2137L15 29.1218L20.9081 37.0299L22.9081 48.2138L34.0919 50.2138L42 56.1218L49.908 50.2138L61.0918 48.2138L63.0918 37.03L69 29.1218L63.0918 21.2137L61.0918 10.03L49.9081 8.02999L42 2.12183L34.0918 8.02999L22.9081 10.03L20.9081 21.2137Z" fill="#FFBB0D"/>
<path fill-rule="evenodd" clip-rule="evenodd" d="M13.3977 30.3188C12.8674 29.609 12.8674 28.6347 13.3977 27.9248L19.0226 20.3958L20.9393 9.67791C21.0867 8.85375 21.7318 8.20861 22.556 8.06122L33.2739 6.14453L40.8029 0.519596C41.5128 -0.0107638 42.4871 -0.0107638 43.197 0.519596L50.726 6.14453L61.4439 8.06122C62.2681 8.20861 62.9132 8.85375 63.0606 9.67791L64.9773 20.3958L70.6022 27.9248C71.1326 28.6347 71.1326 29.609 70.6022 30.3188L64.9773 37.8479L63.0606 48.5658C62.9132 49.39 62.2681 50.0351 61.4439 50.1825L50.726 52.0992L43.197 57.7241C42.4871 58.2544 41.5128 58.2544 40.803 57.7241L33.274 52.0992L22.556 50.1825C21.7318 50.0351 21.0867 49.39 20.9393 48.5658L19.0226 37.8478L13.3977 30.3188ZM20.9081 37.0299L22.9081 48.2138L34.0919 50.2138L42 56.1218L49.908 50.2138L61.0918 48.2138L63.0918 37.03L69 29.1218L63.0918 21.2137L61.0918 10.03L49.9081 8.02999L42 2.12183L34.0918 8.02999L22.9081 10.03L20.9081 21.2137L15 29.1218L20.9081 37.0299Z" fill="#E89B05"/>
<path fill-rule="evenodd" clip-rule="evenodd" d="M59.5016 10.4598C60.0452 10.3626 60.5648 10.7245 60.662 11.2682L62.4722 21.3905L67.8011 28.5233C68.0663 28.8783 68.0663 29.3654 67.8011 29.7203L62.4722 36.8532L60.662 46.9756C60.5883 47.3877 60.2657 47.7102 59.8536 47.7839L49.7312 49.5941L42.5985 54.9229C42.156 55.2535 41.5294 55.1628 41.1989 54.7203C40.8683 54.2779 40.959 53.6513 41.4015 53.3207L48.7237 47.8503C48.8484 47.7572 48.993 47.6944 49.1462 47.667L58.8159 45.9378L60.5451 36.2682C60.5725 36.115 60.6352 35.9703 60.7283 35.8457L65.7517 29.1218L60.7283 22.398C60.6352 22.2733 60.5725 22.1287 60.5451 21.9755L58.6932 11.6202C58.596 11.0766 58.9579 10.557 59.5016 10.4598Z" fill="#EEAD04"/>
<path fill-rule="evenodd" clip-rule="evenodd" d="M42.8011 3.52331C43.1316 3.96576 43.0409 4.59239 42.5985 4.92294L35.2761 10.3935C35.1515 10.4866 35.0068 10.5493 34.8536 10.5767L25.184 12.306L23.4548 21.9756C23.4274 22.1287 23.3647 22.2734 23.2715 22.398L17.8011 29.7203C17.4705 30.1628 16.8439 30.2535 16.4015 29.9229C15.959 29.5924 15.8683 28.9658 16.1989 28.5233L21.5277 21.3906L23.3379 11.2682C23.4116 10.8561 23.7341 10.5335 24.1462 10.4598L34.2686 8.64962L41.4015 3.32071C41.8439 2.99016 42.4705 3.08087 42.8011 3.52331Z" fill="#FFD15C"/>
<path d="M26.3763 23.264L22 29.1218L26.3763 34.9797L27.8578 43.264L36.1421 44.7455L42 49.1218L47.8578 44.7455L56.1421 43.264L57.6236 34.9797L62 29.1218L57.6236 23.2639L56.1421 14.9797L47.8579 13.4982L42 9.12183L36.1421 13.4982L27.8578 14.9797L26.3763 23.264Z" fill="#FFDD28"/>
<path fill-rule="evenodd" clip-rule="evenodd" d="M20.3977 30.3188C19.8674 29.6089 19.8674 28.6347 20.3977 27.9248L24.4909 22.4461L25.889 14.6276C26.0364 13.8035 26.6816 13.1583 27.5057 13.011L35.3242 11.6128L40.8029 7.5196C41.5128 6.98924 42.4871 6.98924 43.197 7.5196L48.6758 11.6128L56.4942 13.011C57.3183 13.1583 57.9635 13.8035 58.1108 14.6276L59.509 22.446L63.6022 27.9248C64.1326 28.6347 64.1326 29.609 63.6022 30.3188L59.509 35.7976L58.1108 43.6161C57.9635 44.4402 57.3183 45.0854 56.4942 45.2328L48.6757 46.6309L43.197 50.7241C42.4871 51.2544 41.5128 51.2544 40.803 50.7241L35.3242 46.6309L27.5057 45.2328C26.6816 45.0854 26.0364 44.4402 25.889 43.6161L24.4909 35.7976L20.3977 30.3188ZM26.3763 34.9797L27.8578 43.264L36.1421 44.7455L42 49.1218L47.8578 44.7455L56.1421 43.264L57.6236 34.9797L62 29.1218L57.6236 23.2639L56.1421 14.9797L47.8579 13.4982L42 9.12183L36.1421 13.4982L27.8578 14.9797L26.3763 23.264L22 29.1218L26.3763 34.9797Z" fill="#E89B05"/>
<path fill-rule="evenodd" clip-rule="evenodd" d="M54.5518 15.4095C55.0955 15.3123 55.615 15.6742 55.7122 16.2179L57.0039 23.4407L60.8011 28.5233C61.0663 28.8782 61.0663 29.3654 60.8011 29.7203L57.0039 34.8029L55.7122 42.0258C55.6386 42.4379 55.316 42.7604 54.9039 42.8341L47.681 44.1258L42.5985 47.9229C42.156 48.2535 41.5294 48.1628 41.1989 47.7203C40.8683 47.2779 40.959 46.6512 41.4015 46.3207L46.6735 42.382C46.7982 42.2888 46.9428 42.2261 47.096 42.1987L53.8661 40.988L55.0768 34.2179C55.1042 34.0647 55.167 33.92 55.2601 33.7954L58.7517 29.1218L55.2601 24.4482C55.167 24.3236 55.1042 24.1789 55.0768 24.0257L53.7435 16.5699C53.6463 16.0263 54.0082 15.5067 54.5518 15.4095Z" fill="#ECC704"/>
<path fill-rule="evenodd" clip-rule="evenodd" d="M42.8011 10.5233C43.1316 10.9658 43.0409 11.5924 42.5985 11.9229L37.3264 15.8617C37.2017 15.9548 37.0571 16.0176 36.9039 16.045L30.1338 17.2557L28.9231 24.0258C28.8957 24.179 28.8329 24.3236 28.7398 24.4483L24.8011 29.7203C24.4705 30.1628 23.8439 30.2535 23.4015 29.9229C22.959 29.5924 22.8683 28.9658 23.1989 28.5233L26.996 23.4408L28.2876 16.2179C28.3613 15.8058 28.6839 15.4832 29.096 15.4096L36.3189 14.1179L41.4015 10.3207C41.8439 9.99016 42.4705 10.0809 42.8011 10.5233Z" fill="#FFEF9C"/>
<path fill-rule="evenodd" clip-rule="evenodd" d="M36.7073 18.9147C37.0978 19.3052 37.0978 19.9384 36.7073 20.3289C36.5698 20.4664 36.4823 20.6287 36.4319 20.8054C36.5317 20.7626 36.6334 20.722 36.7372 20.6837C37.2553 20.4924 37.8303 20.7574 38.0216 21.2755C38.2129 21.7935 37.948 22.3686 37.4299 22.5599C36.2538 22.9942 35.3995 23.8808 34.8283 24.94C34.2524 26.0082 34.0002 27.1908 34.0002 28.0834C34.0002 29.8978 34.7706 31.836 35.9468 33.5313C37.1235 35.2274 38.629 36.5682 39.9474 37.2274C40.4414 37.4744 40.6416 38.0751 40.3946 38.569C40.1476 39.063 39.547 39.2632 39.053 39.0163C38.3715 38.6755 37.6797 38.2106 37.0098 37.6512C36.978 37.6582 36.9439 37.6654 36.9073 37.6727C36.6716 37.7198 36.3348 37.7721 35.8894 37.8064C34.9983 37.8749 33.675 37.8712 31.8588 37.6118C31.3121 37.5337 30.9322 37.0271 31.0103 36.4804C31.0884 35.9337 31.5949 35.5538 32.1416 35.6319C33.4621 35.8205 34.4707 35.8589 35.1984 35.8395C34.8842 35.467 34.5844 35.0762 34.3036 34.6714C34.2998 34.6659 34.296 34.6604 34.2921 34.6549C34.2271 34.6613 34.1545 34.6678 34.075 34.6737C33.7276 34.6998 33.2432 34.7171 32.6878 34.6824C31.6002 34.6144 30.1243 34.3399 28.9002 33.4218C28.4584 33.0905 28.3688 32.4637 28.7002 32.0218C29.0316 31.58 29.6584 31.4905 30.1002 31.8218C30.8761 32.4038 31.9002 32.6292 32.8126 32.6863C32.9285 32.6935 33.0407 32.6979 33.1482 32.7001C33.0289 32.4533 32.9168 32.2025 32.813 31.9485C32.7418 31.9233 32.6627 31.8945 32.5765 31.862C32.195 31.7179 31.6709 31.4981 31.0948 31.1931C29.9648 30.5949 28.5291 29.6136 27.6427 28.1363C27.3586 27.6627 27.5121 27.0485 27.9857 26.7643C28.4593 26.4802 29.0736 26.6337 29.3577 27.1073C29.9713 28.1301 31.0356 28.8988 32.0306 29.4255C32.057 29.4395 32.0833 29.4533 32.1095 29.4669C32.0406 29.0238 32.0028 28.5773 32.0003 28.13C31.9703 28.1069 31.9391 28.0827 31.9068 28.0573C31.5943 27.8124 31.1718 27.4577 30.7306 27.0164C29.8758 26.1616 28.8286 24.8627 28.5196 23.3179C28.4113 22.7764 28.7625 22.2496 29.3041 22.1412C29.8457 22.0329 30.3725 22.3842 30.4808 22.9257C30.6718 23.881 31.3746 24.832 32.1448 25.6022C32.21 25.6674 32.2748 25.7304 32.3387 25.7911C32.4388 25.4412 32.5619 25.0885 32.7092 24.7399C32.7031 24.7332 32.6968 24.7262 32.6902 24.7188C32.6363 24.6583 32.5645 24.5739 32.4824 24.4676C32.3191 24.2563 32.1095 23.9515 31.9183 23.569C31.5372 22.8068 31.2044 21.682 31.5301 20.3793C31.664 19.8435 32.207 19.5177 32.7428 19.6517C33.2786 19.7856 33.6043 20.3286 33.4704 20.8644C33.296 21.5616 33.4633 22.1868 33.7071 22.6746C33.7394 22.7392 33.7727 22.8004 33.8059 22.858C34.0071 22.6007 34.2275 22.3532 34.4679 22.1201C34.4643 22.1033 34.4607 22.0859 34.4571 22.0679C34.4163 21.8638 34.3752 21.5777 34.3752 21.2468C34.3752 20.5927 34.5394 19.6684 35.2931 18.9147C35.6836 18.5242 36.3168 18.5242 36.7073 18.9147Z" fill="#E89B05"/>
<path fill-rule="evenodd" clip-rule="evenodd" d="M47.2931 18.9147C47.6836 18.5242 48.3168 18.5242 48.7073 18.9147C49.461 19.6684 49.6252 20.5927 49.6252 21.2468C49.6252 21.5777 49.5841 21.8638 49.5433 22.0679C49.5397 22.0859 49.5361 22.1033 49.5325 22.1201C49.773 22.3532 49.9933 22.6007 50.1945 22.858C50.2278 22.8004 50.261 22.7392 50.2933 22.6746C50.5372 22.1868 50.7044 21.5616 50.5301 20.8644C50.3961 20.3286 50.7219 19.7856 51.2577 19.6517C51.7935 19.5177 52.3364 19.8435 52.4704 20.3793C52.796 21.682 52.4633 22.8068 52.0821 23.569C51.8909 23.9515 51.6814 24.2563 51.5181 24.4676C51.4359 24.5739 51.3642 24.6583 51.3102 24.7188C51.3036 24.7262 51.2973 24.7332 51.2913 24.7399C51.4386 25.0885 51.5617 25.4412 51.6617 25.7911C51.7257 25.7304 51.7905 25.6674 51.8556 25.6022C52.6258 24.832 53.3286 23.881 53.5196 22.9257C53.628 22.3842 54.1548 22.0329 54.6963 22.1412C55.2379 22.2496 55.5891 22.7764 55.4808 23.3179C55.1719 24.8627 54.1247 26.1616 53.2698 27.0164C52.8286 27.4577 52.4061 27.8124 52.0937 28.0573C52.0613 28.0827 52.0301 28.1069 52.0001 28.13C51.9976 28.5773 51.9598 29.0238 51.8909 29.4669C51.9171 29.4533 51.9434 29.4395 51.9698 29.4255C52.9648 28.8988 54.0291 28.1301 54.6427 27.1073C54.9269 26.6337 55.5411 26.4802 56.0147 26.7643C56.4883 27.0485 56.6419 27.6627 56.3577 28.1363C55.4713 29.6136 54.0357 30.5949 52.9056 31.1931C52.3295 31.4981 51.8055 31.7179 51.4239 31.862C51.3378 31.8945 51.2586 31.9233 51.1874 31.9485C51.0836 32.2025 50.9716 32.4533 50.8522 32.7001C50.9597 32.6979 51.0719 32.6935 51.1878 32.6863C52.1003 32.6292 53.1243 32.4038 53.9002 31.8218C54.342 31.4905 54.9688 31.58 55.3002 32.0218C55.6316 32.4637 55.542 33.0905 55.1002 33.4218C53.8761 34.3399 52.4002 34.6144 51.3126 34.6824C50.7573 34.7171 50.2728 34.6998 49.9254 34.6737C49.846 34.6678 49.7733 34.6613 49.7083 34.6549C49.7045 34.6604 49.7007 34.6659 49.6968 34.6714C49.416 35.0762 49.1162 35.467 48.802 35.8395C49.5298 35.8589 50.5383 35.8205 51.8588 35.6319C52.4055 35.5538 52.9121 35.9337 52.9902 36.4804C53.0683 37.0271 52.6884 37.5337 52.1416 37.6118C50.3255 37.8712 49.0021 37.8749 48.111 37.8064C47.6656 37.7721 47.3288 37.7198 47.0932 37.6727C47.0565 37.6654 47.0224 37.6582 46.9907 37.6512C46.3207 38.2106 45.6289 38.6755 44.9474 39.0163C44.4535 39.2632 43.8528 39.063 43.6058 38.569C43.3588 38.0751 43.559 37.4744 44.053 37.2274C45.3715 36.5682 46.8769 35.2274 48.0536 33.5313C49.2298 31.836 50.0002 29.8978 50.0002 28.0834C50.0002 27.1908 49.7481 26.0082 49.1721 24.94C48.601 23.8808 47.7466 22.9942 46.5705 22.5599C46.0524 22.3686 45.7875 21.7935 45.9788 21.2755C46.1701 20.7574 46.7452 20.4924 47.2633 20.6837C47.367 20.722 47.4687 20.7626 47.5686 20.8054C47.5181 20.6287 47.4306 20.4664 47.2931 20.3289C46.9026 19.9384 46.9026 19.3052 47.2931 18.9147Z" fill="#E89B05"/>
</svg>
