<svg width="64" height="86" viewBox="0 0 64 86" fill="none" xmlns="http://www.w3.org/2000/svg">
<path d="M57 2.41666L7 2.41666C4.69882 2.41666 2.83334 4.28214 2.83334 6.58332L2.83334 16.1771C2.83334 19.2492 4.52353 22.0721 7.23149 23.5228L28.0648 34.6835C30.523 36.0004 33.477 36.0004 35.9352 34.6835L56.7685 23.5228C59.4765 22.0721 61.1667 19.2492 61.1667 16.1771L61.1667 6.58332C61.1667 4.28214 59.3012 2.41666 57 2.41666Z" fill="#9B2EF0"/>
<path fill-rule="evenodd" clip-rule="evenodd" d="M7 0.333328L57 0.333328C60.4518 0.333328 63.25 3.13155 63.25 6.58333L63.25 16.1772C63.25 20.0172 61.1373 23.5459 57.7523 25.3592L36.919 36.52C33.8462 38.1661 30.1538 38.1661 27.081 36.52L6.24769 25.3592C2.86274 23.5459 0.75 20.0172 0.75 16.1772L0.75 6.58333C0.75 3.13155 3.54822 0.333328 7 0.333328ZM7 2.41666L57 2.41666C59.3012 2.41666 61.1667 4.28214 61.1667 6.58333L61.1667 16.1772C61.1667 19.2492 59.4765 22.0721 56.7685 23.5228L35.9352 34.6835C33.477 36.0004 30.523 36.0004 28.0648 34.6835L7.23149 23.5228C4.52353 22.0721 2.83333 19.2492 2.83333 16.1772L2.83333 6.58333C2.83333 4.28214 4.69881 2.41666 7 2.41666Z" fill="#6303AF"/>
<path fill-rule="evenodd" clip-rule="evenodd" d="M4.91667 5.54167C5.49196 5.54167 5.95833 6.00804 5.95833 6.58334L5.95833 15.4058C5.95833 17.2973 6.98381 19.0401 8.63728 19.9587L28.86 31.1936C29.3629 31.473 29.5441 32.1072 29.2647 32.6101C28.9854 33.113 28.3512 33.2941 27.8483 33.0148L7.62552 21.7799C5.31067 20.4939 3.875 18.0539 3.875 15.4058L3.875 6.58334C3.875 6.00804 4.34137 5.54167 4.91667 5.54167Z" fill="#B860FE"/>
<path d="M53.3897 6.07571C53.3897 6.66556 52.9232 7.14374 52.3477 7.14374C51.7723 7.14374 51.3057 6.66556 51.3057 6.07571C51.3057 5.48585 51.7723 5.00768 52.3477 5.00768C52.9232 5.00768 53.3897 5.48585 53.3897 6.07571Z" fill="#800CDB"/>
<path d="M49.7301 6.3362C49.7301 7.06992 49.1498 7.66473 48.4339 7.66473C47.7181 7.66473 47.1378 7.06992 47.1378 6.3362C47.1378 5.60248 47.7181 5.00768 48.4339 5.00768C49.1498 5.00768 49.7301 5.60248 49.7301 6.3362Z" fill="#800CDB"/>
<path d="M52.9728 10.1394C52.9728 10.8732 52.3925 11.468 51.6767 11.468C50.9609 11.468 50.3806 10.8732 50.3806 10.1394C50.3806 9.40571 50.9609 8.81091 51.6767 8.81091C52.3925 8.81091 52.9728 9.40571 52.9728 10.1394Z" fill="#800CDB"/>
<path d="M55.9362 8.329C55.9362 8.69586 55.6461 8.99326 55.2881 8.99326C54.9302 8.99326 54.6401 8.69586 54.6401 8.329C54.6401 7.96213 54.9302 7.66473 55.2881 7.66473C55.6461 7.66473 55.9362 7.96213 55.9362 8.329Z" fill="#800CDB"/>
<path d="M49.0819 9.47518C49.0819 9.84204 48.7918 10.1394 48.4339 10.1394C48.0759 10.1394 47.7858 9.84204 47.7858 9.47518C47.7858 9.10831 48.0759 8.81091 48.4339 8.81091C48.7918 8.81091 49.0819 9.10831 49.0819 9.47518Z" fill="#800CDB"/>
<path d="M45.4706 5.41144C45.4706 5.7783 45.1805 6.0757 44.8225 6.0757C44.4646 6.0757 44.1745 5.7783 44.1745 5.41144C44.1745 5.04458 44.4646 4.74718 44.8225 4.74718C45.1805 4.74718 45.4706 5.04458 45.4706 5.41144Z" fill="#800CDB"/>
<path d="M55.2881 12.9658C55.2881 13.3327 54.998 13.6301 54.6401 13.6301C54.2821 13.6301 53.992 13.3327 53.992 12.9658C53.992 12.5989 54.2821 12.3015 54.6401 12.3015C54.998 12.3015 55.2881 12.5989 55.2881 12.9658Z" fill="#800CDB"/>
<path d="M51.9538 13.6301C51.9538 13.9969 51.6637 14.2943 51.3057 14.2943C50.9478 14.2943 50.6577 13.9969 50.6577 13.6301C50.6577 13.2632 50.9478 12.9658 51.3057 12.9658C51.6637 12.9658 51.9538 13.2632 51.9538 13.6301Z" fill="#800CDB"/>
<path d="M56.9973 4.94249C56.9973 5.30935 56.7072 5.60675 56.3493 5.60675C55.9914 5.60675 55.7012 5.30935 55.7012 4.94249C55.7012 4.57563 55.9914 4.27823 56.3493 4.27823C56.7072 4.27823 56.9973 4.57563 56.9973 4.94249Z" fill="#800CDB"/>
<path d="M58.4166 11.2205C58.4166 11.8175 57.9444 12.3015 57.3619 12.3015C56.7795 12.3015 56.3073 11.8175 56.3073 11.2205C56.3073 10.6234 56.7795 10.1394 57.3619 10.1394C57.9444 10.1394 58.4166 10.6234 58.4166 11.2205Z" fill="#800CDB"/>
<path d="M59.4713 6.58368C59.4713 7.18073 58.9991 7.66473 58.4166 7.66473C57.8341 7.66473 57.3619 7.18073 57.3619 6.58368C57.3619 5.98663 57.8341 5.50262 58.4166 5.50262C58.9991 5.50262 59.4713 5.98663 59.4713 6.58368Z" fill="#800CDB"/>
<path d="M57.3975 16.0396C57.3975 16.6367 56.9253 17.1207 56.3428 17.1207C55.7604 17.1207 55.2882 16.6367 55.2882 16.0396C55.2882 15.4426 55.7604 14.9586 56.3428 14.9586C56.9253 14.9586 57.3975 15.4426 57.3975 16.0396Z" fill="#800CDB"/>
<path d="M59.7915 14.2943C59.7915 14.6612 59.5014 14.9586 59.1435 14.9586C58.7856 14.9586 58.4954 14.6612 58.4954 14.2943C58.4954 13.9275 58.7856 13.6301 59.1435 13.6301C59.5014 13.6301 59.7915 13.9275 59.7915 14.2943Z" fill="#800CDB"/>
<path d="M10.0293 47.3041L3.875 55.5417L10.0293 63.7792L12.1126 75.4291L23.7624 77.5124L32 83.6667L40.2376 77.5124L51.8873 75.4291L53.9707 63.7793L60.125 55.5417L53.9707 47.304L51.8873 35.6543L40.2377 33.571L32 27.4167L23.7623 33.571L12.1126 35.6543L10.0293 47.3041Z" fill="#DCA16A"/>
<path fill-rule="evenodd" clip-rule="evenodd" d="M2.20601 56.7885C1.65355 56.0491 1.65355 55.0342 2.20601 54.2948L8.06523 46.4521L10.0618 35.2876C10.2153 34.4291 10.8873 33.7571 11.7458 33.6035L22.9103 31.607L30.7531 25.7477C31.4926 25.1952 32.5074 25.1952 33.2469 25.7477L41.0897 31.607L52.2541 33.6035C53.1126 33.7571 53.7846 34.4291 53.9381 35.2876L55.9347 46.452L61.794 54.2948C62.3464 55.0342 62.3464 56.0491 61.794 56.7886L55.9347 64.6313L53.9381 75.7958C53.7846 76.6543 53.1126 77.3264 52.2541 77.4799L41.0896 79.4764L33.2469 85.3356C32.5074 85.8881 31.4926 85.8881 30.7531 85.3356L22.9104 79.4764L11.7458 77.4799C10.8873 77.3264 10.2153 76.6543 10.0618 75.7958L8.06523 64.6312L2.20601 56.7885ZM10.0292 63.7792L12.1126 75.4291L23.7624 77.5124L32 83.6667L40.2376 77.5124L51.8873 75.4291L53.9707 63.7793L60.125 55.5417L53.9707 47.304L51.8873 35.6543L40.2377 33.571L32 27.4167L23.7623 33.571L12.1126 35.6543L10.0292 47.3041L3.875 55.5417L10.0292 63.7792Z" fill="#C38144"/>
<path fill-rule="evenodd" clip-rule="evenodd" d="M50.2308 36.1021C50.7971 36.0008 51.3383 36.3778 51.4396 36.9441L53.3252 47.4882L58.8762 54.9182C59.1524 55.2879 59.1524 55.7954 58.8762 56.1651L53.3252 63.5951L51.4396 74.1393C51.3628 74.5686 51.0268 74.9046 50.5976 74.9813L40.0534 76.867L32.6234 82.4178C32.1626 82.7621 31.5098 82.6677 31.1655 82.2068C30.8212 81.7459 30.9157 81.0932 31.3765 80.7488L39.0039 75.0505C39.1338 74.9535 39.2845 74.8881 39.444 74.8596L49.5165 73.0583L51.3178 62.9857C51.3463 62.8262 51.4117 62.6755 51.5087 62.5457L56.7414 55.5417L51.5087 48.5376C51.4117 48.4078 51.3463 48.2571 51.3178 48.0976L49.3888 37.3108C49.2875 36.7445 49.6645 36.2033 50.2308 36.1021Z" fill="#CF945D"/>
<path fill-rule="evenodd" clip-rule="evenodd" d="M32.8345 28.8765C33.1788 29.3374 33.0843 29.9902 32.6235 30.3345L24.996 36.0329C24.8661 36.1299 24.7154 36.1953 24.5559 36.2238L14.4834 38.0251L12.6821 48.0976C12.6536 48.2572 12.5882 48.4079 12.4912 48.5377L6.79283 56.1651C6.44851 56.626 5.79577 56.7205 5.33489 56.3762C4.87401 56.0318 4.77952 55.3791 5.12384 54.9182L10.6747 47.4883L12.5603 36.9441C12.6371 36.5148 12.9731 36.1788 13.4024 36.1021L23.9465 34.2164L31.3766 28.6655C31.8374 28.3212 32.4902 28.4157 32.8345 28.8765Z" fill="#F0B57F"/>
<path d="M15.7254 49.4397L11.1667 55.5417L15.7254 61.6436L17.2686 70.2731L25.8981 71.8163L32 76.375L38.1019 71.8163L46.7314 70.2731L48.2746 61.6436L52.8333 55.5417L48.2746 49.4397L46.7314 40.8103L38.102 39.2671L32 34.7083L25.898 39.2671L17.2686 40.8103L15.7254 49.4397Z" fill="#F7BA82"/>
<path fill-rule="evenodd" clip-rule="evenodd" d="M9.49767 56.7885C8.94521 56.0491 8.94521 55.0342 9.49767 54.2948L13.7613 48.5877L15.2178 40.4436C15.3713 39.585 16.0433 38.913 16.9018 38.7595L25.046 37.3031L30.7531 33.0393C31.4926 32.4869 32.5074 32.4869 33.2469 33.0393L38.954 37.3031L47.0981 38.7595C47.9566 38.913 48.6286 39.585 48.7822 40.4435L50.2386 48.5877L54.5023 54.2948C55.0548 55.0342 55.0548 56.0491 54.5023 56.7885L50.2386 62.4956L48.7822 70.6398C48.6286 71.4983 47.9566 72.1704 47.0981 72.3239L38.9539 73.7803L33.2469 78.044C32.5074 78.5964 31.4926 78.5964 30.7531 78.044L25.0461 73.7803L16.9018 72.3239C16.0433 72.1704 15.3713 71.4983 15.2178 70.6398L13.7613 62.4956L9.49767 56.7885ZM15.7254 61.6436L17.2686 70.2731L25.8981 71.8163L32 76.375L38.1019 71.8163L46.7314 70.2731L48.2746 61.6436L52.8333 55.5417L48.2746 49.4397L46.7314 40.8103L38.102 39.2671L32 34.7083L25.898 39.2671L17.2686 40.8103L15.7254 49.4397L11.1667 55.5417L15.7254 61.6436Z" fill="#C28044"/>
<path fill-rule="evenodd" clip-rule="evenodd" d="M45.0748 41.258C45.6412 41.1568 46.1823 41.5337 46.2836 42.1001L47.6291 49.6239L51.5845 54.9182C51.8607 55.2879 51.8607 55.7954 51.5845 56.1651L47.6291 61.4594L46.2836 68.9833C46.2069 69.4126 45.8708 69.7486 45.4416 69.8253L37.9177 71.1708L32.6234 75.1262C32.1626 75.4705 31.5098 75.376 31.1655 74.9151C30.8212 74.4542 30.9157 73.8015 31.3766 73.4572L36.8683 69.3543C36.9981 69.2573 37.1488 69.192 37.3083 69.1634L44.3606 67.9023L45.6217 60.8501C45.6502 60.6905 45.7156 60.5398 45.8126 60.41L49.4497 55.5417L45.8126 50.6733C45.7156 50.5435 45.6502 50.3928 45.6217 50.2333L44.2328 42.4668C44.1316 41.9005 44.5085 41.3593 45.0748 41.258Z" fill="#E5A66C"/>
<path fill-rule="evenodd" clip-rule="evenodd" d="M32.8345 36.1682C33.1788 36.6291 33.0843 37.2818 32.6234 37.6261L27.1317 41.729C27.0018 41.826 26.8511 41.8914 26.6916 41.9199L19.6394 43.1811L18.3782 50.2333C18.3497 50.3928 18.2843 50.5435 18.1873 50.6734L14.0845 56.1651C13.7402 56.626 13.0874 56.7205 12.6265 56.3761C12.1657 56.0318 12.0712 55.3791 12.4155 54.9182L16.3708 49.6239L17.7163 42.1001C17.7931 41.6708 18.1291 41.3348 18.5583 41.258L26.0822 39.9125L31.3765 35.9572C31.8374 35.6128 32.4902 35.7073 32.8345 36.1682Z" fill="#FFD5AE"/>
<path d="M29.5057 53.4258H31.3856C32.2808 53.4258 32.944 53.202 33.3753 52.7544C33.8066 52.3068 34.0223 51.7127 34.0223 50.9722C34.0223 50.256 33.8066 49.6986 33.3753 49.2998C32.9521 48.901 32.3662 48.7017 31.6175 48.7017C30.9421 48.7017 30.3765 48.8888 29.9207 49.2632C29.465 49.6294 29.2371 50.1095 29.2371 50.7036H25.7093C25.7093 49.7759 25.9575 48.9458 26.4539 48.2134C26.9585 47.4728 27.6584 46.895 28.5536 46.48C29.4569 46.0649 30.4497 45.8574 31.5321 45.8574C33.4119 45.8574 34.8849 46.3091 35.951 47.2124C37.0171 48.1076 37.5501 49.3446 37.5501 50.9233C37.5501 51.7371 37.3019 52.4858 36.8055 53.1694C36.3091 53.853 35.658 54.3779 34.8524 54.7441C35.8534 55.1022 36.598 55.6393 37.0863 56.3555C37.5827 57.0716 37.8309 57.918 37.8309 58.8945C37.8309 60.4733 37.2531 61.7388 36.0975 62.6909C34.95 63.6431 33.4282 64.1191 31.5321 64.1191C29.758 64.1191 28.3053 63.6512 27.1742 62.7153C26.0511 61.7794 25.4896 60.5425 25.4896 59.0044H29.0174C29.0174 59.6717 29.2656 60.2169 29.762 60.6401C30.2666 61.0633 30.8851 61.2749 31.6175 61.2749C32.4557 61.2749 33.1108 61.0552 33.5828 60.6157C34.063 60.1681 34.3031 59.5781 34.3031 58.8457C34.3031 57.0716 33.3265 56.1846 31.3734 56.1846H29.5057V53.4258Z" fill="#FFD5AE"/>
<path fill-rule="evenodd" clip-rule="evenodd" d="M27.5221 52.7869H25.7093C24.5587 52.7869 23.626 51.8542 23.626 50.7036C23.626 49.3805 23.9875 48.1392 24.7294 47.0445L24.7322 47.0403C25.4697 45.9579 26.4762 45.1467 27.6772 44.5899L27.6838 44.5869C28.8834 44.0357 30.1764 43.7741 31.5321 43.7741C33.7323 43.7741 35.7396 44.3044 37.2943 45.6199C38.8959 46.9666 39.6335 48.8231 39.6335 50.9233C39.6335 52.1945 39.2356 53.3686 38.4912 54.3936C38.4431 54.4599 38.3939 54.5252 38.3437 54.5894C38.5076 54.7725 38.661 54.9676 38.8029 55.1751C39.5666 56.2797 39.9142 57.5497 39.9142 58.8945C39.9142 61.0555 39.0884 62.9246 37.4252 64.2963C35.8122 65.6336 33.7779 66.2025 31.5321 66.2025C29.3781 66.2025 27.4245 65.6263 25.8461 64.3205L25.8404 64.3158C24.2147 62.961 23.4062 61.1238 23.4062 59.0044C23.4062 57.8538 24.339 56.9211 25.4896 56.9211H27.5563C27.4697 56.6921 27.4224 56.4438 27.4224 56.1846V53.4258C27.4224 53.2029 27.4574 52.9882 27.5221 52.7869ZM30.9668 58.2679C31.0534 58.4969 31.1007 58.7451 31.1007 59.0044C31.1007 59.0218 31.1015 59.0351 31.1024 59.0447C31.1041 59.0463 31.1059 59.048 31.108 59.0498C31.1947 59.1207 31.3243 59.1916 31.6175 59.1916C31.8578 59.1916 32.0009 59.1598 32.075 59.1349C32.1367 59.1142 32.157 59.0967 32.1623 59.0918M30.9668 58.2679H31.3734C31.8911 58.2679 32.1022 58.3569 32.1598 58.3878C32.1611 58.391 32.1625 58.3948 32.1642 58.3992C32.1836 58.4523 32.2197 58.5879 32.2197 58.8457C32.2197 58.9826 32.1978 59.0412 32.1933 59.0523C32.1905 59.0592 32.1884 59.0626 32.1865 59.0654C32.1845 59.0683 32.1775 59.0776 32.1623 59.0918M36.0975 62.6909C37.2531 61.7388 37.8309 60.4733 37.8309 58.8945C37.8309 57.918 37.5827 57.0716 37.0863 56.3555C37.0059 56.2376 36.9185 56.1245 36.8243 56.0163C36.3459 55.4673 35.6886 55.0433 34.8524 54.7441C35.6059 54.4016 36.2242 53.9203 36.7072 53.3001C36.7406 53.2572 36.7734 53.2136 36.8055 53.1694C37.3019 52.4858 37.5501 51.7371 37.5501 50.9233C37.5501 49.3446 37.0171 48.1076 35.951 47.2124C34.8849 46.3091 33.4119 45.8574 31.5321 45.8574C30.4497 45.8574 29.4569 46.0649 28.5535 46.48C27.6584 46.895 26.9585 47.4728 26.4539 48.2134C26.3642 48.3458 26.2825 48.4814 26.209 48.6203C25.8759 49.2492 25.7093 49.9436 25.7093 50.7036H29.2371C29.2371 50.1095 29.465 49.6294 29.9207 49.2632C30.3765 48.8888 30.9421 48.7017 31.6175 48.7017C32.3662 48.7017 32.9521 48.901 33.3753 49.2998C33.8066 49.6986 34.0223 50.256 34.0223 50.9722C34.0223 51.7127 33.8066 52.3068 33.3753 52.7544C32.944 53.202 32.2808 53.4258 31.3856 53.4258H29.5057V56.1846H31.3734C33.3265 56.1846 34.3031 57.0716 34.3031 58.8457C34.3031 59.5781 34.063 60.1681 33.5828 60.6157C33.1108 61.0552 32.4557 61.2749 31.6175 61.2749C30.8851 61.2749 30.2666 61.0633 29.762 60.6401C29.2656 60.217 29.0174 59.6717 29.0174 59.0044H25.4896C25.4896 59.7743 25.6303 60.4687 25.9117 61.0877C26.1924 61.7054 26.6132 62.2479 27.1742 62.7153C28.3053 63.6512 29.758 64.1191 31.5321 64.1191C33.4282 64.1191 34.95 63.6431 36.0975 62.6909ZM31.2207 51.3424C31.2732 51.1792 31.3062 51.0071 31.3168 50.829C31.3719 50.8063 31.463 50.785 31.6175 50.785C31.7836 50.785 31.8812 50.8043 31.9286 50.8177C31.9338 50.8503 31.939 50.9006 31.939 50.9722C31.939 51.1408 31.9145 51.2285 31.9023 51.2622C31.8994 51.2702 31.8967 51.2766 31.8941 51.2819C31.8923 51.2826 31.8904 51.2833 31.8883 51.2839C31.8216 51.3065 31.6667 51.3424 31.3856 51.3424H31.2207Z" fill="#C28044"/>
</svg>
