<svg width="71" height="62" viewBox="0 0 71 62" fill="none" xmlns="http://www.w3.org/2000/svg">
<path fill-rule="evenodd" clip-rule="evenodd" d="M24.0427 32.1205V62H0V40.8353C0 30.0455 2.43732 21.0817 7.31197 13.9438C12.1866 6.80589 19.416 2.15797 29 0V10.2088C23.8775 11.5368 19.8704 14.1513 16.9786 18.0522C14.0869 21.9531 12.3932 26.6426 11.8974 32.1205H24.0427ZM66.0847 32.1205V62H42V40.8353C42 30.0455 44.4576 21.0817 49.3729 13.9438C54.2881 6.80589 61.4972 2.15797 71 0V10.2088C65.7571 11.5368 61.7429 14.1513 58.9576 18.0522C56.1723 21.9531 54.5339 26.6426 54.0424 32.1205H66.0847Z" fill="#34296B"/>
</svg>
