<svg width="118" height="118" viewBox="0 0 118 118" fill="none" xmlns="http://www.w3.org/2000/svg">
<path d="M69.1832 37.9395C68.8438 37.3516 68.0921 37.1502 67.5042 37.4896L44.0854 51.0104C43.4975 51.3498 43.296 52.1016 43.6355 52.6895L73.8309 104.989C74.3217 105.84 75.5621 105.8 75.9972 104.92L82.4732 91.8221C82.6932 91.3773 83.159 91.1083 83.6542 91.1403L98.235 92.0806C99.2147 92.1438 99.8695 91.0896 99.3786 90.2394L69.1832 37.9395Z" fill="#E16104"/>
<path fill-rule="evenodd" clip-rule="evenodd" d="M66.275 35.3606L42.8562 48.8814C41.0925 49.8997 40.4882 52.1549 41.5065 53.9186L71.7019 106.219C73.1745 108.769 76.8955 108.649 78.2009 106.009L84.3137 93.6462L98.0768 94.5339C101.016 94.7234 102.98 91.5609 101.508 89.0103L71.3122 36.7103C70.2939 34.9466 68.0387 34.3423 66.275 35.3606ZM67.5042 37.4896C68.0921 37.1501 68.8438 37.3516 69.1832 37.9395L99.3786 90.2394C99.8695 91.0896 99.2147 92.1438 98.235 92.0806L83.6542 91.1403C83.159 91.1083 82.6932 91.3773 82.4732 91.8221L75.9972 104.92C75.5621 105.8 74.3217 105.84 73.8309 104.989L43.6355 52.6895C43.2961 52.1016 43.4975 51.3498 44.0854 51.0104L67.5042 37.4896Z" fill="#BD4501"/>
<path fill-rule="evenodd" clip-rule="evenodd" d="M63.08 81.3362C63.6705 81.0014 64.4207 81.2087 64.7555 81.7993L75.818 101.312C76.1528 101.903 75.9454 102.653 75.3549 102.988C74.7643 103.323 74.0142 103.115 73.6794 102.525L62.6169 83.0117C62.2821 82.4211 62.4894 81.671 63.08 81.3362Z" fill="#FA7616"/>
<path d="M88.0156 78.0818C87.4128 78.4298 86.6489 78.2352 86.3094 77.6471C85.9699 77.059 86.1833 76.3002 86.7861 75.9522C87.3889 75.6041 88.1528 75.7988 88.4923 76.3868C88.8318 76.9749 88.6184 77.7338 88.0156 78.0818Z" fill="#C14600"/>
<path d="M85.5902 74.4956C84.8404 74.9285 83.8902 74.6864 83.4679 73.9549C83.0455 73.2234 83.311 72.2795 84.0608 71.8466C84.8106 71.4137 85.7608 71.6558 86.1831 72.3873C86.6055 73.1188 86.34 74.0627 85.5902 74.4956Z" fill="#C14600"/>
<path d="M83.6169 80.0534C82.8671 80.4863 81.9169 80.2442 81.4945 79.5127C81.0722 78.7812 81.3377 77.8372 82.0875 77.4043C82.8373 76.9714 83.7875 77.2135 84.2098 77.945C84.6322 78.6765 84.3667 79.6205 83.6169 80.0534Z" fill="#C14600"/>
<path d="M87.2154 82.0135C86.8405 82.2299 86.3654 82.1089 86.1542 81.7431C85.9431 81.3774 86.0758 80.9054 86.4507 80.689C86.8256 80.4725 87.3007 80.5936 87.5119 80.9593C87.723 81.3251 87.5903 81.797 87.2154 82.0135Z" fill="#C14600"/>
<path d="M82.0001 75.6852C81.6252 75.9017 81.1501 75.7807 80.9389 75.4149C80.7277 75.0491 80.8605 74.5772 81.2354 74.3607C81.6103 74.1443 82.0854 74.2653 82.2965 74.6311C82.5077 74.9968 82.375 75.4688 82.0001 75.6852Z" fill="#C14600"/>
<path d="M84.0222 69.5973C83.6473 69.8137 83.1722 69.6927 82.961 69.3269C82.7498 68.9612 82.8826 68.4892 83.2575 68.2728C83.6324 68.0563 84.1075 68.1774 84.3186 68.5431C84.5298 68.9089 84.3971 69.3808 84.0222 69.5973Z" fill="#C14600"/>
<path d="M82.0946 84.087C81.7197 84.3034 81.2446 84.1824 81.0334 83.8166C80.8223 83.4509 80.955 82.9789 81.3299 82.7625C81.7048 82.546 82.1799 82.667 82.3911 83.0328C82.6022 83.3986 82.4695 83.8705 82.0946 84.087Z" fill="#C14600"/>
<path d="M96.0894 90.2164C95.7145 90.4329 95.2394 90.3118 95.0282 89.9461C94.8171 89.5803 94.9498 89.1084 95.3247 88.8919C95.6996 88.6755 96.1747 88.7965 96.3859 89.1623C96.597 89.528 96.4643 90 96.0894 90.2164Z" fill="#C14600"/>
<path d="M91.3022 81.0999C90.9273 81.3163 90.4522 81.1953 90.241 80.8295C90.0298 80.4638 90.1626 79.9918 90.5375 79.7753C90.9124 79.5589 91.3875 79.6799 91.5986 80.0457C91.8098 80.4114 91.6771 80.8834 91.3022 81.0999Z" fill="#C14600"/>
<path d="M85.724 86.2543C85.1139 86.6066 84.3407 86.4096 83.997 85.8143C83.6533 85.2191 83.8693 84.451 84.4795 84.0987C85.0896 83.7464 85.8628 83.9434 86.2065 84.5387C86.5502 85.1339 86.3341 85.902 85.724 86.2543Z" fill="#C14600"/>
<path d="M91.0846 84.5963C90.4745 84.9486 89.7013 84.7516 89.3576 84.1564C89.014 83.5611 89.23 82.793 89.8401 82.4407C90.4502 82.0885 91.2235 82.2855 91.5671 82.8807C91.9108 83.476 91.6948 84.2441 91.0846 84.5963Z" fill="#C14600"/>
<path d="M90.8493 88.8351C90.2392 89.1874 89.466 88.9904 89.1223 88.3951C88.7786 87.7999 88.9946 87.0318 89.6048 86.6795C90.2149 86.3272 90.9881 86.5242 91.3318 87.1195C91.6754 87.7147 91.4594 88.4828 90.8493 88.8351Z" fill="#C14600"/>
<path d="M94.8602 86.5289C94.4853 86.7454 94.0102 86.6243 93.799 86.2586C93.5879 85.8928 93.7206 85.4209 94.0955 85.2044C94.4704 84.988 94.9455 85.109 95.1567 85.4748C95.3678 85.8405 95.2351 86.3125 94.8602 86.5289Z" fill="#C14600"/>
<path fill-rule="evenodd" clip-rule="evenodd" d="M83.6352 88.9171C83.6876 88.2402 84.2787 87.734 84.9555 87.7864L96.8631 88.7083C97.5399 88.7607 98.0461 89.3519 97.9937 90.0287C97.9413 90.7055 97.3502 91.2117 96.6733 91.1593L84.7658 90.2374C84.0889 90.185 83.5828 89.5939 83.6352 88.9171Z" fill="#FA7616"/>
<path d="M49.7812 37.9395C50.1207 37.3516 50.8724 37.1502 51.4603 37.4896L74.8791 51.0104C75.467 51.3498 75.6684 52.1016 75.329 52.6895L45.1336 104.989C44.6427 105.84 43.4024 105.8 42.9673 104.92L36.4912 91.8221C36.2713 91.3773 35.8055 91.1083 35.3103 91.1403L20.7294 92.0806C19.7497 92.1438 19.095 91.0896 19.5859 90.2394L49.7812 37.9395Z" fill="#FF8B04"/>
<path fill-rule="evenodd" clip-rule="evenodd" d="M52.6895 35.3606L76.1083 48.8814C77.872 49.8997 78.4762 52.1549 77.458 53.9186L47.2626 106.219C45.79 108.769 42.069 108.649 40.7636 106.009L34.6508 93.6462L20.8877 94.5339C17.9486 94.7234 15.9843 91.5609 17.4569 89.0103L47.6523 36.7103C48.6705 34.9466 50.9258 34.3423 52.6895 35.3606ZM51.4603 37.4896C50.8724 37.1501 50.1207 37.3516 49.7812 37.9395L19.5859 90.2394C19.095 91.0896 19.7498 92.1438 20.7295 92.0806L35.3103 91.1403C35.8055 91.1083 36.2713 91.3773 36.4912 91.8221L42.9673 104.92C43.4024 105.8 44.6427 105.84 45.1336 104.989L75.329 52.6895C75.6684 52.1016 75.467 51.3498 74.8791 51.0104L51.4603 37.4896Z" fill="#BD4501"/>
<path fill-rule="evenodd" clip-rule="evenodd" d="M51.6264 38.8074C52.2138 39.1476 52.4143 39.8996 52.0741 40.4871L23.1118 90.4988C22.7716 91.0862 22.0196 91.2867 21.4322 90.9465C20.8447 90.6063 20.6443 89.8543 20.9845 89.2668L49.9467 39.2551C50.2869 38.6677 51.0389 38.4672 51.6264 38.8074Z" fill="#FFB053"/>
<path fill-rule="evenodd" clip-rule="evenodd" d="M38.1078 90.85C38.7192 90.5549 39.4539 90.8114 39.7489 91.4228L45.0497 102.409C45.3447 103.02 45.0883 103.755 44.4769 104.05C43.8655 104.345 43.1307 104.088 42.8357 103.477L37.5349 92.4912C37.2399 91.8798 37.4964 91.145 38.1078 90.85Z" fill="#FFB053"/>
<path d="M25.8125 25.8125C25.8125 25.8125 26.8039 46.6664 33.1875 57.7708C39.9625 69.5562 59 81.125 59 81.125C59 81.125 78.0375 69.5562 84.8125 57.7708C91.1961 46.6664 92.1875 25.8125 92.1875 25.8125C92.1875 25.8125 84.1979 20.5799 75.5938 17.8229C66.9896 15.066 59 14.75 59 14.75C59 14.75 51.0104 15.066 42.4063 17.8229C33.8021 20.5799 25.8125 25.8125 25.8125 25.8125Z" fill="#FFBB0D"/>
<path fill-rule="evenodd" clip-rule="evenodd" d="M24.4656 23.756L25.8125 25.8125L23.3569 25.9292C23.3156 25.0596 23.7373 24.233 24.4656 23.756ZM59 14.75C58.9029 12.2936 58.9025 12.2936 58.902 12.2936L58.8912 12.2941L58.8679 12.2951L58.7872 12.2989C58.7184 12.3023 58.6199 12.3075 58.4936 12.315C58.241 12.33 57.8769 12.3544 57.4156 12.3924C56.4935 12.4683 55.1807 12.5986 53.594 12.8173C50.4284 13.2537 46.1328 14.0474 41.6561 15.4818C37.1557 16.9238 32.8605 18.9965 29.7183 20.6865C28.1401 21.5354 26.8366 22.2965 25.9243 22.8476C25.4678 23.1233 25.1085 23.3469 24.8607 23.5033C24.7368 23.5815 24.6407 23.6429 24.5743 23.6856L24.4971 23.7355L24.4755 23.7495L24.467 23.7551C24.4667 23.7553 24.4656 23.756 25.8125 25.8125C23.3569 25.9292 23.3569 25.9287 23.3569 25.9292L23.358 25.9498L23.3605 26.0004C23.3628 26.0439 23.3662 26.107 23.3708 26.1887C23.3801 26.352 23.3944 26.5897 23.4147 26.8943C23.4554 27.5033 23.5206 28.3806 23.6188 29.4661C23.8152 31.635 24.1447 34.6449 24.6781 38.0122C25.7311 44.6588 27.6264 53.0298 31.0562 58.996C34.6972 65.3296 41.4806 71.4128 47.1241 75.8071C49.9834 78.0335 52.6237 79.882 54.5497 81.1745C55.5136 81.8214 56.3008 82.3304 56.8499 82.6795C57.1244 82.854 57.3396 82.9887 57.4877 83.0807C57.5618 83.1266 57.6191 83.162 57.6587 83.1863L57.7046 83.2144L57.7213 83.2246L57.7225 83.2253C57.723 83.2256 57.7234 83.2259 59 81.125L57.7225 83.2253C58.5069 83.702 59.4923 83.7025 60.2767 83.2259L59 81.125C60.2767 83.2259 60.2762 83.2261 60.2767 83.2259L60.2787 83.2246L60.2954 83.2144L60.3413 83.1863C60.3809 83.162 60.4382 83.1266 60.5123 83.0807C60.6604 82.9887 60.8756 82.854 61.1502 82.6795C61.6992 82.3304 62.4864 81.8214 63.4503 81.1745C65.3763 79.882 68.0166 78.0335 70.876 75.8071C76.5194 71.4128 83.3028 65.3296 86.9438 58.996C90.3736 53.0298 92.269 44.6588 93.3219 38.0122C93.8553 34.6449 94.1848 31.635 94.3812 29.4661C94.4794 28.3806 94.5446 27.5033 94.5853 26.8943C94.6057 26.5897 94.6199 26.352 94.6292 26.1887C94.6338 26.107 94.6372 26.0439 94.6395 26.0004L94.6421 25.9498L94.6428 25.9358L94.643 25.9302C94.643 25.9297 94.6431 25.9292 92.1875 25.8125L94.643 25.9302C94.6844 25.0605 94.2627 24.233 93.5344 23.756L92.1875 25.8125C93.5344 23.756 93.5347 23.7562 93.5344 23.756L93.533 23.7551L93.5245 23.7495L93.503 23.7355L93.4258 23.6856C93.3593 23.6429 93.2632 23.5815 93.1393 23.5033C92.8915 23.3469 92.5322 23.1233 92.0757 22.8476C91.1634 22.2965 89.8599 21.5354 88.2817 20.6865C85.1395 18.9965 80.8443 16.9238 76.3439 15.4818C71.8672 14.0474 67.5716 13.2537 64.406 12.8173C62.8193 12.5986 61.5065 12.4683 60.5844 12.3924C60.1232 12.3544 59.759 12.33 59.5064 12.315C59.3801 12.3075 59.2816 12.3023 59.2128 12.2989L59.1321 12.2951L59.1088 12.2941L59.099 12.2937C59.0985 12.2936 59.0972 12.2936 59 14.75ZM59 14.75L58.902 12.2936C58.9668 12.2911 59.0324 12.291 59.0972 12.2936L59 14.75ZM59 14.75C59 14.75 51.0104 15.066 42.4063 17.8229C33.8021 20.5799 25.8125 25.8125 25.8125 25.8125C25.8125 25.8125 26.8039 46.6664 33.1875 57.7708C39.9625 69.5562 59 81.125 59 81.125C59 81.125 78.0375 69.5562 84.8125 57.7708C91.1961 46.6664 92.1875 25.8125 92.1875 25.8125C92.1875 25.8125 84.1979 20.5799 75.5938 17.8229C66.9896 15.066 59 14.75 59 14.75Z" fill="#E89B05"/>
<path fill-rule="evenodd" clip-rule="evenodd" d="M60.2282 17.1598C60.255 17.838 59.727 18.4096 59.0489 18.4365L59.0461 18.4366L59.033 18.4372L58.9755 18.4399C58.9234 18.4425 58.8443 18.4466 58.7397 18.4529C58.5305 18.4653 58.2197 18.4861 57.8204 18.519C57.0217 18.5847 55.8706 18.6987 54.4731 18.8914C51.6741 19.2772 47.9066 19.9758 44.0105 21.2242C40.1262 22.4688 36.3585 24.2806 33.5478 25.7923C32.1461 26.5462 30.9903 27.2212 30.1867 27.7066C29.9357 27.8582 29.7193 27.9912 29.5405 28.1023C29.543 28.1398 29.5456 28.1788 29.5483 28.2192C29.5843 28.7586 29.6425 29.5434 29.7308 30.5183C29.9074 32.469 30.2038 35.1759 30.6827 38.1989C31.6475 44.2889 33.3288 51.4959 36.1652 56.4298C36.5035 57.0184 36.3007 57.7697 35.7121 58.1081C35.1236 58.4464 34.3722 58.2436 34.0339 57.655C30.9595 52.3071 29.2266 44.7186 28.2546 38.5835C27.7652 35.494 27.4627 32.731 27.2825 30.7399C27.1923 29.7439 27.1326 28.9398 27.0954 28.3832C27.0768 28.1048 27.0638 27.8882 27.0554 27.7404C27.0512 27.6664 27.0482 27.6097 27.0461 27.571L27.0439 27.5265L27.0431 27.5113C27.0431 27.511 27.0431 27.5098 28.2708 27.4514C27.5974 26.4231 27.5976 26.423 27.5977 26.4229L27.6048 26.4183L27.623 26.4065L27.6908 26.3626C27.7499 26.3246 27.8362 26.2694 27.9483 26.1987C28.1724 26.0573 28.4993 25.8538 28.9157 25.6023C29.7482 25.0995 30.9398 24.4037 32.3833 23.6273C35.2633 22.0783 39.1778 20.1912 43.2604 18.8831C47.331 17.5787 51.2458 16.8547 54.1374 16.4561C55.5852 16.2565 56.7815 16.1378 57.6188 16.0689C58.0376 16.0344 58.3669 16.0124 58.5934 15.9989C58.7067 15.9921 58.7943 15.9875 58.8545 15.9846L58.9241 15.9813L58.9431 15.9805L58.9504 15.9802C58.9506 15.9802 58.9514 15.9801 59 17.2083L58.9504 15.9802C59.6287 15.9533 60.2014 16.4814 60.2282 17.1598ZM28.2708 27.4514L27.5977 26.4229C27.2336 26.6614 27.0224 27.0749 27.0431 27.5098L28.2708 27.4514Z" fill="#FFD15C"/>
<path fill-rule="evenodd" clip-rule="evenodd" d="M89.7875 26.2236C90.4656 26.2558 90.9892 26.8316 90.957 27.5097L89.7292 27.4514C90.957 27.5097 90.957 27.5094 90.957 27.5097L90.9569 27.5113L90.9561 27.5265L90.9539 27.5709C90.9518 27.6097 90.9488 27.6664 90.9446 27.7403C90.9362 27.8882 90.9232 28.1048 90.9046 28.3831C90.8674 28.9398 90.8077 29.7439 90.7175 30.7399C90.5373 32.731 90.2348 35.494 89.7454 38.5835C88.7735 44.7186 87.0405 52.3071 83.9661 57.655C80.7028 63.3316 74.5625 68.86 69.353 72.9165C66.7294 74.9594 64.3055 76.6564 62.5372 77.8431C61.6526 78.4367 60.931 78.9033 60.4291 79.2223C60.1782 79.3819 59.9821 79.5046 59.8479 79.5879C59.7808 79.6295 59.7293 79.6613 59.694 79.683L59.6536 79.7078L59.6428 79.7144L59.6397 79.7162C59.6395 79.7164 59.6383 79.7171 59 78.6666L59.6383 79.7171C59.0582 80.0696 58.3021 79.8851 57.9496 79.305C57.5971 78.7249 57.7815 77.9688 58.3616 77.6163C58.3615 77.6163 58.3616 77.6163 58.3616 77.6163L58.372 77.6099L58.4075 77.5882C58.4394 77.5686 58.4875 77.5389 58.5511 77.4994C58.6782 77.4205 58.8669 77.3024 59.1102 77.1478C59.5968 76.8384 60.3014 76.3829 61.1674 75.8017C62.9002 74.6389 65.2752 72.976 67.8426 70.9768C73.015 66.9493 78.825 61.6655 81.8348 56.4298C84.6712 51.4959 86.3525 44.2888 87.3173 38.1989C87.7962 35.1759 88.0926 32.469 88.2692 30.5183C88.3575 29.5434 88.4157 28.7586 88.4518 28.2191C88.4698 27.9494 88.4823 27.7411 88.4902 27.6011C88.4942 27.5311 88.497 27.4782 88.4988 27.4432L88.5008 27.4043L88.5013 27.3952L88.5014 27.3932C88.5336 26.7151 89.1095 26.1913 89.7875 26.2236Z" fill="#EEAD04"/>
<path d="M34.4167 30.3194C34.4167 30.3194 35.1511 45.7668 39.8796 53.9923C44.8982 62.7222 59 71.2917 59 71.2917C59 71.2917 73.1018 62.7222 78.1204 53.9923C82.849 45.7668 83.5833 30.3194 83.5833 30.3194C83.5833 30.3194 77.6651 26.4434 71.2917 24.4012C64.9182 22.3591 59 22.125 59 22.125C59 22.125 53.0818 22.3591 46.7083 24.4012C40.3349 26.4434 34.4167 30.3194 34.4167 30.3194Z" fill="#FFDD28"/>
<path fill-rule="evenodd" clip-rule="evenodd" d="M33.0698 28.2629L34.4167 30.3194L31.9611 30.4362C31.9198 29.5666 32.3415 28.7399 33.0698 28.2629ZM59 22.125C58.9029 19.6686 58.9025 19.6686 58.9021 19.6686L58.8927 19.669L58.8739 19.6698L58.811 19.6728C58.7579 19.6754 58.6828 19.6794 58.587 19.6851C58.3954 19.6965 58.1208 19.7149 57.7741 19.7434C57.081 19.8005 56.0969 19.8982 54.9085 20.062C52.5396 20.3886 49.3195 20.9831 45.9582 22.0601C42.5732 23.1448 39.3535 24.6996 37.008 25.9611C35.8281 26.5957 34.8532 27.1649 34.1699 27.5777C33.828 27.7842 33.5583 27.952 33.3715 28.0699C33.2781 28.1289 33.2053 28.1754 33.1546 28.208L33.0952 28.2464L33.0782 28.2574L33.0711 28.2621C33.0708 28.2623 33.0698 28.2629 34.4167 30.3194C31.9611 30.4362 31.9611 30.4357 31.9611 30.4362L31.9619 30.4529L31.9639 30.4917C31.9656 30.525 31.9682 30.5727 31.9717 30.6342C31.9787 30.7572 31.9894 30.9354 32.0046 31.1633C32.0351 31.6189 32.0837 32.2738 32.157 33.0833C32.3034 34.7003 32.549 36.9444 32.9469 39.456C33.7287 44.3911 35.1461 50.6907 37.7484 55.2175C40.5111 60.0233 45.6215 64.5928 49.8114 67.8553C51.944 69.5159 53.9125 70.894 55.3483 71.8576C56.0671 72.34 56.6547 72.7199 57.0654 72.981C57.2707 73.1116 57.432 73.2125 57.5436 73.2817C57.5993 73.3164 57.6427 73.3431 57.6729 73.3616L57.7082 73.3833L57.7183 73.3895L57.7226 73.392C57.723 73.3923 57.7233 73.3925 59 71.2917L57.7226 73.392C58.5069 73.8687 59.4923 73.8692 60.2767 73.3925L59 71.2917C60.2767 73.3925 60.2762 73.3928 60.2767 73.3925L60.2817 73.3895L60.2918 73.3833L60.3271 73.3616C60.3573 73.3431 60.4007 73.3164 60.4564 73.2817C60.568 73.2125 60.7293 73.1116 60.9346 72.981C61.3453 72.7199 61.9329 72.34 62.6517 71.8576C64.0875 70.894 66.056 69.5159 68.1886 67.8553C72.3785 64.5928 77.4889 60.0233 80.2516 55.2175C82.854 50.6907 84.2713 44.3911 85.0531 39.456C85.451 36.9444 85.6966 34.7003 85.843 33.0833C85.9163 32.2738 85.9649 31.6189 85.9954 31.1633C86.0106 30.9354 86.0213 30.7572 86.0283 30.6342C86.0318 30.5727 86.0344 30.525 86.0361 30.4918L86.0381 30.4529L86.0388 30.4382C86.0388 30.4378 86.0389 30.4362 83.5833 30.3194L86.0389 30.4362C86.0802 29.5666 85.6585 28.7399 84.9302 28.2629L83.5833 30.3194C84.9302 28.2629 84.9305 28.2631 84.9302 28.2629L84.9289 28.2621L84.9271 28.2609L84.9218 28.2574L84.9048 28.2464L84.8454 28.208C84.7947 28.1754 84.7219 28.1289 84.6285 28.0699C84.4417 27.952 84.172 27.7842 83.8301 27.5777C83.1468 27.1649 82.172 26.5957 80.992 25.9611C78.6465 24.6996 75.4268 23.1448 72.0418 22.0601C68.6805 20.9831 65.4604 20.3886 63.0915 20.062C61.9031 19.8982 60.919 19.8005 60.2259 19.7434C59.8792 19.7149 59.6046 19.6965 59.413 19.6851C59.3172 19.6794 59.2421 19.6754 59.189 19.6728L59.1261 19.6698L59.1073 19.669L59.0989 19.6687C59.0985 19.6686 59.0972 19.6686 59 22.125ZM59 22.125L58.9021 19.6686C58.9668 19.6661 59.0324 19.666 59.0972 19.6686L59 22.125ZM59 22.125C59 22.125 53.0818 22.3591 46.7083 24.4012C40.3349 26.4434 34.4167 30.3194 34.4167 30.3194C34.4167 30.3194 35.1511 45.7668 39.8796 53.9923C44.8982 62.7222 59 71.2917 59 71.2917C59 71.2917 73.1018 62.7222 78.1204 53.9923C82.8489 45.7668 83.5833 30.3194 83.5833 30.3194C83.5833 30.3194 77.6651 26.4434 71.2917 24.4012C64.9182 22.3591 59 22.125 59 22.125Z" fill="#E89B05"/>
<path fill-rule="evenodd" clip-rule="evenodd" d="M81.1834 30.7305C81.8615 30.7627 82.385 31.3385 82.3528 32.0166L81.125 31.9583C82.3528 32.0166 82.3528 32.0164 82.3528 32.0166L82.3527 32.0179L82.3526 32.0205L82.3522 32.0294L82.3505 32.0622L82.3437 32.1858C82.3376 32.2934 82.3282 32.4505 82.3147 32.6521C82.2878 33.0553 82.2446 33.6369 82.1794 34.357C82.0491 35.7963 81.8305 37.7935 81.4766 40.0273C80.7758 44.4508 79.5208 49.9679 77.274 53.8764C74.8889 58.0253 70.4217 62.04 66.6656 64.9647C64.7687 66.4417 63.0167 67.6684 61.7386 68.5261C61.0991 68.9552 60.5771 69.2927 60.2136 69.5238C60.0319 69.6394 59.8896 69.7284 59.7921 69.7889C59.7433 69.8192 59.7056 69.8424 59.6798 69.8583L59.65 69.8766L59.6419 69.8815L59.6395 69.883C59.6393 69.8831 59.6383 69.8837 59 68.8333L59.6383 69.8837C59.0582 70.2362 58.3021 70.0517 57.9496 69.4716C57.5971 68.8915 57.7815 68.1355 58.3615 67.7829C58.3615 67.783 58.3616 67.7829 58.3615 67.7829L58.3685 67.7787L58.3933 67.7635L58.4952 67.7005C58.5858 67.6443 58.7206 67.5599 58.8947 67.4492C59.2429 67.2278 59.7478 66.9014 60.3687 66.4848C61.6114 65.6508 63.3146 64.4583 65.1552 63.025C68.8742 60.1293 73.0111 56.3592 75.1427 52.6512C77.1516 49.1568 78.3549 44.0211 79.0485 39.6426C79.3919 37.4754 79.6044 35.5343 79.7311 34.1354C79.7943 33.4364 79.8361 32.8741 79.8619 32.4881C79.8748 32.2951 79.8837 32.1463 79.8894 32.0466L79.8955 31.9345L79.8969 31.9073L79.8972 31.9011C79.8972 31.901 79.8972 31.8998 79.8972 31.8997M81.1834 30.7305C80.5053 30.6982 79.9296 31.2217 79.8972 31.8997L81.1834 30.7305Z" fill="#ECC704"/>
<path d="M62.3837 54.0833H52.241L46.747 54.0833C46.0468 54.0833 45.4792 53.5093 45.4792 52.8013V41.6909C45.4792 40.9829 46.0468 40.4089 46.747 40.4089L52.241 40.4089C56.4671 37.0184 56.8712 31.011 57.3123 30.1531C58.7915 27.2766 62.1013 28.1301 63.2289 29.8405C63.8536 30.7881 63.8721 32.7079 63.2289 35.3092C62.5858 37.9106 60.6933 40.409 60.6933 40.409L65.342 40.4089L69.9907 40.4089C72.1434 40.4089 72.6355 42.0146 72.5 43.8221C72.0589 49.7065 69.7747 54.0831 62.3837 54.0833Z" fill="#FFEF9C"/>
<path fill-rule="evenodd" clip-rule="evenodd" d="M58.4119 30.7028C58.4127 30.7012 58.4133 30.7004 58.4135 30.7004C58.4151 30.7011 58.3881 30.7748 58.3355 30.9915C58.2957 31.1548 58.2539 31.3428 58.2037 31.5685C58.1803 31.6739 58.155 31.7876 58.1272 31.9108C57.9584 32.6604 57.7235 33.6465 57.3609 34.7235C56.6885 36.7209 55.5482 39.1193 53.4702 40.9778L53.4702 52.8541H62.3837C65.8226 52.854 67.8538 51.8478 69.1102 50.3647C70.4125 48.8274 71.0612 46.573 71.2743 43.7302C71.3352 42.9181 71.2299 42.3719 71.0485 42.0685C70.9325 41.8745 70.7125 41.6381 69.9907 41.6381L60.6933 41.6381C60.2266 41.6381 59.8002 41.3739 59.5926 40.956C59.385 40.5385 59.4316 40.0394 59.7129 39.6675L59.7149 39.6648L59.7268 39.6489C59.738 39.6337 59.7558 39.6095 59.7793 39.5769C59.8265 39.5117 59.8965 39.4129 59.9835 39.2854C60.1579 39.0297 60.3984 38.6609 60.6579 38.2157C61.1851 37.3112 61.7544 36.152 62.0357 35.0142C62.3417 33.7765 62.4772 32.7506 62.4752 31.9578C62.4731 31.1366 62.3239 30.701 62.2027 30.5171C61.8649 30.0047 61.1201 29.5501 60.3305 29.5038C59.6432 29.4635 58.9185 29.7272 58.4119 30.7028ZM62.9386 39.1798C63.483 38.2113 64.0924 36.938 64.4222 35.6043C64.7593 34.2407 64.9362 33.006 64.9335 31.9516C64.931 30.9257 64.7586 29.9276 64.2551 29.1639C63.4653 27.9659 61.9914 27.1386 60.4744 27.0497C58.858 26.9549 57.1915 27.7002 56.2192 29.591C56.0863 29.8495 56.0025 30.1813 55.9467 30.4106C55.9011 30.5983 55.8508 30.8243 55.7975 31.064C55.7752 31.1644 55.7523 31.2672 55.729 31.3706C55.5659 32.0947 55.3529 32.9832 55.0311 33.9391C54.4212 35.7507 53.449 37.7153 51.7928 39.1797L46.747 39.1797C45.3551 39.1797 44.25 40.3169 44.25 41.6909V52.8013C44.25 54.1753 45.3551 55.3125 46.747 55.3125L62.3837 55.3124C66.3358 55.3124 69.1422 54.1302 70.9859 51.9538C72.7837 49.8316 73.4977 46.9556 73.7258 43.914C73.8004 42.9186 73.7273 41.7582 73.1584 40.8068C72.5241 39.7461 71.4217 39.1797 69.9907 39.1797L62.9386 39.1798ZM51.0118 41.638L46.747 41.6381C46.7414 41.6381 46.7388 41.6389 46.7368 41.6398C46.734 41.641 46.7295 41.6436 46.7245 41.6487C46.7194 41.6538 46.7154 41.6598 46.7127 41.6662C46.7104 41.6718 46.7083 41.6794 46.7083 41.6909V52.8013C46.7083 52.8128 46.7104 52.8204 46.7127 52.826C46.7154 52.8324 46.7194 52.8384 46.7245 52.8435C46.7295 52.8486 46.734 52.8512 46.7368 52.8524C46.7388 52.8532 46.7414 52.8541 46.747 52.8541L51.0118 52.8541L51.0118 41.638Z" fill="#E89B05"/>
</svg>
