<svg width="109" height="109" viewBox="0 0 109 109" fill="none" xmlns="http://www.w3.org/2000/svg">
<path d="M66.9749 8.27908C70.1344 11.0471 74.1714 12.7194 78.3629 12.9963C83.3621 13.3266 87.6647 15.01 90.8276 18.1728C95.3507 22.696 96.848 29.5499 95.6897 37.4388C102.087 42.198 105.875 48.1033 105.875 54.5C105.875 58.9731 104.023 63.2058 100.721 66.9744C97.9533 70.134 96.2812 74.1711 96.0043 78.3625C95.6741 83.3621 93.9908 87.6649 90.8277 90.8279C86.3045 95.3512 79.4503 96.8484 71.5611 95.6899C66.8019 102.087 60.8967 105.875 54.5 105.875C50.027 105.875 45.7944 104.023 42.0258 100.722C38.8662 97.9536 34.8292 96.2815 30.6378 96.0046C25.6383 95.6744 21.3354 93.9911 18.1724 90.8281C15.0094 87.665 13.3261 83.3622 12.9958 78.3627C12.719 74.1712 11.0468 70.1341 8.27875 66.9745C4.9772 63.2059 3.125 58.9731 3.125 54.5C3.125 50.0268 4.97723 45.794 8.27885 42.0254C11.0468 38.8658 12.719 34.8289 12.996 30.6375C13.3263 25.6382 15.0096 21.3356 18.1725 18.1727C21.3354 15.0098 25.638 13.3265 30.6372 12.9962C34.8287 12.7192 38.8657 11.047 42.0252 8.27899C45.7939 4.97728 50.0268 3.125 54.5 3.125C58.9732 3.125 63.2062 4.97732 66.9749 8.27908Z" fill="#9B2EF0"/>
<path fill-rule="evenodd" clip-rule="evenodd" d="M78.5511 10.1485C84.0817 10.514 89.0916 12.4006 92.8458 16.1548C97.8728 21.1818 99.5299 28.4006 98.7232 36.1824C104.796 41.1146 108.729 47.3909 108.729 54.5002C108.729 59.8094 106.521 64.6861 102.868 68.8553C100.514 71.5431 99.0877 74.9853 98.8522 78.5508C98.4869 84.0818 96.6002 89.092 92.8459 92.8463C87.8188 97.8734 80.5997 99.5305 72.8176 98.7236C67.8854 104.797 61.6092 108.729 54.5 108.729C49.1908 108.729 44.3142 106.521 40.1451 102.869C37.4573 100.514 34.0152 99.0883 30.4497 98.8528C24.9187 98.4874 19.9085 96.6008 16.1542 92.8464C12.3999 89.0921 10.5132 84.0819 10.1478 78.5509C9.91234 74.9854 8.48655 71.5432 6.13188 68.8554C2.47937 64.6862 0.270813 59.8095 0.270813 54.5002C0.270813 49.1908 2.47942 44.314 6.13199 40.1448C8.48661 37.457 9.9124 34.0149 10.148 30.4495C10.5134 24.9188 12.4001 19.9089 16.1543 16.1547C19.9085 12.4005 24.9184 10.5138 30.449 10.1484C34.0146 9.9128 37.4567 8.48699 40.1444 6.13232C44.3137 2.47966 49.1905 0.270996 54.5 0.270996C59.8095 0.270996 64.6863 2.47971 68.8557 6.13243C71.5434 8.48712 74.9855 9.91294 78.5511 10.1485ZM71.5611 95.6901C79.4503 96.8486 86.3044 95.3514 90.8277 90.8281C93.9907 87.6651 95.6741 83.3622 96.0043 78.3627C96.2811 74.1712 97.9533 70.1342 100.721 66.9746C104.023 63.206 105.875 58.9732 105.875 54.5002C105.875 48.1034 102.087 42.1982 95.6897 37.4389C96.848 29.55 95.3507 22.6961 90.8276 18.173C87.6647 15.0101 83.3621 13.3268 78.3629 12.9965C74.1714 12.7195 70.1344 11.0473 66.9749 8.27924C63.2061 4.97748 58.9732 3.12516 54.5 3.12516C50.0268 3.12516 45.7939 4.97745 42.0252 8.27915C38.8656 11.0472 34.8287 12.7194 30.6372 12.9963C25.638 13.3267 21.3354 15.01 18.1725 18.1729C15.0096 21.3358 13.3263 25.6384 12.9959 30.6376C12.719 34.829 11.0468 38.866 8.27883 42.0255C4.97721 45.7942 3.12498 50.027 3.12498 54.5002C3.12498 58.9733 4.97717 63.206 8.27873 66.9747C11.0468 70.1343 12.719 74.1714 12.9958 78.3628C13.326 83.3624 15.0094 87.6652 18.1724 90.8282C21.3354 93.9913 25.6383 95.6746 30.6378 96.0048C34.8292 96.2816 38.8662 97.9538 42.0258 100.722C45.7944 104.023 50.027 105.875 54.5 105.875C60.8967 105.875 66.8018 102.087 71.5611 95.6901Z" fill="#6303AF"/>
<path d="M91.6041 54.5002C91.6041 74.9922 74.992 91.6043 54.5 91.6043C34.0079 91.6043 17.3958 74.9922 17.3958 54.5002C17.3958 34.0081 34.0079 17.396 54.5 17.396C74.992 17.396 91.6041 34.0081 91.6041 54.5002Z" fill="#6804B7"/>
<path fill-rule="evenodd" clip-rule="evenodd" d="M94.4584 54.4998C94.4584 76.5682 76.5684 94.4582 54.5 94.4582C32.4316 94.4582 14.5417 76.5682 14.5417 54.4998C14.5417 32.4315 32.4316 14.5415 54.5 14.5415C76.5684 14.5415 94.4584 32.4315 94.4584 54.4998ZM54.5 91.604C74.9921 91.604 91.6042 74.9919 91.6042 54.4998C91.6042 34.0078 74.9921 17.3957 54.5 17.3957C34.008 17.3957 17.3959 34.0078 17.3959 54.4998C17.3959 74.9919 34.008 91.604 54.5 91.604Z" fill="#6303AF"/>
<path fill-rule="evenodd" clip-rule="evenodd" d="M54.5 14.5417C32.4316 14.5417 14.5417 32.4316 14.5417 54.5C14.5417 76.5684 32.4316 94.4583 54.5 94.4583C76.5684 94.4583 94.4583 76.5684 94.4583 54.5C94.4583 32.4316 76.5684 14.5417 54.5 14.5417ZM11.6875 54.5C11.6875 30.8553 30.8553 11.6875 54.5 11.6875C78.1447 11.6875 97.3125 30.8553 97.3125 54.5C97.3125 78.1447 78.1447 97.3125 54.5 97.3125C30.8553 97.3125 11.6875 78.1447 11.6875 54.5Z" fill="#B860FE"/>
<path d="M68.849 31.0868C68.849 32.0966 68.0504 32.9152 67.0652 32.9152C66.08 32.9152 65.2813 32.0966 65.2813 31.0868C65.2813 30.0769 66.08 29.2583 67.0652 29.2583C68.0504 29.2583 68.849 30.0769 68.849 31.0868Z" fill="#800CDB"/>
<path d="M62.5838 31.5327C62.5838 32.7888 61.5904 33.8071 60.3649 33.8071C59.1394 33.8071 58.1459 32.7888 58.1459 31.5327C58.1459 30.2766 59.1394 29.2583 60.3649 29.2583C61.5904 29.2583 62.5838 30.2766 62.5838 31.5327Z" fill="#800CDB"/>
<path d="M68.1355 38.0439C68.1355 39.3001 67.1421 40.3184 65.9166 40.3184C64.6911 40.3184 63.6976 39.3001 63.6976 38.0439C63.6976 36.7878 64.6911 35.7695 65.9166 35.7695C67.1421 35.7695 68.1355 36.7878 68.1355 38.0439Z" fill="#800CDB"/>
<path d="M73.2086 34.9443C73.2086 35.5724 72.7119 36.0815 72.0992 36.0815C71.4864 36.0815 70.9897 35.5724 70.9897 34.9443C70.9897 34.3163 71.4864 33.8071 72.0992 33.8071C72.7119 33.8071 73.2086 34.3163 73.2086 34.9443Z" fill="#800CDB"/>
<path d="M61.4744 36.9067C61.4744 37.5348 60.9776 38.0439 60.3649 38.0439C59.7522 38.0439 59.2554 37.5348 59.2554 36.9067C59.2554 36.2787 59.7522 35.7695 60.3649 35.7695C60.9776 35.7695 61.4744 36.2787 61.4744 36.9067Z" fill="#800CDB"/>
<path d="M55.2918 29.9497C55.2918 30.5778 54.795 31.0869 54.1823 31.0869C53.5695 31.0869 53.0728 30.5778 53.0728 29.9497C53.0728 29.3216 53.5695 28.8125 54.1823 28.8125C54.795 28.8125 55.2918 29.3216 55.2918 29.9497Z" fill="#800CDB"/>
<path d="M47.7997 22.7476C47.7997 23.3756 47.303 23.8848 46.6902 23.8848C46.0775 23.8848 45.5807 23.3756 45.5807 22.7476C45.5807 22.1195 46.0775 21.6104 46.6902 21.6104C47.303 21.6104 47.7997 22.1195 47.7997 22.7476Z" fill="#800CDB"/>
<path d="M59.7515 26.9619C59.7515 27.59 59.2547 28.0991 58.642 28.0991C58.0293 28.0991 57.5325 27.59 57.5325 26.9619C57.5325 26.3339 58.0293 25.8247 58.642 25.8247C59.2547 25.8247 59.7515 26.3339 59.7515 26.9619Z" fill="#800CDB"/>
<path d="M83.8335 51.8467C83.8335 52.4747 83.3368 52.9839 82.724 52.9839C82.1113 52.9839 81.6146 52.4747 81.6146 51.8467C81.6146 51.2186 82.1113 50.7095 82.724 50.7095C83.3368 50.7095 83.8335 51.2186 83.8335 51.8467Z" fill="#800CDB"/>
<path d="M87.6298 41.0317C87.6298 41.6598 87.133 42.1689 86.5203 42.1689C85.9076 42.1689 85.4108 41.6598 85.4108 41.0317C85.4108 40.4037 85.9076 39.8945 86.5203 39.8945C87.133 39.8945 87.6298 40.4037 87.6298 41.0317Z" fill="#800CDB"/>
<path d="M72.0992 42.8828C72.0992 43.5109 71.6025 44.02 70.9897 44.02C70.377 44.02 69.8802 43.5109 69.8802 42.8828C69.8802 42.2548 70.377 41.7456 70.9897 41.7456C71.6025 41.7456 72.0992 42.2548 72.0992 42.8828Z" fill="#800CDB"/>
<path d="M66.3909 44.02C66.3909 44.6481 65.8942 45.1572 65.2814 45.1572C64.6687 45.1572 64.1719 44.6481 64.1719 44.02C64.1719 43.392 64.6687 42.8828 65.2814 42.8828C65.8942 42.8828 66.3909 43.392 66.3909 44.02Z" fill="#800CDB"/>
<path d="M77.4552 39.8947C77.4552 40.9168 76.6468 41.7454 75.6495 41.7454C74.6523 41.7454 73.8439 40.9168 73.8439 39.8947C73.8439 38.8726 74.6523 38.0439 75.6495 38.0439C76.6468 38.0439 77.4552 38.8726 77.4552 39.8947Z" fill="#800CDB"/>
<path d="M79.5173 30.6632C79.5173 31.6854 78.7089 32.514 77.7117 32.514C76.7145 32.514 75.9061 31.6854 75.9061 30.6632C75.9061 29.6411 76.7145 28.8125 77.7117 28.8125C78.7089 28.8125 79.5173 29.6411 79.5173 30.6632Z" fill="#800CDB"/>
<path d="M83.4202 38.0441C83.4202 39.0662 82.6118 39.8949 81.6146 39.8949C80.6174 39.8949 79.809 39.0662 79.809 38.0441C79.809 37.022 80.6174 36.1934 81.6146 36.1934C82.6118 36.1934 83.4202 37.022 83.4202 38.0441Z" fill="#800CDB"/>
<path d="M88.3259 47.5876C88.3259 48.6097 87.5175 49.4383 86.5203 49.4383C85.5231 49.4383 84.7147 48.6097 84.7147 47.5876C84.7147 46.5654 85.5231 45.7368 86.5203 45.7368C87.5175 45.7368 88.3259 46.5654 88.3259 47.5876Z" fill="#800CDB"/>
<path d="M73.9049 26.9616C73.9049 27.9837 73.0965 28.8123 72.0992 28.8123C71.102 28.8123 70.2936 27.9837 70.2936 26.9616C70.2936 25.9394 71.102 25.1108 72.0992 25.1108C73.0965 25.1108 73.9049 25.9394 73.9049 26.9616Z" fill="#800CDB"/>
<path d="M65.9165 24.5534C65.9165 25.5755 65.1081 26.4041 64.1109 26.4041C63.1137 26.4041 62.3053 25.5755 62.3053 24.5534C62.3053 23.5312 63.1137 22.7026 64.1109 22.7026C65.1081 22.7026 65.9165 23.5312 65.9165 24.5534Z" fill="#800CDB"/>
<path d="M58.1112 21.61C58.1112 22.6322 57.3028 23.4608 56.3055 23.4608C55.3083 23.4608 54.4999 22.6322 54.4999 21.61C54.4999 20.5879 55.3083 19.7593 56.3055 19.7593C57.3028 19.7593 58.1112 20.5879 58.1112 21.61Z" fill="#800CDB"/>
<path d="M79.8088 45.1572C79.8088 45.7853 79.3121 46.2944 78.6994 46.2944C78.0866 46.2944 77.5899 45.7853 77.5899 45.1572C77.5899 44.5292 78.0866 44.02 78.6994 44.02C79.3121 44.02 79.8088 44.5292 79.8088 45.1572Z" fill="#800CDB"/>
<path d="M29.9742 45.3043L23.1042 54.4998L29.9742 63.6954L32.2998 76.7001L45.3045 79.0257L54.5 85.8957L63.6956 79.0257L76.7002 76.7001L79.0258 63.6955L85.8958 54.4998L79.0258 45.3042L76.7002 32.2997L63.6957 29.9741L54.5 23.104L45.3043 29.9741L32.2998 32.2997L29.9742 45.3043Z" fill="#FFBB0D"/>
<path fill-rule="evenodd" clip-rule="evenodd" d="M21.2411 55.8922C20.6244 55.0667 20.6244 53.9338 21.2411 53.1084L27.7817 44.3536L30.0105 31.8907C30.1818 30.9324 30.932 30.1822 31.8904 30.0108L44.3533 27.7821L53.1081 21.2413C53.9336 20.6246 55.0664 20.6246 55.8919 21.2413L64.6468 27.7821L77.1096 30.0108C78.0679 30.1822 78.8181 30.9324 78.9895 31.8907L81.2182 44.3535L87.7589 53.1084C88.3756 53.9338 88.3756 55.0667 87.7589 55.8922L81.2182 64.647L78.9895 77.1099C78.8181 78.0683 78.0679 78.8184 77.1096 78.9898L64.6467 81.2186L55.8919 87.7592C55.0664 88.3759 53.9336 88.3759 53.1081 87.7592L44.3534 81.2186L31.8904 78.9898C30.932 78.8184 30.1818 78.0683 30.0105 77.1099L27.7817 64.6469L21.2411 55.8922ZM29.9741 63.6958L32.2998 76.7005L45.3044 79.0261L54.5 85.8961L63.6956 79.0261L76.7002 76.7005L79.0258 63.6959L85.8959 54.5003L79.0258 45.3046L76.7002 32.3001L63.6957 29.9745L54.5 23.1044L45.3043 29.9745L32.2998 32.3001L29.9741 45.3047L23.1042 54.5003L29.9741 63.6958Z" fill="#E89B05"/>
<path fill-rule="evenodd" clip-rule="evenodd" d="M74.851 32.8001C75.4832 32.687 76.0873 33.1079 76.2003 33.74L78.3053 45.5104L84.5017 53.8045C84.8101 54.2172 84.8101 54.7837 84.5017 55.1964L78.3053 63.4905L76.2003 75.2609C76.1146 75.7401 75.7396 76.1152 75.2604 76.2009L63.4899 78.3058L55.1959 84.5022C54.6814 84.8866 53.9528 84.7811 53.5684 84.2666C53.1841 83.7521 53.2895 83.0235 53.804 82.6391L62.3184 76.278C62.4634 76.1698 62.6316 76.0968 62.8097 76.0649L74.0536 74.0542L76.0644 62.8103C76.0962 62.6321 76.1692 62.4639 76.2775 62.319L82.1187 54.5004L76.2775 46.6819C76.1692 46.5369 76.0962 46.3687 76.0644 46.1906L73.911 34.1494C73.798 33.5173 74.2188 32.9131 74.851 32.8001Z" fill="#EEAD04"/>
<path fill-rule="evenodd" clip-rule="evenodd" d="M55.4315 24.734C55.8159 25.2485 55.7104 25.9771 55.196 26.3615L46.6814 32.7227C46.5365 32.831 46.3683 32.9039 46.1902 32.9358L34.9463 34.9465L32.9355 46.1905C32.9037 46.3685 32.8307 46.5368 32.7224 46.6817L26.3613 55.1961C25.977 55.7106 25.2483 55.8161 24.7338 55.4317C24.2194 55.0474 24.1139 54.3187 24.4982 53.8042L30.6946 45.5102L32.7996 33.7398C32.8853 33.2606 33.2603 32.8855 33.7395 32.7998L45.5099 30.6949L53.804 24.4984C54.3185 24.1141 55.0472 24.2195 55.4315 24.734Z" fill="#FFD15C"/>
<path d="M36.3326 47.6893L31.2438 54.5008L36.3326 61.3123L38.0553 70.9454L47.6884 72.6681L54.4999 77.757L61.3115 72.6681L70.9445 70.9454L72.6672 61.3124L77.7561 54.5008L72.6672 47.6892L70.9445 38.0562L61.3116 36.3336L54.4999 31.2446L47.6883 36.3336L38.0553 38.0562L36.3326 47.6893Z" fill="#FFDD28"/>
<path fill-rule="evenodd" clip-rule="evenodd" d="M29.3807 55.8921C28.764 55.0667 28.764 53.9338 29.3807 53.1083L34.1402 46.7376L35.766 37.6463C35.9374 36.6879 36.6876 35.9378 37.6459 35.7664L46.7372 34.1406L53.108 29.381C53.9335 28.7643 55.0664 28.7643 55.8918 29.381L62.2626 34.1406L71.3539 35.7664C72.3122 35.9378 73.0624 36.6879 73.2338 37.6463L74.8596 46.7376L79.6192 53.1083C80.2359 53.9338 80.2359 55.0667 79.6192 55.8921L74.8596 62.2629L73.2338 71.3543C73.0624 72.3126 72.3122 73.0628 71.3539 73.2342L62.2625 74.86L55.8918 79.6195C55.0664 80.2362 53.9335 80.2362 53.108 79.6195L46.7373 74.86L37.6459 73.2342C36.6876 73.0628 35.9374 72.3126 35.766 71.3543L34.1402 62.2629L29.3807 55.8921ZM36.3326 61.3118L38.0553 70.9449L47.6884 72.6676L54.4999 77.7564L61.3115 72.6676L70.9445 70.9449L72.6672 61.3119L77.7561 54.5002L72.6672 47.6886L70.9445 38.0557L61.3116 36.333L54.4999 31.2441L47.6883 36.333L38.0553 38.0557L36.3326 47.6887L31.2438 54.5002L36.3326 61.3118Z" fill="#E89B05"/>
<path fill-rule="evenodd" clip-rule="evenodd" d="M69.0954 38.5555C69.7276 38.4424 70.3317 38.8632 70.4447 39.4954L71.9467 47.8942L76.3621 53.8043C76.6704 54.217 76.6704 54.7834 76.3621 55.1962L71.9467 61.1062L70.4447 69.5051C70.359 69.9843 69.984 70.3594 69.5048 70.445L61.1059 71.947L55.1959 76.3623C54.6814 76.7467 53.9528 76.6412 53.5684 76.1267C53.1841 75.6122 53.2895 74.8836 53.804 74.4992L59.9344 69.9193C60.0793 69.811 60.2476 69.738 60.4257 69.7062L68.298 68.2983L69.7058 60.426C69.7377 60.2479 69.8107 60.0796 69.919 59.9347L73.979 54.5002L69.919 49.0657C69.8107 48.9208 69.7377 48.7526 69.7058 48.5745L68.1554 39.9048C68.0424 39.2726 68.4632 38.6685 69.0954 38.5555Z" fill="#ECC704"/>
<path fill-rule="evenodd" clip-rule="evenodd" d="M55.4315 32.8737C55.8158 33.3881 55.7104 34.1168 55.1959 34.5012L49.0654 39.0812C48.9205 39.1895 48.7523 39.2625 48.5742 39.2943L40.7018 40.7021L39.294 48.5745C39.2622 48.7526 39.1892 48.9208 39.0809 49.0657L34.5009 55.1961C34.1166 55.7106 33.3879 55.8161 32.8734 55.4317C32.3589 55.0474 32.2535 54.3187 32.6378 53.8042L37.0531 47.8942L38.5551 39.4954C38.6408 39.0162 39.0159 38.6411 39.4951 38.5554L47.8939 37.0534L53.804 32.6381C54.3185 32.2537 55.0471 32.3592 55.4315 32.8737Z" fill="#FFEF9C"/>
<path d="M57.9061 65.9167H53.0729V47.2866L47.3033 49.076V45.146L57.3876 41.5337H57.9061V65.9167Z" fill="#FFEF9C"/>
<path fill-rule="evenodd" clip-rule="evenodd" d="M60.7602 65.9164C60.7602 67.4927 59.4824 68.7706 57.906 68.7706H53.0729C51.4966 68.7706 50.2187 67.4927 50.2187 65.9164V51.1598L48.1487 51.8018C47.2826 52.0704 46.3403 51.9114 45.6102 51.3735C44.8801 50.8355 44.4491 49.9826 44.4491 49.0757V45.1457C44.4491 43.9405 45.2061 42.8651 46.3408 42.4587L56.4251 38.8464C56.734 38.7358 57.0596 38.6792 57.3876 38.6792H57.906C59.4824 38.6792 60.7602 39.9571 60.7602 41.5334V65.9164ZM53.0729 47.2863V65.9164H57.906V41.5334H57.3876L47.3033 45.1457V49.0757L53.0729 47.2863Z" fill="#E89B05"/>
</svg>
