<svg width="118" height="118" viewBox="0 0 118 118" fill="none" xmlns="http://www.w3.org/2000/svg">
<path d="M69.1832 37.939C68.8438 37.3511 68.0921 37.1497 67.5042 37.4891L44.0854 51.0099C43.4975 51.3494 43.2961 52.1011 43.6355 52.689L73.8309 104.989C74.3217 105.839 75.5621 105.799 75.9972 104.919L82.4732 91.8216C82.6932 91.3768 83.159 91.1079 83.6542 91.1398L98.235 92.0802C99.2147 92.1433 99.8695 91.0892 99.3786 90.2389L69.1832 37.939Z" fill="#E16104"/>
<path fill-rule="evenodd" clip-rule="evenodd" d="M66.275 35.3604L42.8562 48.8812C41.0925 49.8995 40.4882 52.1547 41.5065 53.9184L71.7019 106.218C73.1745 108.769 76.8955 108.649 78.2009 106.009L84.3137 93.646L98.0768 94.5336C101.016 94.7232 102.98 91.5606 101.508 89.01L71.3122 36.7101C70.294 34.9464 68.0387 34.3421 66.275 35.3604ZM67.5042 37.4893C68.0921 37.1499 68.8438 37.3513 69.1832 37.9392L99.3786 90.2392C99.8695 91.0894 99.2147 92.1436 98.235 92.0804L83.6542 91.14C83.159 91.1081 82.6932 91.377 82.4733 91.8218L75.9972 104.919C75.5621 105.799 74.3217 105.839 73.8309 104.989L43.6355 52.6892C43.2961 52.1013 43.4975 51.3496 44.0854 51.0102L67.5042 37.4893Z" fill="#BD4501"/>
<path fill-rule="evenodd" clip-rule="evenodd" d="M63.08 81.3356C63.6705 81.0008 64.4207 81.2082 64.7555 81.7987L75.818 101.312C76.1528 101.902 75.9454 102.652 75.3549 102.987C74.7643 103.322 74.0142 103.115 73.6794 102.524L62.6169 83.0111C62.2821 82.4206 62.4894 81.6704 63.08 81.3356Z" fill="#FA7616"/>
<path d="M88.0156 78.0813C87.4128 78.4293 86.6489 78.2347 86.3094 77.6466C85.9699 77.0585 86.1833 76.2997 86.7861 75.9517C87.3889 75.6037 88.1528 75.7983 88.4923 76.3863C88.8318 76.9744 88.6184 77.7333 88.0156 78.0813Z" fill="#C14600"/>
<path d="M85.5902 74.4949C84.8404 74.9278 83.8902 74.6857 83.4679 73.9542C83.0455 73.2227 83.311 72.2787 84.0608 71.8458C84.8106 71.4129 85.7608 71.655 86.1832 72.3865C86.6055 73.118 86.34 74.062 85.5902 74.4949Z" fill="#C14600"/>
<path d="M83.6169 80.0525C82.8671 80.4854 81.9169 80.2433 81.4946 79.5118C81.0722 78.7803 81.3377 77.8364 82.0875 77.4035C82.8373 76.9706 83.7875 77.2126 84.2098 77.9441C84.6322 78.6757 84.3667 79.6196 83.6169 80.0525Z" fill="#C14600"/>
<path d="M87.2154 82.0128C86.8405 82.2293 86.3654 82.1082 86.1542 81.7425C85.9431 81.3767 86.0758 80.9048 86.4507 80.6883C86.8256 80.4719 87.3007 80.5929 87.5119 80.9586C87.723 81.3244 87.5903 81.7964 87.2154 82.0128Z" fill="#C14600"/>
<path d="M82.0001 75.6845C81.6252 75.9009 81.1501 75.7799 80.9389 75.4141C80.7277 75.0484 80.8605 74.5764 81.2354 74.3599C81.6103 74.1435 82.0854 74.2645 82.2965 74.6303C82.5077 74.996 82.375 75.468 82.0001 75.6845Z" fill="#C14600"/>
<path d="M84.0222 69.5971C83.6473 69.8135 83.1722 69.6925 82.961 69.3267C82.7498 68.9609 82.8826 68.489 83.2575 68.2725C83.6324 68.0561 84.1075 68.1771 84.3186 68.5429C84.5298 68.9086 84.3971 69.3806 84.0222 69.5971Z" fill="#C14600"/>
<path d="M82.0946 84.0866C81.7197 84.303 81.2446 84.182 81.0335 83.8162C80.8223 83.4505 80.955 82.9785 81.3299 82.762C81.7048 82.5456 82.1799 82.6666 82.3911 83.0324C82.6023 83.3981 82.4695 83.8701 82.0946 84.0866Z" fill="#C14600"/>
<path d="M96.0894 90.2162C95.7145 90.4326 95.2394 90.3116 95.0282 89.9458C94.8171 89.5801 94.9498 89.1081 95.3247 88.8917C95.6996 88.6752 96.1747 88.7963 96.3859 89.162C96.597 89.5278 96.4643 89.9997 96.0894 90.2162Z" fill="#C14600"/>
<path d="M91.3022 81.0995C90.9273 81.3159 90.4522 81.1949 90.241 80.8291C90.0298 80.4634 90.1626 79.9914 90.5375 79.775C90.9124 79.5585 91.3875 79.6796 91.5986 80.0453C91.8098 80.4111 91.6771 80.883 91.3022 81.0995Z" fill="#C14600"/>
<path d="M85.724 86.2539C85.1139 86.6061 84.3407 86.4091 83.997 85.8139C83.6533 85.2186 83.8693 84.4505 84.4795 84.0983C85.0896 83.746 85.8628 83.943 86.2065 84.5382C86.5502 85.1335 86.3341 85.9016 85.724 86.2539Z" fill="#C14600"/>
<path d="M91.0846 84.5957C90.4745 84.9479 89.7013 84.7509 89.3576 84.1557C89.014 83.5604 89.23 82.7923 89.8401 82.4401C90.4502 82.0878 91.2235 82.2848 91.5671 82.88C91.9108 83.4753 91.6948 84.2434 91.0846 84.5957Z" fill="#C14600"/>
<path d="M90.8493 88.8347C90.2392 89.1869 89.466 88.99 89.1223 88.3947C88.7786 87.7995 88.9946 87.0313 89.6048 86.6791C90.2149 86.3268 90.9881 86.5238 91.3318 87.1191C91.6754 87.7143 91.4594 88.4824 90.8493 88.8347Z" fill="#C14600"/>
<path d="M94.8602 86.5287C94.4853 86.7451 94.0102 86.6241 93.799 86.2583C93.5879 85.8926 93.7206 85.4206 94.0955 85.2042C94.4704 84.9877 94.9455 85.1088 95.1567 85.4745C95.3678 85.8403 95.2351 86.3122 94.8602 86.5287Z" fill="#C14600"/>
<path fill-rule="evenodd" clip-rule="evenodd" d="M83.6352 88.9166C83.6876 88.2398 84.2787 87.7336 84.9555 87.786L96.8631 88.7078C97.5399 88.7602 98.0461 89.3514 97.9937 90.0282C97.9413 90.705 97.3502 91.2112 96.6733 91.1588L84.7658 90.237C84.089 90.1846 83.5828 89.5934 83.6352 88.9166Z" fill="#FA7616"/>
<path d="M49.7812 37.939C50.1207 37.3511 50.8724 37.1497 51.4603 37.4891L74.8791 51.0099C75.467 51.3494 75.6684 52.1011 75.329 52.689L45.1336 104.989C44.6427 105.839 43.4024 105.799 42.9673 104.919L36.4912 91.8216C36.2713 91.3768 35.8055 91.1079 35.3103 91.1398L20.7295 92.0802C19.7498 92.1433 19.095 91.0892 19.5859 90.2389L49.7812 37.939Z" fill="#FF8B04"/>
<path fill-rule="evenodd" clip-rule="evenodd" d="M52.6895 35.3604L76.1083 48.8812C77.872 49.8995 78.4762 52.1547 77.458 53.9184L47.2626 106.218C45.79 108.769 42.069 108.649 40.7636 106.009L34.6508 93.646L20.8877 94.5336C17.9486 94.7232 15.9843 91.5606 17.4569 89.01L47.6523 36.7101C48.6705 34.9464 50.9258 34.3421 52.6895 35.3604ZM51.4603 37.4893C50.8724 37.1499 50.1207 37.3513 49.7812 37.9392L19.5859 90.2392C19.095 91.0894 19.7498 92.1436 20.7295 92.0804L35.3103 91.14C35.8055 91.1081 36.2713 91.377 36.4912 91.8218L42.9673 104.919C43.4024 105.799 44.6427 105.839 45.1336 104.989L75.329 52.6892C75.6684 52.1013 75.467 51.3496 74.8791 51.0102L51.4603 37.4893Z" fill="#BD4501"/>
<path fill-rule="evenodd" clip-rule="evenodd" d="M51.6264 38.8066C52.2139 39.1468 52.4143 39.8988 52.0741 40.4862L23.1119 90.4979C22.7717 91.0854 22.0196 91.2858 21.4322 90.9456C20.8447 90.6054 20.6443 89.8534 20.9845 89.266L49.9467 39.2543C50.2869 38.6668 51.0389 38.4664 51.6264 38.8066Z" fill="#FFB053"/>
<path fill-rule="evenodd" clip-rule="evenodd" d="M38.1078 90.8492C38.7192 90.5542 39.4539 90.8107 39.749 91.4221L45.0497 102.408C45.3447 103.019 45.0883 103.754 44.4769 104.049C43.8655 104.344 43.1307 104.087 42.8357 103.476L37.5349 92.4904C37.2399 91.879 37.4964 91.1442 38.1078 90.8492Z" fill="#FFB053"/>
<path d="M25.8125 25.8123C25.8125 25.8123 26.8039 46.6662 33.1875 57.7706C39.9625 69.5559 59 81.1248 59 81.1248C59 81.1248 78.0375 69.5559 84.8125 57.7706C91.1961 46.6662 92.1875 25.8123 92.1875 25.8123C92.1875 25.8123 84.1979 20.5796 75.5937 17.8227C66.9896 15.0657 59 14.7498 59 14.7498C59 14.7498 51.0104 15.0657 42.4062 17.8227C33.8021 20.5796 25.8125 25.8123 25.8125 25.8123Z" fill="#FFBB0D"/>
<path fill-rule="evenodd" clip-rule="evenodd" d="M24.4656 23.7556L25.8125 25.8121L23.3569 25.9288C23.3156 25.0592 23.7373 24.2325 24.4656 23.7556ZM59 14.7496C58.9029 12.2932 58.9025 12.2932 58.902 12.2932L58.8912 12.2936L58.8679 12.2946L58.7872 12.2984C58.7184 12.3018 58.6199 12.307 58.4936 12.3146C58.241 12.3296 57.8769 12.354 57.4156 12.392C56.4935 12.4679 55.1807 12.5981 53.594 12.8169C50.4284 13.2533 46.1328 14.047 41.6561 15.4814C37.1557 16.9234 32.8605 18.9961 29.7183 20.6861C28.1401 21.535 26.8366 22.2961 25.9243 22.8471C25.4678 23.1229 25.1085 23.3465 24.8607 23.5029C24.7368 23.581 24.6407 23.6425 24.5743 23.6852L24.4971 23.7351L24.4755 23.7491L24.467 23.7546C24.4667 23.7549 24.4656 23.7556 25.8125 25.8121C23.3569 25.9288 23.3569 25.9283 23.3569 25.9288L23.358 25.9494L23.3605 26C23.3628 26.0435 23.3662 26.1066 23.3708 26.1882C23.3801 26.3515 23.3944 26.5892 23.4147 26.8938C23.4554 27.5029 23.5206 28.3802 23.6188 29.4656C23.8152 31.6346 24.1447 34.6444 24.6781 38.0117C25.7311 44.6584 27.6264 53.0294 31.0562 58.9956C34.6972 65.3292 41.4806 71.4123 47.1241 75.8067C49.9834 78.0331 52.6237 79.8816 54.5497 81.1741C55.5136 81.8209 56.3008 82.33 56.8499 82.679C57.1244 82.8536 57.3396 82.9883 57.4877 83.0802C57.5618 83.1262 57.6191 83.1615 57.6587 83.1859L57.7046 83.214L57.7213 83.2242L57.7225 83.2249C57.723 83.2252 57.7234 83.2254 59 81.1246L57.7225 83.2249C58.5069 83.7016 59.4923 83.7021 60.2767 83.2254L59 81.1246C60.2767 83.2254 60.2762 83.2257 60.2767 83.2254L60.2787 83.2242L60.2954 83.214L60.3413 83.1859C60.3809 83.1615 60.4382 83.1262 60.5123 83.0802C60.6604 82.9883 60.8756 82.8536 61.1502 82.679C61.6992 82.33 62.4864 81.8209 63.4503 81.1741C65.3763 79.8816 68.0166 78.0331 70.876 75.8067C76.5194 71.4123 83.3028 65.3292 86.9438 58.9956C90.3736 53.0294 92.269 44.6584 93.3219 38.0117C93.8553 34.6444 94.1848 31.6346 94.3812 29.4656C94.4794 28.3802 94.5446 27.5029 94.5853 26.8938C94.6057 26.5892 94.6199 26.3515 94.6292 26.1882C94.6338 26.1066 94.6372 26.0435 94.6395 26L94.6421 25.9494L94.6428 25.9353L94.643 25.9297C94.643 25.9292 94.6431 25.9288 92.1875 25.8121L94.643 25.9297C94.6844 25.0601 94.2627 24.2325 93.5344 23.7556L92.1875 25.8121C93.5344 23.7556 93.5347 23.7558 93.5344 23.7556L93.533 23.7546L93.5245 23.7491L93.503 23.7351L93.4258 23.6852C93.3593 23.6425 93.2632 23.581 93.1393 23.5029C92.8915 23.3465 92.5322 23.1229 92.0757 22.8471C91.1634 22.2961 89.8599 21.535 88.2817 20.6861C85.1395 18.9961 80.8443 16.9234 76.3439 15.4814C71.8672 14.047 67.5716 13.2533 64.406 12.8169C62.8193 12.5981 61.5065 12.4679 60.5844 12.392C60.1232 12.354 59.759 12.3296 59.5064 12.3146C59.3801 12.307 59.2816 12.3018 59.2128 12.2984L59.1321 12.2946L59.1088 12.2936L59.099 12.2932C59.0985 12.2932 59.0972 12.2932 59 14.7496ZM59 14.7496L58.902 12.2932C58.9668 12.2906 59.0324 12.2906 59.0972 12.2932L59 14.7496ZM59 14.7496C59 14.7496 51.0104 15.0655 42.4063 17.8225C33.8021 20.5794 25.8125 25.8121 25.8125 25.8121C25.8125 25.8121 26.8039 46.666 33.1875 57.7704C39.9625 69.5558 59 81.1246 59 81.1246C59 81.1246 78.0375 69.5558 84.8125 57.7704C91.1961 46.666 92.1875 25.8121 92.1875 25.8121C92.1875 25.8121 84.1979 20.5794 75.5938 17.8225C66.9896 15.0655 59 14.7496 59 14.7496Z" fill="#E89B05"/>
<path fill-rule="evenodd" clip-rule="evenodd" d="M60.2282 17.1596C60.255 17.8378 59.727 18.4094 59.0488 18.4363L59.0461 18.4365L59.033 18.437L58.9755 18.4397C58.9234 18.4423 58.8443 18.4465 58.7397 18.4527C58.5305 18.4652 58.2197 18.4859 57.8204 18.5188C57.0217 18.5845 55.8706 18.6985 54.4731 18.8912C51.6741 19.277 47.9066 19.9756 44.0105 21.224C40.1262 22.4686 36.3584 24.2804 33.5478 25.7921C32.1461 26.546 30.9903 27.221 30.1867 27.7064C29.9357 27.858 29.7192 27.991 29.5405 28.1021C29.543 28.1396 29.5455 28.1786 29.5482 28.219C29.5843 28.7585 29.6425 29.5432 29.7308 30.5181C29.9074 32.4688 30.2038 35.1757 30.6827 38.1987C31.6474 44.2887 33.3288 51.4957 36.1652 56.4296C36.5035 57.0182 36.3007 57.7696 35.7121 58.1079C35.1236 58.4462 34.3722 58.2434 34.0339 57.6549C30.9595 52.3069 29.2265 44.7184 28.2546 38.5834C27.7652 35.4938 27.4627 32.7308 27.2825 30.7397C27.1923 29.7437 27.1326 28.9396 27.0954 28.383C27.0768 28.1046 27.0638 27.888 27.0554 27.7402C27.0512 27.6663 27.0481 27.6095 27.0461 27.5708L27.0439 27.5263L27.0431 27.5111C27.0431 27.5108 27.043 27.5096 28.2708 27.4512C27.5974 26.4229 27.5975 26.4228 27.5977 26.4227L27.6048 26.4181L27.623 26.4063L27.6908 26.3624C27.7499 26.3245 27.8362 26.2692 27.9483 26.1985C28.1724 26.0571 28.4993 25.8537 28.9157 25.6022C29.7482 25.0993 30.9398 24.4035 32.3833 23.6271C35.2633 22.0781 39.1778 20.191 43.2603 18.8829C47.331 17.5786 51.2458 16.8545 54.1374 16.4559C55.5852 16.2563 56.7815 16.1376 57.6188 16.0687C58.0376 16.0343 58.3669 16.0122 58.5934 15.9987C58.7067 15.992 58.7942 15.9873 58.8545 15.9844L58.9241 15.9811L58.9431 15.9803L58.9504 15.98C58.9506 15.98 58.9514 15.9799 59 17.2081L58.9504 15.98C59.6287 15.9532 60.2014 16.4813 60.2282 17.1596ZM28.2708 27.4512L27.5977 26.4227C27.2336 26.6612 27.0224 27.0748 27.043 27.5096L28.2708 27.4512Z" fill="#FFD15C"/>
<path fill-rule="evenodd" clip-rule="evenodd" d="M89.7875 26.2236C90.4656 26.2558 90.9892 26.8316 90.957 27.5097L89.7292 27.4514C90.957 27.5097 90.957 27.5094 90.957 27.5097L90.9569 27.5113L90.9561 27.5265L90.9539 27.5709C90.9518 27.6097 90.9488 27.6664 90.9446 27.7403C90.9362 27.8882 90.9232 28.1048 90.9046 28.3831C90.8674 28.9398 90.8077 29.7439 90.7175 30.7399C90.5373 32.731 90.2348 35.494 89.7454 38.5835C88.7735 44.7186 87.0405 52.3071 83.9661 57.655C80.7028 63.3316 74.5625 68.86 69.353 72.9165C66.7294 74.9594 64.3055 76.6564 62.5372 77.8431C61.6526 78.4367 60.931 78.9033 60.4291 79.2223C60.1782 79.3819 59.9821 79.5046 59.8479 79.5879C59.7808 79.6295 59.7293 79.6613 59.694 79.683L59.6536 79.7078L59.6428 79.7144L59.6397 79.7162C59.6395 79.7164 59.6383 79.7171 59 78.6666L59.6383 79.7171C59.0582 80.0696 58.3021 79.8851 57.9496 79.305C57.5971 78.7249 57.7815 77.9688 58.3616 77.6163C58.3615 77.6163 58.3616 77.6163 58.3616 77.6163L58.372 77.6099L58.4075 77.5882C58.4394 77.5686 58.4875 77.5389 58.5511 77.4994C58.6782 77.4205 58.8669 77.3024 59.1102 77.1478C59.5968 76.8384 60.3014 76.3829 61.1674 75.8017C62.9002 74.6389 65.2752 72.976 67.8426 70.9768C73.015 66.9493 78.825 61.6655 81.8348 56.4298C84.6712 51.4959 86.3525 44.2888 87.3173 38.1989C87.7962 35.1759 88.0926 32.469 88.2692 30.5183C88.3575 29.5434 88.4157 28.7586 88.4518 28.2191C88.4698 27.9494 88.4823 27.7411 88.4902 27.6011C88.4942 27.5311 88.497 27.4782 88.4988 27.4432L88.5008 27.4043L88.5013 27.3952L88.5014 27.3932C88.5336 26.7151 89.1095 26.1913 89.7875 26.2236Z" fill="#EEAD04"/>
<path d="M34.4167 30.3192C34.4167 30.3192 35.151 45.7665 39.8796 53.992C44.8982 62.7219 59 71.2914 59 71.2914C59 71.2914 73.1018 62.7219 78.1204 53.992C82.8489 45.7665 83.5833 30.3192 83.5833 30.3192C83.5833 30.3192 77.6651 26.4432 71.2917 24.401C64.9182 22.3588 59 22.1248 59 22.1248C59 22.1248 53.0818 22.3588 46.7083 24.401C40.3349 26.4432 34.4167 30.3192 34.4167 30.3192Z" fill="#FFDD28"/>
<path fill-rule="evenodd" clip-rule="evenodd" d="M33.0698 28.2627L34.4167 30.3193L31.9611 30.436C31.9198 29.5664 32.3415 28.7397 33.0698 28.2627ZM59 22.1248C58.9029 19.6684 58.9025 19.6684 58.9021 19.6684L58.8927 19.6688L58.8739 19.6696L58.811 19.6726C58.7579 19.6752 58.6828 19.6792 58.587 19.6849C58.3954 19.6963 58.1208 19.7147 57.7741 19.7432C57.081 19.8003 56.0969 19.898 54.9085 20.0618C52.5396 20.3884 49.3195 20.9829 45.9582 22.06C42.5732 23.1446 39.3535 24.6994 37.008 25.9609C35.8281 26.5956 34.8532 27.1647 34.1699 27.5775C33.828 27.784 33.5583 27.9519 33.3715 28.0697C33.2781 28.1287 33.2053 28.1752 33.1546 28.2078L33.0952 28.2462L33.0782 28.2573L33.0711 28.2619C33.0708 28.2621 33.0698 28.2627 34.4167 30.3193C31.9611 30.436 31.9611 30.4356 31.9611 30.436L31.9619 30.4527L31.9639 30.4916C31.9656 30.5248 31.9682 30.5725 31.9717 30.634C31.9787 30.757 31.9894 30.9352 32.0046 31.1631C32.0351 31.6187 32.0837 32.2736 32.157 33.0831C32.3034 34.7001 32.549 36.9442 32.9469 39.4558C33.7287 44.3909 35.1461 50.6905 37.7484 55.2173C40.5111 60.0231 45.6215 64.5926 49.8114 67.8552C51.944 69.5157 53.9125 70.8939 55.3483 71.8574C56.0671 72.3398 56.6547 72.7197 57.0654 72.9808C57.2707 73.1114 57.432 73.2123 57.5436 73.2816C57.5993 73.3162 57.6427 73.3429 57.6729 73.3615L57.7082 73.3831L57.7183 73.3893L57.7226 73.3919C57.723 73.3921 57.7233 73.3923 59 71.2915L57.7226 73.3919C58.5069 73.8685 59.4923 73.869 60.2767 73.3923L59 71.2915C60.2767 73.3923 60.2762 73.3926 60.2767 73.3923L60.2817 73.3893L60.2918 73.3831L60.3271 73.3615C60.3573 73.3429 60.4007 73.3162 60.4564 73.2816C60.568 73.2123 60.7293 73.1114 60.9346 72.9808C61.3453 72.7197 61.9329 72.3398 62.6517 71.8574C64.0875 70.8939 66.056 69.5157 68.1886 67.8552C72.3785 64.5926 77.4889 60.0231 80.2516 55.2173C82.854 50.6905 84.2713 44.3909 85.0531 39.4558C85.451 36.9442 85.6966 34.7001 85.843 33.0831C85.9163 32.2736 85.9649 31.6187 85.9954 31.1631C86.0106 30.9352 86.0213 30.757 86.0283 30.634C86.0318 30.5725 86.0344 30.5248 86.0361 30.4916L86.0381 30.4527L86.0388 30.4381C86.0388 30.4376 86.0389 30.436 83.5833 30.3193L86.0389 30.436C86.0802 29.5664 85.6585 28.7397 84.9302 28.2627L83.5833 30.3193C84.9302 28.2627 84.9305 28.2629 84.9302 28.2627L84.9289 28.2619L84.9271 28.2607L84.9218 28.2573L84.9048 28.2462L84.8454 28.2078C84.7947 28.1752 84.7219 28.1287 84.6285 28.0697C84.4417 27.9519 84.172 27.784 83.8301 27.5775C83.1468 27.1647 82.172 26.5956 80.992 25.9609C78.6465 24.6994 75.4268 23.1446 72.0418 22.06C68.6805 20.9829 65.4604 20.3884 63.0915 20.0618C61.9031 19.898 60.919 19.8003 60.2259 19.7432C59.8792 19.7147 59.6046 19.6963 59.413 19.6849C59.3172 19.6792 59.2421 19.6752 59.189 19.6726L59.1261 19.6696L59.1073 19.6688L59.0989 19.6685C59.0985 19.6685 59.0972 19.6684 59 22.1248ZM59 22.1248L58.9021 19.6684C58.9668 19.6659 59.0324 19.6658 59.0972 19.6684L59 22.1248ZM59 22.1248C59 22.1248 53.0818 22.3589 46.7083 24.4011C40.3349 26.4432 34.4167 30.3193 34.4167 30.3193C34.4167 30.3193 35.1511 45.7666 39.8796 53.9921C44.8982 62.722 59 71.2915 59 71.2915C59 71.2915 73.1018 62.722 78.1204 53.9921C82.8489 45.7666 83.5833 30.3193 83.5833 30.3193C83.5833 30.3193 77.6651 26.4432 71.2917 24.4011C64.9182 22.3589 59 22.1248 59 22.1248Z" fill="#E89B05"/>
<path fill-rule="evenodd" clip-rule="evenodd" d="M81.1834 30.7304C81.8615 30.7627 82.385 31.3385 82.3528 32.0166L81.125 31.9582C82.3528 32.0166 82.3528 32.0163 82.3528 32.0166L82.3527 32.0179L82.3526 32.0205L82.3522 32.0294L82.3505 32.0622L82.3437 32.1858C82.3376 32.2933 82.3282 32.4504 82.3147 32.652C82.2878 33.0552 82.2446 33.6369 82.1794 34.357C82.0491 35.7962 81.8305 37.7934 81.4766 40.0272C80.7758 44.4508 79.5208 49.9679 77.274 53.8764C74.8889 58.0253 70.4217 62.0399 66.6656 64.9646C64.7687 66.4416 63.0167 67.6683 61.7386 68.526C61.0991 68.9551 60.5771 69.2927 60.2136 69.5237C60.0319 69.6393 59.8896 69.7283 59.7921 69.7889C59.7433 69.8192 59.7056 69.8424 59.6798 69.8582L59.65 69.8765L59.6419 69.8815L59.6395 69.8829C59.6393 69.883 59.6383 69.8836 59 68.8332L59.6383 69.8836C59.0582 70.2362 58.3021 70.0517 57.9496 69.4715C57.5971 68.8914 57.7815 68.1354 58.3615 67.7829C58.3615 67.7829 58.3616 67.7828 58.3615 67.7829L58.3685 67.7786L58.3933 67.7634L58.4952 67.7004C58.5858 67.6442 58.7206 67.5598 58.8947 67.4492C59.2429 67.2278 59.7478 66.9014 60.3687 66.4847C61.6114 65.6508 63.3146 64.4582 65.1552 63.025C68.8742 60.1292 73.0111 56.3592 75.1427 52.6512C77.1516 49.1567 78.3549 44.021 79.0485 39.6425C79.3919 37.4753 79.6044 35.5342 79.7311 34.1353C79.7943 33.4364 79.8361 32.8741 79.8619 32.488C79.8748 32.295 79.8837 32.1462 79.8894 32.0465L79.8955 31.9344L79.8969 31.9072L79.8972 31.901C79.8972 31.901 79.8972 31.8997 79.8972 31.8996M81.1834 30.7304C80.5053 30.6982 79.9296 31.2217 79.8972 31.8996L81.1834 30.7304Z" fill="#ECC704"/>
<path d="M62.3837 54.0827H52.241L46.747 54.0828C46.0468 54.0828 45.4792 53.5088 45.4792 52.8008V41.6903C45.4792 40.9823 46.0468 40.4083 46.747 40.4083L52.241 40.4083C56.4671 37.0179 56.8712 31.0105 57.3123 30.1526C58.7915 27.276 62.1013 28.1296 63.2289 29.84C63.8536 30.7875 63.8721 32.7074 63.2289 35.3087C62.5858 37.91 60.6933 40.4084 60.6933 40.4084L65.342 40.4084L69.9907 40.4084C72.1435 40.4083 72.6355 42.014 72.5 43.8216C72.0589 49.7059 69.7747 54.0826 62.3837 54.0827Z" fill="#FFEF9C"/>
<path fill-rule="evenodd" clip-rule="evenodd" d="M58.4119 30.7023C58.4128 30.7007 58.4133 30.6999 58.4135 30.7C58.4151 30.7006 58.3882 30.7744 58.3355 30.9911C58.2958 31.1544 58.2539 31.3424 58.2037 31.5681C58.1803 31.6735 58.155 31.7872 58.1273 31.9104C57.9584 32.66 57.7236 33.646 57.361 34.7231C56.6885 36.7204 55.5483 39.1188 53.4702 40.9774L53.4702 52.8537H62.3837C65.8226 52.8536 67.8538 51.8474 69.1102 50.3643C70.4126 48.827 71.0612 46.5726 71.2743 43.7298C71.3352 42.9177 71.23 42.3714 71.0485 42.0681C70.9325 41.874 70.7125 41.6376 69.9907 41.6376L60.6933 41.6377C60.2266 41.6377 59.8003 41.3735 59.5926 40.9556C59.385 40.538 59.4317 40.039 59.7129 39.6671L59.7149 39.6644L59.7268 39.6484C59.738 39.6333 59.7558 39.6091 59.7794 39.5765C59.8265 39.5112 59.8965 39.4125 59.9836 39.2849C60.1579 39.0293 60.3985 38.6605 60.6579 38.2152C61.1851 37.3108 61.7544 36.1516 62.0357 35.0138C62.3417 33.776 62.4772 32.7502 62.4752 31.9573C62.4732 31.1362 62.324 30.7005 62.2027 30.5166C61.8649 30.0043 61.1201 29.5496 60.3305 29.5033C59.6432 29.463 58.9185 29.7268 58.4119 30.7023ZM62.9386 39.1793C63.483 38.2109 64.0924 36.9376 64.4222 35.6038C64.7593 34.2403 64.9362 33.0055 64.9335 31.9512C64.931 30.9252 64.7586 29.9271 64.2551 29.1635C63.4653 27.9655 61.9914 27.1382 60.4744 27.0492C58.858 26.9545 57.1915 27.6998 56.2192 29.5906C56.0863 29.8491 56.0025 30.1809 55.9468 30.4102C55.9011 30.5978 55.8508 30.8239 55.7975 31.0635C55.7752 31.164 55.7523 31.2668 55.729 31.3702C55.5659 32.0942 55.3529 32.9828 55.0311 33.9387C54.4212 35.7503 53.449 37.7149 51.7928 39.1793L46.747 39.1793C45.3551 39.1793 44.25 40.3165 44.25 41.6904V52.8009C44.25 54.1749 45.3551 55.312 46.747 55.312L62.3837 55.312C66.3358 55.3119 69.1422 54.1297 70.986 51.9534C72.7837 49.8312 73.4978 46.9551 73.7258 43.9136C73.8004 42.9181 73.7273 41.7577 73.1584 40.8064C72.5241 39.7457 71.4217 39.1793 69.9907 39.1793L62.9386 39.1793ZM51.0119 41.6376L46.747 41.6376C46.7414 41.6376 46.7388 41.6385 46.7369 41.6394C46.734 41.6406 46.7295 41.6432 46.7245 41.6483C46.7194 41.6533 46.7154 41.6594 46.7128 41.6658C46.7104 41.6714 46.7083 41.6789 46.7083 41.6904V52.8009C46.7083 52.8124 46.7104 52.82 46.7128 52.8256C46.7154 52.8319 46.7194 52.838 46.7245 52.8431C46.7295 52.8481 46.734 52.8508 46.7368 52.852C46.7388 52.8528 46.7414 52.8537 46.747 52.8537L51.0118 52.8537L51.0119 41.6376Z" fill="#E89B05"/>
</svg>
