<svg width="52" height="56" viewBox="0 0 52 56" fill="none" xmlns="http://www.w3.org/2000/svg">
<g id="Group">
<path id="Vector" d="M24.9224 55.7284C38.0429 55.7284 48.6792 45.0921 48.6792 31.9716C48.6792 18.8511 38.0429 8.21484 24.9224 8.21484C11.8019 8.21484 1.16565 18.8511 1.16565 31.9716C1.16565 45.0921 11.8019 55.7284 24.9224 55.7284Z" fill="#220000"/>
<path id="Vector_2" d="M9.5518 10.2007L4.66516 15.0873L8.42064 18.8428L13.3073 13.9562L9.5518 10.2007Z" fill="#0D0603"/>
<path id="Vector_3" d="M8.84484 5.53529L0 14.3801L2.9878 17.3679L11.8326 8.52309L8.84484 5.53529Z" fill="#694F03"/>
<path id="Vector_4" d="M47.0754 15.0841L42.1887 10.1974L38.4332 13.9529L43.3199 18.8396L47.0754 15.0841Z" fill="#0D0603"/>
<path id="Vector_5" d="M51.74 14.3771L42.8951 5.53229L39.9073 8.52009L48.7522 17.3649L51.74 14.3771Z" fill="#694F03"/>
<path id="Vector_6" d="M31.5717 4.69409H20.1722V11.256H31.5717V4.69409Z" fill="#0D0603"/>
<g id="Group_2">
<path id="Vector_7" d="M25.8699 55.1592C38.9904 55.1592 49.6267 44.5229 49.6267 31.4024C49.6267 18.282 38.9904 7.64569 25.8699 7.64569C12.7494 7.64569 2.11316 18.282 2.11316 31.4024C2.11316 44.5229 12.7494 55.1592 25.8699 55.1592Z" fill="url(#paint0_linear_1_152)"/>
<path id="Vector_8" opacity="0.35" d="M47.6064 31.5549C47.6064 44.0162 37.7004 54.1574 25.3346 54.5503C25.5819 54.5581 25.828 54.5691 26.0771 54.5691C38.7875 54.5691 49.0913 44.2653 49.0913 31.5549C49.0913 18.8445 38.7875 8.54059 26.0771 8.54059C25.828 8.54059 25.5819 8.5516 25.3346 8.55942C37.7007 8.95233 47.6064 19.0935 47.6064 31.5549Z" fill="#FFE496" fill-opacity="0.66"/>
<path id="Vector_9" d="M25.8699 51.2315C36.8212 51.2315 45.699 42.3537 45.699 31.4025C45.699 20.4512 36.8212 11.5734 25.8699 11.5734C14.9187 11.5734 6.04089 20.4512 6.04089 31.4025C6.04089 42.3537 14.9187 51.2315 25.8699 51.2315Z" fill="#FFE496" fill-opacity="0.66"/>
<g id="Group_3">
<path id="Vector_10" d="M11.2426 18.0141L19.7257 50.2573C20.7862 50.6026 21.885 50.8616 23.0154 51.0246L13.729 15.7284C12.8369 16.4201 12.0039 17.1828 11.2426 18.0141Z" fill="#E6EEF0"/>
<path id="Vector_11" d="M29.8808 50.8248L19.8032 12.5214C18.1175 13.0624 16.5317 13.8241 15.0765 14.7701L24.6589 51.1915C25.0589 51.2156 25.4614 51.2316 25.8675 51.2316C27.2423 51.2316 28.5845 51.0913 29.8808 50.8248Z" fill="#E6EEF0"/>
</g>
<path id="Vector_12" d="M25.8695 11.5734C25.3469 11.5734 24.8308 11.6001 24.3181 11.6395C34.5435 12.4317 42.5961 20.9739 42.5961 31.4025C42.5961 41.831 34.5435 50.3732 24.3181 51.1654C24.8308 51.2052 25.3466 51.2315 25.8695 51.2315C36.8207 51.2315 45.6986 42.3536 45.6986 31.4025C45.6986 20.4513 36.8207 11.5734 25.8695 11.5734Z" fill="#E6EEF0"/>
<g id="Group_4">
<path id="Vector_13" d="M26.2529 12.4676H25.4866V15.6606H26.2529V12.4676Z" fill="#FFBE00"/>
<path id="Vector_14" d="M44.8047 31.7856V31.0193H41.6116V31.7856H44.8047Z" fill="#FFBE00"/>
<path id="Vector_15" d="M25.4863 50.3375H26.2526V47.1444H25.4863V50.3375Z" fill="#FFBE00"/>
<path id="Vector_16" d="M6.93445 31.0194V31.7857H10.1275V31.0194H6.93445Z" fill="#FFBE00"/>
<path id="Vector_17" d="M39.5288 18.2823L38.9869 17.7405L36.7291 19.9983L37.271 20.5401L39.5288 18.2823Z" fill="#FFBE00"/>
<path id="Vector_18" d="M38.986 45.0534L39.5278 44.5115L37.27 42.2537L36.7282 42.7956L38.986 45.0534Z" fill="#FFBE00"/>
<path id="Vector_19" d="M12.2039 44.526L12.7457 45.0678L15.0035 42.81L14.4617 42.2682L12.2039 44.526Z" fill="#FFBE00"/>
<path id="Vector_20" d="M12.75 17.7439L12.2081 18.2858L14.4659 20.5436L15.0078 20.0017L12.75 17.7439Z" fill="#FFBE00"/>
</g>
<path id="Vector_21" d="M24.5441 30.773L27.2298 32.1144L32.5082 16.3495L24.5441 30.773Z" fill="#3B0070"/>
<g id="Group_5">
<path id="Vector_22" d="M15.4731 36.0694L25.3131 30.1857L26.4332 32.6231L15.4731 36.0694Z" fill="#3B0070"/>
</g>
<path id="Vector_23" d="M27.5463 31.4023C27.5463 32.3281 26.7956 33.0788 25.8698 33.0788C24.944 33.0788 24.1934 32.3281 24.1934 31.4023C24.1934 30.4765 24.944 29.7259 25.8698 29.7259C26.796 29.7262 27.5463 30.4765 27.5463 31.4023Z" fill="#3B0070"/>
<path id="Vector_24" d="M25.8702 32.1509C26.2836 32.1509 26.6188 31.8157 26.6188 31.4023C26.6188 30.9889 26.2836 30.6538 25.8702 30.6538C25.4568 30.6538 25.1217 30.9889 25.1217 31.4023C25.1217 31.8157 25.4568 32.1509 25.8702 32.1509Z" fill="#FFE496" fill-opacity="0.66"/>
</g>
<path id="Vector_25" d="M33.599 0H18.1443V5.22086H33.599V0Z" fill="#694F03"/>
</g>
<defs>
<linearGradient id="paint0_linear_1_152" x1="2.11316" y1="31.4026" x2="49.6265" y2="31.4026" gradientUnits="userSpaceOnUse">
<stop/>
<stop offset="1" stop-color="#FFBE00"/>
</linearGradient>
</defs>
</svg>
