<svg width="221" height="221" viewBox="0 0 221 221" fill="none" xmlns="http://www.w3.org/2000/svg">
<g clip-path="url(#clip0_437_915)">
<path fill-rule="evenodd" clip-rule="evenodd" d="M196.835 150.892C179.102 157.555 156.523 155.596 134.335 148.148C101.184 137.017 68.916 113.664 55.0835 88.9899C54.8048 88.478 54.9878 87.8325 55.4898 87.5517C56.0037 87.2631 56.6393 87.4441 56.928 87.958C70.549 112.247 102.363 135.188 135.012 146.141C156.695 153.424 178.758 155.431 196.09 148.91C196.639 148.701 197.245 148.979 197.454 149.528C197.655 150.066 197.384 150.683 196.835 150.892Z" fill="#34296B"/>
<path fill-rule="evenodd" clip-rule="evenodd" d="M31.0477 65.5384C39.7912 79.4212 48.8731 90.7243 52.0566 107.884C52.1562 108.463 51.7846 109.018 51.2057 109.118C50.6347 109.229 50.0812 108.848 49.9796 108.279C46.4736 89.3982 35.663 77.7436 26.2206 61.7013C25.7144 60.8328 26.247 60.2996 26.3846 60.1828C26.586 60.0065 26.9604 59.7929 27.4965 60.0054C27.6018 60.0475 27.7964 60.1596 28.0463 60.3553C28.5162 60.7405 29.4061 61.6043 29.8424 61.9516C31.1098 62.9439 32.3951 63.8984 33.6625 64.8907C37.2859 67.7278 40.9294 70.5173 44.7726 73.0369C59.1355 82.486 70.8194 90.3039 88.3308 87.1195C88.9117 87.0101 89.4554 87.3897 89.5648 87.9706C89.6664 88.5396 89.2848 89.0931 88.7158 89.1946C70.6016 92.4944 58.4628 84.5735 43.6058 74.8067C39.719 72.2471 36.0199 69.4257 32.3608 66.5607C31.9245 66.2133 31.486 65.8759 31.0477 65.5384Z" fill="#34296B"/>
</g>
<defs>
<clipPath id="clip0_437_915">
<rect width="186" height="186" fill="white" transform="matrix(0.199281 -0.979942 -0.979942 -0.199281 183.226 220.292)"/>
</clipPath>
</defs>
</svg>
