<svg width="262" height="262" viewBox="0 0 262 262" fill="none" xmlns="http://www.w3.org/2000/svg">
<g clip-path="url(#clip0_437_922)">
<path fill-rule="evenodd" clip-rule="evenodd" d="M217.029 90.7746C210.671 108.619 194.599 124.599 174.589 136.738C144.688 154.871 106.022 164.441 78.2488 159.078C77.678 158.961 77.303 158.404 77.4126 157.84C77.5239 157.261 78.0725 156.892 78.6513 157.003C105.995 162.279 144.052 152.79 173.493 134.925C193.052 123.065 208.827 107.51 215.034 90.0638C215.229 89.5093 215.832 89.2265 216.387 89.4215C216.927 89.6149 217.224 90.22 217.029 90.7746Z" fill="#34296B"/>
<path fill-rule="evenodd" clip-rule="evenodd" d="M44.8222 162.297C61.0692 164.581 75.5644 164.941 90.7249 173.586C91.2313 173.884 91.4158 174.526 91.1181 175.033C90.8346 175.541 90.1859 175.717 89.6858 175.427C73.0028 165.918 57.1232 166.651 38.7757 163.507C37.7856 163.333 37.7222 162.582 37.7218 162.401C37.7171 162.134 37.7957 161.71 38.3041 161.438C38.4042 161.385 38.6154 161.308 38.9261 161.244C39.5237 161.133 40.7579 161.011 41.3048 160.902C42.8807 160.575 44.4395 160.209 46.0154 159.882C50.5212 158.946 55.0036 157.964 59.4089 156.655C75.897 151.785 89.41 147.908 98.2818 132.478C98.5732 131.964 99.2141 131.794 99.7284 132.085C100.229 132.375 100.405 133.024 100.115 133.524C90.9424 149.488 77.0571 153.646 60.0073 158.689C55.5435 160.005 51.0008 161.009 46.4506 161.954C45.9036 162.063 45.3629 162.18 44.8222 162.297Z" fill="#34296B"/>
</g>
<defs>
<clipPath id="clip0_437_922">
<rect width="186" height="186" fill="white" transform="matrix(-0.619791 -0.784767 -0.784767 0.619791 261.248 145.967)"/>
</clipPath>
</defs>
</svg>
