<svg width="34" height="34" viewBox="0 0 34 34" fill="none" xmlns="http://www.w3.org/2000/svg">
<path d="M22.6666 12.3958C22.0858 12.3958 21.6041 11.9142 21.6041 11.3333V6.37501C21.6041 4.84501 20.6549 3.89584 19.1249 3.89584H14.8749C13.3449 3.89584 12.3958 4.84501 12.3958 6.37501V11.3333C12.3958 11.9142 11.9141 12.3958 11.3333 12.3958C10.7524 12.3958 10.2708 11.9142 10.2708 11.3333V6.37501C10.2708 3.66918 12.1691 1.77084 14.8749 1.77084H19.1249C21.8308 1.77084 23.7291 3.66918 23.7291 6.37501V11.3333C23.7291 11.9142 23.2474 12.3958 22.6666 12.3958Z" fill="#34296B"/>
<path d="M11.3335 25.1883C10.7527 25.1883 10.271 24.7067 10.271 24.1258C10.271 23.5308 10.7527 23.0633 11.3335 23.0633H27.9935C28.4185 23.0633 28.7444 22.695 28.7019 22.27L27.7385 14.2092C27.3985 11.4608 26.9169 9.20834 22.1002 9.20834H11.9002C7.08352 9.20834 6.60185 11.4608 6.27602 14.2092L5.00102 24.8342C4.59019 28.3192 5.66685 31.1667 10.6394 31.1667H23.361C27.8377 31.1667 29.1552 28.8575 29.0844 25.8542C29.0702 25.4717 28.7585 25.1883 28.376 25.1883H11.3335Z" fill="#34296B"/>
</svg>
