<svg width="89" height="74" viewBox="0 0 89 74" fill="none" xmlns="http://www.w3.org/2000/svg">
<path d="M67.243 49.3411C64.9274 49.449 62.6252 49.8287 60.3694 50.4467C63.4928 47.5784 66.0616 44.3075 67.948 40.4352C70.8421 34.4962 72.1874 27.6228 73.3159 20.7892C73.3497 20.5843 73.3829 20.3799 73.4162 20.1749C65.1496 22.5549 57.7744 26.2046 52.5887 31.6603C51.5073 32.7983 50.5273 34.0234 49.6294 35.3115C49.3033 33.8642 48.9376 32.4261 48.5274 30.9993C45.7666 21.3932 37.4965 7.77567 33.5692 1.10843C28.9899 12.9117 27.0417 25.1194 27.8291 37.2361C27.8775 37.9845 27.9437 38.7325 28.0171 39.4795C26.4189 38.2808 24.7047 37.2235 22.8542 36.3211C16.9158 33.4266 10.0445 32.0782 3.21244 30.9475C3.00805 30.9138 2.80311 30.8805 2.59819 30.8467C4.98183 39.1081 8.63363 46.4796 14.0904 51.6643C16.5946 54.0436 19.4899 55.9738 22.668 57.4512C20.949 57.7281 19.2593 58.1361 17.6185 58.6909C11.4392 60.7799 5.87413 64.9212 0.977835 70.0499C1.15039 70.0851 1.32347 70.1198 1.49656 70.1545C7.26878 71.3082 13.1523 72.3204 18.8699 71.979C24.537 71.6405 29.6944 69.8074 34.7175 66.9693C37.8454 65.2015 38.8936 64.0195 43.675 60.6179C43.6755 60.6174 43.6755 60.6174 43.6765 60.6168C43.676 60.6174 43.675 60.6174 43.675 60.6179C49.3661 62.0462 50.7729 62.7661 54.3303 63.2741C60.0414 64.09 65.5125 63.9207 70.9144 62.1732C76.3643 60.4103 81.4761 57.3268 86.4328 54.1514C86.5814 54.056 86.7295 53.9611 86.8775 53.8653C80.4491 50.8699 73.7588 49.0381 67.243 49.3411Z" fill="#F1BF4C"/>
<path d="M67.2445 48.3647C64.8165 48.5185 62.4673 48.896 60.1104 49.5041C60.4252 50.0508 60.7401 50.5969 61.055 51.1435C69.8092 42.9305 72.4833 31.9084 74.3552 20.4414C74.4688 19.7437 73.9372 19.0031 73.1572 19.2329C63.625 22.0389 54.6905 26.5819 48.7835 34.8161C49.3791 34.8965 49.9751 34.9774 50.5707 35.0577C47.6851 22.5802 40.8518 11.5387 34.4128 0.62046C33.957 -0.152722 32.9145 0.0838134 32.6237 0.846447C27.9306 13.1402 25.7918 26.341 27.036 39.4772C27.5277 39.1976 28.02 38.9185 28.5117 38.6389C21.017 33.1714 11.8345 31.3757 2.85937 29.907C2.16224 29.7928 1.42057 30.3249 1.65094 31.1055C5.03498 42.5792 11.0411 52.9518 22.1674 58.2968C22.2478 57.7013 22.3286 57.1052 22.409 56.5097C13.6248 58.0416 6.39401 63.0486 0.286208 69.3581C-0.193379 69.8533 -0.0375137 70.8443 0.710596 70.9952C9.04408 72.6745 17.6901 74.1136 26.0381 71.7403C33.0491 69.7472 38.3627 65.6232 44.1616 61.4673C44.6913 61.0876 44.9032 60.1133 44.1689 59.7777C44.1665 60.3407 44.1641 60.9043 44.1616 61.4673C44.1621 61.4667 44.1627 61.4667 44.1632 61.4662C43.7704 60.9521 43.3771 60.4385 42.9844 59.9244C42.9839 59.9249 42.9833 59.9255 42.9833 59.9255C42.4724 60.4356 42.6874 61.3789 43.4077 61.5626C50.5087 63.3712 57.1024 65.3299 64.5628 64.5118C73.0057 63.5858 80.3558 59.2206 87.3637 54.7151C87.923 54.3554 88.0818 53.3501 87.371 53.0256C81.0079 50.1177 74.2959 48.1412 67.2445 48.3647C65.9889 48.4047 65.9747 50.3613 67.236 50.3214C73.9341 50.1094 80.3279 51.9468 86.3759 54.7098C86.3784 54.1468 86.3808 53.5833 86.3833 53.0203C79.4282 57.491 72.0851 61.935 63.6562 62.643C56.6946 63.228 50.5571 61.363 43.9361 59.6771C44.0778 60.2229 44.2194 60.7683 44.3606 61.3142C44.3611 61.3137 44.3616 61.3132 44.3616 61.3132C45.166 60.51 44.1597 59.2716 43.1828 59.7714C43.1823 59.7719 43.1818 59.7719 43.1807 59.7724C42.5668 60.0864 42.5094 61.1585 43.1734 61.4619C43.1734 61.4619 43.1739 61.4619 43.1739 61.4624C43.1763 60.8994 43.1788 60.3359 43.1812 59.7729C37.7649 63.655 32.8623 67.5836 26.361 69.6018C18.0847 72.1711 9.54643 70.7847 1.23901 69.1102C1.38065 69.6561 1.52231 70.2014 1.66343 70.7473C7.55948 64.6565 14.4407 59.8771 22.9204 58.3982C23.7277 58.2577 23.8993 56.9654 23.162 56.6111C12.4767 51.4782 6.78925 41.6116 3.53942 30.5929C3.13643 30.9925 2.73346 31.392 2.33099 31.791C11.144 33.2334 20.1551 34.9532 27.5166 40.3236C28.0908 40.7425 29.0596 40.1946 28.9922 39.4852C27.7624 26.5009 29.8689 13.5249 34.5077 1.37381C33.9115 1.44896 33.3147 1.52464 32.7185 1.5998C39.073 12.3747 45.8335 23.2551 48.6811 35.5692C48.886 36.4545 50.0089 36.451 50.4683 35.8107C56.0639 28.0103 64.6615 23.7726 73.6687 21.1214C73.2692 20.7184 72.8697 20.3154 72.4701 19.913C70.6567 31.0218 68.18 41.7765 59.6767 49.7542C58.9506 50.4357 59.6973 51.6323 60.6213 51.3937C62.8033 50.8307 64.9839 50.4645 67.235 50.3219C68.486 50.2423 68.5039 48.2851 67.2445 48.3647Z" fill="#F1BF4C"/>
</svg>
