<svg width="43" height="43" viewBox="0 0 43 43" fill="none" xmlns="http://www.w3.org/2000/svg">
<path d="M11.1285 37.0477H5.86307C5.39757 37.0477 4.95114 36.8627 4.62198 36.5336C4.29283 36.2044 4.10791 35.758 4.10791 35.2925V21.2513C4.10791 20.7858 4.29283 20.3393 4.62198 20.0102C4.95114 19.681 5.39757 19.4961 5.86307 19.4961H11.1285C11.594 19.4961 12.0405 19.681 12.3696 20.0102C12.6988 20.3393 12.8837 20.7858 12.8837 21.2513V35.2925C12.8837 35.758 12.6988 36.2044 12.3696 36.5336C12.0405 36.8627 11.594 37.0477 11.1285 37.0477ZM23.4146 37.0477H18.1492C17.6837 37.0477 17.2372 36.8627 16.9081 36.5336C16.5789 36.2044 16.394 35.758 16.394 35.2925V5.45486C16.394 4.98937 16.5789 4.54294 16.9081 4.21378C17.2372 3.88462 17.6837 3.69971 18.1492 3.69971H23.4146C23.8801 3.69971 24.3265 3.88462 24.6557 4.21378C24.9849 4.54294 25.1698 4.98937 25.1698 5.45486V35.2925C25.1698 35.758 24.9849 36.2044 24.6557 36.5336C24.3265 36.8627 23.8801 37.0477 23.4146 37.0477ZM35.7007 37.0477H30.4352C29.9697 37.0477 29.5233 36.8627 29.1942 36.5336C28.865 36.2044 28.6801 35.758 28.6801 35.2925V15.9858C28.6801 15.5203 28.865 15.0739 29.1942 14.7447C29.5233 14.4156 29.9697 14.2306 30.4352 14.2306H35.7007C36.1662 14.2306 36.6126 14.4156 36.9418 14.7447C37.2709 15.0739 37.4559 15.5203 37.4559 15.9858V35.2925C37.4559 35.758 37.2709 36.2044 36.9418 36.5336C36.6126 36.8627 36.1662 37.0477 35.7007 37.0477Z" fill="#34296B"/>
</svg>
