<svg width="40" height="43" viewBox="0 0 40 43" fill="none" xmlns="http://www.w3.org/2000/svg">
<g clip-path="url(#clip0_2397_11950)">
<path d="M2.30554 15.182L6.9955 7.93281L9.26721 4.4266C10.0677 3.19211 10.9639 1.98016 11.6573 0.68365C11.9109 0.215781 11.4374 0.0184869 11.0316 0.00157596C10.5017 -0.020972 9.8309 0.19887 9.50396 0.632918C8.60768 1.81668 7.85796 3.1301 7.05187 4.37587L4.78017 7.88207L0.0845676 15.1312C-0.219829 15.5991 0.349506 15.8133 0.73282 15.8302C1.24579 15.8528 2.00678 15.6386 2.30554 15.1763V15.182Z" fill="#121212"/>
<path d="M11.2964 23.1043C20.5354 20.0773 29.8082 17.1348 39.0134 14.0006C39.3347 13.8935 40.1126 13.6173 39.9886 13.1381C39.8646 12.6815 39.019 12.783 38.7146 12.8788C29.4418 15.7988 20.2254 18.9048 10.9863 21.9375C10.6481 22.0502 9.83641 22.3377 9.97169 22.8394C10.0957 23.3129 10.9863 23.2171 11.302 23.11L11.2964 23.1043Z" fill="#121212"/>
<path d="M9.41375 33.6755L16.6122 38.2696L20.1522 40.5301C21.3698 41.308 22.5705 42.1591 23.8388 42.8469C24.2728 43.078 24.9436 42.9032 25.3438 42.6947C25.5524 42.5876 26.2119 42.1253 25.8286 41.8378C24.6674 40.9641 23.3878 40.2313 22.1646 39.4534L18.6246 37.193L11.3078 32.5199C10.6539 32.1028 8.44982 33.0611 9.40811 33.6755H9.41375Z" fill="#121212"/>
</g>
<defs>
<clipPath id="clip0_2397_11950">
<rect width="40" height="42.9594" fill="white"/>
</clipPath>
</defs>
</svg>
