<svg width="40" height="43" viewBox="0 0 40 43" fill="none" xmlns="http://www.w3.org/2000/svg">
<g clip-path="url(#clip0_1_7294)">
<path d="M2.30554 15.1805L6.9955 7.93134L9.26721 4.42514C10.0677 3.19064 10.9639 1.97869 11.6573 0.682186C11.9109 0.214316 11.4374 0.017022 11.0316 0.000111114C10.5017 -0.0224368 9.8309 0.197405 9.50396 0.631453C8.60768 1.81522 7.85796 3.12863 7.05187 4.37441L4.78017 7.88061L0.0845676 15.1298C-0.219829 15.5976 0.349506 15.8118 0.73282 15.8287C1.24579 15.8513 2.00678 15.6371 2.30554 15.1749V15.1805Z" fill="white"/>
<path d="M11.2963 23.1063C20.5353 20.0792 29.8081 17.1367 39.0133 14.0026C39.3346 13.8955 40.1125 13.6192 39.9885 13.1401C39.8645 12.6835 39.019 12.785 38.7146 12.8808C29.4417 15.8008 20.2253 18.9067 10.9863 21.9394C10.648 22.0522 9.83631 22.3396 9.9716 22.8413C10.0956 23.3148 10.9863 23.219 11.3019 23.1119L11.2963 23.1063Z" fill="white"/>
<path d="M9.41362 33.6755L16.612 38.2696L20.1521 40.5301C21.3697 41.308 22.5703 42.1591 23.8387 42.8469C24.2727 43.078 24.9435 42.9032 25.3437 42.6947C25.5523 42.5876 26.2118 42.1253 25.8285 41.8378C24.6673 40.9641 23.3877 40.2313 22.1645 39.4534L18.6244 37.193L11.3076 32.5199C10.6538 32.1028 8.4497 33.0611 9.40799 33.6755H9.41362Z" fill="white"/>
</g>
<defs>
<clipPath id="clip0_1_7294">
<rect width="40" height="42.9594" fill="white"/>
</clipPath>
</defs>
</svg>
