<svg width="25" height="25" viewBox="0 0 25 25" fill="none" xmlns="http://www.w3.org/2000/svg">
<g clip-path="url(#clip0_30_760)">
<path d="M7.5 6.91309V3.91309C7.5 3.64787 7.60536 3.39352 7.79289 3.20598C7.98043 3.01844 8.23478 2.91309 8.5 2.91309H20.5C20.7652 2.91309 21.0196 3.01844 21.2071 3.20598C21.3946 3.39352 21.5 3.64787 21.5 3.91309V17.9131C21.5 18.1783 21.3946 18.4327 21.2071 18.6202C21.0196 18.8077 20.7652 18.9131 20.5 18.9131H17.5V21.9131C17.5 22.4651 17.05 22.9131 16.493 22.9131H4.507C4.37513 22.9139 4.2444 22.8886 4.12232 22.8387C4.00025 22.7888 3.88923 22.7153 3.79566 22.6224C3.70208 22.5295 3.62779 22.419 3.57705 22.2972C3.52632 22.1755 3.50013 22.045 3.5 21.9131L3.503 7.91309C3.503 7.36109 3.953 6.91309 4.51 6.91309H7.5ZM5.503 8.91309L5.5 20.9131H15.5V8.91309H5.503ZM9.5 6.91309H17.5V16.9131H19.5V4.91309H9.5V6.91309Z" fill="#34296B"/>
</g>
<defs>
<clipPath id="clip0_30_760">
<rect width="24" height="24" fill="white" transform="translate(0.5 0.913086)"/>
</clipPath>
</defs>
</svg>
