<svg width="47" height="47" viewBox="0 0 47 47" fill="none" xmlns="http://www.w3.org/2000/svg">
<path d="M24.6728 4.703C24.348 4.46996 23.9577 4.3456 23.5579 4.34768C23.1581 4.34976 22.7692 4.47818 22.4468 4.71458C18.9059 7.28044 8.10962 16.0148 8.10962 27.1123C8.10962 33.3812 11.8706 38.7793 17.2494 41.1985C16.3292 39.9034 15.834 38.3544 15.8323 36.7656C15.7995 30.547 22.7016 23.4575 22.9951 23.2509C23.1581 23.1342 23.3535 23.0714 23.554 23.0714C23.7545 23.0714 23.95 23.1342 24.1129 23.2509C24.4064 23.4575 31.2777 28.9928 31.2777 36.7695C31.2777 38.4183 30.7467 39.9416 29.8625 41.1985C35.2394 38.7793 39.0003 33.3831 39.0003 27.1219C39.0003 15.8063 28.2233 7.22252 24.6728 4.703Z" fill="#FF9CAE"/>
</svg>
