<svg width="27" height="33" viewBox="0 0 27 33" fill="none" xmlns="http://www.w3.org/2000/svg">
<path d="M13.1874 28.0771L20.3108 20.9537C21.7195 19.5449 22.6788 17.75 23.0674 15.796C23.456 13.8419 23.2564 11.8165 22.494 9.97592C21.7315 8.1353 20.4404 6.5621 18.7838 5.45526C17.1273 4.34842 15.1797 3.75765 13.1874 3.75765C11.1951 3.75765 9.24757 4.34842 7.59102 5.45526C5.93447 6.5621 4.64333 8.1353 3.88087 9.97592C3.1184 11.8165 2.91885 13.8419 3.30746 15.796C3.69606 17.75 4.65536 19.5449 6.06406 20.9537L13.1874 28.0771ZM13.1874 32.1468L4.02922 22.9886C2.21792 21.1773 0.984422 18.8695 0.484695 16.3572C-0.0150316 13.8448 0.241462 11.2407 1.22174 8.87409C2.20202 6.50751 3.86206 4.48476 5.99193 3.06163C8.1218 1.6385 10.6259 0.878906 13.1874 0.878906C15.749 0.878906 18.253 1.6385 20.3829 3.06163C22.5128 4.48476 24.1728 6.50751 25.1531 8.87409C26.1334 11.2407 26.3899 13.8448 25.8902 16.3572C25.3904 18.8695 24.1569 21.1773 22.3456 22.9886L13.1874 32.1468ZM13.1874 16.7085C13.9508 16.7085 14.6828 16.4053 15.2226 15.8655C15.7623 15.3258 16.0656 14.5937 16.0656 13.8304C16.0656 13.067 15.7623 12.335 15.2226 11.7952C14.6828 11.2555 13.9508 10.9522 13.1874 10.9522C12.4241 10.9522 11.692 11.2555 11.1523 11.7952C10.6125 12.335 10.3093 13.067 10.3093 13.8304C10.3093 14.5937 10.6125 15.3258 11.1523 15.8655C11.692 16.4053 12.4241 16.7085 13.1874 16.7085ZM13.1874 19.5866C11.6608 19.5866 10.1966 18.9802 9.11714 17.9007C8.03763 16.8212 7.43117 15.357 7.43117 13.8304C7.43117 12.3037 8.03763 10.8396 9.11714 9.76008C10.1966 8.68058 11.6608 8.07411 13.1874 8.07411C14.7141 8.07411 16.1782 8.68058 17.2577 9.76008C18.3372 10.8396 18.9437 12.3037 18.9437 13.8304C18.9437 15.357 18.3372 16.8212 17.2577 17.9007C16.1782 18.9802 14.7141 19.5866 13.1874 19.5866Z" fill="#5F6368"/>
</svg>
