<svg width="15" height="19" viewBox="0 0 15 19" fill="none" xmlns="http://www.w3.org/2000/svg">
<path d="M8.63845 13.7109C11.8034 13.893 14.1891 14.7064 14.1891 15.682C14.1891 16.7909 11.101 17.6909 7.28946 17.6909C3.47908 17.6909 0.389771 16.7909 0.389771 15.682C0.389771 14.7177 2.72059 13.9128 5.82977 13.7172C6.39533 14.6175 6.89657 15.4201 7.22826 16.018C7.57126 15.399 8.07484 14.5988 8.63845 13.7109Z" fill="#383084"/>
<path d="M7.22821 0.389893C10.2142 0.389893 12.6351 2.81075 12.6351 5.79755C12.6351 7.4833 10.3569 11.0045 8.63839 13.711C8.07479 14.5989 7.57121 15.3991 7.22821 16.0181C6.89652 15.4202 6.39527 14.6176 5.82972 13.7173C4.12019 10.9971 1.82056 7.38079 1.82056 5.79755C1.82056 2.81075 4.24141 0.389893 7.22821 0.389893ZM9.644 5.5937C9.644 4.26225 8.55888 3.17674 7.22821 3.17674C5.89676 3.17674 4.81164 4.26225 4.81164 5.5937C4.81164 6.92437 5.89676 8.00948 7.22821 8.00948C8.55888 8.00948 9.644 6.92437 9.644 5.5937Z" fill="#383084"/>
<path d="M7.28946 18.0806C5.41097 18.0806 3.63962 17.866 2.30174 17.4765C0.795908 17.0379 0 16.4174 0 15.682C0 14.2142 3.12727 13.4967 5.8053 13.3281C6.01963 13.3142 6.20528 13.4778 6.21876 13.6927C6.23229 13.9075 6.06909 14.0927 5.85421 14.1061C4.37153 14.1995 3.02928 14.4382 2.07466 14.7785C1.11875 15.1192 0.779538 15.4781 0.779538 15.682C0.779538 15.8823 1.14604 16.328 2.5197 16.728C3.78871 17.0975 5.48264 17.3011 7.28946 17.3011C9.0967 17.3011 10.7908 17.0975 12.0596 16.728C13.433 16.328 13.7994 15.8823 13.7994 15.682C13.7994 15.1572 11.9536 14.292 8.61608 14.1C8.40116 14.0877 8.23695 13.9034 8.24934 13.6885C8.2617 13.4736 8.44539 13.3087 8.66086 13.3218C11.3909 13.4788 14.579 14.1911 14.579 15.682C14.579 16.4175 13.7832 17.038 12.2777 17.4765C10.9399 17.866 9.16842 18.0806 7.28946 18.0806Z" fill="#F8F8F8"/>
<path d="M7.22821 16.4077C7.08657 16.4077 6.95611 16.3308 6.88736 16.207C6.56525 15.6264 6.0683 14.8298 5.49962 13.9245L5.49966 13.9245L5.36776 13.7147C3.61376 10.9248 1.43079 7.45261 1.43079 5.79742C1.43079 2.60069 4.03152 0 7.22821 0C10.4245 0 13.0249 2.60069 13.0249 5.79742C13.0249 7.53517 10.9701 10.7685 9.15714 13.6212L8.96744 13.9198C8.40328 14.8086 7.90867 15.5941 7.56914 16.2068C7.50046 16.3308 7.37001 16.4076 7.22833 16.4077H7.22821ZM7.22821 0.779538C4.46132 0.779538 2.21032 3.03053 2.21032 5.79742C2.21032 7.22795 4.41669 10.7374 6.02772 13.2998L6.1597 13.5097L6.15974 13.5098C6.57535 14.1714 6.93557 14.7476 7.22825 15.2389C7.53402 14.7266 7.90407 14.1404 8.30927 13.502L8.49917 13.2031C10.0801 10.7154 12.2453 7.3084 12.2453 5.79742C12.2453 3.03053 9.99463 0.779538 7.22821 0.779538Z" fill="#F8F8F8"/>
<path d="M7.22821 8.39915C5.68079 8.39915 4.42188 7.14058 4.42188 5.59359C4.42188 4.04594 5.68079 2.78687 7.22821 2.78687C8.7752 2.78687 10.0338 4.04594 10.0338 5.59359C10.0338 7.14058 8.7752 8.39915 7.22821 8.39915ZM7.22821 3.5664C6.11063 3.5664 5.20141 4.47581 5.20141 5.59359C5.20141 6.71075 6.11063 7.61961 7.22821 7.61961C8.34537 7.61961 9.25423 6.71075 9.25423 5.59359C9.25423 4.47577 8.34537 3.5664 7.22821 3.5664Z" fill="#F8F8F8"/>
</svg>
