<svg width="11" height="17" viewBox="0 0 11 17" fill="none" xmlns="http://www.w3.org/2000/svg">
<path d="M6.52655 12.2862L9.35564 7.73721C9.36489 7.72249 9.37262 7.70702 9.37866 7.69098C9.86719 6.89431 10.1251 5.98424 10.1251 5.05511C10.1251 2.26773 7.85741 0 5.07002 0C2.28263 0 0.014718 2.26773 0.014718 5.05511C0.014718 5.98443 0.27304 6.89488 0.761947 7.69211C0.767607 7.70608 0.774212 7.71966 0.782137 7.73287L3.50971 12.2976C1.39237 12.5968 0 13.4675 0 14.5236C0 15.8322 2.22376 16.857 5.06247 16.857C7.90119 16.857 10.1249 15.832 10.1249 14.5236C10.1251 13.4626 8.66785 12.5725 6.52655 12.2862ZM1.2701 7.43719C0.819121 6.7194 0.5808 5.89575 0.5808 5.05511C0.5808 2.57983 2.59454 0.566082 5.07002 0.566082C7.54531 0.566082 9.55905 2.57983 9.55905 5.05511C9.55905 5.89612 9.32073 6.71977 8.86994 7.43719C8.86051 7.45228 8.85277 7.46794 8.84654 7.48417L5.85763 12.2896C5.81272 12.3585 5.80385 12.3742 5.74894 12.4644L4.99417 13.6781L1.29538 7.48813C1.28878 7.47059 1.28029 7.45341 1.2701 7.43719ZM5.06266 16.2909C2.41283 16.2909 0.566271 15.3593 0.566271 14.5236C0.566271 13.765 1.95695 13.0503 3.82747 12.8289L4.74641 14.367C4.79717 14.4517 4.88812 14.504 4.98681 14.5047C4.98756 14.5047 4.9885 14.5047 4.98926 14.5047C5.087 14.5047 5.17795 14.4542 5.22966 14.3711L6.19577 12.8178C8.09611 13.0237 9.55886 13.7566 9.55886 14.5236C9.55905 15.3595 7.71249 16.2909 5.06266 16.2909Z" fill="black"/>
<path d="M6.90075 5.05511C6.90075 4.04163 6.07615 3.21704 5.06268 3.21704C4.0492 3.21704 3.22461 4.04163 3.22461 5.05511C3.22461 6.06859 4.0492 6.89318 5.06268 6.89318C6.07615 6.89318 6.90075 6.06859 6.90075 5.05511ZM3.79069 5.05511C3.79069 4.35373 4.3613 3.78312 5.06268 3.78312C5.76405 3.78312 6.33467 4.35373 6.33467 5.05511C6.33467 5.75649 5.76424 6.3271 5.06268 6.3271C4.36111 6.3271 3.79069 5.75649 3.79069 5.05511Z" fill="black"/>
</svg>
