<svg width="53" height="53" viewBox="0 0 53 53" fill="none" xmlns="http://www.w3.org/2000/svg">
<path d="M40.3028 27.8518H33.0507C27.6117 27.8518 24.8594 24.7719 24.8594 18.6775V12.4084C24.8594 10.1803 25.1215 6.99117 27.4369 5.24368C29.381 3.802 32.177 3.69278 36.3054 4.89418C41.7226 6.46692 46.2443 10.9886 47.817 16.4058C49.0184 20.5124 48.9092 23.3302 47.4675 25.2524C45.72 27.5897 42.5309 27.8518 40.3028 27.8518ZM31.478 7.34067C30.5824 7.34067 29.8834 7.51542 29.4247 7.86491C28.5728 8.49838 28.1578 9.98374 28.1578 12.4084V18.6993C28.1578 23.5923 30.0363 24.5971 33.0726 24.5971H40.3247C42.7274 24.5971 44.2128 24.1821 44.8681 23.3302C45.6326 22.3254 45.5671 20.3158 44.7152 17.3669C43.4483 13.0637 39.7349 9.32844 35.4317 8.08335C33.8153 7.58095 32.5046 7.34067 31.478 7.34067Z" fill="#FCFCFC"/>
<path d="M24.4669 49.6952C23.3091 49.6952 22.1296 49.6079 20.95 49.4113C12.016 47.9696 4.74208 40.7175 3.3004 31.7835C1.4437 20.2937 8.84868 9.45932 20.1855 7.14389C21.0811 6.96914 21.933 7.53708 22.1296 8.41082C22.3043 9.30641 21.7364 10.1583 20.8627 10.3549C11.2733 12.3208 4.98236 21.4951 6.57694 31.2592C7.80019 38.8171 13.9382 44.9552 21.4961 46.1784C31.3039 47.7512 40.4564 41.4384 42.4005 31.8053C42.5752 30.9097 43.449 30.3418 44.3227 30.5166C45.2183 30.6913 45.7862 31.5651 45.6115 32.4388C43.5363 42.6398 34.6241 49.6952 24.4669 49.6952Z" fill="#FCFCFC"/>
</svg>
