<svg width="86" height="86" viewBox="0 0 86 86" fill="none" xmlns="http://www.w3.org/2000/svg">
<circle cx="43" cy="43" r="43" transform="matrix(-1 0 0 1 86 0)" fill="#34296B"/>
<path d="M40.9458 52.3204L21.5433 42.6367L21.9647 45.0228C28.7867 42.5829 35.4437 38.5927 40.2569 33.2896C40.8002 32.6922 39.8887 30.4373 39.1833 31.1058C36.5967 33.5589 33.9242 35.8627 30.8935 37.8107C27.8628 39.7586 24.5838 41.3405 21.1668 42.5636C20.311 42.868 21.0252 44.6666 21.5883 44.9496L40.9908 54.6333C42.0667 55.172 41.7025 52.6956 40.9458 52.3204Z" fill="#E4E4E4"/>
<path d="M23.4556 44.9515C36.755 44.4445 50.0673 44.0565 63.3623 43.402C63.8255 43.382 64.9532 43.3124 64.9693 42.6621C64.9769 42.0403 63.8254 41.8648 63.3887 41.8765C50.0848 42.236 36.7856 42.8508 23.4841 43.365C22.9965 43.3859 21.82 43.4577 21.8103 44.1405C21.7964 44.7837 23.0051 44.9826 23.4609 44.9606L23.4556 44.9515Z" fill="#E4E4E4"/>
</svg>
