<svg width="59" height="69" viewBox="0 0 59 69" fill="none" xmlns="http://www.w3.org/2000/svg">
<path d="M35.904 20.7217C35.6739 20.3231 35.1642 20.1865 34.7656 20.4167L18.8885 29.5833C18.4899 29.8135 18.3533 30.3231 18.5835 30.7217L39.0549 66.1793C39.3877 66.7557 40.2286 66.7286 40.5236 66.132L44.9141 57.2523C45.0633 56.9507 45.3791 56.7684 45.7148 56.79L55.6001 57.4276C56.2643 57.4704 56.7082 56.7557 56.3754 56.1793L35.904 20.7217Z" fill="#0355B6"/>
<path fill-rule="evenodd" clip-rule="evenodd" d="M33.9321 18.9736L18.055 28.1403C16.8592 28.8307 16.4496 30.3596 17.1399 31.5554L37.6114 67.013C38.6097 68.7422 41.1324 68.6609 42.0174 66.871L46.1617 58.4893L55.4927 59.0911C57.4853 59.2196 58.817 57.0755 57.8186 55.3463L37.3472 19.8887C36.6568 18.693 35.1278 18.2833 33.9321 18.9736ZM34.7654 20.417C35.164 20.1869 35.6737 20.3235 35.9038 20.722L56.3752 56.1796C56.708 56.756 56.2641 57.4707 55.5999 57.4279L45.7146 56.7904C45.3789 56.7687 45.0631 56.951 44.914 57.2526L40.5234 66.1323C40.2284 66.7289 39.3875 66.756 39.0547 66.1796L18.5833 30.722C18.3532 30.3235 18.4897 29.8138 18.8883 29.5837L34.7654 20.417Z" fill="#023E84"/>
<path fill-rule="evenodd" clip-rule="evenodd" d="M31.766 50.1432C32.1664 49.9162 32.6749 50.0568 32.9019 50.4572L40.4019 63.6863C40.6289 64.0867 40.4883 64.5953 40.088 64.8222C39.6876 65.0492 39.179 64.9087 38.952 64.5083L31.452 51.2791C31.2251 50.8788 31.3656 50.3702 31.766 50.1432Z" fill="#1871DA"/>
<path d="M48.6718 47.9369C48.2631 48.1729 47.7452 48.0409 47.515 47.6422C47.2848 47.2436 47.4295 46.7291 47.8382 46.4931C48.2468 46.2572 48.7647 46.3891 48.9949 46.7878C49.2251 47.1865 49.0804 47.701 48.6718 47.9369Z" fill="#034492"/>
<path d="M47.0271 45.5056C46.5188 45.7991 45.8746 45.635 45.5882 45.139C45.3019 44.6431 45.4819 44.0031 45.9902 43.7096C46.4986 43.4161 47.1428 43.5803 47.4291 44.0762C47.7154 44.5721 47.5355 45.2121 47.0271 45.5056Z" fill="#034492"/>
<path d="M45.6895 49.2732C45.1811 49.5667 44.5369 49.4025 44.2506 48.9066C43.9643 48.4107 44.1442 47.7707 44.6526 47.4772C45.1609 47.1837 45.8051 47.3478 46.0914 47.8438C46.3778 48.3397 46.1978 48.9797 45.6895 49.2732Z" fill="#034492"/>
<path d="M48.129 50.6022C47.8749 50.7489 47.5528 50.6668 47.4096 50.4189C47.2664 50.1709 47.3564 49.8509 47.6106 49.7042C47.8648 49.5574 48.1869 49.6395 48.33 49.8875C48.4732 50.1354 48.3832 50.4554 48.129 50.6022Z" fill="#034492"/>
<path d="M44.5934 46.3121C44.3392 46.4589 44.0171 46.3768 43.874 46.1288C43.7308 45.8809 43.8208 45.5609 44.0749 45.4141C44.3291 45.2674 44.6512 45.3495 44.7944 45.5974C44.9375 45.8454 44.8476 46.1654 44.5934 46.3121Z" fill="#034492"/>
<path d="M45.9642 42.1847C45.7101 42.3314 45.388 42.2494 45.2448 42.0014C45.1016 41.7534 45.1916 41.4334 45.4458 41.2867C45.7 41.14 46.0221 41.222 46.1652 41.47C46.3084 41.718 46.2184 42.0379 45.9642 42.1847Z" fill="#034492"/>
<path d="M44.6574 52.0084C44.4032 52.1552 44.0811 52.0731 43.9379 51.8251C43.7948 51.5772 43.8847 51.2572 44.1389 51.1104C44.3931 50.9637 44.7152 51.0457 44.8583 51.2937C45.0015 51.5417 44.9115 51.8617 44.6574 52.0084Z" fill="#034492"/>
<path d="M54.1454 56.1637C53.8912 56.3104 53.5691 56.2284 53.426 55.9804C53.2828 55.7324 53.3728 55.4124 53.6269 55.2657C53.8811 55.119 54.2032 55.201 54.3464 55.449C54.4895 55.697 54.3996 56.0169 54.1454 56.1637Z" fill="#034492"/>
<path d="M50.8998 49.983C50.6456 50.1298 50.3235 50.0477 50.1803 49.7997C50.0372 49.5518 50.1272 49.2318 50.3813 49.085C50.6355 48.9383 50.9576 49.0204 51.1008 49.2683C51.2439 49.5163 51.154 49.8363 50.8998 49.983Z" fill="#034492"/>
<path d="M47.118 53.4778C46.7043 53.7166 46.1801 53.5831 45.9471 53.1795C45.7141 52.776 45.8606 52.2552 46.2742 52.0164C46.6879 51.7776 47.2121 51.9111 47.4451 52.3147C47.6781 52.7183 47.5316 53.239 47.118 53.4778Z" fill="#034492"/>
<path d="M50.7522 52.3533C50.3386 52.5921 49.8144 52.4586 49.5814 52.055C49.3484 51.6515 49.4948 51.1307 49.9085 50.8919C50.3221 50.6531 50.8464 50.7866 51.0793 51.1902C51.3123 51.5937 51.1659 52.1145 50.7522 52.3533Z" fill="#034492"/>
<path d="M50.5928 55.2273C50.1792 55.4662 49.655 55.3326 49.422 54.929C49.189 54.5255 49.3354 54.0047 49.7491 53.7659C50.1627 53.5271 50.6869 53.6606 50.9199 54.0642C51.1529 54.4678 51.0065 54.9885 50.5928 55.2273Z" fill="#034492"/>
<path d="M53.3119 53.6637C53.0577 53.8104 52.7356 53.7284 52.5925 53.4804C52.4493 53.2324 52.5393 52.9124 52.7934 52.7657C53.0476 52.619 53.3697 52.701 53.5129 52.949C53.6561 53.197 53.5661 53.5169 53.3119 53.6637Z" fill="#034492"/>
<path fill-rule="evenodd" clip-rule="evenodd" d="M45.7017 55.2827C45.7373 54.8239 46.1381 54.4807 46.5969 54.5162L54.6698 55.1412C55.1287 55.1767 55.4719 55.5775 55.4364 56.0364C55.4008 56.4952 55.0001 56.8384 54.5412 56.8029L46.4683 56.1779C46.0094 56.1424 45.6662 55.7416 45.7017 55.2827Z" fill="#1871DA"/>
<path d="M22.7501 20.7217C22.9802 20.3231 23.4899 20.1865 23.8884 20.4167L39.7656 29.5833C40.1641 29.8135 40.3007 30.3231 40.0706 30.7217L19.5991 66.1793C19.2663 66.7557 18.4254 66.7286 18.1304 66.132L13.7399 57.2523C13.5908 56.9507 13.275 56.7684 12.9393 56.79L3.05395 57.4276C2.38975 57.4704 1.94584 56.7557 2.27863 56.1793L22.7501 20.7217Z" fill="#F1333B"/>
<path fill-rule="evenodd" clip-rule="evenodd" d="M24.7217 18.9736L40.5988 28.1403C41.7946 28.8307 42.2043 30.3596 41.5139 31.5554L21.0424 67.013C20.0441 68.7422 17.5214 68.6609 16.6364 66.871L12.4921 58.4893L3.16115 59.0911C1.16855 59.2196 -0.163177 57.0755 0.83519 55.3463L21.3066 19.8887C21.997 18.693 23.526 18.2833 24.7217 18.9736ZM23.8884 20.417C23.4898 20.1869 22.9801 20.3235 22.75 20.722L2.27857 56.1796C1.94578 56.756 2.38969 57.4707 3.05388 57.4279L12.9392 56.7904C13.2749 56.7687 13.5907 56.951 13.7398 57.2526L18.1304 66.1323C18.4254 66.7289 19.2663 66.756 19.5991 66.1796L40.0705 30.722C40.3006 30.3235 40.1641 29.8138 39.7655 29.5837L23.8884 20.417Z" fill="#9B0F15"/>
<path fill-rule="evenodd" clip-rule="evenodd" d="M24.001 21.3106C24.3993 21.5412 24.5352 22.0511 24.3045 22.4493L4.66911 56.3556C4.43847 56.7539 3.92863 56.8897 3.53036 56.6591C3.13208 56.4285 2.99619 55.9186 3.22684 55.5203L22.8622 21.6141C23.0929 21.2158 23.6027 21.0799 24.001 21.3106Z" fill="#FE666D"/>
<path fill-rule="evenodd" clip-rule="evenodd" d="M14.8356 56.5937C15.2501 56.3937 15.7483 56.5676 15.9483 56.9821L19.5421 64.43C19.7421 64.8445 19.5682 65.3427 19.1537 65.5427C18.7392 65.7427 18.241 65.5688 18.041 65.1543L14.4473 57.7064C14.2472 57.2919 14.4211 56.7937 14.8356 56.5937Z" fill="#FE666D"/>
<path d="M51.5 24.1665C51.5 36.5929 41.4264 46.6665 29 46.6665C16.5736 46.6665 6.5 36.5929 6.5 24.1665C6.5 11.7401 16.5736 1.6665 29 1.6665C41.4264 1.6665 51.5 11.7401 51.5 24.1665Z" fill="#FFBB0D"/>
<path fill-rule="evenodd" clip-rule="evenodd" d="M53.1666 24.1667C53.1666 37.5135 42.3468 48.3333 28.9999 48.3333C15.653 48.3333 4.83325 37.5135 4.83325 24.1667C4.83325 10.8198 15.653 0 28.9999 0C42.3468 0 53.1666 10.8198 53.1666 24.1667ZM28.9999 46.6667C41.4263 46.6667 51.4999 36.5931 51.4999 24.1667C51.4999 11.7403 41.4263 1.66667 28.9999 1.66667C16.5735 1.66667 6.49992 11.7403 6.49992 24.1667C6.49992 36.5931 16.5735 46.6667 28.9999 46.6667Z" fill="#E89B05"/>
<path fill-rule="evenodd" clip-rule="evenodd" d="M8.16659 25C7.70635 25 7.33325 24.6269 7.33325 24.1667C7.33325 12.2005 17.0338 2.5 28.9999 2.5C29.4602 2.5 29.8333 2.8731 29.8333 3.33333C29.8333 3.79357 29.4602 4.16667 28.9999 4.16667C17.9542 4.16667 8.99992 13.121 8.99992 24.1667C8.99992 24.6269 8.62682 25 8.16659 25Z" fill="#FFD15C"/>
<path fill-rule="evenodd" clip-rule="evenodd" d="M49.8334 23.333C50.2937 23.333 50.6667 23.7061 50.6667 24.1663C50.6667 36.1325 40.9663 45.833 29.0001 45.833C28.5398 45.833 28.1667 45.4599 28.1667 44.9997C28.1667 44.5394 28.5398 44.1663 29.0001 44.1663C40.0458 44.1663 49.0001 35.212 49.0001 24.1663C49.0001 23.7061 49.3732 23.333 49.8334 23.333Z" fill="#EEAD04"/>
<path d="M45.6666 24.1667C45.6666 33.3714 38.2047 40.8333 28.9999 40.8333C19.7952 40.8333 12.3333 33.3714 12.3333 24.1667C12.3333 14.9619 19.7952 7.5 28.9999 7.5C38.2047 7.5 45.6666 14.9619 45.6666 24.1667Z" fill="#FFDD28"/>
<path fill-rule="evenodd" clip-rule="evenodd" d="M47.3334 24.1663C47.3334 34.2916 39.1253 42.4997 29.0001 42.4997C18.8749 42.4997 10.6667 34.2916 10.6667 24.1663C10.6667 14.0411 18.8749 5.83301 29.0001 5.83301C39.1253 5.83301 47.3334 14.0411 47.3334 24.1663ZM29.0001 40.833C38.2048 40.833 45.6667 33.3711 45.6667 24.1663C45.6667 14.9616 38.2048 7.49967 29.0001 7.49967C19.7953 7.49967 12.3334 14.9616 12.3334 24.1663C12.3334 33.3711 19.7953 40.833 29.0001 40.833Z" fill="#E89B05"/>
<path fill-rule="evenodd" clip-rule="evenodd" d="M28.9999 38.3333C36.824 38.3333 43.1666 31.9907 43.1666 24.1667C43.1666 23.7064 43.5397 23.3333 43.9999 23.3333C44.4602 23.3333 44.8333 23.7064 44.8333 24.1667C44.8333 32.9112 37.7444 40 28.9999 40C28.5397 40 28.1666 39.6269 28.1666 39.1667C28.1666 38.7064 28.5397 38.3333 28.9999 38.3333Z" fill="#ECC704"/>
<path fill-rule="evenodd" clip-rule="evenodd" d="M29.0001 9.99967C21.176 9.99967 14.8334 16.3423 14.8334 24.1663C14.8334 24.6266 14.4603 24.9997 14.0001 24.9997C13.5398 24.9997 13.1667 24.6266 13.1667 24.1663C13.1667 15.4218 20.2556 8.33301 29.0001 8.33301C29.4603 8.33301 29.8334 8.7061 29.8334 9.16634C29.8334 9.62658 29.4603 9.99967 29.0001 9.99967Z" fill="#FFEF9C"/>
<path fill-rule="evenodd" clip-rule="evenodd" d="M24.5895 15.6606C24.9149 15.986 24.9149 16.5137 24.5895 16.8391C24.4749 16.9537 24.402 17.0889 24.3599 17.2361C24.4431 17.2005 24.5279 17.1667 24.6143 17.1348C25.0461 16.9753 25.5253 17.1961 25.6847 17.6279C25.8441 18.0596 25.6234 18.5388 25.1916 18.6983C24.2115 19.0601 23.4996 19.799 23.0236 20.6817C22.5437 21.5718 22.3335 22.5574 22.3335 23.3011C22.3335 24.8132 22.9755 26.4283 23.9557 27.8411C24.9363 29.2545 26.1908 30.3718 27.2896 30.9211C27.7012 31.127 27.8681 31.6275 27.6622 32.0392C27.4564 32.4508 26.9558 32.6177 26.5442 32.4119C25.9763 32.1279 25.3998 31.7405 24.8415 31.2743C24.8151 31.2801 24.7866 31.2861 24.7561 31.2922C24.5597 31.3315 24.2791 31.3751 23.9079 31.4036C23.1653 31.4608 22.0625 31.4577 20.549 31.2415C20.0934 31.1764 19.7768 30.7543 19.8419 30.2987C19.907 29.843 20.3291 29.5265 20.7847 29.5915C21.8851 29.7487 22.7256 29.7808 23.332 29.7646C23.0702 29.4541 22.8204 29.1285 22.5864 28.7911C22.5832 28.7866 22.58 28.782 22.5768 28.7774C22.5226 28.7827 22.4621 28.7881 22.3959 28.7931C22.1064 28.8148 21.7027 28.8292 21.2399 28.8003C20.3336 28.7437 19.1036 28.5149 18.0835 27.7498C17.7154 27.4737 17.6407 26.9514 17.9169 26.5832C18.193 26.215 18.7154 26.1404 19.0835 26.4165C19.7301 26.9014 20.5835 27.0894 21.3439 27.1369C21.4404 27.1429 21.534 27.1466 21.6236 27.1484C21.5241 26.9427 21.4307 26.7337 21.3442 26.5221C21.2849 26.5011 21.2189 26.4771 21.1471 26.45C20.8292 26.3299 20.3925 26.1467 19.9124 25.8926C18.9707 25.394 17.7743 24.5763 17.0356 23.3453C16.7988 22.9506 16.9268 22.4387 17.3215 22.2019C17.7161 21.9651 18.228 22.0931 18.4648 22.4878C18.9761 23.34 19.8631 23.9806 20.6922 24.4196C20.7142 24.4313 20.7361 24.4427 20.7579 24.454C20.7006 24.0848 20.669 23.7127 20.667 23.3399C20.642 23.3207 20.616 23.3005 20.589 23.2794C20.3286 23.0753 19.9766 22.7797 19.6089 22.412C18.8965 21.6997 18.0238 20.6172 17.7664 19.3299C17.6761 18.8786 17.9688 18.4396 18.4201 18.3494C18.8714 18.2591 19.3104 18.5518 19.4007 19.0031C19.5599 19.7991 20.1456 20.5917 20.7874 21.2335C20.8417 21.2878 20.8957 21.3403 20.949 21.3909C21.0323 21.0993 21.1349 20.8054 21.2577 20.5149C21.2526 20.5093 21.2474 20.5035 21.2419 20.4973C21.1969 20.4469 21.1371 20.3766 21.0687 20.288C20.9326 20.1119 20.758 19.8579 20.5986 19.5392C20.281 18.904 20.0037 17.9667 20.2751 16.8811C20.3867 16.4346 20.8392 16.1631 21.2857 16.2747C21.7322 16.3863 22.0036 16.8388 21.892 17.2853C21.7467 17.8664 21.8861 18.3873 22.0893 18.7938C22.1162 18.8477 22.1439 18.8987 22.1716 18.9467C22.3393 18.7322 22.5229 18.526 22.7233 18.3317C22.7203 18.3177 22.7173 18.3032 22.7143 18.2883C22.6803 18.1181 22.646 17.8798 22.646 17.604C22.646 17.0589 22.7829 16.2886 23.411 15.6606C23.7364 15.3351 24.264 15.3351 24.5895 15.6606Z" fill="#E89B05"/>
<path fill-rule="evenodd" clip-rule="evenodd" d="M33.4109 15.6606C33.7364 15.3351 34.264 15.3351 34.5894 15.6606C35.2175 16.2886 35.3543 17.0589 35.3543 17.604C35.3543 17.8798 35.3201 18.1181 35.2861 18.2883C35.2831 18.3032 35.2801 18.3177 35.2771 18.3317C35.4775 18.526 35.6611 18.7322 35.8287 18.9467C35.8565 18.8987 35.8842 18.8477 35.9111 18.7938C36.1143 18.3873 36.2537 17.8664 36.1084 17.2853C35.9968 16.8388 36.2682 16.3863 36.7147 16.2747C37.1612 16.1631 37.6137 16.4346 37.7253 16.8811C37.9967 17.9667 37.7194 18.904 37.4018 19.5392C37.2424 19.8579 37.0678 20.1119 36.9317 20.288C36.8633 20.3766 36.8035 20.4469 36.7585 20.4973C36.753 20.5035 36.7478 20.5093 36.7427 20.5149C36.8655 20.8054 36.9681 21.0993 37.0514 21.3909C37.1047 21.3403 37.1587 21.2878 37.213 21.2335C37.8548 20.5917 38.4405 19.7991 38.5997 19.0031C38.69 18.5518 39.129 18.2591 39.5803 18.3494C40.0316 18.4396 40.3243 18.8786 40.234 19.3299C39.9765 20.6172 39.1039 21.6997 38.3915 22.412C38.0238 22.7797 37.6718 23.0753 37.4114 23.2794C37.3844 23.3005 37.3584 23.3207 37.3334 23.3399C37.3314 23.7127 37.2998 24.0848 37.2425 24.454C37.2643 24.4427 37.2862 24.4313 37.3082 24.4196C38.1373 23.9806 39.0242 23.34 39.5356 22.4878C39.7724 22.0931 40.2843 21.9651 40.6789 22.2019C41.0736 22.4387 41.2015 22.9506 40.9648 23.3453C40.2261 24.5763 39.0297 25.394 38.088 25.8926C37.6079 26.1467 37.1712 26.3299 36.8533 26.45C36.7815 26.4771 36.7155 26.5011 36.6562 26.5221C36.5697 26.7337 36.4763 26.9427 36.3768 27.1484C36.4664 27.1466 36.5599 27.1429 36.6565 27.1369C37.4169 27.0894 38.2703 26.9014 38.9168 26.4165C39.285 26.1404 39.8074 26.215 40.0835 26.5832C40.3597 26.9514 40.285 27.4737 39.9168 27.7498C38.8968 28.5149 37.6668 28.7437 36.7605 28.8003C36.2977 28.8292 35.894 28.8148 35.6045 28.7931C35.5383 28.7881 35.4778 28.7827 35.4236 28.7774C35.4204 28.782 35.4172 28.7866 35.414 28.7911C35.18 29.1285 34.9302 29.4541 34.6684 29.7646C35.2748 29.7808 36.1153 29.7487 37.2157 29.5915C37.6713 29.5265 38.0934 29.843 38.1585 30.2987C38.2236 30.7543 37.907 31.1764 37.4514 31.2415C35.9379 31.4577 34.8351 31.4608 34.0925 31.4036C33.7213 31.3751 33.4407 31.3315 33.2443 31.2922C33.2138 31.2861 33.1853 31.2801 33.1589 31.2743C32.6006 31.7405 32.0241 32.1279 31.4562 32.4119C31.0445 32.6177 30.544 32.4508 30.3382 32.0392C30.1323 31.6275 30.2992 31.127 30.7108 30.9211C31.8096 30.3718 33.0641 29.2545 34.0447 27.8411C35.0248 26.4283 35.6668 24.8132 35.6668 23.3011C35.6668 22.5574 35.4567 21.5718 34.9767 20.6817C34.5008 19.799 33.7889 19.0601 32.8088 18.6983C32.377 18.5388 32.1562 18.0596 32.3157 17.6279C32.4751 17.1961 32.9543 16.9753 33.386 17.1348C33.4725 17.1667 33.5573 17.2005 33.6405 17.2361C33.5984 17.0889 33.5255 16.9537 33.4109 16.8391C33.0855 16.5137 33.0855 15.986 33.4109 15.6606Z" fill="#E89B05"/>
</svg>
