<svg width="313" height="49" viewBox="0 0 313 49" fill="none" xmlns="http://www.w3.org/2000/svg">
<path d="M40.0422 30.7908V29.2351V27.1383V17.1953V15.0985L41.6656 11.7165L49.7823 5.2908C50.8645 4.41149 52.4878 5.15553 52.4878 6.57595V37.4194C52.4878 38.8398 50.7969 39.5839 49.7146 38.7046L40.0422 30.7908Z" fill="#00AC47"/>
<path d="M13.122 0.555664L0 13.6777H13.122V0.555664Z" fill="#EA4335"/>
<path d="M13.122 13.7451H0V30.8578H13.122V13.7451Z" fill="#2684FC"/>
<path d="M0 30.791V39.5841C0 42.0191 1.96154 43.9807 4.39655 43.9807H13.1896V30.8587H0V30.791Z" fill="#0066DA"/>
<path d="M41.7332 4.88458C41.7332 2.51721 39.7717 0.555664 37.4719 0.555664H28.8818H13.1218V13.6777H29.22V22.2678L41.7332 21.862V4.88458Z" fill="#FFBA00"/>
<path d="M29.22 30.7901H13.1218V43.9121H28.8141H37.4043C39.7717 43.9121 41.6656 41.9506 41.6656 39.5832V22.2676H29.22V30.7901Z" fill="#00AC47"/>
<path d="M41.7332 11.7842V32.1436L29.22 22.2683L41.7332 11.7842Z" fill="#00832D"/>
<path d="M226.117 38.1629H222.262V8.06348H226.117L236.601 26.3937H236.737L247.221 8.06348H251.076V38.1629H247.221V20.3062L247.356 15.2332H247.221L237.819 31.7372H235.519L226.117 15.2332H225.982L226.117 20.3062V38.1629Z" fill="#5F6368"/>
<path d="M265.754 38.8392C262.711 38.8392 260.208 37.8246 258.246 35.7278C256.285 33.631 255.27 31.0607 255.27 27.8816C255.27 24.7702 256.217 22.1323 258.111 20.0355C260.005 17.9387 262.44 16.8564 265.416 16.8564C268.46 16.8564 270.895 17.871 272.721 19.8326C274.547 21.7941 275.427 24.5673 275.427 28.1522L275.359 28.558H259.193C259.261 30.5872 259.937 32.2105 261.223 33.428C262.508 34.6455 264.063 35.2543 265.822 35.2543C268.257 35.2543 270.219 34.0368 271.639 31.5342L275.089 33.2251C274.142 34.9838 272.856 36.3365 271.233 37.2835C269.677 38.3657 267.851 38.8392 265.754 38.8392ZM259.599 25.379H271.368C271.233 23.9586 270.692 22.7411 269.61 21.8617C268.595 20.9148 267.175 20.4413 265.416 20.4413C263.928 20.4413 262.711 20.9148 261.628 21.7941C260.614 22.6734 259.937 23.8909 259.599 25.379Z" fill="#5F6368"/>
<path d="M288.481 38.8392C285.437 38.8392 282.934 37.8246 280.973 35.7278C279.011 33.631 277.997 31.0607 277.997 27.8816C277.997 24.7702 278.944 22.1323 280.837 20.0355C282.731 17.9387 285.166 16.8564 288.142 16.8564C291.186 16.8564 293.621 17.871 295.448 19.8326C297.274 21.7941 298.153 24.5673 298.153 28.1522L298.085 28.558H281.92C281.987 30.5872 282.664 32.2105 283.949 33.428C285.234 34.6455 286.79 35.2543 288.548 35.2543C290.983 35.2543 292.945 34.0368 294.365 31.5342L297.815 33.2251C296.868 34.9838 295.583 36.3365 293.959 37.2835C292.471 38.3657 290.577 38.8392 288.481 38.8392ZM282.326 25.379H294.162C294.027 23.9586 293.486 22.7411 292.404 21.8617C291.389 20.9148 289.969 20.4413 288.21 20.4413C286.722 20.4413 285.505 20.9148 284.422 21.7941C283.34 22.6734 282.664 23.8909 282.326 25.379Z" fill="#5F6368"/>
<path d="M309.382 38.5018C307.691 38.5018 306.27 37.9607 305.188 36.9461C304.106 35.9315 303.565 34.4434 303.497 32.6171V21.1185H299.912V17.5336H303.497V11.2432H307.352V17.5336H312.425V21.0508H307.352V31.332C307.352 32.6848 307.623 33.6317 308.164 34.1729C308.705 34.6463 309.314 34.9169 309.99 34.9169C310.329 34.9169 310.599 34.9169 310.87 34.8492C311.208 34.7816 311.478 34.6463 311.681 34.5787L312.899 38.0283C311.884 38.2988 310.667 38.5018 309.382 38.5018Z" fill="#5F6368"/>
<path d="M94.695 25.4467V20.8473H110.117C110.252 21.6589 110.387 22.6059 110.387 23.6881C110.387 27.1377 109.44 31.399 106.397 34.4427C103.42 37.5541 99.6326 39.1775 94.6273 39.1775C85.3608 39.1775 77.5823 31.6019 77.5823 22.3353C77.5823 13.0688 85.3608 5.49316 94.6273 5.49316C99.7679 5.49316 103.42 7.52235 106.126 10.1603L102.879 13.4069C100.918 11.5807 98.2122 10.0926 94.5597 10.0926C87.7958 10.0926 82.5199 15.5714 82.5199 22.3353C82.5199 29.0992 87.7958 34.578 94.5597 34.578C98.9563 34.578 101.459 32.8194 103.082 31.1961C104.367 29.9109 105.247 28.017 105.585 25.4467H94.695Z" fill="#5F6368"/>
<path d="M133.79 28.2881C133.79 34.5109 128.92 39.1104 122.9 39.1104C116.88 39.1104 112.01 34.5109 112.01 28.2881C112.01 21.9976 116.88 17.4658 122.9 17.4658C128.852 17.4658 133.79 21.9976 133.79 28.2881ZM128.988 28.2881C128.988 24.365 126.147 21.7271 122.9 21.7271C119.586 21.7271 116.813 24.365 116.813 28.2881C116.813 32.1435 119.653 34.8491 122.9 34.8491C126.147 34.8491 128.988 32.1435 128.988 28.2881Z" fill="#5F6368"/>
<path d="M157.463 28.2881C157.463 34.5109 152.593 39.1104 146.574 39.1104C140.554 39.1104 135.684 34.5109 135.684 28.2881C135.684 21.9976 140.554 17.4658 146.574 17.4658C152.593 17.4658 157.463 21.9976 157.463 28.2881ZM152.729 28.2881C152.729 24.365 149.888 21.7271 146.641 21.7271C143.327 21.7271 140.554 24.365 140.554 28.2881C140.554 32.1435 143.394 34.8491 146.641 34.8491C149.888 34.8491 152.729 32.1435 152.729 28.2881Z" fill="#5F6368"/>
<path d="M180.258 18.0739V37.5539C180.258 45.5354 175.523 48.8497 169.977 48.8497C164.701 48.8497 161.59 45.3324 160.372 42.4239L164.498 40.733C165.242 42.4916 167.068 44.5884 169.977 44.5884C173.562 44.5884 175.794 42.3563 175.794 38.2303V36.6746H175.659C174.576 37.9598 172.547 39.1096 169.977 39.1096C164.566 39.1096 159.561 34.3749 159.561 28.2874C159.561 22.1998 164.498 17.3975 169.977 17.3975C172.547 17.3975 174.644 18.5473 175.659 19.8325H175.794V18.0739H180.258ZM176.065 28.2874C176.065 24.4996 173.494 21.6587 170.248 21.6587C166.933 21.6587 164.228 24.4319 164.228 28.2874C164.228 32.0752 167.001 34.8484 170.248 34.8484C173.494 34.8484 176.065 32.0752 176.065 28.2874Z" fill="#5F6368"/>
<path d="M188.307 6.70996V38.4327H183.573V6.70996H188.307Z" fill="#5F6368"/>
<path d="M206.705 31.873L210.425 34.308C209.208 36.0666 206.367 39.1104 201.429 39.1104C195.274 39.1104 190.675 34.3756 190.675 28.2881C190.675 21.8624 195.342 17.4658 200.888 17.4658C206.502 17.4658 209.276 21.93 210.155 24.365L210.628 25.5825L196.154 31.6024C197.236 33.7669 198.994 34.9167 201.429 34.9167C203.729 34.8491 205.42 33.6316 206.705 31.873ZM195.274 27.9499L204.947 23.9592C204.406 22.6064 202.782 21.6595 200.956 21.6595C198.521 21.5918 195.207 23.7563 195.274 27.9499Z" fill="#5F6368"/>
</svg>
