<svg width="24" height="24" viewBox="0 0 24 24" fill="none" xmlns="http://www.w3.org/2000/svg">
<path fill-rule="evenodd" clip-rule="evenodd" d="M4.99969 9C4.99969 7.14348 5.73718 5.36301 7.04994 4.05025C8.36269 2.7375 10.1432 2 11.9997 2C13.8562 2 15.6367 2.7375 16.9494 4.05025C18.2622 5.36301 18.9997 7.14348 18.9997 9V12.764L20.8217 16.408C20.9056 16.5757 20.9452 16.7621 20.9367 16.9494C20.9283 17.1368 20.8721 17.3188 20.7735 17.4783C20.6749 17.6379 20.5372 17.7695 20.3734 17.8608C20.2096 17.9521 20.0252 18 19.8377 18H15.8737C15.6512 18.8582 15.1501 19.6183 14.4489 20.1609C13.7478 20.7035 12.8863 20.9979 11.9997 20.9979C11.1131 20.9979 10.2516 20.7035 9.55042 20.1609C8.84926 19.6183 8.34812 18.8582 8.12569 18H4.16169C3.97416 18 3.78975 17.9521 3.62595 17.8608C3.46216 17.7695 3.32442 17.6379 3.22583 17.4783C3.12724 17.3188 3.07106 17.1368 3.06263 16.9494C3.05421 16.7621 3.09381 16.5757 3.17769 16.408L4.99969 12.764V9ZM10.2677 18C10.4432 18.304 10.6957 18.5565 10.9997 18.732C11.3038 18.9075 11.6486 18.9999 11.9997 18.9999C12.3507 18.9999 12.6956 18.9075 12.9996 18.732C13.3037 18.5565 13.5561 18.304 13.7317 18H10.2677ZM11.9997 4C10.6736 4 9.40183 4.52678 8.46415 5.46447C7.52647 6.40215 6.99969 7.67392 6.99969 9V12.764C6.99967 13.0743 6.92743 13.3804 6.78869 13.658L5.61869 16H18.3817L17.2117 13.658C17.0726 13.3805 17 13.0744 16.9997 12.764V9C16.9997 7.67392 16.4729 6.40215 15.5352 5.46447C14.5975 4.52678 13.3258 4 11.9997 4Z" fill="#FBFBFB"/>
</svg>
