<svg width="146" height="40" viewBox="0 0 146 40" fill="none" xmlns="http://www.w3.org/2000/svg">
<path d="M33.3784 31.7645V8.73438H44.1604C45.3753 8.73438 46.4776 8.93107 47.4675 9.32446C48.4686 9.71785 49.2842 10.2517 49.9141 10.9261C50.5553 11.6005 51.0447 12.3872 51.3821 13.2864C51.7307 14.1744 51.9051 15.1298 51.9051 16.1525C51.9051 17.1642 51.7307 18.1139 51.3821 19.0018C51.0447 19.8898 50.5553 20.6765 49.9141 21.3622C49.2729 22.0365 48.4574 22.5704 47.4675 22.9638C46.4776 23.3572 45.3753 23.5539 44.1604 23.5539H38.2885V31.7645H33.3784ZM38.2885 19.2378H43.4685C44.4584 19.2378 45.274 18.9569 45.9151 18.3949C46.5676 17.8329 46.8938 17.0855 46.8938 16.1525C46.8938 15.2084 46.5676 14.4554 45.9151 13.8934C45.274 13.3315 44.4584 13.0504 43.4685 13.0504H38.2885V19.2378ZM53.8118 23.4022C53.8118 21.7949 54.1774 20.3282 54.9086 19.0018C55.6398 17.6756 56.6689 16.6246 57.9964 15.8491C59.3237 15.0623 60.8085 14.6689 62.4509 14.6689C64.9481 14.6689 66.9616 15.5176 68.4914 17.2148C70.0325 18.9006 70.803 21.1037 70.803 23.8237V24.8521H58.4013C58.5588 25.9311 59.0593 26.8246 59.903 27.5328C60.7467 28.2409 61.849 28.5949 63.2101 28.5949C63.9526 28.5949 64.7456 28.4488 65.5893 28.1565C66.4441 27.8531 67.1247 27.4541 67.631 26.9596L69.5882 29.8594C68.7782 30.6012 67.7602 31.1744 66.5342 31.5791C65.3193 31.9837 64.0482 32.1861 62.7208 32.1861C60.1448 32.1861 58.0132 31.3824 56.3258 29.7751C54.6498 28.1565 53.8118 26.0323 53.8118 23.4022ZM58.3675 21.8174H66.5848C66.551 21.3903 66.4498 20.9801 66.281 20.5866C66.1123 20.1932 65.8705 19.8168 65.5555 19.457C65.2517 19.0974 64.83 18.8108 64.29 18.5972C63.7501 18.3724 63.137 18.2601 62.4509 18.2601C61.7984 18.2601 61.2134 18.3668 60.6961 18.5804C60.1786 18.7939 59.7624 19.0805 59.4474 19.4402C59.1325 19.7886 58.885 20.1651 58.7051 20.5698C58.525 20.9631 58.4126 21.379 58.3675 21.8174ZM73.9752 31.7645V15.0904H78.3622V17.3328C79.0034 16.5684 79.8021 15.9334 80.7582 15.4276C81.7256 14.9218 82.7043 14.6689 83.6941 14.6689V18.9512C83.3905 18.8838 82.9854 18.8501 82.4793 18.8501C81.7369 18.8501 80.9551 19.0412 80.1339 19.4234C79.3127 19.7943 78.7222 20.2382 78.3622 20.7552V31.7645H73.9752ZM84.2509 31.7645L90.1903 23.1998L84.5884 15.0904H89.4985L92.9575 20.1989L96.3827 15.0904H101.293L95.7247 23.1998L101.664 31.7645H96.754L92.9575 26.1335L89.1273 31.7645H84.2509ZM102.778 23.4022C102.778 21.7949 103.143 20.3282 103.874 19.0018C104.606 17.6756 105.635 16.6246 106.962 15.8491C108.29 15.0623 109.774 14.6689 111.417 14.6689C113.914 14.6689 115.928 15.5176 117.457 17.2148C118.998 18.9006 119.768 21.1037 119.768 23.8237V24.8521H107.367C107.525 25.9311 108.025 26.8246 108.869 27.5328C109.713 28.2409 110.815 28.5949 112.176 28.5949C112.918 28.5949 113.711 28.4488 114.555 28.1565C115.41 27.8531 116.091 27.4541 116.597 26.9596L118.554 29.8594C117.744 30.6012 116.726 31.1744 115.5 31.5791C114.285 31.9837 113.014 32.1861 111.687 32.1861C109.111 32.1861 106.979 31.3824 105.292 29.7751C103.616 28.1565 102.778 26.0323 102.778 23.4022ZM107.333 21.8174H115.551C115.517 21.3903 115.416 20.9801 115.247 20.5866C115.078 20.1932 114.836 19.8168 114.521 19.457C114.218 19.0974 113.796 18.8108 113.256 18.5972C112.716 18.3724 112.103 18.2601 111.417 18.2601C110.764 18.2601 110.179 18.3668 109.662 18.5804C109.145 18.7939 108.728 19.0805 108.413 19.4402C108.098 19.7886 107.851 20.1651 107.671 20.5698C107.491 20.9631 107.378 21.379 107.333 21.8174ZM122.942 31.7645V8.73438H127.329V31.7645H122.942ZM130.23 29.5896L132.137 26.4201C132.789 27.0382 133.661 27.5777 134.752 28.0385C135.854 28.4993 136.907 28.7298 137.908 28.7298C138.83 28.7298 139.528 28.5724 140 28.2577C140.472 27.9318 140.709 27.4991 140.709 26.9596C140.709 26.5999 140.523 26.3021 140.152 26.0659C139.792 25.8299 139.319 25.6445 138.734 25.5096C138.161 25.3748 137.519 25.2455 136.81 25.1218C136.113 24.987 135.41 24.8071 134.702 24.5824C134.005 24.3576 133.363 24.071 132.778 23.7225C132.204 23.3741 131.732 22.8796 131.361 22.2389C131.001 21.587 130.821 20.817 130.821 19.9291C130.821 18.4568 131.428 17.2148 132.643 16.2031C133.859 15.1803 135.528 14.6689 137.655 14.6689C140.219 14.6689 142.457 15.4276 144.371 16.945L142.599 20.0639C142.07 19.5132 141.355 19.0524 140.456 18.6815C139.567 18.3106 138.633 18.1251 137.655 18.1251C136.867 18.1251 136.231 18.2769 135.748 18.5804C135.275 18.8838 135.04 19.2716 135.04 19.7437C135.04 20.0359 135.18 20.2831 135.461 20.4855C135.742 20.6765 136.113 20.8283 136.575 20.9406C137.047 21.0418 137.576 21.1598 138.161 21.2948C138.757 21.4296 139.364 21.5645 139.983 21.6994C140.613 21.823 141.22 22.0254 141.805 22.3063C142.402 22.5761 142.931 22.8908 143.391 23.2504C143.864 23.6102 144.241 24.099 144.522 24.7172C144.803 25.3355 144.944 26.0491 144.944 26.8584C144.944 28.4319 144.296 29.7132 143.004 30.7024C141.721 31.6915 139.949 32.1861 137.689 32.1861C136.237 32.1861 134.848 31.9556 133.521 31.4948C132.204 31.0339 131.108 30.3989 130.23 29.5896Z" fill="white"/>
<path fill-rule="evenodd" clip-rule="evenodd" d="M10.7647 22.5774V33.9095H9.31581V35.4697H1.44886V33.9095H0V21.4274V8.94531H14.5065H15.6979V10.4496H18.1466V12.5694H20.0805V19.3077H18.1466V21.0731H15.6979V22.5774H10.7647Z" fill="white"/>
<path fill-rule="evenodd" clip-rule="evenodd" d="M21.158 7.55933V4.37665H17.4401V3.53125H4.38232V6.64556H17.4401V7.57177H19.8169V10.8104H23.3253V7.55933H21.158Z" fill="white"/>
<path d="M10.7647 22.5774V33.9095H9.31581V35.4697H1.44886V33.9095H0V21.4274V8.94531H14.5065H15.6979V10.4496H18.1466V12.5694H20.0805V19.3077H18.1466V21.0731H15.6979V22.5774H10.7647Z" fill="white"/>
<path d="M21.158 7.55933V4.37665H17.4401V3.53125H4.38232V6.64556H17.4401V7.57177H19.8169V10.8104H23.3253V7.55933H21.158Z" fill="white"/>
</svg>
