<svg width="103" height="103" viewBox="0 0 103 103" fill="none" xmlns="http://www.w3.org/2000/svg">
<circle cx="51.6597" cy="51.7244" r="51.075" fill="#D5CDFF"/>
<path d="M62.6414 40.938C62.217 40.9711 61.8114 41.127 61.4741 41.3867C61.1368 41.6464 60.8824 41.9987 60.742 42.4006C60.6016 42.8025 60.5812 43.2365 60.6834 43.6498C60.7855 44.063 61.0058 44.4376 61.3172 44.7278C62.5361 45.9443 63.5025 47.3896 64.1609 48.9809C64.8194 50.5721 65.1568 52.2777 65.1538 53.9998C65.1558 55.7217 64.818 57.4271 64.1596 59.0182C63.5012 60.6092 62.5353 62.0547 61.3172 63.2718C61.1055 63.474 60.9364 63.7164 60.8197 63.9849C60.703 64.2534 60.6412 64.5424 60.6378 64.8351C60.6345 65.1279 60.6896 65.4183 60.8001 65.6894C60.9106 65.9605 61.0741 66.2067 61.2811 66.4137C61.4881 66.6207 61.7343 66.7842 62.0054 66.8947C62.2765 67.0052 62.5669 67.0603 62.8597 67.057C63.1524 67.0536 63.4414 66.9918 63.7099 66.8751C63.9784 66.7584 64.2208 66.5893 64.423 66.3776C67.6994 63.0914 69.5392 58.6402 69.5392 53.9998C69.5392 49.3594 67.6994 44.9082 64.423 41.622C64.2226 41.4102 63.982 41.2405 63.7153 41.1228C63.4485 41.0051 63.1609 40.9418 62.8694 40.9366C62.7934 40.9326 62.7173 40.9326 62.6414 40.9366V40.938ZM40.8557 40.9819C40.3698 41.0463 39.9196 41.2717 39.5768 41.622C36.3005 44.9082 34.4607 49.3594 34.4607 53.9998C34.4607 58.6402 36.3005 63.0914 39.5768 66.3776C39.779 66.5893 40.0215 66.7584 40.2899 66.8751C40.5584 66.9918 40.8475 67.0536 41.1402 67.057C41.4329 67.0603 41.7233 67.0052 41.9944 66.8947C42.2655 66.7842 42.5118 66.6207 42.7188 66.4137C42.9258 66.2067 43.0893 65.9605 43.1998 65.6894C43.3102 65.4183 43.3654 65.1279 43.362 64.8351C43.3587 64.5424 43.2968 64.2534 43.1801 63.9849C43.0635 63.7164 42.8943 63.474 42.6826 63.2718C41.4637 62.0553 40.4973 60.6099 39.8389 59.0187C39.1805 57.4275 38.8431 55.7218 38.8461 53.9998C38.8441 52.2779 39.1819 50.5725 39.8403 48.9814C40.4986 47.3903 41.4645 45.9448 42.6826 44.7278C43.014 44.4059 43.2353 43.9876 43.3148 43.5326C43.3944 43.0775 43.3282 42.6089 43.1256 42.1938C42.923 41.7786 42.5945 41.438 42.1868 41.2206C41.7792 41.0032 41.3133 40.9187 40.8557 40.9819ZM46.4285 45.8239C45.9479 45.8756 45.4977 46.0848 45.1482 46.4188C44.0876 47.377 43.2391 48.5464 42.6571 49.852C42.0752 51.1576 41.7727 52.5704 41.7692 53.9998C41.7692 56.993 43.0407 59.7144 45.1029 61.5823C45.316 61.7772 45.5653 61.9282 45.8367 62.0267C46.1081 62.1253 46.3963 62.1694 46.6848 62.1566C46.9732 62.1437 47.2564 62.0742 47.518 61.952C47.7796 61.8298 48.0145 61.6572 48.2094 61.4441C48.4043 61.2311 48.5554 60.9817 48.6539 60.7103C48.7525 60.4389 48.7966 60.1507 48.7837 59.8623C48.7709 59.5738 48.7014 59.2907 48.5792 59.0291C48.4569 58.7675 48.2844 58.5325 48.0713 58.3376C47.4646 57.7901 46.9801 57.1208 46.6497 56.3733C46.3193 55.6258 46.1503 54.817 46.1538 53.9998C46.1507 53.1823 46.3201 52.3733 46.6507 51.6256C46.9814 50.8779 47.4659 50.2083 48.0728 49.6605C48.423 49.3558 48.6675 48.9477 48.771 48.4952C48.8745 48.0426 48.8316 47.5689 48.6486 47.1422C48.4656 46.7156 48.1519 46.358 47.7526 46.1211C47.3534 45.8842 46.8907 45.7802 46.4285 45.8239ZM57.2527 45.8239C56.8179 45.8479 56.4001 46.0008 56.0526 46.2632C55.705 46.5255 55.4435 46.8854 55.3013 47.297C55.1591 47.7085 55.1426 48.1531 55.2541 48.5741C55.3656 48.995 55.5998 49.3732 55.9271 49.6605C56.5343 50.208 57.0191 50.8776 57.3498 51.6253C57.6804 52.3731 57.8496 53.1822 57.8461 53.9998C57.8491 54.8173 57.6798 55.6263 57.3491 56.374C57.0185 57.1217 56.5339 57.7913 55.9271 58.3391C55.6828 58.5215 55.4793 58.7529 55.3295 59.0185C55.1797 59.284 55.0869 59.5779 55.0571 59.8813C55.0273 60.1848 55.0611 60.4911 55.1564 60.7807C55.2517 61.0703 55.4063 61.3369 55.6105 61.5633C55.8146 61.7898 56.0637 61.9712 56.3419 62.096C56.6201 62.2207 56.9213 62.2861 57.2261 62.2879C57.531 62.2896 57.8329 62.2278 58.1126 62.1063C58.3922 61.9848 58.6434 61.8063 58.8502 61.5823C59.9112 60.624 60.7602 59.4544 61.3423 58.1485C61.9245 56.8427 62.2271 55.4295 62.2307 53.9998C62.2361 52.5731 61.9422 51.1611 61.368 49.855C60.7938 48.5489 59.9519 47.3778 58.8969 46.4173C58.6782 46.2109 58.4194 46.0518 58.1365 45.9497C57.8536 45.8476 57.5528 45.8048 57.2527 45.8239ZM51.9999 51.3515C51.4762 51.3518 50.9643 51.5073 50.529 51.7985C50.0937 52.0897 49.7545 52.5034 49.5543 52.9873C49.354 53.4713 49.3018 54.0037 49.4041 54.5173C49.5065 55.031 49.7588 55.5027 50.1293 55.8729C50.4997 56.2432 50.9716 56.4953 51.4853 56.5973C51.9989 56.6994 52.5314 56.6469 53.0152 56.4464C53.499 56.2459 53.9125 55.9064 54.2035 55.471C54.4944 55.0355 54.6497 54.5235 54.6497 53.9998C54.6503 53.6517 54.5821 53.3068 54.4492 52.9851C54.3162 52.6633 54.1211 52.371 53.8749 52.1248C53.6287 51.8787 53.3364 51.6835 53.0146 51.5505C52.6929 51.4176 52.3481 51.3509 51.9999 51.3515Z" fill="#34296B"/>
</svg>
