<svg width="103" height="103" viewBox="0 0 103 103" fill="none" xmlns="http://www.w3.org/2000/svg">
<circle cx="51.555" cy="51.7244" r="51.075" fill="#FFCED7"/>
<path d="M52.0001 52.8335C50.453 52.8335 48.9693 53.4481 47.8753 54.542C46.7813 55.636 46.1667 57.1197 46.1667 58.6668C46.1667 60.2139 46.7813 61.6977 47.8753 62.7916C48.9693 63.8856 50.453 64.5002 52.0001 64.5002C53.5472 64.5002 55.0309 63.8856 56.1249 62.7916C57.2188 61.6977 57.8334 60.2139 57.8334 58.6668C57.8334 57.1197 57.2188 55.636 56.1249 54.542C55.0309 53.4481 53.5472 52.8335 52.0001 52.8335ZM49.5001 58.6668C49.5001 58.0038 49.7635 57.3679 50.2323 56.8991C50.7012 56.4302 51.337 56.1668 52.0001 56.1668C52.6631 56.1668 53.299 56.4302 53.7678 56.8991C54.2367 57.3679 54.5001 58.0038 54.5001 58.6668C54.5001 59.3299 54.2367 59.9658 53.7678 60.4346C53.299 60.9034 52.6631 61.1668 52.0001 61.1668C51.337 61.1668 50.7012 60.9034 50.2323 60.4346C49.7635 59.9658 49.5001 59.3299 49.5001 58.6668Z" fill="#FF9CAE"/>
<path d="M61.21 40.5265L55.9117 33.0981L36.43 48.6615L35.35 48.6498V48.6665H34.5V68.6665H69.5V48.6665H67.8967L64.7067 39.3348L61.21 40.5265ZM64.375 48.6665H47.6617L60.11 44.4231L62.6467 43.6115L64.375 48.6665ZM57.9167 41.6498L45.0667 46.0298L55.2433 37.8998L57.9167 41.6498ZM37.8333 62.2815V55.0481C38.5365 54.799 39.1752 54.396 39.7028 53.8687C40.2305 53.3413 40.6338 52.7028 40.8833 51.9998H63.1167C63.3661 52.7031 63.7694 53.3418 64.297 53.8695C64.8247 54.3971 65.4634 54.8004 66.1667 55.0498V62.2831C65.4634 62.5326 64.8247 62.9358 64.297 63.4635C63.7694 63.9911 63.3661 64.6299 63.1167 65.3331H40.8867C40.637 64.6293 40.2333 63.99 39.705 63.4621C39.1768 62.9341 38.5373 62.5308 37.8333 62.2815Z" fill="#FF9CAE"/>
</svg>
