<svg width="103" height="103" viewBox="0 0 103 103" fill="none" xmlns="http://www.w3.org/2000/svg">
<circle cx="51.1019" cy="51.7244" r="51.075" fill="#FEF3AE"/>
<g clip-path="url(#clip0_103_822)">
<path fill-rule="evenodd" clip-rule="evenodd" d="M66.4343 57.6457H51.74C53.4073 57.4972 54.9533 56.712 56.0568 55.4533C57.1602 54.1946 57.7363 52.5592 57.6653 50.8868C57.5943 49.2144 56.8817 47.6336 55.6756 46.473C54.4694 45.3123 52.8625 44.661 51.1886 44.6543H46.3886C47.1062 43.6893 47.6195 42.5882 47.897 41.4181C48.1745 40.2481 48.2105 39.0337 48.0027 37.8492C47.7949 36.6648 47.3477 35.5352 46.6885 34.5295C46.0292 33.5237 45.1718 32.663 44.1686 32H66.4343C67.4563 32.0015 68.4359 32.4086 69.158 33.1317C69.8801 33.8549 70.2857 34.8352 70.2857 35.8571V53.7971C70.2857 55.9229 68.56 57.6486 66.4343 57.6486V57.6457ZM39.28 44.66C39.9835 44.6764 40.6832 44.5519 41.338 44.294C41.9927 44.0361 42.5893 43.6499 43.0927 43.1581C43.596 42.6663 43.996 42.0789 44.2691 41.4303C44.5421 40.7818 44.6828 40.0851 44.6828 39.3814C44.6828 38.6777 44.5421 37.9811 44.2691 37.3325C43.996 36.684 43.596 36.0965 43.0927 35.6047C42.5893 35.113 41.9927 34.7268 41.338 34.4688C40.6832 34.2109 39.9835 34.0865 39.28 34.1029C37.9013 34.1349 36.5899 34.7052 35.6261 35.6916C34.6624 36.678 34.1228 38.0024 34.1228 39.3814C34.1228 40.7605 34.6624 42.0848 35.6261 43.0713C36.5899 44.0577 37.9013 44.6279 39.28 44.66ZM54.1229 51.1629C54.1229 49.54 52.8086 48.2257 51.1886 48.2257H39.2829C38.2885 48.2253 37.3037 48.4209 36.385 48.8013C35.4662 49.1817 34.6314 49.7394 33.9282 50.4425C33.2251 51.1456 32.6674 51.9805 32.287 52.8992C31.9066 53.818 31.7111 54.8027 31.7114 55.7971V59.24C31.7114 60.76 32.9457 61.9914 34.4657 61.9914H34.9571L35.7629 69.4486C35.8382 70.1487 36.1695 70.7964 36.6931 71.2673C37.2167 71.7382 37.8958 71.9991 38.6 72H40.0343C40.7235 71.9997 41.3894 71.7503 41.9092 71.2977C42.4291 70.8451 42.7677 70.2198 42.8629 69.5371L45.0143 54.0971H51.1857C52.8057 54.0971 54.12 52.7829 54.12 51.1629H54.1229Z" fill="#FEDA00"/>
</g>
<defs>
<clipPath id="clip0_103_822">
<rect width="40" height="40" fill="white" transform="translate(31 32)"/>
</clipPath>
</defs>
</svg>
