<svg width="85" height="168" viewBox="0 0 85 168" fill="none" xmlns="http://www.w3.org/2000/svg">
<g id="Group">
<g id="Group_2">
<path id="Vector" d="M49.6134 38.9342C52.9104 42.2952 56.5563 45.2173 60.4603 47.7037C52.3403 47.3538 44.4293 48.4666 36.6373 51.5411C24.6853 56.2565 13.5803 64.7664 2.82434 73.5461C2.50234 73.8091 2.18038 74.0732 1.85938 74.3373C16.3224 83.2693 31.2834 88.8945 45.7034 88.4114C48.7104 88.311 51.6973 87.9205 54.6573 87.3099C53.1493 90.0299 51.7054 92.7962 50.3384 95.6122C41.1344 114.572 34.0173 148.085 30.3663 164.308C52.5243 153.15 71.6473 137.365 86.9243 117.552C87.8683 116.328 88.7873 115.079 89.6953 113.819C90.2533 118.095 91.1593 122.329 92.4613 126.532C96.6373 140.022 104.171 152.558 111.944 164.698C112.177 165.062 112.41 165.425 112.644 165.788C120.547 149.467 125.523 132.582 125.092 116.308C124.894 108.84 123.558 101.465 121.226 94.356C123.939 96.5489 126.789 98.4947 129.771 100.14C141 106.341 154.162 108.455 167.746 108.033C167.558 107.716 167.37 107.4 167.181 107.083C160.881 96.5207 154.239 86.0063 145.996 77.8237C137.826 69.7133 128.333 64.675 117.667 61.3862C111.024 59.3377 108.003 59.5589 96.9064 57.5025V57.5037C96.9054 57.5037 96.9043 57.5025 96.9023 57.5025C96.9033 57.5025 96.9044 57.5025 96.9064 57.5025C91.0874 46.6416 90.1444 43.3945 85.9894 37.196C79.3174 27.246 71.6414 19.1739 61.9324 13.6323C52.1364 8.04104 41.0184 4.99371 29.9884 2.32335C29.6584 2.24321 29.3273 2.16421 28.9963 2.08521C33.7023 16.4742 40.3364 29.4773 49.6134 38.9342Z" fill="#F1BF4C" fill-opacity="0.1"/>
<g id="Group_3">
<path id="Vector_2" d="M48.2845 40.4298C51.7775 43.8879 55.4946 46.8935 59.5116 49.53C59.8266 48.2151 60.1425 46.9014 60.4575 45.5865C37.4135 44.9139 18.9495 57.7273 0.909518 72.5091C-0.165482 73.3895 -0.433482 75.3476 0.909518 76.1637C17.6965 86.3699 35.9786 93.0075 55.1526 89.3484C54.4466 88.3123 53.7405 87.2762 53.0345 86.2402C40.1245 109.804 34.5245 137.163 28.5555 163.744C28.1245 165.664 29.8605 166.872 31.3095 166.133C54.2795 154.418 74.9965 137.373 91.0185 115.314C89.9735 115.002 88.9295 114.691 87.8845 114.381C90.7075 134.19 100.791 150.934 111.023 166.855C111.802 168.069 113.538 168.371 114.26 166.855C125.141 144.027 130.947 118.99 123.031 93.7941C122.113 94.591 121.196 95.3878 120.278 96.1835C134.308 107.214 150.906 110.528 167.743 110.149C169.087 110.119 170.182 108.343 169.363 106.965C160.429 91.9341 150.757 76.737 136.512 67.6548C124.138 59.7645 111.131 57.9508 97.4026 55.4633C96.1466 55.2353 94.5366 56.3944 95.0956 58.0659V58.0671C95.8645 57.1991 96.6336 56.3312 97.4026 55.4633C97.4016 55.4633 97.3995 55.4621 97.3985 55.4621C97.2325 56.8481 97.0665 58.233 96.8995 59.6189C96.9005 59.6189 96.9015 59.6189 96.9035 59.6189C98.3105 59.6133 99.2586 57.8199 98.5226 56.435C91.3676 42.9737 85.0796 30.0136 73.9966 19.9597C61.2156 8.36515 45.2225 3.8235 29.4925 0.044814C28.2225 -0.259919 26.6455 1.03125 27.1865 2.64859C31.9065 16.7803 38.3925 30.0666 48.2845 40.4298C50.0515 42.2808 52.7095 39.2944 50.9365 37.4366C41.5205 27.5723 35.2975 14.9812 30.8015 1.52221C30.0325 2.39013 29.2635 3.25806 28.4955 4.12485C44.0595 7.86403 60.1166 12.251 72.5695 24.0871C82.7596 33.7719 88.5755 45.9477 95.2845 58.5693C95.8245 57.5084 96.3635 56.4463 96.9035 55.3854C96.9025 55.3854 96.9015 55.3854 96.8995 55.3854C94.7485 55.3944 94.4015 58.8244 96.4015 59.5422C96.4025 59.5422 96.4045 59.5433 96.4055 59.5433C97.6905 60.0049 99.2175 58.4497 98.7125 56.9407V56.9395C97.9435 57.8075 97.1745 58.6754 96.4055 59.5433C109.259 61.8728 121.496 63.3649 133.228 70.4482C147.633 79.1455 157.218 94.1169 166.124 109.102C166.664 108.04 167.204 106.979 167.743 105.918C151.514 106.284 135.695 103.163 122.17 92.5301C120.857 91.4974 118.882 93.2208 119.415 94.9194C127.008 119.088 121.458 142.828 111.024 164.72C112.103 164.72 113.183 164.72 114.262 164.72C104.212 149.082 94.2756 132.718 91.5016 113.256C91.2856 111.743 89.2185 111.151 88.3675 112.323C72.5225 134.14 52.1345 150.894 29.4175 162.481C30.3355 163.278 31.2535 164.075 32.1715 164.87C38.0605 138.645 43.5365 111.627 56.2735 88.3778C57.2085 86.6713 55.6705 84.9806 54.1555 85.2695C36.0425 88.7254 18.6195 82.1263 2.80246 72.5114C2.80246 73.7292 2.80246 74.9481 2.80246 76.1659C20.2765 61.8491 38.0785 49.1677 60.4585 49.8212C62.3355 49.8765 62.9865 46.9161 61.4045 45.8777C57.6585 43.4184 54.1995 40.6691 50.9365 37.4389C49.1285 35.6478 46.4655 38.6296 48.2845 40.4298Z" fill="#F1BF4C" fill-opacity="0.1"/>
</g>
</g>
</g>
</svg>
