<svg width="86" height="86" viewBox="0 0 86 86" fill="none" xmlns="http://www.w3.org/2000/svg">
<circle cx="43" cy="43" r="43" fill="#34296B"/>
<path d="M45.0542 52.3204L64.4567 42.6367L64.0353 45.0228C57.2133 42.5829 50.5563 38.5927 45.7431 33.2896C45.1998 32.6922 46.1113 30.4373 46.8167 31.1058C49.4033 33.5589 52.0758 35.8627 55.1065 37.8107C58.1372 39.7586 61.4162 41.3405 64.8332 42.5636C65.689 42.868 64.9748 44.6666 64.4117 44.9496L45.0092 54.6333C43.9333 55.172 44.2975 52.6956 45.0542 52.3204Z" fill="white"/>
<path d="M62.5444 44.9515C49.245 44.4445 35.9327 44.0565 22.6377 43.402C22.1745 43.382 21.0468 43.3124 21.0307 42.6621C21.0231 42.0403 22.1746 41.8648 22.6113 41.8765C35.9152 42.236 49.2144 42.8508 62.5159 43.365C63.0035 43.3859 64.18 43.4577 64.1897 44.1405C64.2036 44.7837 62.9949 44.9826 62.5391 44.9606L62.5444 44.9515Z" fill="white"/>
</svg>
