<svg width="24" height="24" viewBox="0 0 24 24" fill="none" xmlns="http://www.w3.org/2000/svg">
<path d="M4.04499 12.8838L6.32999 15.1701L8.09999 13.4001L5.81249 11.1163L7.57999 9.3488L9.86624 11.6338L11.6337 9.86631L9.34999 7.58005L11.1175 5.81256L13.4 8.10006L15.1687 6.33131L12.8825 4.04631L16.4187 0.511305C16.6532 0.276967 16.971 0.145322 17.3025 0.145322C17.6339 0.145322 17.9518 0.276967 18.1862 0.511305L23.4887 5.81381C23.7231 6.04822 23.8547 6.3661 23.8547 6.69756C23.8547 7.02901 23.7231 7.3469 23.4887 7.58131L7.57999 23.4901C7.34558 23.7244 7.0277 23.856 6.69624 23.856C6.36479 23.856 6.0469 23.7244 5.81249 23.4901L0.509994 18.1876C0.275655 17.9531 0.144011 17.6353 0.144011 17.3038C0.144011 16.9724 0.275655 16.6545 0.509994 16.4201L4.04499 12.8838ZM14.6512 19.9538L19.955 14.6513L23.25 17.9463V23.2501H17.9475L14.6512 19.9538ZM4.04499 9.34756L0.508744 5.81256C0.392523 5.69646 0.300325 5.5586 0.237419 5.40686C0.174514 5.25511 0.142136 5.09245 0.142136 4.92818C0.142136 4.76391 0.174514 4.60125 0.237419 4.4495C0.300325 4.29776 0.392523 4.1599 0.508744 4.04381L4.04499 0.508805C4.2794 0.274466 4.59729 0.142822 4.92874 0.142822C5.2602 0.142822 5.57808 0.274466 5.81249 0.508805L9.34999 4.04381L4.04499 9.34756Z" fill="white"/>
</svg>
