<svg width="24" height="24" viewBox="0 0 24 24" fill="none" xmlns="http://www.w3.org/2000/svg">
<path d="M2.5 6L8 4L13.5 6L11 7.5V9C11 9 10.333 8.5 8 8.5C5.667 8.5 5 9 5 9V7.5L2.5 6ZM2.5 6V10" stroke="white" stroke-width="1.5" stroke-linecap="round" stroke-linejoin="round"/>
<path d="M11 8.5V9.389C11 11.107 9.657 12.5 8 12.5C6.343 12.5 5 11.107 5 9.389V8.5M15.318 11.03C15.318 11.03 15.803 10.677 17.5 10.677C19.197 10.677 19.682 11.029 19.682 11.029M15.318 11.03V10L13.5 9L17.5 7.5L21.5 9L19.682 10V11.029M15.318 11.03V11.318C15.318 11.8967 15.5479 12.4517 15.9571 12.8609C16.3663 13.2701 16.9213 13.5 17.5 13.5C18.0787 13.5 18.6337 13.2701 19.0429 12.8609C19.4521 12.4517 19.682 11.8967 19.682 11.318V11.029M16 20H19.705C20.478 20 21.092 19.624 21.644 19.098C22.774 18.022 20.919 17.162 20.212 16.741C19.5832 16.3699 18.8851 16.1316 18.1606 16.041C17.4362 15.9504 16.7008 16.0092 16 16.214M4.385 15.926C3.442 16.453 0.968999 17.528 2.475 18.873C3.211 19.53 4.03 20 5.061 20H10.939C11.969 20 12.789 19.53 13.525 18.873C15.031 17.528 12.558 16.453 11.615 15.926C9.403 14.691 6.597 14.691 4.385 15.926Z" stroke="white" stroke-width="1.5" stroke-linecap="round" stroke-linejoin="round"/>
</svg>
