<svg width="25" height="25" viewBox="0 0 25 25" fill="none" xmlns="http://www.w3.org/2000/svg">
<g clip-path="url(#clip0_34_517)">
<path d="M22.6623 6.22197C21.8989 6.55966 21.0893 6.78144 20.2603 6.87997C21.134 6.3574 21.788 5.53498 22.1003 4.56597C21.2803 5.05397 20.3813 5.39597 19.4443 5.58097C18.8149 4.90755 17.9807 4.46093 17.0713 4.31055C16.1618 4.16017 15.2282 4.31446 14.4156 4.74942C13.6029 5.18438 12.9567 5.87565 12.5774 6.71576C12.1981 7.55587 12.107 8.49775 12.3183 9.39497C10.6554 9.31162 9.02863 8.87949 7.54358 8.12663C6.05854 7.37377 4.74842 6.31701 3.6983 5.02497C3.32659 5.66342 3.13125 6.38919 3.1323 7.12797C3.1323 8.57797 3.8703 9.85897 4.9923 10.609C4.32831 10.5881 3.67893 10.4087 3.0983 10.086V10.138C3.0985 11.1037 3.43267 12.0396 4.04414 12.787C4.65562 13.5345 5.50678 14.0474 6.4533 14.239C5.83691 14.406 5.1906 14.4306 4.5633 14.311C4.83016 15.1422 5.3503 15.8692 6.05089 16.3901C6.75147 16.911 7.59742 17.1998 8.4703 17.216C7.60278 17.8973 6.60947 18.4009 5.54718 18.6981C4.48488 18.9953 3.37442 19.0802 2.2793 18.948C4.19099 20.1774 6.41639 20.8301 8.6893 20.828C16.3823 20.828 20.5893 14.455 20.5893 8.92797C20.5893 8.74797 20.5843 8.56597 20.5763 8.38797C21.3952 7.79613 22.1019 7.06299 22.6633 6.22297L22.6623 6.22197Z" fill="#121212"/>
</g>
<defs>
<clipPath id="clip0_34_517">
<rect width="24" height="24" fill="white" transform="translate(0.5 0.56604)"/>
</clipPath>
</defs>
</svg>
