<svg width="24" height="24" viewBox="0 0 24 24" fill="none" xmlns="http://www.w3.org/2000/svg">
<path d="M15.4163 9.87562L10.9163 6.87562C10.8033 6.80025 10.6719 6.75696 10.5363 6.75039C10.4006 6.74382 10.2657 6.77421 10.146 6.83831C10.0263 6.90241 9.92619 6.99782 9.85645 7.11436C9.7867 7.2309 9.74991 7.36419 9.75 7.5V13.5C9.74991 13.6358 9.7867 13.7691 9.85645 13.8856C9.92619 14.0022 10.0263 14.0976 10.146 14.1617C10.2657 14.2258 10.4006 14.2562 10.5363 14.2496C10.6719 14.243 10.8033 14.1998 10.9163 14.1244L15.4163 11.1244C15.5191 11.0559 15.6035 10.9631 15.6618 10.8542C15.7202 10.7452 15.7507 10.6236 15.7507 10.5C15.7507 10.3764 15.7202 10.2548 15.6618 10.1458C15.6035 10.0369 15.5191 9.94409 15.4163 9.87562ZM11.25 12.0984V8.90625L13.6481 10.5L11.25 12.0984ZM20.25 3.75H3.75C3.35218 3.75 2.97064 3.90804 2.68934 4.18934C2.40804 4.47064 2.25 4.85218 2.25 5.25V15.75C2.25 16.1478 2.40804 16.5294 2.68934 16.8107C2.97064 17.092 3.35218 17.25 3.75 17.25H20.25C20.6478 17.25 21.0294 17.092 21.3107 16.8107C21.592 16.5294 21.75 16.1478 21.75 15.75V5.25C21.75 4.85218 21.592 4.47064 21.3107 4.18934C21.0294 3.90804 20.6478 3.75 20.25 3.75ZM20.25 15.75H3.75V5.25H20.25V15.75ZM21.75 19.5C21.75 19.6989 21.671 19.8897 21.5303 20.0303C21.3897 20.171 21.1989 20.25 21 20.25H3C2.80109 20.25 2.61032 20.171 2.46967 20.0303C2.32902 19.8897 2.25 19.6989 2.25 19.5C2.25 19.3011 2.32902 19.1103 2.46967 18.9697C2.61032 18.829 2.80109 18.75 3 18.75H21C21.1989 18.75 21.3897 18.829 21.5303 18.9697C21.671 19.1103 21.75 19.3011 21.75 19.5Z" fill="white"/>
</svg>
