<svg width="54" height="54" viewBox="0 0 54 54" fill="none" xmlns="http://www.w3.org/2000/svg">
<path d="M29.217 27.0042H15.9269C15.0187 27.0042 14.2656 26.2511 14.2656 25.3429C14.2656 24.4347 15.0187 23.6816 15.9269 23.6816H29.217C30.1252 23.6816 30.8783 24.4347 30.8783 25.3429C30.8783 26.2511 30.1252 27.0042 29.217 27.0042Z" fill="#FCFCFC"/>
<path d="M4.84877 27.0038C3.94061 27.0038 3.1875 26.2507 3.1875 25.3425V15.1091C3.1875 9.68232 7.5954 5.27441 13.0222 5.27441H25.4706C31.1632 5.27441 35.3053 9.0621 35.3053 14.2674C35.3053 15.1756 34.5522 15.9287 33.6441 15.9287C32.7359 15.9287 31.9828 15.1756 31.9828 14.2674C31.9828 10.369 28.5938 8.59695 25.4706 8.59695H13.0222C9.43387 8.59695 6.51004 11.5208 6.51004 15.1091V25.3425C6.51004 26.2728 5.75693 27.0038 4.84877 27.0038Z" fill="#FCFCFC"/>
<path d="M35.8591 49.1543H13.7089C7.9055 49.1543 3.1875 44.4363 3.1875 38.633V23.1278C3.1875 17.3244 7.9055 12.6064 13.7089 12.6064H35.8591C41.6625 12.6064 46.3805 17.3244 46.3805 23.1278V26.3395C46.3805 27.2476 45.6273 28.0007 44.7192 28.0007H42.3269C41.5517 28.0007 40.8429 28.2887 40.3335 28.8203L40.3113 28.8425C39.5804 29.5734 39.2923 30.5923 39.5581 31.5891C39.8904 32.8295 41.1973 33.7377 42.6592 33.7377H44.7192C45.6273 33.7377 46.3805 34.4908 46.3805 35.399V38.6108C46.3805 44.4363 41.6625 49.1543 35.8591 49.1543ZM13.7089 15.929C9.74397 15.929 6.51004 19.1629 6.51004 23.1278V38.633C6.51004 42.5979 9.74397 45.8318 13.7089 45.8318H35.8591C39.824 45.8318 43.0579 42.5979 43.0579 38.633V37.0824H42.6592C39.6689 37.0824 37.0773 35.1996 36.3463 32.4751C35.7704 30.3266 36.3907 28.0451 37.9634 26.4945C39.1152 25.3206 40.6657 24.6782 42.3269 24.6782H43.0579V23.1278C43.0579 19.1629 39.824 15.929 35.8591 15.929H13.7089Z" fill="#FCFCFC"/>
<path d="M46.866 37.081H42.591C39.2463 37.081 36.4112 34.6001 36.1454 31.4105C35.9682 29.572 36.6327 27.7778 37.9617 26.4709C39.0692 25.3191 40.6418 24.6768 42.3031 24.6768H46.844C49.0147 24.6768 50.7866 26.4267 50.7866 28.5974V33.1603C50.8088 35.3311 49.0367 37.081 46.866 37.081ZM42.3252 27.9993C41.55 27.9993 40.8413 28.2872 40.3318 28.8188C39.6894 29.439 39.3793 30.2808 39.4679 31.1226C39.5787 32.5845 40.9962 33.7584 42.591 33.7584H46.866C47.1983 33.7584 47.4863 33.4926 47.4863 33.1603V28.5974C47.4863 28.2651 47.1983 27.9993 46.866 27.9993H42.3252Z" fill="#FCFCFC"/>
</svg>
