<svg width="25" height="25" viewBox="0 0 25 25" fill="none" xmlns="http://www.w3.org/2000/svg">
<g clip-path="url(#clip0_34_512)">
<path d="M2.50401 22.566L3.85601 17.598C2.96515 16.0709 2.49711 14.334 2.50001 12.566C2.50001 7.04304 6.97701 2.56604 12.5 2.56604C18.023 2.56604 22.5 7.04304 22.5 12.566C22.5 18.089 18.023 22.566 12.5 22.566C10.7328 22.5689 8.99667 22.1012 7.47001 21.211L2.50401 22.566ZM8.89101 7.87404C8.76188 7.88206 8.63569 7.91607 8.52001 7.97404C8.41153 8.03547 8.31251 8.11226 8.22601 8.20204C8.10601 8.31504 8.03801 8.41304 7.96501 8.50804C7.59542 8.98904 7.39662 9.57946 7.40001 10.186C7.40201 10.676 7.53001 11.153 7.73001 11.599C8.13901 12.501 8.81201 13.456 9.70101 14.341C9.91501 14.554 10.124 14.768 10.349 14.967C11.4524 15.9385 12.7673 16.6391 14.189 17.013L14.758 17.1C14.943 17.11 15.128 17.096 15.314 17.087C15.6053 17.072 15.8896 16.9931 16.147 16.856C16.313 16.768 16.391 16.724 16.53 16.636C16.53 16.636 16.573 16.608 16.655 16.546C16.79 16.446 16.873 16.375 16.985 16.258C17.068 16.172 17.14 16.071 17.195 15.956C17.273 15.793 17.351 15.482 17.383 15.223C17.407 15.025 17.4 14.917 17.397 14.85C17.393 14.743 17.304 14.632 17.207 14.585L16.625 14.324C16.625 14.324 15.755 13.945 15.224 13.703C15.168 13.6786 15.108 13.6647 15.047 13.662C14.9786 13.655 14.9095 13.6627 14.8443 13.6846C14.7791 13.7065 14.7193 13.7421 14.669 13.789V13.787C14.664 13.787 14.597 13.844 13.874 14.72C13.8325 14.7758 13.7754 14.8179 13.7098 14.8411C13.6443 14.8642 13.5733 14.8674 13.506 14.85C13.4409 14.8326 13.377 14.8106 13.315 14.784C13.191 14.732 13.148 14.712 13.063 14.675L13.058 14.673C12.4859 14.4233 11.9562 14.0859 11.488 13.673C11.362 13.563 11.245 13.443 11.125 13.327C10.7316 12.9503 10.3887 12.5241 10.105 12.059L10.046 11.964C10.0036 11.9002 9.96937 11.8313 9.94401 11.759C9.90601 11.612 10.005 11.494 10.005 11.494C10.005 11.494 10.248 11.228 10.361 11.084C10.4551 10.9644 10.5429 10.8399 10.624 10.711C10.742 10.521 10.779 10.326 10.717 10.175C10.437 9.49104 10.147 8.81004 9.84901 8.13404C9.79001 8.00004 9.61501 7.90404 9.45601 7.88504C9.40201 7.87904 9.34801 7.87304 9.29401 7.86904C9.15972 7.86237 9.02515 7.8637 8.89101 7.87304V7.87404Z" fill="#121212"/>
</g>
<defs>
<clipPath id="clip0_34_512">
<rect width="24" height="24" fill="white" transform="translate(0.5 0.56604)"/>
</clipPath>
</defs>
</svg>
