<svg width="48" height="48" viewBox="0 0 48 48" fill="none" xmlns="http://www.w3.org/2000/svg">
<circle cx="24" cy="24" r="24" fill="#FDE85C"/>
<path d="M32.6394 15.6299H15.3594C14.7866 15.6299 14.2372 15.8575 13.8321 16.2625C13.427 16.6676 13.1994 17.217 13.1994 17.7899V30.2099C13.1955 30.4961 13.2484 30.7802 13.3552 31.0457C13.4619 31.3112 13.6204 31.5529 13.8214 31.7567C14.0223 31.9604 14.2618 32.1222 14.5258 32.2326C14.7899 32.3431 15.0732 32.3999 15.3594 32.3999H32.6394C33.2123 32.3999 33.7617 32.1723 34.1668 31.7672C34.5719 31.3622 34.7994 30.8128 34.7994 30.2399V17.7899C34.7994 17.217 34.5719 16.6676 34.1668 16.2625C33.7617 15.8575 33.2123 15.6299 32.6394 15.6299ZM21.5994 16.7099H26.4594V21.0299H21.5994V16.7099ZM33.7194 30.2099C33.7179 30.4958 33.6036 30.7696 33.4014 30.9718C33.1992 31.174 32.9254 31.2883 32.6394 31.2899H15.3594C15.0735 31.2883 14.7997 31.174 14.5975 30.9718C14.3953 30.7696 14.281 30.4958 14.2794 30.2099V17.7899C14.281 17.5039 14.3953 17.2301 14.5975 17.0279C14.7997 16.8257 15.0735 16.7115 15.3594 16.7099H20.4894V21.5999C20.4894 21.7431 20.5463 21.8805 20.6476 21.9817C20.7489 22.083 20.8862 22.1399 21.0294 22.1399H26.9994C27.0703 22.1399 27.1406 22.1259 27.2061 22.0988C27.2716 22.0716 27.3311 22.0319 27.3813 21.9817C27.4314 21.9316 27.4712 21.872 27.4983 21.8065C27.5255 21.741 27.5394 21.6708 27.5394 21.5999V16.7099H32.6394C32.9254 16.7115 33.1992 16.8257 33.4014 17.0279C33.6036 17.2301 33.7179 17.5039 33.7194 17.7899V30.2099Z" fill="#34296B"/>
<path d="M19.6804 28.0498H16.4404C16.3695 28.0498 16.2993 28.0638 16.2337 28.0909C16.1682 28.118 16.1087 28.1578 16.0586 28.208C16.0084 28.2581 15.9686 28.3176 15.9415 28.3832C15.9144 28.4487 15.9004 28.5189 15.9004 28.5898C15.9004 28.6607 15.9144 28.7309 15.9415 28.7965C15.9686 28.862 16.0084 28.9215 16.0586 28.9716C16.1087 29.0218 16.1682 29.0616 16.2337 29.0887C16.2993 29.1158 16.3695 29.1298 16.4404 29.1298H19.6804C19.8236 29.1298 19.961 29.0729 20.0622 28.9716C20.1635 28.8704 20.2204 28.733 20.2204 28.5898C20.2204 28.4466 20.1635 28.3092 20.0622 28.208C19.961 28.1067 19.8236 28.0498 19.6804 28.0498V28.0498Z" fill="#34296B"/>
</svg>
