<svg width="48" height="48" viewBox="0 0 48 48" fill="none" xmlns="http://www.w3.org/2000/svg">
<circle cx="24" cy="24" r="24" fill="#FDE85C"/>
<path d="M33.06 29.4023V17.8594C33.06 17.4839 32.7558 17.1797 32.3803 17.1797H15.6108C15.2355 17.1797 14.9311 17.4839 14.9311 17.8594V29.4023H12.2461V30.1641C12.3338 30.266 12.7699 30.581 13.9765 30.5548L33.7577 30.5468C33.7577 30.5468 35.3018 30.5691 35.8359 30.1641V29.4023H33.06V29.4023ZM23.9955 17.6796C24.049 17.6796 24.0923 17.723 24.0923 17.7764C24.0923 17.8298 24.049 17.873 23.9955 17.873C23.9421 17.873 23.899 17.8298 23.899 17.7764C23.899 17.723 23.9421 17.6796 23.9955 17.6796ZM15.9213 18.2109H32.0698V28.3828H15.9213V18.2109V18.2109ZM25.7344 29.5488C25.7344 29.6653 25.6399 29.7598 25.5234 29.7598H22.3359C22.2195 29.7598 22.125 29.6653 22.125 29.5488V29.4141H25.7344V29.5488ZM34.4269 29.8066H33.6122C33.5977 29.8066 33.5859 29.7949 33.5859 29.7802C33.5859 29.7656 33.5977 29.7539 33.6122 29.7539H34.4269C34.4414 29.7539 34.4531 29.7656 34.4531 29.7802C34.4531 29.7949 34.4414 29.8066 34.4269 29.8066Z" fill="#34296B"/>
</svg>
