<svg width="48" height="48" viewBox="0 0 48 48" fill="none" xmlns="http://www.w3.org/2000/svg">
<circle cx="24" cy="24" r="24" fill="#FDE85C"/>
<path d="M19.5 16H17V13.5C17 13.3674 16.9473 13.2402 16.8536 13.1464C16.7598 13.0527 16.6326 13 16.5 13C16.3674 13 16.2402 13.0527 16.1464 13.1464C16.0527 13.2402 16 13.3674 16 13.5V16H13.5C13.3674 16 13.2402 16.0527 13.1464 16.1464C13.0527 16.2402 13 16.3674 13 16.5C13 16.6326 13.0527 16.7598 13.1464 16.8536C13.2402 16.9473 13.3674 17 13.5 17H16V19.5C16 19.6326 16.0527 19.7598 16.1464 19.8536C16.2402 19.9473 16.3674 20 16.5 20C16.6326 20 16.7598 19.9473 16.8536 19.8536C16.9473 19.7598 17 19.6326 17 19.5V17H19.5C19.6326 17 19.7598 16.9473 19.8536 16.8536C19.9473 16.7598 20 16.6326 20 16.5C20 16.3674 19.9473 16.2402 19.8536 16.1464C19.7598 16.0527 19.6326 16 19.5 16Z" fill="#34296B"/>
<path d="M34.708 22.0002L27.151 14.4442C26.9635 14.2567 26.7092 14.1514 26.444 14.1514C26.1789 14.1514 25.9246 14.2567 25.737 14.4442L23.437 16.7442C23.3364 16.8469 23.2595 16.9704 23.2116 17.106C23.1638 17.2416 23.1462 17.386 23.16 17.5292L18.21 19.8162C18.0613 19.884 17.9295 19.9839 17.824 20.1087C17.7185 20.2335 17.642 20.3802 17.6 20.5382L14.185 33.7282C14.1448 33.8983 14.1468 34.0757 14.1907 34.2449C14.2346 34.4141 14.3192 34.57 14.437 34.6992C14.5637 34.8279 14.7224 34.9204 14.8968 34.9672C15.0712 35.014 15.255 35.0133 15.429 34.9652L28.605 31.5532C28.7643 31.5123 28.9125 31.4364 29.0388 31.3311C29.1651 31.2257 29.2663 31.0936 29.335 30.9442L31.62 25.9882C31.648 25.9882 31.675 26.0042 31.703 26.0042C31.9682 26.0041 32.2225 25.8987 32.41 25.7112L34.71 23.4112C34.8963 23.2235 35.0007 22.9697 35.0003 22.7052C34.9999 22.4408 34.8948 22.1873 34.708 22.0002ZM28.355 30.5852L16.129 33.7292L22 27.8592C22.2938 27.9952 22.6215 28.0403 22.9411 27.9884C23.2607 27.9365 23.5574 27.7902 23.793 27.5682C24.0861 27.2752 24.2508 26.8779 24.2509 26.4635C24.251 26.0491 24.0865 25.6517 23.7935 25.3587C23.5006 25.0656 23.1032 24.9009 22.6889 24.9008C22.2745 24.9007 21.8771 25.0652 21.584 25.3582C21.3615 25.5935 21.2148 25.8902 21.163 26.2099C21.1111 26.5296 21.1564 26.8575 21.293 27.1512L15.393 33.0512L18.568 20.7902C18.5726 20.7752 18.5805 20.7616 18.5913 20.7503C18.6021 20.739 18.6153 20.7304 18.63 20.7252L23.684 18.4002L30.744 25.5002L28.355 30.5852ZM22.291 26.0652C22.37 25.987 22.4703 25.9339 22.5794 25.9126C22.6884 25.8913 22.8013 25.9028 22.9039 25.9455C23.0065 25.9883 23.0941 26.0605 23.1557 26.1529C23.2173 26.2454 23.2502 26.354 23.2502 26.4652C23.2502 26.5763 23.2173 26.6849 23.1557 26.7774C23.0941 26.8698 23.0065 26.942 22.9039 26.9848C22.8013 27.0276 22.6884 27.039 22.5794 27.0177C22.4703 26.9964 22.37 26.9434 22.291 26.8652C22.185 26.759 22.1255 26.6152 22.1255 26.4652C22.1255 26.3152 22.185 26.1713 22.291 26.0652V26.0652ZM31.7 25.0002L24.146 17.4492L26.446 15.1492L34 22.7072L31.7 25.0002Z" fill="#34296B"/>
</svg>
