<svg width="71" height="71" viewBox="0 0 71 71" fill="none" xmlns="http://www.w3.org/2000/svg">
<circle cx="35.4351" cy="35.4882" r="35" fill="#121212"/>
<path d="M34.4998 47.1667C40.9432 47.1667 46.1665 41.9433 46.1665 35.5C46.1665 29.0567 40.9432 23.8333 34.4998 23.8333C28.0565 23.8333 22.8332 29.0567 22.8332 35.5C22.8332 41.9433 28.0565 47.1667 34.4998 47.1667ZM34.4998 50.0833C26.4457 50.0833 19.9165 43.5541 19.9165 35.5C19.9165 27.4458 26.4457 20.9167 34.4998 20.9167C42.5539 20.9167 49.0832 27.4458 49.0832 35.5C49.0832 43.5541 42.5539 50.0833 34.4998 50.0833ZM34.4998 41.3333C37.7214 41.3333 40.3332 38.7216 40.3332 35.5C40.3332 32.2783 37.7214 29.6667 34.4998 29.6667C31.2782 29.6667 28.6665 32.2783 28.6665 35.5C28.6665 38.7216 31.2782 41.3333 34.4998 41.3333ZM34.4998 44.25C29.6673 44.25 25.7498 40.3325 25.7498 35.5C25.7498 30.6675 29.6673 26.75 34.4998 26.75C39.3323 26.75 43.2498 30.6675 43.2498 35.5C43.2498 40.3325 39.3323 44.25 34.4998 44.25ZM34.4998 38.4167C32.889 38.4167 31.5832 37.1109 31.5832 35.5C31.5832 33.8891 32.889 32.5833 34.4998 32.5833C36.1107 32.5833 37.4165 33.8891 37.4165 35.5C37.4165 37.1109 36.1107 38.4167 34.4998 38.4167Z" fill="white"/>
</svg>
