<svg width="71" height="71" viewBox="0 0 71 71" fill="none" xmlns="http://www.w3.org/2000/svg">
<circle cx="35.6221" cy="35.1002" r="35" fill="#121212"/>
<path d="M32.5442 44.25H38.4561C38.6486 42.4977 39.5428 41.0512 40.9946 39.4705C41.1581 39.2926 42.2067 38.2073 42.3311 38.0522C43.5674 36.5108 44.2502 34.6031 44.2502 32.5834C44.2502 27.7509 40.3326 23.8334 35.5002 23.8334C30.6677 23.8334 26.7502 27.7509 26.7502 32.5834C26.7502 34.6021 27.4323 36.5087 28.6673 38.0498C28.7919 38.2052 29.843 39.2934 30.0045 39.4693C31.4572 41.051 32.3517 42.4977 32.5442 44.25ZM38.4168 47.1667H32.5835V48.625H38.4168V47.1667ZM26.3913 39.8739C24.7908 37.8767 23.8335 35.3418 23.8335 32.5834C23.8335 26.14 29.0568 20.9167 35.5002 20.9167C41.9435 20.9167 47.1668 26.14 47.1668 32.5834C47.1668 35.3433 46.2084 37.8793 44.6064 39.8771C43.7018 41.0049 41.3335 42.7917 41.3335 44.9792V48.625C41.3335 50.2359 40.0277 51.5417 38.4168 51.5417H32.5835C30.9727 51.5417 29.6668 50.2359 29.6668 48.625V44.9792C29.6668 42.7917 27.2964 41.0032 26.3913 39.8739ZM36.9585 32.5904H40.6043L34.0418 41.3404V35.507H30.396L36.9585 26.75V32.5904Z" fill="white"/>
</svg>
