<svg width="71" height="71" viewBox="0 0 71 71" fill="none" xmlns="http://www.w3.org/2000/svg">
<circle cx="35.6221" cy="35.6235" r="35" fill="#121212"/>
<path d="M25.2987 32.1287C26.1041 32.1287 26.757 32.7816 26.757 33.5871C29.141 33.5871 31.3342 34.4042 33.0716 35.7739L36.2362 35.7746C38.1788 35.7746 39.9243 36.6187 41.126 37.9602L45.7154 37.9621C48.6208 37.9621 51.1293 39.6614 52.3013 42.1204C48.8527 46.6713 43.2681 49.6288 36.9654 49.6288C32.8956 49.6288 29.4546 48.749 26.6682 47.2109C26.4663 47.7702 25.9292 48.1705 25.2987 48.1705H20.9237C20.1183 48.1705 19.4653 47.5174 19.4653 46.7121V33.5871C19.4653 32.7816 20.1183 32.1287 20.9237 32.1287H25.2987ZM26.7585 36.5038L26.757 43.8262L26.8231 43.8748C29.4391 45.713 32.8501 46.7121 36.9654 46.7121C41.3462 46.7121 45.4217 45.0267 48.3916 42.1483L48.5854 41.9536L48.4115 41.8072C47.7349 41.2778 46.9048 40.9492 46.0143 40.8889L45.7154 40.8788L42.6358 40.8773C42.7424 41.3468 42.7987 41.8353 42.7987 42.3371V43.7955H29.6737V40.8788L39.5758 40.8773L39.5256 40.7629C38.9707 39.6055 37.823 38.7864 36.4759 38.699L36.2362 38.6913L31.9641 38.691C30.6411 37.3415 28.7976 36.5041 26.7585 36.5038ZM23.8403 35.0455H22.382V45.2538H23.8403V35.0455ZM37.908 24.2178L38.4233 24.7337L38.9392 24.2178C40.363 22.794 42.6715 22.794 44.0953 24.2178C45.5191 25.6416 45.5191 27.95 44.0953 29.3738L38.4237 35.0455L32.7521 29.3738C31.3283 27.95 31.3283 25.6416 32.7521 24.2178C34.1759 22.794 36.4843 22.794 37.908 24.2178ZM34.8145 26.2802C34.5613 26.5333 34.5333 26.9262 34.729 27.2093L34.8129 27.3099L38.4222 30.9198L42.0329 27.3114C42.2859 27.0583 42.3141 26.6654 42.1172 26.3812L42.0329 26.2802C41.7798 26.0271 41.3869 25.999 41.1024 26.1961L41.0013 26.2805L38.4214 28.8598L35.844 26.2787L35.7447 26.1958C35.4605 25.999 35.0676 26.0271 34.8145 26.2802Z" fill="white"/>
</svg>
