<svg width="71" height="71" viewBox="0 0 71 71" fill="none" xmlns="http://www.w3.org/2000/svg">
<circle cx="35.8093" cy="35.278" r="35" fill="#121212"/>
<path d="M45.7082 47.1667H25.2915V48.625C25.2915 49.4305 24.6386 50.0834 23.8332 50.0834H22.3748C21.5694 50.0834 20.9165 49.4305 20.9165 48.625V34.0417L24.5339 25.6011C24.9935 24.5287 26.048 23.8334 27.2147 23.8334H43.7849C44.9517 23.8334 46.0061 24.5287 46.4658 25.6011L50.0832 34.0417V48.625C50.0832 49.4305 49.4303 50.0834 48.6248 50.0834H47.1665C46.3611 50.0834 45.7082 49.4305 45.7082 48.625V47.1667ZM47.1665 36.9584H23.8332V44.25H47.1665V36.9584ZM24.0897 34.0417H46.91L43.7849 26.75H27.2147L24.0897 34.0417ZM27.479 42.7917C26.2709 42.7917 25.2915 41.8123 25.2915 40.6042C25.2915 39.3961 26.2709 38.4167 27.479 38.4167C28.6871 38.4167 29.6665 39.3961 29.6665 40.6042C29.6665 41.8123 28.6871 42.7917 27.479 42.7917ZM43.5207 42.7917C42.3126 42.7917 41.3332 41.8123 41.3332 40.6042C41.3332 39.3961 42.3126 38.4167 43.5207 38.4167C44.7288 38.4167 45.7082 39.3961 45.7082 40.6042C45.7082 41.8123 44.7288 42.7917 43.5207 42.7917Z" fill="white"/>
</svg>
