<svg width="71" height="71" viewBox="0 0 71 71" fill="none" xmlns="http://www.w3.org/2000/svg">
<circle cx="35.4355" cy="35.4413" r="35" fill="#121212"/>
<path d="M25.7502 45.7085H43.2502V31.3548L34.5002 23.4002L25.7502 31.3548V45.7085ZM44.7085 48.6251H24.2918C23.4864 48.6251 22.8335 47.9722 22.8335 47.1668V34.0418H18.4585L33.5191 20.3503C34.0753 19.8446 34.925 19.8446 35.4812 20.3503L50.5418 34.0418H46.1668V47.1668C46.1668 47.9722 45.5139 48.6251 44.7085 48.6251ZM28.6668 32.5835C34.3047 32.5835 38.8752 37.1539 38.8752 42.7918H35.9585C35.9585 38.7647 32.6939 35.5001 28.6668 35.5001V32.5835ZM28.6668 38.4168C31.0831 38.4168 33.0418 40.3755 33.0418 42.7918H28.6668V38.4168Z" fill="white"/>
</svg>
