<svg width="71" height="71" viewBox="0 0 71 71" fill="none" xmlns="http://www.w3.org/2000/svg">
<circle cx="35.8093" cy="35.1002" r="35" fill="#121212"/>
<path d="M33.3123 42.7917H23.8332V39.875H33.3123C36.1313 39.875 38.4165 42.1602 38.4165 44.9792C38.4165 47.7981 36.1313 50.0834 33.3123 50.0834C31.1242 50.0834 29.2577 48.7065 28.5319 46.7719L31.2636 45.7474C31.5746 46.5766 32.3746 47.1667 33.3123 47.1667C34.5204 47.1667 35.4998 46.1873 35.4998 44.9792C35.4998 43.7711 34.5204 42.7917 33.3123 42.7917ZM25.2915 34.0417H44.979C47.798 34.0417 50.0832 36.3269 50.0832 39.1459C50.0832 41.9648 47.798 44.25 44.979 44.25C42.7909 44.25 40.9244 42.8732 40.1986 40.9386L42.9302 39.9141C43.2413 40.7433 44.0413 41.3334 44.979 41.3334C46.1871 41.3334 47.1665 40.3539 47.1665 39.1459C47.1665 37.9378 46.1871 36.9584 44.979 36.9584H25.2915C22.8753 36.9584 20.9165 34.9997 20.9165 32.5834C20.9165 30.1671 22.8753 28.2084 25.2915 28.2084H37.6873C38.8954 28.2084 39.8748 27.229 39.8748 26.0209C39.8748 24.8127 38.8954 23.8334 37.6873 23.8334C36.7496 23.8334 35.9496 24.4234 35.6385 25.2526L32.9069 24.2282C33.6327 22.2936 35.4993 20.9167 37.6873 20.9167C40.5063 20.9167 42.7915 23.2019 42.7915 26.0209C42.7915 28.8398 40.5063 31.125 37.6873 31.125H25.2915C24.4861 31.125 23.8332 31.7779 23.8332 32.5834C23.8332 33.3888 24.4861 34.0417 25.2915 34.0417Z" fill="white"/>
</svg>
