<svg width="146" height="53" viewBox="0 0 146 53" fill="none" xmlns="http://www.w3.org/2000/svg">
<path d="M33.3784 31.7648V8.73462H44.1604C45.3753 8.73462 46.4776 8.93131 47.4675 9.3247C48.4686 9.71809 49.2842 10.252 49.9141 10.9264C50.5553 11.6007 51.0447 12.3875 51.3821 13.2867C51.7307 14.1747 51.9051 15.1301 51.9051 16.1528C51.9051 17.1644 51.7307 18.1142 51.3821 19.0021C51.0447 19.8901 50.5553 20.6768 49.9141 21.3624C49.2729 22.0368 48.4574 22.5707 47.4675 22.9641C46.4776 23.3575 45.3753 23.5542 44.1604 23.5542H38.2885V31.7648H33.3784ZM38.2885 19.2381H43.4685C44.4584 19.2381 45.274 18.9571 45.9151 18.3951C46.5676 17.8331 46.8938 17.0857 46.8938 16.1528C46.8938 15.2087 46.5676 14.4556 45.9151 13.8936C45.274 13.3317 44.4584 13.0507 43.4685 13.0507H38.2885V19.2381ZM53.8118 23.4024C53.8118 21.7951 54.1774 20.3284 54.9086 19.0021C55.6398 17.6758 56.6689 16.6249 57.9964 15.8494C59.3237 15.0625 60.8085 14.6691 62.4509 14.6691C64.9481 14.6691 66.9616 15.5178 68.4914 17.215C70.0325 18.9009 70.803 21.1039 70.803 23.8239V24.8523H58.4013C58.5588 25.9314 59.0593 26.8249 59.903 27.533C60.7467 28.2411 61.849 28.5951 63.2101 28.5951C63.9526 28.5951 64.7456 28.449 65.5893 28.1568C66.4441 27.8534 67.1247 27.4543 67.631 26.9598L69.5882 29.8596C68.7782 30.6015 67.7602 31.1747 66.5342 31.5794C65.3193 31.9839 64.0482 32.1863 62.7208 32.1863C60.1448 32.1863 58.0132 31.3827 56.3258 29.7754C54.6498 28.1568 53.8118 26.0325 53.8118 23.4024ZM58.3675 21.8176H66.5848C66.551 21.3905 66.4498 20.9803 66.281 20.5869C66.1123 20.1935 65.8705 19.817 65.5555 19.4572C65.2517 19.0976 64.83 18.811 64.29 18.5975C63.7501 18.3727 63.137 18.2603 62.4509 18.2603C61.7984 18.2603 61.2134 18.367 60.6961 18.5807C60.1786 18.7942 59.7624 19.0808 59.4474 19.4404C59.1325 19.7889 58.885 20.1654 58.7051 20.5701C58.525 20.9634 58.4126 21.3792 58.3675 21.8176ZM73.9752 31.7648V15.0907H78.3622V17.333C79.0034 16.5687 79.8021 15.9336 80.7582 15.4278C81.7256 14.9221 82.7043 14.6691 83.6941 14.6691V18.9515C83.3905 18.8841 82.9854 18.8503 82.4793 18.8503C81.7369 18.8503 80.9551 19.0415 80.1339 19.4236C79.3127 19.7945 78.7222 20.2384 78.3622 20.7555V31.7648H73.9752ZM84.2509 31.7648L90.1903 23.2001L84.5884 15.0907H89.4985L92.9575 20.1991L96.3827 15.0907H101.293L95.7247 23.2001L101.664 31.7648H96.754L92.9575 26.1337L89.1273 31.7648H84.2509ZM102.778 23.4024C102.778 21.7951 103.143 20.3284 103.874 19.0021C104.606 17.6758 105.635 16.6249 106.962 15.8494C108.29 15.0625 109.774 14.6691 111.417 14.6691C113.914 14.6691 115.928 15.5178 117.457 17.215C118.998 18.9009 119.768 21.1039 119.768 23.8239V24.8523H107.367C107.525 25.9314 108.025 26.8249 108.869 27.533C109.713 28.2411 110.815 28.5951 112.176 28.5951C112.918 28.5951 113.711 28.449 114.555 28.1568C115.41 27.8534 116.091 27.4543 116.597 26.9598L118.554 29.8596C117.744 30.6015 116.726 31.1747 115.5 31.5794C114.285 31.9839 113.014 32.1863 111.687 32.1863C109.111 32.1863 106.979 31.3827 105.292 29.7754C103.616 28.1568 102.778 26.0325 102.778 23.4024ZM107.333 21.8176H115.551C115.517 21.3905 115.416 20.9803 115.247 20.5869C115.078 20.1935 114.836 19.817 114.521 19.4572C114.218 19.0976 113.796 18.811 113.256 18.5975C112.716 18.3727 112.103 18.2603 111.417 18.2603C110.764 18.2603 110.179 18.367 109.662 18.5807C109.145 18.7942 108.728 19.0808 108.413 19.4404C108.098 19.7889 107.851 20.1654 107.671 20.5701C107.491 20.9634 107.378 21.3792 107.333 21.8176ZM122.942 31.7648V8.73462H127.329V31.7648H122.942ZM130.23 29.5898L132.137 26.4203C132.789 27.0384 133.661 27.5779 134.752 28.0388C135.854 28.4996 136.907 28.7301 137.908 28.7301C138.83 28.7301 139.528 28.5727 140 28.2579C140.472 27.9321 140.709 27.4994 140.709 26.9598C140.709 26.6002 140.523 26.3023 140.152 26.0662C139.792 25.8302 139.319 25.6448 138.734 25.5098C138.161 25.375 137.519 25.2457 136.81 25.1221C136.113 24.9872 135.41 24.8074 134.702 24.5827C134.005 24.3578 133.363 24.0712 132.778 23.7228C132.204 23.3743 131.732 22.8798 131.361 22.2391C131.001 21.5872 130.821 20.8172 130.821 19.9294C130.821 18.457 131.428 17.215 132.643 16.2034C133.859 15.1805 135.528 14.6691 137.655 14.6691C140.219 14.6691 142.457 15.4278 144.371 16.9452L142.599 20.0642C142.07 19.5135 141.355 19.0527 140.456 18.6817C139.567 18.3109 138.633 18.1254 137.655 18.1254C136.867 18.1254 136.231 18.2771 135.748 18.5807C135.275 18.8841 135.04 19.2718 135.04 19.7439C135.04 20.0362 135.18 20.2834 135.461 20.4857C135.742 20.6768 136.113 20.8285 136.575 20.9409C137.047 21.0421 137.576 21.1601 138.161 21.295C138.757 21.4298 139.364 21.5648 139.983 21.6996C140.613 21.8232 141.22 22.0256 141.805 22.3065C142.402 22.5763 142.931 22.891 143.391 23.2507C143.864 23.6104 144.241 24.0992 144.522 24.7175C144.803 25.3357 144.944 26.0494 144.944 26.8587C144.944 28.4322 144.296 29.7135 143.004 30.7027C141.721 31.6917 139.949 32.1863 137.689 32.1863C136.237 32.1863 134.848 31.9558 133.521 31.495C132.204 31.0342 131.108 30.3991 130.23 29.5898Z" fill="#34296B"/>
<path fill-rule="evenodd" clip-rule="evenodd" d="M10.7647 22.5754V33.9075H9.31581V35.4678H1.44886V33.9075H0V21.4254V8.94336H14.5065H15.6979V10.4477H18.1466V12.5674H20.0805V19.3058H18.1466V21.0712H15.6979V22.5754H10.7647Z" fill="#FDE85C"/>
<path fill-rule="evenodd" clip-rule="evenodd" d="M21.1582 7.55738V4.3747H17.4403V3.5293H4.38257V6.6436H17.4403V7.56981H19.8172V10.8084H23.3255V7.55738H21.1582Z" fill="#FDE85C"/>
<path d="M10.7647 22.5754V33.9075H9.31581V35.4678H1.44886V33.9075H0V21.4254V8.94336H14.5065H15.6979V10.4477H18.1466V12.5674H20.0805V19.3058H18.1466V21.0712H15.6979V22.5754H10.7647Z" fill="#34296B"/>
<path d="M21.1582 7.55738V4.3747H17.4403V3.5293H4.38257V6.6436H17.4403V7.56981H19.8172V10.8084H23.3255V7.55738H21.1582Z" fill="#34296B"/>
<path d="M120.433 47H117.853V42.98H113.698V47H111.118V36.995H113.698V40.73H117.853V36.995H120.433V47ZM126.976 47.18C123.751 47.18 122.236 45.41 122.236 42.95V36.995H124.861V42.86C124.861 44.045 125.566 44.9 126.976 44.9C128.356 44.9 129.076 44.045 129.076 42.86V36.995H131.686V42.935C131.686 45.425 130.171 47.18 126.976 47.18ZM139.336 47H133.486V36.995H139.156C141.136 36.995 142.081 38.285 142.081 39.545C142.081 40.79 141.316 41.63 140.371 41.84C141.436 42.005 142.276 43.025 142.276 44.285C142.276 45.74 141.301 47 139.336 47ZM138.571 40.835C139.096 40.835 139.456 40.49 139.456 39.995C139.456 39.515 139.096 39.17 138.571 39.17H136.066V40.835H138.571ZM138.661 44.825C139.276 44.825 139.651 44.465 139.651 43.925C139.651 43.43 139.291 43.025 138.661 43.025H136.066V44.825H138.661Z" fill="#FDE85C"/>
</svg>
