<svg width="146" height="53" viewBox="0 0 146 53" fill="none" xmlns="http://www.w3.org/2000/svg">
<path d="M120.433 47H117.853V42.98H113.698V47H111.118V36.995H113.698V40.73H117.853V36.995H120.433V47ZM126.976 47.18C123.751 47.18 122.236 45.41 122.236 42.95V36.995H124.861V42.86C124.861 44.045 125.566 44.9 126.976 44.9C128.356 44.9 129.076 44.045 129.076 42.86V36.995H131.686V42.935C131.686 45.425 130.171 47.18 126.976 47.18ZM139.336 47H133.486V36.995H139.156C141.136 36.995 142.081 38.285 142.081 39.545C142.081 40.79 141.316 41.63 140.371 41.84C141.436 42.005 142.276 43.025 142.276 44.285C142.276 45.74 141.301 47 139.336 47ZM138.571 40.835C139.096 40.835 139.456 40.49 139.456 39.995C139.456 39.515 139.096 39.17 138.571 39.17H136.066V40.835H138.571ZM138.661 44.825C139.276 44.825 139.651 44.465 139.651 43.925C139.651 43.43 139.291 43.025 138.661 43.025H136.066V44.825H138.661Z" fill="#FDE85C"/>
<path d="M33.3789 31.7648V8.73462H44.1609C45.3758 8.73462 46.4781 8.93131 47.468 9.3247C48.4691 9.71809 49.2847 10.252 49.9146 10.9264C50.5558 11.6007 51.0451 12.3875 51.3826 13.2867C51.7312 14.1747 51.9056 15.1301 51.9056 16.1528C51.9056 17.1644 51.7312 18.1142 51.3826 19.0021C51.0451 19.8901 50.5558 20.6768 49.9146 21.3624C49.2734 22.0368 48.4579 22.5707 47.468 22.9641C46.4781 23.3575 45.3758 23.5542 44.1609 23.5542H38.289V31.7648H33.3789ZM38.289 19.2381H43.469C44.4589 19.2381 45.2745 18.9571 45.9156 18.3951C46.5681 17.8331 46.8943 17.0857 46.8943 16.1528C46.8943 15.2087 46.5681 14.4556 45.9156 13.8936C45.2745 13.3317 44.4589 13.0507 43.469 13.0507H38.289V19.2381ZM53.8123 23.4024C53.8123 21.7951 54.1779 20.3284 54.9091 19.0021C55.6403 17.6758 56.6694 16.6249 57.9969 15.8494C59.3242 15.0625 60.809 14.6691 62.4514 14.6691C64.9486 14.6691 66.9621 15.5178 68.4919 17.215C70.033 18.9009 70.8035 21.1039 70.8035 23.8239V24.8523H58.4018C58.5593 25.9314 59.0598 26.8249 59.9035 27.533C60.7472 28.2411 61.8495 28.5951 63.2106 28.5951C63.9531 28.5951 64.7461 28.449 65.5898 28.1568C66.4446 27.8534 67.1252 27.4543 67.6314 26.9598L69.5887 29.8596C68.7787 30.6015 67.7607 31.1747 66.5347 31.5794C65.3198 31.9839 64.0487 32.1863 62.7213 32.1863C60.1453 32.1863 58.0137 31.3827 56.3263 29.7754C54.6503 28.1568 53.8123 26.0325 53.8123 23.4024ZM58.368 21.8176H66.5853C66.5515 21.3905 66.4503 20.9803 66.2815 20.5869C66.1128 20.1935 65.871 19.817 65.556 19.4572C65.2522 19.0976 64.8305 18.811 64.2905 18.5975C63.7506 18.3727 63.1375 18.2603 62.4514 18.2603C61.7989 18.2603 61.2139 18.367 60.6966 18.5807C60.1791 18.7942 59.7629 19.0808 59.4479 19.4404C59.133 19.7889 58.8855 20.1654 58.7056 20.5701C58.5255 20.9634 58.4131 21.3792 58.368 21.8176ZM73.9757 31.7648V15.0907H78.3627V17.333C79.0039 16.5687 79.8026 15.9336 80.7587 15.4278C81.7261 14.9221 82.7048 14.6691 83.6946 14.6691V18.9515C83.391 18.8841 82.9859 18.8503 82.4798 18.8503C81.7374 18.8503 80.9556 19.0415 80.1343 19.4236C79.3132 19.7945 78.7227 20.2384 78.3627 20.7555V31.7648H73.9757ZM84.2514 31.7648L90.1908 23.2001L84.5889 15.0907H89.4989L92.958 20.1991L96.3832 15.0907H101.293L95.7251 23.2001L101.665 31.7648H96.7544L92.958 26.1337L89.1278 31.7648H84.2514ZM102.778 23.4024C102.778 21.7951 103.144 20.3284 103.875 19.0021C104.606 17.6758 105.635 16.6249 106.963 15.8494C108.29 15.0625 109.775 14.6691 111.417 14.6691C113.915 14.6691 115.928 15.5178 117.458 17.215C118.999 18.9009 119.769 21.1039 119.769 23.8239V24.8523H107.368C107.525 25.9314 108.026 26.8249 108.869 27.533C109.713 28.2411 110.815 28.5951 112.177 28.5951C112.919 28.5951 113.712 28.449 114.556 28.1568C115.411 27.8534 116.091 27.4543 116.597 26.9598L118.555 29.8596C117.745 30.6015 116.727 31.1747 115.5 31.5794C114.286 31.9839 113.015 32.1863 111.687 32.1863C109.111 32.1863 106.98 31.3827 105.292 29.7754C103.616 28.1568 102.778 26.0325 102.778 23.4024ZM107.334 21.8176H115.551C115.517 21.3905 115.416 20.9803 115.247 20.5869C115.079 20.1935 114.837 19.817 114.522 19.4572C114.218 19.0976 113.796 18.811 113.256 18.5975C112.716 18.3727 112.103 18.2603 111.417 18.2603C110.765 18.2603 110.18 18.367 109.662 18.5807C109.145 18.7942 108.729 19.0808 108.414 19.4404C108.099 19.7889 107.851 20.1654 107.671 20.5701C107.491 20.9634 107.379 21.3792 107.334 21.8176ZM122.942 31.7648V8.73462H127.329V31.7648H122.942ZM130.23 29.5898L132.138 26.4203C132.79 27.0384 133.661 27.5779 134.753 28.0388C135.855 28.4996 136.907 28.7301 137.908 28.7301C138.83 28.7301 139.528 28.5727 140 28.2579C140.473 27.9321 140.709 27.4994 140.709 26.9598C140.709 26.6002 140.523 26.3023 140.152 26.0662C139.792 25.8302 139.32 25.6448 138.735 25.5098C138.161 25.375 137.52 25.2457 136.811 25.1221C136.114 24.9872 135.411 24.8074 134.702 24.5827C134.005 24.3578 133.363 24.0712 132.778 23.7228C132.205 23.3743 131.733 22.8798 131.362 22.2391C131.001 21.5872 130.821 20.8172 130.821 19.9294C130.821 18.457 131.429 17.215 132.644 16.2034C133.859 15.1805 135.529 14.6691 137.655 14.6691C140.219 14.6691 142.458 15.4278 144.371 16.9452L142.599 20.0642C142.07 19.5135 141.356 19.0527 140.456 18.6817C139.567 18.3109 138.633 18.1254 137.655 18.1254C136.867 18.1254 136.232 18.2771 135.749 18.5807C135.275 18.8841 135.04 19.2718 135.04 19.7439C135.04 20.0362 135.18 20.2834 135.462 20.4857C135.743 20.6768 136.114 20.8285 136.575 20.9409C137.047 21.0421 137.576 21.1601 138.161 21.295C138.757 21.4298 139.365 21.5648 139.984 21.6996C140.614 21.8232 141.22 22.0256 141.805 22.3065C142.402 22.5763 142.931 22.891 143.391 23.2507C143.865 23.6104 144.242 24.0992 144.523 24.7175C144.803 25.3357 144.944 26.0494 144.944 26.8587C144.944 28.4322 144.297 29.7135 143.004 30.7027C141.722 31.6917 139.95 32.1863 137.689 32.1863C136.237 32.1863 134.848 31.9558 133.521 31.495C132.205 31.0342 131.109 30.3991 130.23 29.5898Z" fill="white"/>
<path fill-rule="evenodd" clip-rule="evenodd" d="M10.7647 22.5754V33.9075H9.31581V35.4678H1.44886V33.9075H0V21.4254V8.94336H14.5065H15.6979V10.4477H18.1466V12.5674H20.0805V19.3058H18.1466V21.0712H15.6979V22.5754H10.7647Z" fill="#FDE85C"/>
<path fill-rule="evenodd" clip-rule="evenodd" d="M21.1585 7.55738V4.3747H17.4405V3.5293H4.38281V6.6436H17.4405V7.56981H19.8174V10.8084H23.3258V7.55738H21.1585Z" fill="#FDE85C"/>
<path d="M10.7647 22.5754V33.9075H9.31581V35.4678H1.44886V33.9075H0V21.4254V8.94336H14.5065H15.6979V10.4477H18.1466V12.5674H20.0805V19.3058H18.1466V21.0712H15.6979V22.5754H10.7647Z" fill="white"/>
<path d="M21.1585 7.55738V4.3747H17.4405V3.5293H4.38281V6.6436H17.4405V7.56981H19.8174V10.8084H23.3258V7.55738H21.1585Z" fill="white"/>
</svg>
