<svg width="1440" height="797" viewBox="0 0 1440 797" fill="none" xmlns="http://www.w3.org/2000/svg">
<g clip-path="url(#clip0_180_7638)">
<path d="M438.189 236L437.489 236.269L437.674 236.749H438.189V236ZM540.556 236V236.749H541.702L541.243 235.7L540.556 236ZM412.177 -57.6781L412.864 -57.9782L412.667 -58.4275H412.177V-57.6781ZM314.844 -57.6781V-58.4275H314.354L314.157 -57.9782L314.844 -57.6781ZM186.465 236L185.778 235.7L185.319 236.749H186.465V236ZM287.154 236V236.749H287.669L287.853 236.269L287.154 236ZM306.873 184.816V184.067H306.358L306.173 184.547L306.873 184.816ZM418.47 184.816L419.17 184.547L418.985 184.067H418.47V184.816ZM334.143 113.494L333.444 113.224L333.05 114.244H334.143V113.494ZM362.671 39.6552L363.37 39.3852L362.671 37.5759L361.972 39.3852L362.671 39.6552ZM391.2 113.494V114.244H392.293L391.899 113.224L391.2 113.494ZM438.189 236.749H540.556V235.251H438.189V236.749ZM541.243 235.7L412.864 -57.9782L411.491 -57.3779L539.87 236.3L541.243 235.7ZM412.177 -58.4275H314.844V-56.9287H412.177V-58.4275ZM314.157 -57.9782L185.778 235.7L187.151 236.3L315.53 -57.3779L314.157 -57.9782ZM186.465 236.749H287.154V235.251H186.465V236.749ZM287.853 236.269L307.572 185.085L306.173 184.547L286.455 235.731L287.853 236.269ZM306.873 185.565H418.47V184.067H306.873V185.565ZM417.771 185.085L437.489 236.269L438.888 235.731L419.17 184.547L417.771 185.085ZM334.842 113.764L363.37 39.9253L361.972 39.3852L333.444 113.224L334.842 113.764ZM361.972 39.9253L390.501 113.764L391.899 113.224L363.37 39.3852L361.972 39.9253ZM391.2 112.745H334.143V114.244H391.2V112.745ZM896.186 236V236.749H896.937L896.935 235.998L896.186 236ZM895.346 -57.6781L896.096 -57.6802L896.094 -58.4275H895.346V-57.6781ZM813.956 -57.6781V-58.4275H813.53L813.312 -58.0614L813.956 -57.6781ZM720.818 98.8104L720.178 99.2012L720.826 100.261L721.462 99.1936L720.818 98.8104ZM625.163 -57.6781L625.802 -58.0689L625.583 -58.4275H625.163V-57.6781ZM543.772 -57.6781V-58.4275H543.022V-57.6781H543.772ZM543.772 236H543.022V236.749H543.772V236ZM633.973 236V236.749H634.722V236H633.973ZM633.973 106.782L634.61 106.387L633.224 104.152V106.782H633.973ZM697.743 209.569L697.106 209.964L697.326 210.318H697.743V209.569ZM741.375 209.569V210.318H741.802L742.02 209.952L741.375 209.569ZM805.145 102.167L805.895 102.162L805.878 99.4653L804.501 101.784L805.145 102.167ZM805.984 236L805.235 236.005L805.24 236.749H805.984V236ZM896.935 235.998L896.096 -57.6802L894.597 -57.6759L895.436 236.002L896.935 235.998ZM895.346 -58.4275H813.956V-56.9287H895.346V-58.4275ZM813.312 -58.0614L720.174 98.4271L721.462 99.1936L814.6 -57.2948L813.312 -58.0614ZM721.457 98.4195L625.802 -58.0689L624.523 -57.2873L720.178 99.2012L721.457 98.4195ZM625.163 -58.4275H543.772V-56.9287H625.163V-58.4275ZM543.022 -57.6781V236H544.521V-57.6781H543.022ZM543.772 236.749H633.973V235.251H543.772V236.749ZM634.722 236V106.782H633.224V236H634.722ZM633.336 107.177L697.106 209.964L698.38 209.174L634.61 106.387L633.336 107.177ZM697.743 210.318H741.375V208.82H697.743V210.318ZM742.02 209.952L805.79 102.549L804.501 101.784L740.731 209.186L742.02 209.952ZM804.396 102.171L805.235 236.005L806.734 235.995L805.895 102.162L804.396 102.171ZM805.984 236.749H896.186V235.251H805.984V236.749ZM1151.31 236L1150.61 236.269L1150.79 236.749H1151.31V236ZM1253.68 236V236.749H1254.82L1254.36 235.7L1253.68 236ZM1125.3 -57.6781L1125.98 -57.9782L1125.79 -58.4275H1125.3V-57.6781ZM1027.96 -57.6781V-58.4275H1027.47L1027.28 -57.9782L1027.96 -57.6781ZM899.584 236L898.898 235.7L898.439 236.749H899.584V236ZM1000.27 236V236.749H1000.79L1000.97 236.269L1000.27 236ZM1019.99 184.816V184.067H1019.48L1019.29 184.547L1019.99 184.816ZM1131.59 184.816L1132.29 184.547L1132.1 184.067H1131.59V184.816ZM1047.26 113.494L1046.56 113.224L1046.17 114.244H1047.26V113.494ZM1075.79 39.6552L1076.49 39.3852L1075.79 37.5759L1075.09 39.3852L1075.79 39.6552ZM1104.32 113.494V114.244H1105.41L1105.02 113.224L1104.32 113.494ZM1151.31 236.749H1253.68V235.251H1151.31V236.749ZM1254.36 235.7L1125.98 -57.9782L1124.61 -57.3779L1252.99 236.3L1254.36 235.7ZM1125.3 -58.4275H1027.96V-56.9287H1125.3V-58.4275ZM1027.28 -57.9782L898.898 235.7L900.271 236.3L1028.65 -57.3779L1027.28 -57.9782ZM899.584 236.749H1000.27V235.251H899.584V236.749ZM1000.97 236.269L1020.69 185.085L1019.29 184.547L999.575 235.731L1000.97 236.269ZM1019.99 185.565H1131.59V184.067H1019.99V185.565ZM1130.89 185.085L1150.61 236.269L1152.01 235.731L1132.29 184.547L1130.89 185.085ZM1047.96 113.764L1076.49 39.9253L1075.09 39.3852L1046.56 113.224L1047.96 113.764ZM1075.09 39.9253L1103.62 113.764L1105.02 113.224L1076.49 39.3852L1075.09 39.9253ZM1104.32 112.745H1047.26V114.244H1104.32V112.745ZM438.189 531L437.489 531.269L437.674 531.749H438.189V531ZM540.556 531V531.749H541.702L541.243 530.7L540.556 531ZM412.177 237.322L412.864 237.022L412.667 236.573H412.177V237.322ZM314.844 237.322V236.573H314.354L314.157 237.022L314.844 237.322ZM186.465 531L185.778 530.7L185.319 531.749H186.465V531ZM287.154 531V531.749H287.669L287.853 531.269L287.154 531ZM306.873 479.816V479.067H306.358L306.173 479.547L306.873 479.816ZM418.47 479.816L419.17 479.547L418.985 479.067H418.47V479.816ZM334.143 408.494L333.444 408.224L333.05 409.244H334.143V408.494ZM362.671 334.655L363.37 334.385L362.671 332.576L361.972 334.385L362.671 334.655ZM391.2 408.494V409.244H392.293L391.899 408.224L391.2 408.494ZM438.189 531.749H540.556V530.251H438.189V531.749ZM541.243 530.7L412.864 237.022L411.491 237.622L539.87 531.3L541.243 530.7ZM412.177 236.573H314.844V238.071H412.177V236.573ZM314.157 237.022L185.778 530.7L187.151 531.3L315.53 237.622L314.157 237.022ZM186.465 531.749H287.154V530.251H186.465V531.749ZM287.853 531.269L307.572 480.085L306.173 479.547L286.455 530.731L287.853 531.269ZM306.873 480.565H418.47V479.067H306.873V480.565ZM417.771 480.085L437.489 531.269L438.888 530.731L419.17 479.547L417.771 480.085ZM334.842 408.764L363.37 334.925L361.972 334.385L333.444 408.224L334.842 408.764ZM361.972 334.925L390.501 408.764L391.899 408.224L363.37 334.385L361.972 334.925ZM391.2 407.745H334.143V409.244H391.2V407.745ZM896.186 531V531.749H896.937L896.935 530.998L896.186 531ZM895.346 237.322L896.096 237.32L896.094 236.573H895.346V237.322ZM813.956 237.322V236.573H813.53L813.312 236.939L813.956 237.322ZM720.818 393.81L720.178 394.201L720.826 395.261L721.462 394.194L720.818 393.81ZM625.163 237.322L625.802 236.931L625.583 236.573H625.163V237.322ZM543.772 237.322V236.573H543.022V237.322H543.772ZM543.772 531H543.022V531.749H543.772V531ZM633.973 531V531.749H634.722V531H633.973ZM633.973 401.782L634.61 401.387L633.224 399.152V401.782H633.973ZM697.743 504.569L697.106 504.964L697.326 505.318H697.743V504.569ZM741.375 504.569V505.318H741.802L742.02 504.952L741.375 504.569ZM805.145 397.167L805.895 397.162L805.878 394.465L804.501 396.784L805.145 397.167ZM805.984 531L805.235 531.005L805.24 531.749H805.984V531ZM896.935 530.998L896.096 237.32L894.597 237.324L895.436 531.002L896.935 530.998ZM895.346 236.573H813.956V238.071H895.346V236.573ZM813.312 236.939L720.174 393.427L721.462 394.194L814.6 237.705L813.312 236.939ZM721.457 393.42L625.802 236.931L624.523 237.713L720.178 394.201L721.457 393.42ZM625.163 236.573H543.772V238.071H625.163V236.573ZM543.022 237.322V531H544.521V237.322H543.022ZM543.772 531.749H633.973V530.251H543.772V531.749ZM634.722 531V401.782H633.224V531H634.722ZM633.336 402.177L697.106 504.964L698.38 504.174L634.61 401.387L633.336 402.177ZM697.743 505.318H741.375V503.82H697.743V505.318ZM742.02 504.952L805.79 397.549L804.501 396.784L740.731 504.186L742.02 504.952ZM804.396 397.171L805.235 531.005L806.734 530.995L805.895 397.162L804.396 397.171ZM805.984 531.749H896.186V530.251H805.984V531.749ZM1151.31 531L1150.61 531.269L1150.79 531.749H1151.31V531ZM1253.68 531V531.749H1254.82L1254.36 530.7L1253.68 531ZM1125.3 237.322L1125.98 237.022L1125.79 236.573H1125.3V237.322ZM1027.96 237.322V236.573H1027.47L1027.28 237.022L1027.96 237.322ZM899.584 531L898.898 530.7L898.439 531.749H899.584V531ZM1000.27 531V531.749H1000.79L1000.97 531.269L1000.27 531ZM1019.99 479.816V479.067H1019.48L1019.29 479.547L1019.99 479.816ZM1131.59 479.816L1132.29 479.547L1132.1 479.067H1131.59V479.816ZM1047.26 408.494L1046.56 408.224L1046.17 409.244H1047.26V408.494ZM1075.79 334.655L1076.49 334.385L1075.79 332.576L1075.09 334.385L1075.79 334.655ZM1104.32 408.494V409.244H1105.41L1105.02 408.224L1104.32 408.494ZM1151.31 531.749H1253.68V530.251H1151.31V531.749ZM1254.36 530.7L1125.98 237.022L1124.61 237.622L1252.99 531.3L1254.36 530.7ZM1125.3 236.573H1027.96V238.071H1125.3V236.573ZM1027.28 237.022L898.898 530.7L900.271 531.3L1028.65 237.622L1027.28 237.022ZM899.584 531.749H1000.27V530.251H899.584V531.749ZM1000.97 531.269L1020.69 480.085L1019.29 479.547L999.575 530.731L1000.97 531.269ZM1019.99 480.565H1131.59V479.067H1019.99V480.565ZM1130.89 480.085L1150.61 531.269L1152.01 530.731L1132.29 479.547L1130.89 480.085ZM1047.96 408.764L1076.49 334.925L1075.09 334.385L1046.56 408.224L1047.96 408.764ZM1075.09 334.925L1103.62 408.764L1105.02 408.224L1076.49 334.385L1075.09 334.925ZM1104.32 407.745H1047.26V409.244H1104.32V407.745ZM438.189 826L437.489 826.269L437.674 826.749H438.189V826ZM540.556 826V826.749H541.702L541.243 825.7L540.556 826ZM412.177 532.322L412.864 532.022L412.667 531.573H412.177V532.322ZM314.844 532.322V531.573H314.354L314.157 532.022L314.844 532.322ZM186.465 826L185.778 825.7L185.319 826.749H186.465V826ZM287.154 826V826.749H287.669L287.853 826.269L287.154 826ZM306.873 774.816V774.067H306.358L306.173 774.547L306.873 774.816ZM418.47 774.816L419.17 774.547L418.985 774.067H418.47V774.816ZM334.143 703.494L333.444 703.224L333.05 704.244H334.143V703.494ZM362.671 629.655L363.37 629.385L362.671 627.576L361.972 629.385L362.671 629.655ZM391.2 703.494V704.244H392.293L391.899 703.224L391.2 703.494ZM438.189 826.749H540.556V825.251H438.189V826.749ZM541.243 825.7L412.864 532.022L411.491 532.622L539.87 826.3L541.243 825.7ZM412.177 531.573H314.844V533.071H412.177V531.573ZM314.157 532.022L185.778 825.7L187.151 826.3L315.53 532.622L314.157 532.022ZM186.465 826.749H287.154V825.251H186.465V826.749ZM287.853 826.269L307.572 775.085L306.173 774.547L286.455 825.731L287.853 826.269ZM306.873 775.565H418.47V774.067H306.873V775.565ZM417.771 775.085L437.489 826.269L438.888 825.731L419.17 774.547L417.771 775.085ZM334.842 703.764L363.37 629.925L361.972 629.385L333.444 703.224L334.842 703.764ZM361.972 629.925L390.501 703.764L391.899 703.224L363.37 629.385L361.972 629.925ZM391.2 702.745H334.143V704.244H391.2V702.745ZM896.186 826V826.749H896.937L896.935 825.998L896.186 826ZM895.346 532.322L896.096 532.32L896.094 531.573H895.346V532.322ZM813.956 532.322V531.573H813.53L813.312 531.939L813.956 532.322ZM720.818 688.81L720.178 689.201L720.826 690.261L721.462 689.194L720.818 688.81ZM625.163 532.322L625.802 531.931L625.583 531.573H625.163V532.322ZM543.772 532.322V531.573H543.022V532.322H543.772ZM543.772 826H543.022V826.749H543.772V826ZM633.973 826V826.749H634.722V826H633.973ZM633.973 696.782L634.61 696.387L633.224 694.152V696.782H633.973ZM697.743 799.569L697.106 799.964L697.326 800.318H697.743V799.569ZM741.375 799.569V800.318H741.802L742.02 799.952L741.375 799.569ZM805.145 692.167L805.895 692.162L805.878 689.465L804.501 691.784L805.145 692.167ZM805.984 826L805.235 826.005L805.24 826.749H805.984V826ZM896.935 825.998L896.096 532.32L894.597 532.324L895.436 826.002L896.935 825.998ZM895.346 531.573H813.956V533.071H895.346V531.573ZM813.312 531.939L720.174 688.427L721.462 689.194L814.6 532.705L813.312 531.939ZM721.457 688.42L625.802 531.931L624.523 532.713L720.178 689.201L721.457 688.42ZM625.163 531.573H543.772V533.071H625.163V531.573ZM543.022 532.322V826H544.521V532.322H543.022ZM543.772 826.749H633.973V825.251H543.772V826.749ZM634.722 826V696.782H633.224V826H634.722ZM633.336 697.177L697.106 799.964L698.38 799.174L634.61 696.387L633.336 697.177ZM697.743 800.318H741.375V798.82H697.743V800.318ZM742.02 799.952L805.79 692.549L804.501 691.784L740.731 799.186L742.02 799.952ZM804.396 692.171L805.235 826.005L806.734 825.995L805.895 692.162L804.396 692.171ZM805.984 826.749H896.186V825.251H805.984V826.749ZM1151.31 826L1150.61 826.269L1150.79 826.749H1151.31V826ZM1253.68 826V826.749H1254.82L1254.36 825.7L1253.68 826ZM1125.3 532.322L1125.98 532.022L1125.79 531.573H1125.3V532.322ZM1027.96 532.322V531.573H1027.47L1027.28 532.022L1027.96 532.322ZM899.584 826L898.898 825.7L898.439 826.749H899.584V826ZM1000.27 826V826.749H1000.79L1000.97 826.269L1000.27 826ZM1019.99 774.816V774.067H1019.48L1019.29 774.547L1019.99 774.816ZM1131.59 774.816L1132.29 774.547L1132.1 774.067H1131.59V774.816ZM1047.26 703.494L1046.56 703.224L1046.17 704.244H1047.26V703.494ZM1075.79 629.655L1076.49 629.385L1075.79 627.576L1075.09 629.385L1075.79 629.655ZM1104.32 703.494V704.244H1105.41L1105.02 703.224L1104.32 703.494ZM1151.31 826.749H1253.68V825.251H1151.31V826.749ZM1254.36 825.7L1125.98 532.022L1124.61 532.622L1252.99 826.3L1254.36 825.7ZM1125.3 531.573H1027.96V533.071H1125.3V531.573ZM1027.28 532.022L898.898 825.7L900.271 826.3L1028.65 532.622L1027.28 532.022ZM899.584 826.749H1000.27V825.251H899.584V826.749ZM1000.97 826.269L1020.69 775.085L1019.29 774.547L999.575 825.731L1000.97 826.269ZM1019.99 775.565H1131.59V774.067H1019.99V775.565ZM1130.89 775.085L1150.61 826.269L1152.01 825.731L1132.29 774.547L1130.89 775.085ZM1047.96 703.764L1076.49 629.925L1075.09 629.385L1046.56 703.224L1047.96 703.764ZM1075.09 629.925L1103.62 703.764L1105.02 703.224L1076.49 629.385L1075.09 629.925ZM1104.32 702.745H1047.26V704.244H1104.32V702.745ZM438.189 1121L437.489 1121.27L437.674 1121.75H438.189V1121ZM540.556 1121V1121.75H541.702L541.243 1120.7L540.556 1121ZM412.177 827.322L412.864 827.022L412.667 826.573H412.177V827.322ZM314.844 827.322V826.573H314.354L314.157 827.022L314.844 827.322ZM186.465 1121L185.778 1120.7L185.319 1121.75H186.465V1121ZM287.154 1121V1121.75H287.669L287.853 1121.27L287.154 1121ZM306.873 1069.82V1069.07H306.358L306.173 1069.55L306.873 1069.82ZM418.47 1069.82L419.17 1069.55L418.985 1069.07H418.47V1069.82ZM334.143 998.494L333.444 998.224L333.05 999.244H334.143V998.494ZM362.671 924.655L363.37 924.385L362.671 922.576L361.972 924.385L362.671 924.655ZM391.2 998.494V999.244H392.293L391.899 998.224L391.2 998.494ZM438.189 1121.75H540.556V1120.25H438.189V1121.75ZM541.243 1120.7L412.864 827.022L411.491 827.622L539.87 1121.3L541.243 1120.7ZM412.177 826.573H314.844V828.071H412.177V826.573ZM314.157 827.022L185.778 1120.7L187.151 1121.3L315.53 827.622L314.157 827.022ZM186.465 1121.75H287.154V1120.25H186.465V1121.75ZM287.853 1121.27L307.572 1070.09L306.173 1069.55L286.455 1120.73L287.853 1121.27ZM306.873 1070.57H418.47V1069.07H306.873V1070.57ZM417.771 1070.09L437.489 1121.27L438.888 1120.73L419.17 1069.55L417.771 1070.09ZM334.842 998.764L363.37 924.925L361.972 924.385L333.444 998.224L334.842 998.764ZM361.972 924.925L390.501 998.764L391.899 998.224L363.37 924.385L361.972 924.925ZM391.2 997.745H334.143V999.244H391.2V997.745ZM896.186 1121V1121.75H896.937L896.935 1121L896.186 1121ZM895.346 827.322L896.096 827.32L896.094 826.573H895.346V827.322ZM813.956 827.322V826.573H813.53L813.312 826.939L813.956 827.322ZM720.818 983.81L720.178 984.201L720.826 985.261L721.462 984.194L720.818 983.81ZM625.163 827.322L625.802 826.931L625.583 826.573H625.163V827.322ZM543.772 827.322V826.573H543.022V827.322H543.772ZM543.772 1121H543.022V1121.75H543.772V1121ZM633.973 1121V1121.75H634.722V1121H633.973ZM633.973 991.782L634.61 991.387L633.224 989.152V991.782H633.973ZM697.743 1094.57L697.106 1094.96L697.326 1095.32H697.743V1094.57ZM741.375 1094.57V1095.32H741.802L742.02 1094.95L741.375 1094.57ZM805.145 987.167L805.895 987.162L805.878 984.465L804.501 986.784L805.145 987.167ZM805.984 1121L805.235 1121L805.24 1121.75H805.984V1121ZM896.935 1121L896.096 827.32L894.597 827.324L895.436 1121L896.935 1121ZM895.346 826.573H813.956V828.071H895.346V826.573ZM813.312 826.939L720.174 983.427L721.462 984.194L814.6 827.705L813.312 826.939ZM721.457 983.42L625.802 826.931L624.523 827.713L720.178 984.201L721.457 983.42ZM625.163 826.573H543.772V828.071H625.163V826.573ZM543.022 827.322V1121H544.521V827.322H543.022ZM543.772 1121.75H633.973V1120.25H543.772V1121.75ZM634.722 1121V991.782H633.224V1121H634.722ZM633.336 992.177L697.106 1094.96L698.38 1094.17L634.61 991.387L633.336 992.177ZM697.743 1095.32H741.375V1093.82H697.743V1095.32ZM742.02 1094.95L805.79 987.549L804.501 986.784L740.731 1094.19L742.02 1094.95ZM804.396 987.171L805.235 1121L806.734 1121L805.895 987.162L804.396 987.171ZM805.984 1121.75H896.186V1120.25H805.984V1121.75ZM1151.31 1121L1150.61 1121.27L1150.79 1121.75H1151.31V1121ZM1253.68 1121V1121.75H1254.82L1254.36 1120.7L1253.68 1121ZM1125.3 827.322L1125.98 827.022L1125.79 826.573H1125.3V827.322ZM1027.96 827.322V826.573H1027.47L1027.28 827.022L1027.96 827.322ZM899.584 1121L898.898 1120.7L898.439 1121.75H899.584V1121ZM1000.27 1121V1121.75H1000.79L1000.97 1121.27L1000.27 1121ZM1019.99 1069.82V1069.07H1019.48L1019.29 1069.55L1019.99 1069.82ZM1131.59 1069.82L1132.29 1069.55L1132.1 1069.07H1131.59V1069.82ZM1047.26 998.494L1046.56 998.224L1046.17 999.244H1047.26V998.494ZM1075.79 924.655L1076.49 924.385L1075.79 922.576L1075.09 924.385L1075.79 924.655ZM1104.32 998.494V999.244H1105.41L1105.02 998.224L1104.32 998.494ZM1151.31 1121.75H1253.68V1120.25H1151.31V1121.75ZM1254.36 1120.7L1125.98 827.022L1124.61 827.622L1252.99 1121.3L1254.36 1120.7ZM1125.3 826.573H1027.96V828.071H1125.3V826.573ZM1027.28 827.022L898.898 1120.7L900.271 1121.3L1028.65 827.622L1027.28 827.022ZM899.584 1121.75H1000.27V1120.25H899.584V1121.75ZM1000.97 1121.27L1020.69 1070.09L1019.29 1069.55L999.575 1120.73L1000.97 1121.27ZM1019.99 1070.57H1131.59V1069.07H1019.99V1070.57ZM1130.89 1070.09L1150.61 1121.27L1152.01 1120.73L1132.29 1069.55L1130.89 1070.09ZM1047.96 998.764L1076.49 924.925L1075.09 924.385L1046.56 998.224L1047.96 998.764ZM1075.09 924.925L1103.62 998.764L1105.02 998.224L1076.49 924.385L1075.09 924.925ZM1104.32 997.745H1047.26V999.244H1104.32V997.745Z" fill="#34296B" fill-opacity="0.12"/>
</g>
<defs>
<clipPath id="clip0_180_7638">
<rect width="1440" height="797" fill="white"/>
</clipPath>
</defs>
</svg>
