<svg width="1440" height="797" viewBox="0 0 1440 797" fill="none" xmlns="http://www.w3.org/2000/svg">
<path d="M186.465 236L185.778 235.7L185.319 236.749H186.465V236ZM314.844 -57.6781V-58.4275H314.354L314.157 -57.9782L314.844 -57.6781ZM412.177 -57.6781L412.864 -57.9782L412.667 -58.4275H412.177V-57.6781ZM540.556 236V236.749H541.702L541.243 235.7L540.556 236ZM438.189 236L437.489 236.269L437.674 236.749H438.189V236ZM343.373 -10.6896V-11.4389H342.282L342.673 -10.4207L343.373 -10.6896ZM381.97 -10.6896L382.67 -10.4207L383.061 -11.4389H381.97V-10.6896ZM287.154 236V236.749H287.669L287.854 236.269L287.154 236ZM262.821 184.816L262.114 184.567L261.762 185.565H262.821V184.816ZM287.993 113.494V112.745H287.463L287.287 113.245L287.993 113.494ZM423.085 113.494L423.792 113.245L423.615 112.745H423.085V113.494ZM448.258 184.816V185.565H449.317L448.964 184.567L448.258 184.816ZM187.151 236.3L315.53 -57.3779L314.157 -57.9782L185.778 235.7L187.151 236.3ZM314.844 -56.9287H412.177V-58.4275H314.844V-56.9287ZM411.491 -57.3779L539.87 236.3L541.243 235.7L412.864 -57.9782L411.491 -57.3779ZM540.556 235.251H438.189V236.749H540.556V235.251ZM438.888 235.731L344.072 -10.9584L342.673 -10.4207L437.489 236.269L438.888 235.731ZM343.373 -9.94021H381.97V-11.4389H343.373V-9.94021ZM381.271 -10.9584L286.455 235.731L287.854 236.269L382.67 -10.4207L381.271 -10.9584ZM287.154 235.251H186.465V236.749H287.154V235.251ZM263.528 185.066L288.7 113.744L287.287 113.245L262.114 184.567L263.528 185.066ZM287.993 114.244H423.085V112.745H287.993V114.244ZM422.379 113.744L447.551 185.066L448.964 184.567L423.792 113.245L422.379 113.744ZM448.258 184.067H262.821V185.565H448.258V184.067ZM543.772 236H543.022V236.749H543.772V236ZM543.772 -57.6781V-58.4275H543.022V-57.6781H543.772ZM625.163 -57.6781L625.802 -58.0696L625.582 -58.4275H625.163V-57.6781ZM742.634 134.052V134.801H743.972L743.273 133.66L742.634 134.052ZM699.841 134.052L699.197 133.668L698.523 134.801H699.841V134.052ZM813.956 -57.6781V-58.4275H813.53L813.312 -58.0614L813.956 -57.6781ZM895.346 -57.6781L896.096 -57.6802L896.094 -58.4275H895.346V-57.6781ZM896.185 236V236.749H896.937L896.935 235.998L896.185 236ZM805.984 236L805.235 236.004L805.239 236.749H805.984V236ZM805.145 78.2529V77.5035H804.392L804.396 78.2569L805.145 78.2529ZM819.41 78.2529L820.054 78.6357L820.727 77.5035H819.41V78.2529ZM741.375 209.569V210.318H741.802L742.019 209.952L741.375 209.569ZM697.743 209.569L697.106 209.964L697.326 210.318H697.743V209.569ZM616.352 78.2529V77.5035H615.006L615.715 78.6477L616.352 78.2529ZM633.973 78.2529H634.722V77.5035H633.973V78.2529ZM633.973 236V236.749H634.722V236H633.973ZM544.521 236V-57.6781H543.022V236H544.521ZM543.772 -56.9287H625.163V-58.4275H543.772V-56.9287ZM624.524 -57.2866L741.995 134.443L743.273 133.66L625.802 -58.0696L624.524 -57.2866ZM742.634 133.302H699.841V134.801H742.634V133.302ZM700.485 134.435L814.6 -57.2948L813.312 -58.0614L699.197 133.668L700.485 134.435ZM813.956 -56.9287H895.346V-58.4275H813.956V-56.9287ZM894.597 -57.6759L895.436 236.002L896.935 235.998L896.096 -57.6802L894.597 -57.6759ZM896.185 235.251H805.984V236.749H896.185V235.251ZM806.734 235.996L805.895 78.2489L804.396 78.2569L805.235 236.004L806.734 235.996ZM805.145 79.0023H819.41V77.5035H805.145V79.0023ZM818.766 77.8701L740.731 209.186L742.019 209.952L820.054 78.6357L818.766 77.8701ZM741.375 208.82H697.743V210.318H741.375V208.82ZM698.38 209.174L616.989 77.8581L615.715 78.6477L697.106 209.964L698.38 209.174ZM616.352 79.0023H633.973V77.5035H616.352V79.0023ZM633.224 78.2529V236H634.722V78.2529H633.224ZM633.973 235.251H543.772V236.749H633.973V235.251ZM899.584 236L898.898 235.7L898.439 236.749H899.584V236ZM1027.96 -57.6781V-58.4275H1027.47L1027.28 -57.9782L1027.96 -57.6781ZM1125.3 -57.6781L1125.98 -57.9782L1125.79 -58.4275H1125.3V-57.6781ZM1253.68 236V236.749H1254.82L1254.36 235.7L1253.68 236ZM1151.31 236L1150.61 236.269L1150.79 236.749H1151.31V236ZM1056.49 -10.6896V-11.4389H1055.4L1055.79 -10.4207L1056.49 -10.6896ZM1095.09 -10.6896L1095.79 -10.4207L1096.18 -11.4389H1095.09V-10.6896ZM1000.27 236V236.749H1000.79L1000.97 236.269L1000.27 236ZM975.941 184.816L975.234 184.567L974.882 185.565H975.941V184.816ZM1001.11 113.494V112.745H1000.58L1000.41 113.245L1001.11 113.494ZM1136.21 113.494L1136.91 113.245L1136.74 112.745H1136.21V113.494ZM1161.38 184.816V185.565H1162.44L1162.08 184.567L1161.38 184.816ZM900.271 236.3L1028.65 -57.3779L1027.28 -57.9782L898.898 235.7L900.271 236.3ZM1027.96 -56.9287H1125.3V-58.4275H1027.96V-56.9287ZM1124.61 -57.3779L1252.99 236.3L1254.36 235.7L1125.98 -57.9782L1124.61 -57.3779ZM1253.68 235.251H1151.31V236.749H1253.68V235.251ZM1152.01 235.731L1057.19 -10.9584L1055.79 -10.4207L1150.61 236.269L1152.01 235.731ZM1056.49 -9.94021H1095.09V-11.4389H1056.49V-9.94021ZM1094.39 -10.9584L999.575 235.731L1000.97 236.269L1095.79 -10.4207L1094.39 -10.9584ZM1000.27 235.251H899.584V236.749H1000.27V235.251ZM976.647 185.066L1001.82 113.744L1000.41 113.245L975.234 184.567L976.647 185.066ZM1001.11 114.244H1136.21V112.745H1001.11V114.244ZM1135.5 113.744L1160.67 185.066L1162.08 184.567L1136.91 113.245L1135.5 113.744ZM1161.38 184.067H975.941V185.565H1161.38V184.067ZM186.465 531L185.778 530.7L185.319 531.749H186.465V531ZM314.844 237.322V236.573H314.354L314.157 237.022L314.844 237.322ZM412.177 237.322L412.864 237.022L412.667 236.573H412.177V237.322ZM540.556 531V531.749H541.702L541.243 530.7L540.556 531ZM438.189 531L437.489 531.269L437.674 531.749H438.189V531ZM343.373 284.31V283.561H342.282L342.673 284.579L343.373 284.31ZM381.97 284.31L382.67 284.579L383.061 283.561H381.97V284.31ZM287.154 531V531.749H287.669L287.854 531.269L287.154 531ZM262.821 479.816L262.114 479.567L261.762 480.565H262.821V479.816ZM287.993 408.494V407.745H287.463L287.287 408.245L287.993 408.494ZM423.085 408.494L423.792 408.245L423.615 407.745H423.085V408.494ZM448.258 479.816V480.565H449.317L448.964 479.567L448.258 479.816ZM187.151 531.3L315.53 237.622L314.157 237.022L185.778 530.7L187.151 531.3ZM314.844 238.071H412.177V236.573H314.844V238.071ZM411.491 237.622L539.87 531.3L541.243 530.7L412.864 237.022L411.491 237.622ZM540.556 530.251H438.189V531.749H540.556V530.251ZM438.888 530.731L344.072 284.042L342.673 284.579L437.489 531.269L438.888 530.731ZM343.373 285.06H381.97V283.561H343.373V285.06ZM381.271 284.042L286.455 530.731L287.854 531.269L382.67 284.579L381.271 284.042ZM287.154 530.251H186.465V531.749H287.154V530.251ZM263.528 480.065L288.7 408.744L287.287 408.245L262.114 479.567L263.528 480.065ZM287.993 409.244H423.085V407.745H287.993V409.244ZM422.379 408.744L447.551 480.065L448.964 479.567L423.792 408.245L422.379 408.744ZM448.258 479.067H262.821V480.565H448.258V479.067ZM543.772 531H543.022V531.749H543.772V531ZM543.772 237.322V236.573H543.022V237.322H543.772ZM625.163 237.322L625.802 236.93L625.582 236.573H625.163V237.322ZM742.634 429.052V429.801H743.972L743.273 428.66L742.634 429.052ZM699.841 429.052L699.197 428.668L698.523 429.801H699.841V429.052ZM813.956 237.322V236.573H813.53L813.312 236.939L813.956 237.322ZM895.346 237.322L896.096 237.32L896.094 236.573H895.346V237.322ZM896.185 531V531.749H896.937L896.935 530.998L896.185 531ZM805.984 531L805.235 531.004L805.239 531.749H805.984V531ZM805.145 373.253V372.504H804.392L804.396 373.257L805.145 373.253ZM819.41 373.253L820.054 373.636L820.727 372.504H819.41V373.253ZM741.375 504.569V505.318H741.802L742.019 504.952L741.375 504.569ZM697.743 504.569L697.106 504.964L697.326 505.318H697.743V504.569ZM616.352 373.253V372.504H615.006L615.715 373.648L616.352 373.253ZM633.973 373.253H634.722V372.504H633.973V373.253ZM633.973 531V531.749H634.722V531H633.973ZM544.521 531V237.322H543.022V531H544.521ZM543.772 238.071H625.163V236.573H543.772V238.071ZM624.524 237.713L741.995 429.443L743.273 428.66L625.802 236.93L624.524 237.713ZM742.634 428.302H699.841V429.801H742.634V428.302ZM700.485 429.435L814.6 237.705L813.312 236.939L699.197 428.668L700.485 429.435ZM813.956 238.071H895.346V236.573H813.956V238.071ZM894.597 237.324L895.436 531.002L896.935 530.998L896.096 237.32L894.597 237.324ZM896.185 530.251H805.984V531.749H896.185V530.251ZM806.734 530.996L805.895 373.249L804.396 373.257L805.235 531.004L806.734 530.996ZM805.145 374.002H819.41V372.504H805.145V374.002ZM818.766 372.87L740.731 504.186L742.019 504.952L820.054 373.636L818.766 372.87ZM741.375 503.82H697.743V505.318H741.375V503.82ZM698.38 504.174L616.989 372.858L615.715 373.648L697.106 504.964L698.38 504.174ZM616.352 374.002H633.973V372.504H616.352V374.002ZM633.224 373.253V531H634.722V373.253H633.224ZM633.973 530.251H543.772V531.749H633.973V530.251ZM899.584 531L898.898 530.7L898.439 531.749H899.584V531ZM1027.96 237.322V236.573H1027.47L1027.28 237.022L1027.96 237.322ZM1125.3 237.322L1125.98 237.022L1125.79 236.573H1125.3V237.322ZM1253.68 531V531.749H1254.82L1254.36 530.7L1253.68 531ZM1151.31 531L1150.61 531.269L1150.79 531.749H1151.31V531ZM1056.49 284.31V283.561H1055.4L1055.79 284.579L1056.49 284.31ZM1095.09 284.31L1095.79 284.579L1096.18 283.561H1095.09V284.31ZM1000.27 531V531.749H1000.79L1000.97 531.269L1000.27 531ZM975.941 479.816L975.234 479.567L974.882 480.565H975.941V479.816ZM1001.11 408.494V407.745H1000.58L1000.41 408.245L1001.11 408.494ZM1136.21 408.494L1136.91 408.245L1136.74 407.745H1136.21V408.494ZM1161.38 479.816V480.565H1162.44L1162.08 479.567L1161.38 479.816ZM900.271 531.3L1028.65 237.622L1027.28 237.022L898.898 530.7L900.271 531.3ZM1027.96 238.071H1125.3V236.573H1027.96V238.071ZM1124.61 237.622L1252.99 531.3L1254.36 530.7L1125.98 237.022L1124.61 237.622ZM1253.68 530.251H1151.31V531.749H1253.68V530.251ZM1152.01 530.731L1057.19 284.042L1055.79 284.579L1150.61 531.269L1152.01 530.731ZM1056.49 285.06H1095.09V283.561H1056.49V285.06ZM1094.39 284.042L999.575 530.731L1000.97 531.269L1095.79 284.579L1094.39 284.042ZM1000.27 530.251H899.584V531.749H1000.27V530.251ZM976.647 480.065L1001.82 408.744L1000.41 408.245L975.234 479.567L976.647 480.065ZM1001.11 409.244H1136.21V407.745H1001.11V409.244ZM1135.5 408.744L1160.67 480.065L1162.08 479.567L1136.91 408.245L1135.5 408.744ZM1161.38 479.067H975.941V480.565H1161.38V479.067ZM186.465 826L185.778 825.7L185.319 826.749H186.465V826ZM314.844 532.322V531.573H314.354L314.157 532.022L314.844 532.322ZM412.177 532.322L412.864 532.022L412.667 531.573H412.177V532.322ZM540.556 826V826.749H541.702L541.243 825.7L540.556 826ZM438.189 826L437.489 826.269L437.674 826.749H438.189V826ZM343.373 579.31V578.561H342.282L342.673 579.579L343.373 579.31ZM381.97 579.31L382.67 579.579L383.061 578.561H381.97V579.31ZM287.154 826V826.749H287.669L287.854 826.269L287.154 826ZM262.821 774.816L262.114 774.567L261.762 775.565H262.821V774.816ZM287.993 703.494V702.745H287.463L287.287 703.245L287.993 703.494ZM423.085 703.494L423.792 703.245L423.615 702.745H423.085V703.494ZM448.258 774.816V775.565H449.317L448.964 774.567L448.258 774.816ZM187.151 826.3L315.53 532.622L314.157 532.022L185.778 825.7L187.151 826.3ZM314.844 533.071H412.177V531.573H314.844V533.071ZM411.491 532.622L539.87 826.3L541.243 825.7L412.864 532.022L411.491 532.622ZM540.556 825.251H438.189V826.749H540.556V825.251ZM438.888 825.731L344.072 579.042L342.673 579.579L437.489 826.269L438.888 825.731ZM343.373 580.06H381.97V578.561H343.373V580.06ZM381.271 579.042L286.455 825.731L287.854 826.269L382.67 579.579L381.271 579.042ZM287.154 825.251H186.465V826.749H287.154V825.251ZM263.528 775.065L288.7 703.744L287.287 703.245L262.114 774.567L263.528 775.065ZM287.993 704.244H423.085V702.745H287.993V704.244ZM422.379 703.744L447.551 775.065L448.964 774.567L423.792 703.245L422.379 703.744ZM448.258 774.067H262.821V775.565H448.258V774.067ZM543.772 826H543.022V826.749H543.772V826ZM543.772 532.322V531.573H543.022V532.322H543.772ZM625.163 532.322L625.802 531.93L625.582 531.573H625.163V532.322ZM742.634 724.052V724.801H743.972L743.273 723.66L742.634 724.052ZM699.841 724.052L699.197 723.668L698.523 724.801H699.841V724.052ZM813.956 532.322V531.573H813.53L813.312 531.939L813.956 532.322ZM895.346 532.322L896.096 532.32L896.094 531.573H895.346V532.322ZM896.185 826V826.749H896.937L896.935 825.998L896.185 826ZM805.984 826L805.235 826.004L805.239 826.749H805.984V826ZM805.145 668.253V667.504H804.392L804.396 668.257L805.145 668.253ZM819.41 668.253L820.054 668.636L820.727 667.504H819.41V668.253ZM741.375 799.569V800.318H741.802L742.019 799.952L741.375 799.569ZM697.743 799.569L697.106 799.964L697.326 800.318H697.743V799.569ZM616.352 668.253V667.504H615.006L615.715 668.648L616.352 668.253ZM633.973 668.253H634.722V667.504H633.973V668.253ZM633.973 826V826.749H634.722V826H633.973ZM544.521 826V532.322H543.022V826H544.521ZM543.772 533.071H625.163V531.573H543.772V533.071ZM624.524 532.713L741.995 724.443L743.273 723.66L625.802 531.93L624.524 532.713ZM742.634 723.302H699.841V724.801H742.634V723.302ZM700.485 724.435L814.6 532.705L813.312 531.939L699.197 723.668L700.485 724.435ZM813.956 533.071H895.346V531.573H813.956V533.071ZM894.597 532.324L895.436 826.002L896.935 825.998L896.096 532.32L894.597 532.324ZM896.185 825.251H805.984V826.749H896.185V825.251ZM806.734 825.996L805.895 668.249L804.396 668.257L805.235 826.004L806.734 825.996ZM805.145 669.002H819.41V667.504H805.145V669.002ZM818.766 667.87L740.731 799.186L742.019 799.952L820.054 668.636L818.766 667.87ZM741.375 798.82H697.743V800.318H741.375V798.82ZM698.38 799.174L616.989 667.858L615.715 668.648L697.106 799.964L698.38 799.174ZM616.352 669.002H633.973V667.504H616.352V669.002ZM633.224 668.253V826H634.722V668.253H633.224ZM633.973 825.251H543.772V826.749H633.973V825.251ZM899.584 826L898.898 825.7L898.439 826.749H899.584V826ZM1027.96 532.322V531.573H1027.47L1027.28 532.022L1027.96 532.322ZM1125.3 532.322L1125.98 532.022L1125.79 531.573H1125.3V532.322ZM1253.68 826V826.749H1254.82L1254.36 825.7L1253.68 826ZM1151.31 826L1150.61 826.269L1150.79 826.749H1151.31V826ZM1056.49 579.31V578.561H1055.4L1055.79 579.579L1056.49 579.31ZM1095.09 579.31L1095.79 579.579L1096.18 578.561H1095.09V579.31ZM1000.27 826V826.749H1000.79L1000.97 826.269L1000.27 826ZM975.941 774.816L975.234 774.567L974.882 775.565H975.941V774.816ZM1001.11 703.494V702.745H1000.58L1000.41 703.245L1001.11 703.494ZM1136.21 703.494L1136.91 703.245L1136.74 702.745H1136.21V703.494ZM1161.38 774.816V775.565H1162.44L1162.08 774.567L1161.38 774.816ZM900.271 826.3L1028.65 532.622L1027.28 532.022L898.898 825.7L900.271 826.3ZM1027.96 533.071H1125.3V531.573H1027.96V533.071ZM1124.61 532.622L1252.99 826.3L1254.36 825.7L1125.98 532.022L1124.61 532.622ZM1253.68 825.251H1151.31V826.749H1253.68V825.251ZM1152.01 825.731L1057.19 579.042L1055.79 579.579L1150.61 826.269L1152.01 825.731ZM1056.49 580.06H1095.09V578.561H1056.49V580.06ZM1094.39 579.042L999.575 825.731L1000.97 826.269L1095.79 579.579L1094.39 579.042ZM1000.27 825.251H899.584V826.749H1000.27V825.251ZM976.647 775.065L1001.82 703.744L1000.41 703.245L975.234 774.567L976.647 775.065ZM1001.11 704.244H1136.21V702.745H1001.11V704.244ZM1135.5 703.744L1160.67 775.065L1162.08 774.567L1136.91 703.245L1135.5 703.744ZM1161.38 774.067H975.941V775.565H1161.38V774.067ZM186.465 1121L185.778 1120.7L185.319 1121.75H186.465V1121ZM314.844 827.322V826.573H314.354L314.157 827.022L314.844 827.322ZM412.177 827.322L412.864 827.022L412.667 826.573H412.177V827.322ZM540.556 1121V1121.75H541.702L541.243 1120.7L540.556 1121ZM438.189 1121L437.489 1121.27L437.674 1121.75H438.189V1121ZM343.373 874.31V873.561H342.282L342.673 874.579L343.373 874.31ZM381.97 874.31L382.67 874.579L383.061 873.561H381.97V874.31ZM287.154 1121V1121.75H287.669L287.854 1121.27L287.154 1121ZM262.821 1069.82L262.114 1069.57L261.762 1070.57H262.821V1069.82ZM287.993 998.494V997.745H287.463L287.287 998.245L287.993 998.494ZM423.085 998.494L423.792 998.245L423.615 997.745H423.085V998.494ZM448.258 1069.82V1070.57H449.317L448.964 1069.57L448.258 1069.82ZM187.151 1121.3L315.53 827.622L314.157 827.022L185.778 1120.7L187.151 1121.3ZM314.844 828.071H412.177V826.573H314.844V828.071ZM411.491 827.622L539.87 1121.3L541.243 1120.7L412.864 827.022L411.491 827.622ZM540.556 1120.25H438.189V1121.75H540.556V1120.25ZM438.888 1120.73L344.072 874.042L342.673 874.579L437.489 1121.27L438.888 1120.73ZM343.373 875.06H381.97V873.561H343.373V875.06ZM381.271 874.042L286.455 1120.73L287.854 1121.27L382.67 874.579L381.271 874.042ZM287.154 1120.25H186.465V1121.75H287.154V1120.25ZM263.528 1070.07L288.7 998.744L287.287 998.245L262.114 1069.57L263.528 1070.07ZM287.993 999.244H423.085V997.745H287.993V999.244ZM422.379 998.744L447.551 1070.07L448.964 1069.57L423.792 998.245L422.379 998.744ZM448.258 1069.07H262.821V1070.57H448.258V1069.07ZM543.772 1121H543.022V1121.75H543.772V1121ZM543.772 827.322V826.573H543.022V827.322H543.772ZM625.163 827.322L625.802 826.93L625.582 826.573H625.163V827.322ZM742.634 1019.05V1019.8H743.972L743.273 1018.66L742.634 1019.05ZM699.841 1019.05L699.197 1018.67L698.523 1019.8H699.841V1019.05ZM813.956 827.322V826.573H813.53L813.312 826.939L813.956 827.322ZM895.346 827.322L896.096 827.32L896.094 826.573H895.346V827.322ZM896.185 1121V1121.75H896.937L896.935 1121L896.185 1121ZM805.984 1121L805.235 1121L805.239 1121.75H805.984V1121ZM805.145 963.253V962.504H804.392L804.396 963.257L805.145 963.253ZM819.41 963.253L820.054 963.636L820.727 962.504H819.41V963.253ZM741.375 1094.57V1095.32H741.802L742.019 1094.95L741.375 1094.57ZM697.743 1094.57L697.106 1094.96L697.326 1095.32H697.743V1094.57ZM616.352 963.253V962.504H615.006L615.715 963.648L616.352 963.253ZM633.973 963.253H634.722V962.504H633.973V963.253ZM633.973 1121V1121.75H634.722V1121H633.973ZM544.521 1121V827.322H543.022V1121H544.521ZM543.772 828.071H625.163V826.573H543.772V828.071ZM624.524 827.713L741.995 1019.44L743.273 1018.66L625.802 826.93L624.524 827.713ZM742.634 1018.3H699.841V1019.8H742.634V1018.3ZM700.485 1019.44L814.6 827.705L813.312 826.939L699.197 1018.67L700.485 1019.44ZM813.956 828.071H895.346V826.573H813.956V828.071ZM894.597 827.324L895.436 1121L896.935 1121L896.096 827.32L894.597 827.324ZM896.185 1120.25H805.984V1121.75H896.185V1120.25ZM806.734 1121L805.895 963.249L804.396 963.257L805.235 1121L806.734 1121ZM805.145 964.002H819.41V962.504H805.145V964.002ZM818.766 962.87L740.731 1094.19L742.019 1094.95L820.054 963.636L818.766 962.87ZM741.375 1093.82H697.743V1095.32H741.375V1093.82ZM698.38 1094.17L616.989 962.858L615.715 963.648L697.106 1094.96L698.38 1094.17ZM616.352 964.002H633.973V962.504H616.352V964.002ZM633.224 963.253V1121H634.722V963.253H633.224ZM633.973 1120.25H543.772V1121.75H633.973V1120.25ZM899.584 1121L898.898 1120.7L898.439 1121.75H899.584V1121ZM1027.96 827.322V826.573H1027.47L1027.28 827.022L1027.96 827.322ZM1125.3 827.322L1125.98 827.022L1125.79 826.573H1125.3V827.322ZM1253.68 1121V1121.75H1254.82L1254.36 1120.7L1253.68 1121ZM1151.31 1121L1150.61 1121.27L1150.79 1121.75H1151.31V1121ZM1056.49 874.31V873.561H1055.4L1055.79 874.579L1056.49 874.31ZM1095.09 874.31L1095.79 874.579L1096.18 873.561H1095.09V874.31ZM1000.27 1121V1121.75H1000.79L1000.97 1121.27L1000.27 1121ZM975.941 1069.82L975.234 1069.57L974.882 1070.57H975.941V1069.82ZM1001.11 998.494V997.745H1000.58L1000.41 998.245L1001.11 998.494ZM1136.21 998.494L1136.91 998.245L1136.74 997.745H1136.21V998.494ZM1161.38 1069.82V1070.57H1162.44L1162.08 1069.57L1161.38 1069.82ZM900.271 1121.3L1028.65 827.622L1027.28 827.022L898.898 1120.7L900.271 1121.3ZM1027.96 828.071H1125.3V826.573H1027.96V828.071ZM1124.61 827.622L1252.99 1121.3L1254.36 1120.7L1125.98 827.022L1124.61 827.622ZM1253.68 1120.25H1151.31V1121.75H1253.68V1120.25ZM1152.01 1120.73L1057.19 874.042L1055.79 874.579L1150.61 1121.27L1152.01 1120.73ZM1056.49 875.06H1095.09V873.561H1056.49V875.06ZM1094.39 874.042L999.575 1120.73L1000.97 1121.27L1095.79 874.579L1094.39 874.042ZM1000.27 1120.25H899.584V1121.75H1000.27V1120.25ZM976.647 1070.07L1001.82 998.744L1000.41 998.245L975.234 1069.57L976.647 1070.07ZM1001.11 999.244H1136.21V997.745H1001.11V999.244ZM1135.5 998.744L1160.67 1070.07L1162.08 1069.57L1136.91 998.245L1135.5 998.744ZM1161.38 1069.07H975.941V1070.57H1161.38V1069.07Z" fill="#34296B" fill-opacity="0.03"/>
</svg>
