<svg width="80" height="46" viewBox="0 0 80 46" fill="none" xmlns="http://www.w3.org/2000/svg">
<g id="Group">
<path id="Vector" d="M78.7247 44.7203C53.7482 46.9127 28.643 43.187 5.44385 33.8648C7.58046 24.397 9.71465 14.9255 11.8452 5.45038C33.5536 13.073 56.7043 15.4694 79.4215 12.4563C79.1933 23.2121 78.9614 33.9668 78.7247 44.7203Z" fill="#74894C"/>
<path id="Vector_2" d="M75.4269 38.4927C50.5014 41.2096 25.3246 38.012 1.93481 29.1791C3.87233 19.6687 5.8062 10.1548 7.73765 0.637146C29.6015 7.80207 52.7982 9.71167 75.445 6.22147C75.4438 16.9798 75.4378 27.7369 75.4269 38.4927Z" fill="#85995B"/>
<g id="Group_2">
<path id="Vector_3" d="M74.0274 32.1487C49.4394 37.0519 24.0769 36.0868 0 29.3492C1.09137 19.7041 2.18034 10.0566 3.26443 0.406692C25.6745 5.61589 48.949 5.47385 71.2013 0C72.1482 10.7182 73.0902 21.4341 74.0274 32.1487Z" fill="#86A05D"/>
<path id="Vector_4" d="M3.61353 27.5092C4.43661 19.6159 5.25846 11.7214 6.07668 3.82442C26.6391 8.23481 47.8765 8.1996 68.36 3.72729C69.0423 12.4121 69.7209 21.0969 70.3959 29.7806C48.2055 33.7952 25.4349 33.017 3.61353 27.5092Z" fill="#9EBF5E"/>
<path id="Vector_5" d="M12.3336 5.20599C12.0933 8.11105 9.1785 9.9903 5.85461 9.24855C5.749 9.22549 5.6337 9.2 5.5293 9.15751C5.71382 7.38024 5.89834 5.60417 6.08286 3.8269C8.1612 4.27244 10.2468 4.67306 12.3385 5.02875C12.3434 5.08581 12.3385 5.15015 12.3336 5.20599Z" fill="#86A05D"/>
<path id="Vector_6" d="M68.3589 3.72729C68.5118 5.68181 68.666 7.6351 68.819 9.58961C68.7146 9.6321 68.5992 9.65639 68.4936 9.67825C65.1637 10.3641 62.2999 8.26151 62.1263 5.13915C62.1227 5.07966 62.119 5.00926 62.1251 4.94856C64.2095 4.58679 66.2878 4.18011 68.3589 3.72729Z" fill="#86A05D"/>
<path id="Vector_7" d="M69.9397 23.9193C70.0915 25.8725 70.2444 27.8271 70.3962 29.7804C68.1527 30.1858 65.9032 30.5427 63.6501 30.8511C63.6355 30.7928 63.6306 30.7236 63.6282 30.6629C63.4558 27.5357 66.14 24.6149 69.5974 23.963C69.7054 23.9435 69.828 23.9205 69.9397 23.9193Z" fill="#86A05D"/>
<path id="Vector_8" d="M10.2856 28.8642C10.2807 28.92 10.2746 28.9844 10.2589 29.0378C8.03485 28.5777 5.81933 28.069 3.61353 27.5118C3.79805 25.7358 3.98379 23.9597 4.16832 22.1837C4.27879 22.1922 4.39897 22.2213 4.50823 22.248C7.92559 23.0711 10.5284 25.9555 10.2856 28.8642Z" fill="#86A05D"/>
<path id="Vector_9" d="M68.8166 9.59302C69.1905 14.37 69.5644 19.1458 69.9359 23.9229C69.823 23.9241 69.7028 23.9459 69.5924 23.9666C66.1349 24.6185 63.4508 27.5405 63.6232 30.6665C63.6269 30.726 63.6305 30.7964 63.6451 30.8547C45.8602 33.2851 27.8047 32.6684 10.2541 29.0374C10.2699 28.984 10.276 28.9196 10.2808 28.8638C10.5236 25.9563 7.92085 23.0706 4.50349 22.2476C4.39423 22.2209 4.27526 22.1917 4.16357 22.1832C4.61639 17.842 5.06799 13.4996 5.51838 9.15721C5.62156 9.19848 5.73811 9.22519 5.84373 9.24825C9.16761 9.98999 12.0824 8.11075 12.3228 5.20569C12.3276 5.14985 12.3325 5.08551 12.3276 5.02845C28.8305 7.83032 45.6696 7.80239 62.1215 4.95074C62.1142 5.01266 62.1191 5.08185 62.1227 5.14134C62.2963 8.26491 65.1601 10.3663 68.4901 9.68043C68.5969 9.65858 68.7134 9.63429 68.8166 9.59302Z" fill="#9EBF5E"/>
<path id="Vector_10" d="M48.8318 19.4074C48.9751 25.2406 43.6275 30.2774 36.8984 30.0443C30.1717 29.8233 24.9941 24.6093 25.2976 19.0104C25.5999 13.3957 30.9292 9.29733 37.214 9.28033C43.4964 9.28155 48.691 13.5584 48.8318 19.4074Z" fill="#86A05D"/>
<path id="Vector_11" d="M22.3035 18.6985C22.1263 22.0892 18.7441 24.4589 14.778 23.7718C10.812 23.0895 7.88625 19.6977 8.20917 16.4151C8.53209 13.1276 11.8705 11.099 15.6922 11.672C19.5126 12.2523 22.482 15.3018 22.3035 18.6985Z" fill="#86A05D"/>
<path id="Vector_12" d="M51.8424 19.1937C51.9225 22.7203 55.2403 25.3777 59.2416 24.9067C63.2417 24.4418 66.2597 20.9746 66.0011 17.3861C65.7425 13.7927 62.4539 11.4789 58.6322 12.0057C54.8094 12.5387 51.7611 15.6622 51.8424 19.1937Z" fill="#86A05D"/>
</g>
</g>
</svg>
