<?xml version="1.0" encoding="utf-8"?>
<!-- Generator: Adobe Illustrator 24.2.0, SVG Export Plug-In . SVG Version: 6.00 Build 0)  -->
<svg version="1.1" id="Layer_1" xmlns="http://www.w3.org/2000/svg" xmlns:xlink="http://www.w3.org/1999/xlink" x="0px" y="0px"
	 viewBox="0 0 820.65 536.69" style="enable-background:new 0 0 820.65 536.69;" xml:space="preserve">
<style type="text/css">
	.st0{fill:none;}
	.st1{fill:#211915;}
	.st2{fill:#119B67;}
	.st3{fill:#FFFFFF;}
	.st4{fill:#CB8E5F;}
	.st5{opacity:0.1;}
	.st6{fill:#FFB51F;}
</style>
<g>
	<g>
		<g>
			<path class="st2" d="M127.04,255.15v-17.67h41.44c0,0,8.53,2.44,11.58,7.92c0,0,7.92,10.97,0,24.99c0,0-3.66,6.09-12.19,7.31
				c0,0,10.97,1.83,11.58,10.36v26.82h-20.72v-22.55c0,0,0-6.7-6.7-6.7h-24.99v-18.89h29.4c0.93,0,1.84-0.29,2.59-0.84
				c0.51-0.38,1.06-0.9,1.53-1.6c1.22-1.83,1.83-7.92-3.05-8.53L127.04,255.15z"/>
			<path class="st2" d="M175.8,237.48h47.54v17.67h-36.57C186.77,255.15,188.6,244.79,175.8,237.48z"/>
			<path class="st2" d="M184.94,266.73h14.02v25.6c0,0-0.61,3.05,3.05,3.05s20.11,0,20.11,0v19.5h-28.65c0,0-9.14,0-9.75-6.09
				l-0.59-22.3c-0.02-0.59-0.16-1.16-0.42-1.69c-0.79-1.58-2.63-4.95-4.48-5.88v-3.66C178.24,275.26,183.11,275.26,184.94,266.73z"
				/>
		</g>
		<g>
			<g>
				<g>
					<path class="st2" d="M59.59,267.52v3.26h3.96v1.34h-3.96v3.34H64v1.42h-6.16v-10.76H64v1.4H59.59z"/>
					<path class="st2" d="M72.38,275.48c-0.25,0.45-0.64,0.81-1.16,1.09c-0.52,0.27-1.15,0.41-1.9,0.41c-0.73,0-1.39-0.13-1.97-0.39
						c-0.58-0.26-1.04-0.62-1.39-1.09c-0.34-0.47-0.54-1.01-0.59-1.62h1.86c0.05,0.47,0.25,0.87,0.6,1.2
						c0.35,0.33,0.82,0.5,1.41,0.5c0.53,0,0.94-0.14,1.23-0.43c0.29-0.28,0.43-0.65,0.43-1.1c0-0.39-0.11-0.7-0.32-0.95
						s-0.48-0.44-0.79-0.59c-0.32-0.14-0.75-0.3-1.3-0.49c-0.67-0.21-1.22-0.43-1.64-0.64s-0.78-0.52-1.07-0.93s-0.44-0.94-0.44-1.6
						c0-0.58,0.14-1.09,0.43-1.52c0.28-0.44,0.69-0.77,1.22-1.01s1.14-0.36,1.83-0.36c1.1,0,1.97,0.26,2.61,0.79
						c0.64,0.53,1.01,1.22,1.1,2.07h-1.87c-0.07-0.41-0.26-0.75-0.57-1.04s-0.73-0.43-1.27-0.43c-0.49,0-0.88,0.12-1.17,0.37
						c-0.29,0.25-0.44,0.61-0.44,1.07c0,0.37,0.1,0.67,0.3,0.91c0.2,0.24,0.46,0.43,0.77,0.56s0.73,0.3,1.27,0.48
						c0.68,0.21,1.24,0.43,1.67,0.65c0.43,0.22,0.8,0.54,1.1,0.95s0.45,0.97,0.45,1.65C72.77,274.54,72.64,275.03,72.38,275.48z"/>
					<path class="st2" d="M81.42,266.12v1.4h-3v9.36h-1.75v-9.36h-2.99v-1.4H81.42z"/>
					<path class="st2" d="M91.29,274.33c-0.44,0.81-1.09,1.44-1.93,1.88c-0.85,0.45-1.86,0.67-3.04,0.67h-3.6v-10.76h3.6
						c1.18,0,2.19,0.22,3.04,0.66c0.85,0.44,1.49,1.06,1.93,1.87c0.44,0.8,0.66,1.75,0.66,2.83
						C91.95,272.57,91.73,273.52,91.29,274.33z M89.14,274.3c0.69-0.67,1.04-1.61,1.04-2.82c0-1.21-0.35-2.15-1.04-2.82
						c-0.69-0.67-1.68-1.01-2.97-1.01h-1.72v7.65h1.72C87.46,275.31,88.45,274.97,89.14,274.3z"/>
				</g>
			</g>
			<g>
				<g>
					<path class="st2" d="M266.7,269.77c0.99-1.08,1.49-2.08,1.49-3.01c0-0.55-0.13-0.99-0.4-1.31c-0.27-0.33-0.7-0.49-1.3-0.49
						c-0.62,0-1.09,0.2-1.4,0.6c-0.31,0.4-0.49,0.97-0.53,1.71h-1.69c0.07-1.23,0.45-2.17,1.14-2.82c0.69-0.65,1.56-0.98,2.63-0.98
						c1.05,0,1.87,0.28,2.46,0.83c0.59,0.55,0.89,1.32,0.89,2.29c0,0.78-0.24,1.57-0.72,2.38c-0.48,0.8-1.09,1.54-1.84,2.22
						c-0.74,0.68-1.51,1.26-2.3,1.74h5.1v1.42h-7.47v-1.28C264.39,271.96,265.71,270.85,266.7,269.77z"/>
					<path class="st2" d="M271.56,268.99c0-1.71,0.3-3.04,0.91-4.01c0.61-0.97,1.63-1.45,3.05-1.45s2.44,0.49,3.05,1.46
						c0.61,0.97,0.91,2.3,0.91,4c0,1.71-0.3,3.05-0.91,4.02c-0.61,0.98-1.63,1.46-3.05,1.46s-2.44-0.48-3.05-1.46
						C271.87,272.05,271.56,270.7,271.56,268.99z M277.75,268.99c0-1.22-0.15-2.16-0.46-2.81s-0.89-0.98-1.77-0.98
						c-0.88,0-1.48,0.33-1.78,0.98c-0.31,0.65-0.46,1.59-0.46,2.82c0,1.24,0.15,2.19,0.46,2.85c0.3,0.66,0.9,0.99,1.78,0.99
						c0.87,0,1.46-0.33,1.77-0.99S277.75,270.23,277.75,268.99z"/>
					<path class="st2" d="M284.83,269.77c0.99-1.08,1.49-2.08,1.49-3.01c0-0.55-0.13-0.99-0.4-1.31c-0.27-0.33-0.7-0.49-1.3-0.49
						c-0.62,0-1.09,0.2-1.4,0.6c-0.31,0.4-0.49,0.97-0.53,1.71h-1.69c0.07-1.23,0.45-2.17,1.14-2.82c0.69-0.65,1.56-0.98,2.63-0.98
						c1.05,0,1.87,0.28,2.46,0.83c0.59,0.55,0.89,1.32,0.89,2.29c0,0.78-0.24,1.57-0.72,2.38c-0.48,0.8-1.09,1.54-1.84,2.22
						c-0.74,0.68-1.51,1.26-2.3,1.74h5.1v1.42h-7.47v-1.28C282.52,271.96,283.84,270.85,284.83,269.77z"/>
					<path class="st2" d="M289.1,265.31v-1.63h3.44v10.76h-1.83v-9.13H289.1z"/>
				</g>
			</g>
			<g>
				<path class="st2" d="M175.41,162.28c50.4,0,93.09,33.63,106.82,79.63h5.79c-13.9-49.1-59.12-85.18-112.61-85.18
					S76.7,192.81,62.8,241.91h5.79C82.32,195.92,125.01,162.28,175.41,162.28z"/>
				<path class="st2" d="M175.41,385.19c-50.27,0-92.87-33.46-106.71-79.27h-5.79c14.02,48.92,59.15,84.82,112.51,84.82
					s98.49-35.9,112.51-84.82h-5.79C268.28,351.74,225.68,385.19,175.41,385.19z"/>
				<path class="st2" d="M175.41,342.96c38.17,0,69.22-31.05,69.22-69.22s-31.05-69.22-69.22-69.22
					c-38.17,0-69.22,31.05-69.22,69.22S137.24,342.96,175.41,342.96z M175.41,205.91c37.4,0,67.83,30.43,67.83,67.83
					s-30.43,67.83-67.83,67.83s-67.83-30.43-67.83-67.83S138.01,205.91,175.41,205.91z"/>
				<path class="st2" d="M255.32,226.06c3.02,5.05,5.52,10.36,7.52,15.85h1.48c-2.05-5.74-4.66-11.29-7.81-16.56L255.32,226.06z"/>
				<path class="st2" d="M247.59,334.62c7.23-8.56,12.82-18.29,16.59-28.69h-1.48c-3.71,10.07-9.16,19.49-16.17,27.8L247.59,334.62z
					"/>
				<path class="st2" d="M104.29,333.72c-7.01-8.3-12.46-17.73-16.17-27.8h-1.48c3.77,10.4,9.36,20.13,16.59,28.69L104.29,333.72z"
					/>
				<path class="st2" d="M94.31,225.35c-3.15,5.27-5.75,10.82-7.81,16.56h1.48c2-5.49,4.5-10.8,7.52-15.85L94.31,225.35z"/>
				<path class="st2" d="M254.68,273.74c0-6.86-0.88-13.51-2.52-19.86v39.72C253.8,287.25,254.68,280.6,254.68,273.74z"/>
				<path class="st2" d="M96.14,273.74c0,5.41,0.55,10.69,1.58,15.8v-31.59C96.69,263.05,96.14,268.33,96.14,273.74z"/>
				<path class="st2" d="M175.41,353.01c36.85,0,67.91-25.28,76.75-59.41v-39.72c-8.84-34.13-39.9-59.41-76.75-59.41
					c-38.3,0-70.34,27.31-77.69,63.47v31.59C105.07,325.7,137.11,353.01,175.41,353.01z M175.41,200.02
					c40.65,0,73.72,33.07,73.72,73.72c0,40.65-33.07,73.72-73.72,73.72s-73.72-33.07-73.72-73.72
					C101.7,233.09,134.76,200.02,175.41,200.02z"/>
				<rect x="260.06" y="283.61" class="st2" width="33.16" height="1.39"/>
				<rect x="57.61" y="283.61" class="st2" width="33.16" height="1.39"/>
			</g>
		</g>
		<polygon class="st2" points="208.9,183.66 207.83,180.37 206.76,183.66 203.31,183.66 205.71,185.4 206.1,185.69 205.03,188.98 
			207.83,186.95 209.24,187.97 210.63,188.98 209.56,185.69 212.36,183.66 		"/>
		<polygon class="st2" points="143.69,183.66 142.63,180.37 141.56,183.66 138.1,183.66 140.9,185.69 139.83,188.98 142.63,186.95 
			145.42,188.98 144.36,185.69 147.15,183.66 		"/>
		<polygon class="st2" points="208.9,360.28 207.83,356.99 206.76,360.28 203.31,360.28 205.71,362.02 206.1,362.31 205.03,365.6 
			207.83,363.57 209.24,364.59 210.63,365.6 209.56,362.31 212.36,360.28 		"/>
		<polygon class="st2" points="143.69,360.28 142.63,356.99 141.56,360.28 138.1,360.28 140.9,362.31 139.83,365.6 142.63,363.57 
			145.42,365.6 144.36,362.31 147.15,360.28 		"/>
		<polygon class="st2" points="184.87,175.85 177.93,175.85 175.78,169.24 174.31,173.78 173.64,175.85 166.7,175.85 172.32,179.93 
			170.17,186.53 174.31,183.52 175.78,182.45 180.4,185.81 181.4,186.53 180.01,182.24 179.26,179.93 179.82,179.51 		"/>
		<polygon class="st2" points="184.87,365.72 177.93,365.72 175.78,359.12 174.31,363.66 173.64,365.72 166.7,365.72 172.32,369.8 
			170.17,376.4 174.31,373.4 175.78,372.32 180.4,375.68 181.4,376.4 180.01,372.12 179.26,369.8 179.82,369.39 		"/>
	</g>
	<g>
		<path class="st2" d="M363.31,261.7c-4.15,0-7.45-0.66-9.29-4.61c-1.98-4.09-3.16-6.99-5.67-13.64c-0.2,0-0.4,0-0.66,0h-3.56v8.76
			c0,3.23,2.17,4.02,2.17,6.26c0,0.13,0,0.07,0,0.13c0,2.44-4.09,3.1-8.9,3.1c-4.81,0-8.96-0.66-8.96-3.1c0-0.07,0,0,0-0.13
			c0-2.24,2.24-3.03,2.24-6.26v-27.35c0-3.23-2.24-4.02-2.24-6.26c0-0.07,0,0,0-0.07c0-2.44,2.83-3.16,6.46-3.16h12.79
			c11.86,0,19.84,5.27,19.84,14.3c0,5.14-2.64,8.96-7.18,11.27c5.93,13.44,11.01,12.52,11.34,16.08
			C371.94,259.59,368.91,261.7,363.31,261.7z M353.23,229.67c0-5.27-2.44-9.09-5.87-9.09c-2.17,0-3.23,1.05-3.23,4.28v13.38h1.85
			C350.79,238.24,353.23,234.68,353.23,229.67z"/>
		<path class="st2" d="M421.64,238.44c0,14.63-10.74,23.73-24.65,23.73c-13.51,0-24.25-9.09-24.25-23.73s10.28-23.73,24.25-23.73
			C410.9,214.71,421.64,223.81,421.64,238.44z M405.82,237.65c-0.92-10.48-5.01-17.4-10.41-16.94c-5.4,0.46-8.24,7.97-7.31,18.52
			c0.92,10.54,5.01,17.46,10.41,16.94C403.91,255.7,406.74,248.19,405.82,237.65z"/>
		<path class="st2" d="M467.77,258.27c0,0.13,0,0,0,0.13c0,2.5-2.9,3.3-8.83,3.3c-4.75,0-9.16-0.26-9.16-2.7c0-0.07,0,0,0-0.07
			c0-2.24,1.78-3.16,0.53-6.26l-1.65-4.22h-15.36l-1.32,3.82c-1.32,3.69,0.72,4.09,0.72,6.19c0,0.13,0,0.07,0,0.13
			c0,2.24-2.96,3.1-5.93,3.1c-2.7,0-5.47-0.86-5.47-2.9c0-0.07,0,0,0-0.13c0-2.24,3.36-3.43,4.61-6.85l10.41-27.22
			c1.12-2.97-0.46-3.95-0.46-6.2c0-0.13,0,0,0-0.13c0-2.44,3.1-3.1,6.66-3.1c4.81,0,6.33,0.79,7.51,3.62l13.44,32.23
			C464.81,254.32,467.77,255.37,467.77,258.27z M446.62,243.18l-6.06-15.42l-5.4,15.42H446.62z"/>
		<path class="st2" d="M515.36,238.44c0,12.79-8.7,23.07-26.76,23.07h-12.46c-3.56,0-6.39-0.66-6.39-3.1c0-0.13,0,0,0-0.13
			c0-2.24,2.24-3.03,2.24-6.26v-27.15c0-3.23-2.24-4.02-2.24-6.26c0-0.07,0,0,0-0.07c0-2.5,2.83-3.16,6.39-3.16h12.46
			C506.66,215.37,515.36,225.65,515.36,238.44z M500.6,238.44c0-9.56-3.95-17.86-11.93-17.86c-2.24,0-3.23,1.05-3.23,4.28v27.15
			c0,3.23,0.99,4.28,3.23,4.28C496.64,256.3,500.6,247.99,500.6,238.44z"/>
		<path class="st2" d="M558.6,229.34c-0.07,0,0,0-0.13,0c-4.42,0-5.01-8.77-11.2-8.77h-1.91v31.63c0,3.23,2.24,4.02,2.24,6.26
			c0,0.13,0,0.07,0,0.13c0,2.44-4.15,3.1-8.96,3.1s-8.9-0.66-8.9-3.1c0-0.07,0,0,0-0.13c0-2.24,2.24-3.03,2.24-6.26v-31.63h-1.91
			c-6.2,0-6.79,8.77-11.27,8.77c-0.07,0,0,0-0.07,0c-1.45,0-2.24-1.05-1.98-3.36c0.2-2.11,0.92-6.33,1.38-8.7
			c0.4-2.11,1.25-3.03,3.16-3.03c2.24,0,3.1,1.12,6.59,1.12h21.55c3.49,0,4.28-1.12,6.59-1.12c1.84,0,2.7,0.92,3.16,3.03
			c0.46,2.37,1.12,6.59,1.38,8.7C560.84,228.29,559.98,229.34,558.6,229.34z"/>
		<path class="st2" d="M599.13,261.7c-4.15,0-7.45-0.66-9.29-4.61c-1.98-4.09-3.16-6.99-5.67-13.64c-0.2,0-0.4,0-0.66,0h-3.56v8.76
			c0,3.23,2.17,4.02,2.17,6.26c0,0.13,0,0.07,0,0.13c0,2.44-4.09,3.1-8.9,3.1c-4.81,0-8.96-0.66-8.96-3.1c0-0.07,0,0,0-0.13
			c0-2.24,2.24-3.03,2.24-6.26v-27.35c0-3.23-2.24-4.02-2.24-6.26c0-0.07,0,0,0-0.07c0-2.44,2.83-3.16,6.46-3.16h12.79
			c11.86,0,19.84,5.27,19.84,14.3c0,5.14-2.64,8.96-7.18,11.27c5.93,13.44,11.01,12.52,11.34,16.08
			C607.76,259.59,604.73,261.7,599.13,261.7z M589.05,229.67c0-5.27-2.44-9.09-5.87-9.09c-2.17,0-3.23,1.05-3.23,4.28v13.38h1.85
			C586.61,238.24,589.05,234.68,589.05,229.67z"/>
		<path class="st2" d="M625.16,224.2v28.01c0,3.23,2.24,4.02,2.24,6.26c0,0.13,0,0.07,0,0.13c0,2.44-4.09,3.1-8.9,3.1
			c-4.81,0-8.96-0.66-8.96-3.1c0-0.07,0,0,0-0.13c0-2.24,2.24-3.03,2.24-6.26V224.2c0-3.16-2.24-3.95-2.24-6.19
			c0-0.13,0-0.07,0-0.13c0-2.44,4.15-2.7,8.96-2.7c4.81,0,8.9,0.26,8.9,2.7c0,0.07,0,0,0,0.13
			C627.4,220.25,625.16,221.04,625.16,224.2z"/>
		<path class="st2" d="M670.24,230.53c0,8.96-7.58,15.09-19.38,15.09h-3.16v7.05c0,2.77,2.64,3.76,2.64,6.26c0,0.07,0,0,0,0.07
			c0,2.37-3.56,2.7-9.36,2.7c-4.81,0-8.96-0.2-8.96-2.7c0-0.07,0,0,0-0.07c0-2.24,2.24-3.03,2.24-6.26v-27.81
			c0-3.23-2.24-4.02-2.24-6.26c0-0.07,0,0,0-0.07c0-2.44,2.83-3.16,6.39-3.16h12.46C662.66,215.37,670.24,221.5,670.24,230.53z
			 M656.8,230.53c0-5.27-2.24-9.95-5.87-9.95c-2.24,0-3.23,1.05-3.23,4.28v15.55h1.45C654.56,240.41,656.8,235.54,656.8,230.53z"/>
		<path class="st2" d="M371.22,328.47c-2.64,7.91-9.75,12.79-18.85,12.79c-13.18,0-25.64-7.97-24.85-24.58
			c0.66-14.17,11.67-22.87,24.85-22.87c6.06,0,8.37,2.04,12.79,0.4c2.24-0.86,4.28,0.07,4.68,2.17c0.53,2.44,1.19,10.08,1.45,12.19
			c0.26,2.24-0.59,3.36-1.98,3.36c-0.13,0,0,0-0.13,0c-4.48,0-5.4-13.11-15.09-13.11c-6.85,0-12.26,6.92-11.66,15.68
			c1.12,17.46,16.8,19.38,23.72,11.99c1.38-1.52,2.9-1.65,3.89-1.19C370.96,325.7,371.81,326.75,371.22,328.47z"/>
		<path class="st2" d="M423.62,317.53c0,14.63-10.74,23.73-24.65,23.73c-13.51,0-24.25-9.09-24.25-23.73S385,293.8,398.97,293.8
			C412.87,293.8,423.62,302.9,423.62,317.53z M407.8,316.74c-0.92-10.48-5.01-17.4-10.41-16.94c-5.4,0.46-8.24,7.97-7.31,18.52
			c0.92,10.54,5.01,17.46,10.41,16.94C405.89,334.79,408.72,327.28,407.8,316.74z"/>
		<path class="st2" d="M479.04,303.29v28.01c0,3.23,2.24,4.02,2.24,6.26c0,0.13,0,0.07,0,0.13c0,2.44-4.15,3.1-8.9,3.1
			c-4.81,0-8.96-0.66-8.96-3.1c0-0.07,0,0,0-0.13c0-2.24,2.24-3.03,2.24-6.26v-27.68c-3.95,10.02-10.15,25.37-11.27,28.07
			c-0.99,2.44-2.11,3.1-3.96,3.1c-1.58,0-3.23-0.46-4.55-3.36c-0.92-2.17-7.25-16.54-10.54-23.99v23.86c0,3.23,2.9,4.02,2.9,6.26
			c0,0.13,0,0.07,0,0.13c0,2.24-2.57,3.1-5.54,3.1s-5.47-0.86-5.47-3.1c0-0.07,0,0,0-0.13c0-2.24,2.9-3.03,2.9-6.26v-27.55
			c0-3.23-2.5-4.02-2.5-6.26c0-0.13,0,0,0-0.13c0-2.44,2.83-3.1,6.39-3.1c9.16,0,9.82,2.11,11.2,5.21
			c0.92,2.17,5.73,13.58,8.5,20.23c0,0,7.64-18.85,8.63-21.09c1.38-3.1,3.29-4.35,10.02-4.35c4.75,0,8.9,0.26,8.9,2.7
			c0,0.07,0,0,0,0.13C481.28,299.34,479.04,300.13,479.04,303.29z"/>
		<path class="st2" d="M537.7,303.29v28.01c0,3.23,2.24,4.02,2.24,6.26c0,0.13,0,0.07,0,0.13c0,2.44-4.15,3.1-8.9,3.1
			c-4.81,0-8.96-0.66-8.96-3.1c0-0.07,0,0,0-0.13c0-2.24,2.24-3.03,2.24-6.26v-27.68c-3.95,10.02-10.15,25.37-11.27,28.07
			c-0.99,2.44-2.11,3.1-3.96,3.1c-1.58,0-3.23-0.46-4.55-3.36c-0.92-2.17-7.25-16.54-10.54-23.99v23.86c0,3.23,2.9,4.02,2.9,6.26
			c0,0.13,0,0.07,0,0.13c0,2.24-2.57,3.1-5.54,3.1s-5.47-0.86-5.47-3.1c0-0.07,0,0,0-0.13c0-2.24,2.9-3.03,2.9-6.26v-27.55
			c0-3.23-2.5-4.02-2.5-6.26c0-0.13,0,0,0-0.13c0-2.44,2.83-3.1,6.39-3.1c9.16,0,9.82,2.11,11.2,5.21
			c0.92,2.17,5.73,13.58,8.5,20.23c0,0,7.64-18.85,8.63-21.09c1.38-3.1,3.29-4.35,10.02-4.35c4.75,0,8.9,0.26,8.9,2.7
			c0,0.07,0,0,0,0.13C539.94,299.34,537.7,300.13,537.7,303.29z"/>
		<path class="st2" d="M588.32,297.36c0,0.13,0,0,0,0.13c0,2.24-2.9,3.03-2.9,6.26v19.11c0,10.74-6.26,18.45-18.12,18.45
			c-11.07,0-20.5-5.93-20.5-18.06v-19.97c0-3.16-2.24-3.95-2.24-6.19c0-0.13,0-0.07,0-0.13c0-2.44,4.15-2.7,8.9-2.7
			c4.81,0,8.96,0.26,8.96,2.7c0,0.07,0,0,0,0.13c0,2.24-2.24,3.03-2.24,6.19v19.97c0,8.7,4.75,12.59,10.54,12.59
			c6.06,0,9.49-5.01,9.49-12.79v-19.31c0-3.23-2.9-4.02-2.9-6.26c0-0.13,0,0,0-0.13c0-2.24,2.5-3.1,5.47-3.1
			S588.32,295.12,588.32,297.36z"/>
		<path class="st2" d="M637.09,297.36c0,0.13,0,0,0,0.13c0,2.24-2.83,3.03-2.83,6.26v31.7c0,3.82-1.71,5.34-4.35,5.34
			c-3.3,0-4.61-1.12-6.72-3.76c-2.04-2.5-15.95-20.43-22.8-29.26v23.53c0,3.23,2.9,4.02,2.9,6.26c0,0.13,0,0.07,0,0.13
			c0,2.24-2.5,3.1-5.47,3.1c-2.97,0-5.54-0.86-5.54-3.1c0-0.07,0,0,0-0.13c0-2.24,2.9-3.03,2.9-6.26v-27.55
			c0-3.23-2.44-4.02-2.44-6.26c0-0.13,0,0,0-0.13c0-2.44,2.83-3.1,6.39-3.1c6.79,0,7.97,1.05,10.28,3.95
			c1.38,1.78,13.11,17.07,19.57,25.37v-19.84c0-3.23-2.83-4.02-2.83-6.26c0-0.13,0,0,0-0.13c0-2.24,2.5-3.1,5.47-3.1
			S637.09,295.12,637.09,297.36z"/>
		<path class="st2" d="M656.67,303.29v28.01c0,3.23,2.24,4.02,2.24,6.26c0,0.13,0,0.07,0,0.13c0,2.44-4.09,3.1-8.9,3.1
			c-4.81,0-8.96-0.66-8.96-3.1c0-0.07,0,0,0-0.13c0-2.24,2.24-3.03,2.24-6.26v-28.01c0-3.16-2.24-3.95-2.24-6.19
			c0-0.13,0-0.07,0-0.13c0-2.44,4.15-2.7,8.96-2.7c4.81,0,8.9,0.26,8.9,2.7c0,0.07,0,0,0,0.13
			C658.91,299.34,656.67,300.13,656.67,303.29z"/>
		<path class="st2" d="M703.79,308.43c-0.07,0,0,0-0.13,0c-4.42,0-5.01-8.77-11.2-8.77h-1.91v31.63c0,3.23,2.24,4.02,2.24,6.26
			c0,0.13,0,0.07,0,0.13c0,2.44-4.15,3.1-8.96,3.1s-8.9-0.66-8.9-3.1c0-0.07,0,0,0-0.13c0-2.24,2.24-3.03,2.24-6.26v-31.63h-1.91
			c-6.2,0-6.79,8.77-11.27,8.77c-0.07,0,0,0-0.07,0c-1.45,0-2.24-1.05-1.98-3.36c0.2-2.11,0.92-6.33,1.38-8.7
			c0.4-2.11,1.25-3.03,3.16-3.03c2.24,0,3.1,1.12,6.59,1.12h21.55c3.49,0,4.28-1.12,6.59-1.12c1.84,0,2.7,0.92,3.16,3.03
			c0.46,2.37,1.12,6.59,1.38,8.7C706.03,307.38,705.17,308.43,703.79,308.43z"/>
		<path class="st2" d="M748.48,297.16c0,0.07,0,0,0,0.13c0,2.24-3.16,3.62-4.81,6.85l-8.63,16.67v10.94c0,3.23,2.24,4.02,2.24,6.26
			c0,0.07,0,0,0,0.07c0,2.5-4.15,2.7-8.96,2.7c-4.81,0-8.9-0.2-8.9-2.7c0-0.07,0,0,0-0.07c0-2.24,2.24-3.03,2.24-6.26v-9.09
			l-10.35-17.2c-1.91-3.1-4.81-4.81-4.81-7.78c0-0.07,0,0,0-0.07c0-2.57,2.9-3.36,8.83-3.36c4.75,0,10.02,0.26,10.02,2.7
			c0,0.07,0,0,0,0.13c0,2.24-2.24,3.1-0.73,6.06l6.99,13.64l6-13.11c1.78-3.76-0.53-4.09-0.53-6.2c0-0.13,0,0,0-0.13
			c0-2.24,2.97-3.1,5.93-3.1C745.71,294.26,748.48,295.12,748.48,297.16z"/>
	</g>
</g>
</svg>
