<svg width="178" height="178" viewBox="0 0 178 178" fill="none" xmlns="http://www.w3.org/2000/svg">
<g filter="url(#filter0_d_186_1049)">
<circle cx="89" cy="86" r="82" fill="white"/>
</g>
<g filter="url(#filter1_ii_186_1049)">
<circle cx="89" cy="86" r="68" fill="#FAFAFA"/>
</g>
<path d="M55.4358 59.0416L49.7388 64.4654L41.4604 55.77L47.1574 50.3462L48.0758 51.3109L43.4608 55.7045L46.1293 58.5074L50.653 54.2006L51.5715 55.1654L47.0478 59.4721L49.9024 62.4706L54.5174 58.0769L55.4358 59.0416Z" fill="#34296B"/>
<path d="M68.072 51.2768L66.6872 52.008L62.715 50.0752L62.0712 54.4455L60.7023 55.1683L61.5625 49.666L56.8019 47.3963L58.1867 46.6651L61.8661 48.4675L62.4525 44.4125L63.8372 43.6813L63.0269 48.8927L68.072 51.2768Z" fill="#34296B"/>
<path d="M78.3094 48.3969C77.1125 48.6531 76.0494 48.3591 75.1202 47.5148L76.0883 52.0384L74.7682 52.3209L72.2556 40.5808L73.5757 40.2982L73.8469 41.5656C74.0683 41.0518 74.4024 40.6061 74.8493 40.2282C75.2961 39.8503 75.8128 39.5986 76.3995 39.473C77.526 39.2319 78.5221 39.4421 79.3877 40.1036C80.2625 40.7509 80.8456 41.7551 81.1369 43.1163C81.4282 44.4775 81.3085 45.6382 80.7777 46.5986C80.2586 47.5564 79.4359 48.1559 78.3094 48.3969ZM77.7226 47.2892C78.5557 47.1109 79.1534 46.6639 79.5157 45.9483C79.8754 45.2209 79.9523 44.3761 79.7464 43.4139C79.5405 42.4517 79.1258 41.7182 78.5023 41.2135C77.8789 40.7088 77.1506 40.5456 76.3175 40.7239C75.8129 40.8319 75.349 41.0723 74.9256 41.4451C74.5115 41.8037 74.2273 42.1959 74.073 42.6216L74.8941 46.4587C75.2117 46.7958 75.6341 47.049 76.1612 47.2184C76.6975 47.3736 77.218 47.3972 77.7226 47.2892Z" fill="#34296B"/>
<path d="M90.8683 47.0678L89.5188 47.0307L89.8489 35.0292L91.1984 35.0664L90.8683 47.0678Z" fill="#34296B"/>
<path d="M106.075 48.5677C105.093 49.208 103.976 49.3579 102.726 49.0174C101.475 48.677 100.583 47.9801 100.049 46.9268C99.5263 45.8766 99.4353 44.7263 99.7758 43.4758C100.116 42.2254 100.776 41.2857 101.756 40.657C102.75 40.0199 103.873 39.8715 105.123 40.212C106.374 40.5525 107.26 41.2478 107.782 42.2979C108.32 43.3396 108.418 44.4857 108.078 45.7362C107.737 46.9867 107.07 47.9305 106.075 48.5677ZM101.248 46.3579C101.588 47.1219 102.186 47.6205 103.042 47.8538C103.899 48.0871 104.662 47.9589 105.33 47.4692C106.001 46.968 106.46 46.2658 106.706 45.3626C106.951 44.4595 106.911 43.6276 106.583 42.8668C106.255 42.106 105.663 41.6089 104.806 41.3756C103.949 41.1423 103.18 41.2747 102.497 41.7728C101.829 42.2625 101.373 42.9531 101.13 43.8447C100.885 44.7478 100.924 45.5856 101.248 46.3579Z" fill="#34296B"/>
<path d="M114.952 53.7188L113.776 53.0559L118.045 45.4824L119.221 46.1454L118.532 47.3684C119.751 46.8433 120.852 46.8578 121.834 47.4117L121.154 48.6191C121.025 48.5052 120.877 48.4012 120.71 48.3069C120.354 48.1065 119.897 48.0139 119.337 48.0291C118.778 48.0442 118.324 48.1533 117.975 48.3563L114.952 53.7188Z" fill="#34296B"/>
<path d="M125.408 61.6416C124.469 60.748 123.99 59.7115 123.969 58.5322C123.957 57.3442 124.418 56.2591 125.353 55.277C126.23 54.3558 127.266 53.8592 128.461 53.7874C129.665 53.707 130.71 54.0887 131.596 54.9327C132.526 55.818 132.954 56.8388 132.881 57.9949C132.824 59.1507 132.333 60.2152 131.406 61.1886L131.17 61.4363L126.073 56.5835C125.529 57.2419 125.263 57.9742 125.274 58.7802C125.285 59.5863 125.617 60.2996 126.269 60.9202C127.051 61.6649 127.951 62.0162 128.968 61.9742L128.829 63.0599C127.574 63.0907 126.433 62.6179 125.408 61.6416ZM130.888 59.8009C131.393 59.2537 131.669 58.5976 131.718 57.8325C131.776 57.0587 131.474 56.3574 130.814 55.7285C130.188 55.1328 129.49 54.8741 128.719 54.9524C127.958 55.0391 127.303 55.3437 126.756 55.8664L130.888 59.8009Z" fill="#34296B"/>
<path d="M122.99 117.013L128.687 111.589L136.965 120.285L131.268 125.709L130.35 124.744L134.965 120.35L132.296 117.547L127.773 121.854L126.854 120.889L131.378 116.583L128.523 113.584L123.908 117.978L122.99 117.013Z" fill="#34296B"/>
<path d="M110.354 124.778L111.739 124.047L115.711 125.98L116.355 121.609L117.723 120.886L116.863 126.389L121.624 128.658L120.239 129.39L116.56 127.587L115.973 131.642L114.589 132.373L115.399 127.162L110.354 124.778Z" fill="#34296B"/>
<path d="M100.116 127.658C101.313 127.402 102.376 127.696 103.306 128.54L102.338 124.016L103.658 123.734L106.17 135.474L104.85 135.756L104.579 134.489C104.357 135.003 104.023 135.449 103.577 135.827C103.13 136.204 102.613 136.456 102.026 136.582C100.9 136.823 99.9037 136.613 99.0381 135.951C98.1633 135.304 97.5802 134.3 97.2889 132.938C96.9976 131.577 97.1173 130.416 97.6481 129.456C98.1671 128.498 98.9899 127.899 100.116 127.658ZM100.703 128.765C99.8701 128.944 99.2724 129.391 98.9101 130.106C98.5504 130.834 98.4735 131.679 98.6794 132.641C98.8853 133.603 99.3 134.336 99.9234 134.841C100.547 135.346 101.275 135.509 102.108 135.331C102.613 135.223 103.077 134.982 103.5 134.61C103.914 134.251 104.199 133.859 104.353 133.433L103.532 129.596C103.214 129.259 102.792 129.006 102.265 128.836C101.728 128.681 101.208 128.657 100.703 128.765Z" fill="#34296B"/>
<path d="M87.5575 128.987L88.907 129.024L88.5769 141.025L87.2274 140.988L87.5575 128.987Z" fill="#34296B"/>
<path d="M72.3504 127.487C73.3332 126.847 74.4498 126.697 75.7002 127.037C76.9507 127.378 77.843 128.075 78.377 129.128C78.8995 130.178 78.9905 131.328 78.65 132.579C78.3095 133.829 77.6495 134.769 76.6699 135.398C75.6756 136.035 74.5532 136.183 73.3027 135.843C72.0522 135.502 71.1658 134.807 70.6433 133.757C70.1061 132.715 70.0077 131.569 70.3482 130.318C70.6887 129.068 71.3561 128.124 72.3504 127.487ZM77.1774 129.697C76.8382 128.933 76.2402 128.434 75.3834 128.201C74.5266 127.968 73.7641 128.096 73.096 128.585C72.4248 129.087 71.9662 129.789 71.7203 130.692C71.4744 131.595 71.5152 132.427 71.8429 133.188C72.1705 133.949 72.7627 134.446 73.6195 134.679C74.4764 134.912 75.2462 134.78 75.929 134.282C76.5971 133.792 77.0526 133.102 77.2953 132.21C77.5412 131.307 77.5019 130.469 77.1774 129.697Z" fill="#34296B"/>
<path d="M63.474 122.336L64.65 122.999L60.3805 130.572L59.2045 129.909L59.894 128.686C58.675 129.211 57.5742 129.197 56.5916 128.643L57.2722 127.436C57.4009 127.549 57.5489 127.654 57.7161 127.748C58.0715 127.948 58.529 128.041 59.0886 128.026C59.6482 128.01 60.1022 127.901 60.4508 127.698L63.474 122.336Z" fill="#34296B"/>
<path d="M53.0179 114.413C53.9566 115.307 54.4361 116.343 54.4566 117.523C54.4688 118.711 54.0074 119.796 53.0724 120.778C52.1954 121.699 51.1593 122.195 49.9643 122.267C48.761 122.348 47.7161 121.966 46.8296 121.122C45.8996 120.237 45.4714 119.216 45.5448 118.06C45.6013 116.904 46.0929 115.839 47.0196 114.866L47.2555 114.618L52.3528 119.471C52.8968 118.813 53.1632 118.081 53.1519 117.274C53.1406 116.468 52.809 115.755 52.1571 115.135C51.3749 114.39 50.4751 114.038 49.4576 114.08L49.5964 112.995C50.8519 112.964 51.9924 113.437 53.0179 114.413ZM47.5375 116.254C47.0332 116.801 46.7565 117.457 46.7074 118.222C46.65 118.996 46.9516 119.697 47.6121 120.326C48.2379 120.922 48.936 121.181 49.7065 121.102C50.4683 121.016 51.1228 120.711 51.6702 120.188L47.5375 116.254Z" fill="#34296B"/>
<path d="M91.1953 96.3184L90.8907 77.0533C90.8755 76.0909 90.0756 75.3159 89.1133 75.3312C88.1509 75.3464 87.3759 76.1462 87.3911 77.1086L87.6958 96.3737L84.5637 96.4232C83.7763 96.4357 83.4062 97.3866 83.9748 97.9202L88.9336 102.707C89.2888 103.034 89.8312 103.026 90.1759 102.688L94.9809 97.7462C95.5322 97.1949 95.1148 96.2564 94.3449 96.2686L91.1953 96.3184Z" fill="#34296B"/>
<defs>
<filter id="filter0_d_186_1049" x="0" y="0" width="178" height="178" filterUnits="userSpaceOnUse" color-interpolation-filters="sRGB">
<feFlood flood-opacity="0" result="BackgroundImageFix"/>
<feColorMatrix in="SourceAlpha" type="matrix" values="0 0 0 0 0 0 0 0 0 0 0 0 0 0 0 0 0 0 127 0" result="hardAlpha"/>
<feOffset dy="3"/>
<feGaussianBlur stdDeviation="3.5"/>
<feComposite in2="hardAlpha" operator="out"/>
<feColorMatrix type="matrix" values="0 0 0 0 0.854902 0 0 0 0 0.854902 0 0 0 0 0.854902 0 0 0 0.3 0"/>
<feBlend mode="normal" in2="BackgroundImageFix" result="effect1_dropShadow_186_1049"/>
<feBlend mode="normal" in="SourceGraphic" in2="effect1_dropShadow_186_1049" result="shape"/>
</filter>
<filter id="filter1_ii_186_1049" x="20" y="17" width="137" height="138" filterUnits="userSpaceOnUse" color-interpolation-filters="sRGB">
<feFlood flood-opacity="0" result="BackgroundImageFix"/>
<feBlend mode="normal" in="SourceGraphic" in2="BackgroundImageFix" result="shape"/>
<feColorMatrix in="SourceAlpha" type="matrix" values="0 0 0 0 0 0 0 0 0 0 0 0 0 0 0 0 0 0 127 0" result="hardAlpha"/>
<feMorphology radius="3" operator="dilate" in="SourceAlpha" result="effect1_innerShadow_186_1049"/>
<feOffset dx="-1" dy="7"/>
<feGaussianBlur stdDeviation="2"/>
<feComposite in2="hardAlpha" operator="arithmetic" k2="-1" k3="1"/>
<feColorMatrix type="matrix" values="0 0 0 0 0.854167 0 0 0 0 0.854167 0 0 0 0 0.854167 0 0 0 0.25 0"/>
<feBlend mode="normal" in2="shape" result="effect1_innerShadow_186_1049"/>
<feColorMatrix in="SourceAlpha" type="matrix" values="0 0 0 0 0 0 0 0 0 0 0 0 0 0 0 0 0 0 127 0" result="hardAlpha"/>
<feMorphology radius="3" operator="dilate" in="SourceAlpha" result="effect2_innerShadow_186_1049"/>
<feOffset dy="-5"/>
<feGaussianBlur stdDeviation="2"/>
<feComposite in2="hardAlpha" operator="arithmetic" k2="-1" k3="1"/>
<feColorMatrix type="matrix" values="0 0 0 0 0.854902 0 0 0 0 0.854902 0 0 0 0 0.854902 0 0 0 0.25 0"/>
<feBlend mode="normal" in2="effect1_innerShadow_186_1049" result="effect2_innerShadow_186_1049"/>
</filter>
</defs>
</svg>
