<svg width="46" height="45" viewBox="0 0 46 45" fill="none" xmlns="http://www.w3.org/2000/svg">
<path fill-rule="evenodd" clip-rule="evenodd" d="M41.5736 23.4093C40.1561 17.6457 40.2489 12.0953 40.079 6.2492C40.046 5.10748 40.9429 4.15829 42.0811 4.1239C43.2201 4.08951 44.1706 4.99053 44.2043 6.13224C44.3653 11.6757 44.2353 16.951 45.5806 22.4257C45.8529 23.533 45.1755 24.6541 44.0695 24.9223C42.9642 25.1975 41.8452 24.5166 41.5736 23.4093Z" fill="#E3719C"/>
<path fill-rule="evenodd" clip-rule="evenodd" d="M29.5312 34.5783C19.9147 25.7885 10.8539 14.4814 4.52079 3.06427C3.9685 2.06699 4.32823 0.808304 5.32414 0.25808C6.32004 -0.292145 7.57729 0.0655327 8.12958 1.06281C14.2536 12.1017 23.0165 23.0374 32.3153 31.5315C33.1558 32.3018 33.2143 33.6086 32.446 34.4477C31.6778 35.2867 30.3717 35.3486 29.5312 34.5783Z" fill="#E3719C"/>
<path fill-rule="evenodd" clip-rule="evenodd" d="M27.0949 44.1799C18.2995 45.6311 9.23392 43.1551 1.23642 39.6543C0.193059 39.1935 -0.282898 37.9761 0.173099 36.9376C0.629785 35.8922 1.84786 35.4176 2.89122 35.8715C10.1748 39.0628 18.4123 41.4288 26.4229 40.1083C27.5467 39.9226 28.6093 40.686 28.7944 41.807C28.9801 42.9281 28.218 43.9942 27.0949 44.1799Z" fill="#E3719C"/>
</svg>
