<svg width="46" height="45" viewBox="0 0 46 45" fill="none" xmlns="http://www.w3.org/2000/svg">
<path fill-rule="evenodd" clip-rule="evenodd" d="M4.06705 23.4093C5.48456 17.6457 5.39174 12.0953 5.56162 6.2492C5.59463 5.10748 4.69776 4.15829 3.55948 4.1239C2.42052 4.08951 1.46999 4.99053 1.43628 6.13224C1.27534 11.6757 1.40535 16.951 0.0600538 22.4257C-0.212307 23.533 0.465171 24.6541 1.57112 24.9223C2.67638 25.1975 3.79538 24.5166 4.06705 23.4093Z" fill="#E3719C"/>
<path fill-rule="evenodd" clip-rule="evenodd" d="M16.1094 34.5783C25.7259 25.7885 34.7868 14.4814 41.1198 3.06427C41.6721 2.06699 41.3124 0.808304 40.3165 0.25808C39.3206 -0.292145 38.0633 0.0655327 37.511 1.06281C31.3871 12.1017 22.6241 23.0374 13.3253 31.5315C12.4848 32.3018 12.4264 33.6086 13.1946 34.4477C13.9629 35.2867 15.2689 35.3486 16.1094 34.5783Z" fill="#E3719C"/>
<path fill-rule="evenodd" clip-rule="evenodd" d="M18.5458 44.1799C27.3411 45.6311 36.4067 43.1551 44.4042 39.6543C45.4476 39.1935 45.9235 37.9761 45.4675 36.9376C45.0108 35.8922 43.7928 35.4176 42.7494 35.8715C35.4658 39.0628 27.2283 41.4288 19.2177 40.1083C18.0939 39.9226 17.0313 40.686 16.8463 41.807C16.6606 42.9281 17.4226 43.9942 18.5458 44.1799Z" fill="#E3719C"/>
</svg>
