<svg width="146" height="40" viewBox="0 0 146 40" fill="none" xmlns="http://www.w3.org/2000/svg">
<path d="M33.3779 31.7648V8.73462H44.1599C45.3748 8.73462 46.4771 8.93131 47.467 9.3247C48.4681 9.71809 49.2837 10.252 49.9136 10.9264C50.5548 11.6007 51.0442 12.3875 51.3816 13.2867C51.7302 14.1747 51.9046 15.1301 51.9046 16.1528C51.9046 17.1644 51.7302 18.1142 51.3816 19.0021C51.0442 19.8901 50.5548 20.6768 49.9136 21.3624C49.2724 22.0368 48.4569 22.5707 47.467 22.9641C46.4771 23.3575 45.3748 23.5542 44.1599 23.5542H38.288V31.7648H33.3779ZM38.288 19.2381H43.4681C44.4579 19.2381 45.2735 18.9571 45.9146 18.3951C46.5671 17.8331 46.8933 17.0857 46.8933 16.1528C46.8933 15.2087 46.5671 14.4556 45.9146 13.8936C45.2735 13.3317 44.4579 13.0507 43.4681 13.0507H38.288V19.2381ZM53.8113 23.4024C53.8113 21.7951 54.1769 20.3284 54.9081 19.0021C55.6393 17.6758 56.6685 16.6249 57.9959 15.8494C59.3232 15.0625 60.808 14.6691 62.4504 14.6691C64.9476 14.6691 66.9611 15.5178 68.4909 17.215C70.0321 18.9009 70.8026 21.1039 70.8026 23.8239V24.8523H58.4008C58.5583 25.9314 59.0589 26.8249 59.9025 27.533C60.7462 28.2411 61.8485 28.5951 63.2096 28.5951C63.9521 28.5951 64.7451 28.449 65.5888 28.1568C66.4436 27.8534 67.1242 27.4543 67.6305 26.9598L69.5877 29.8596C68.7777 30.6015 67.7598 31.1747 66.5337 31.5794C65.3188 31.9839 64.0477 32.1863 62.7203 32.1863C60.1443 32.1863 58.0127 31.3827 56.3254 29.7754C54.6493 28.1568 53.8113 26.0325 53.8113 23.4024ZM58.367 21.8176H66.5843C66.5505 21.3905 66.4493 20.9803 66.2806 20.5869C66.1118 20.1935 65.87 19.817 65.555 19.4572C65.2513 19.0976 64.8295 18.811 64.2895 18.5975C63.7496 18.3727 63.1365 18.2603 62.4504 18.2603C61.7979 18.2603 61.2129 18.367 60.6956 18.5807C60.1781 18.7942 59.7619 19.0808 59.4469 19.4404C59.132 19.7889 58.8845 20.1654 58.7046 20.5701C58.5245 20.9634 58.4121 21.3792 58.367 21.8176ZM73.9748 31.7648V15.0907H78.3617V17.333C79.0029 16.5687 79.8016 15.9336 80.7578 15.4278C81.7251 14.9221 82.7038 14.6691 83.6936 14.6691V18.9515C83.39 18.8841 82.985 18.8503 82.4788 18.8503C81.7364 18.8503 80.9546 19.0415 80.1334 19.4236C79.3122 19.7945 78.7218 20.2384 78.3617 20.7555V31.7648H73.9748ZM84.2504 31.7648L90.1898 23.2001L84.5879 15.0907H89.498L92.957 20.1991L96.3822 15.0907H101.292L95.7242 23.2001L101.664 31.7648H96.7535L92.957 26.1337L89.1268 31.7648H84.2504ZM102.777 23.4024C102.777 21.7951 103.143 20.3284 103.874 19.0021C104.605 17.6758 105.634 16.6249 106.962 15.8494C108.289 15.0625 109.774 14.6691 111.416 14.6691C113.914 14.6691 115.927 15.5178 117.457 17.215C118.998 18.9009 119.768 21.1039 119.768 23.8239V24.8523H107.367C107.524 25.9314 108.025 26.8249 108.868 27.533C109.712 28.2411 110.814 28.5951 112.176 28.5951C112.918 28.5951 113.711 28.449 114.555 28.1568C115.41 27.8534 116.09 27.4543 116.596 26.9598L118.554 29.8596C117.744 30.6015 116.726 31.1747 115.5 31.5794C114.285 31.9839 113.014 32.1863 111.686 32.1863C109.11 32.1863 106.979 31.3827 105.291 29.7754C103.615 28.1568 102.777 26.0325 102.777 23.4024ZM107.333 21.8176H115.55C115.516 21.3905 115.415 20.9803 115.246 20.5869C115.078 20.1935 114.836 19.817 114.521 19.4572C114.217 19.0976 113.795 18.811 113.255 18.5975C112.716 18.3727 112.102 18.2603 111.416 18.2603C110.764 18.2603 110.179 18.367 109.661 18.5807C109.144 18.7942 108.728 19.0808 108.413 19.4404C108.098 19.7889 107.85 20.1654 107.67 20.5701C107.49 20.9634 107.378 21.3792 107.333 21.8176ZM122.941 31.7648V8.73462H127.328V31.7648H122.941ZM130.229 29.5898L132.137 26.4203C132.789 27.0384 133.66 27.5779 134.752 28.0388C135.854 28.4996 136.906 28.7301 137.907 28.7301C138.829 28.7301 139.527 28.5727 139.999 28.2579C140.472 27.9321 140.708 27.4994 140.708 26.9598C140.708 26.6002 140.522 26.3023 140.151 26.0662C139.791 25.8302 139.319 25.6448 138.734 25.5098C138.16 25.375 137.519 25.2457 136.81 25.1221C136.113 24.9872 135.41 24.8074 134.701 24.5827C134.004 24.3578 133.362 24.0712 132.777 23.7228C132.204 23.3743 131.732 22.8798 131.361 22.2391C131 21.5872 130.82 20.8172 130.82 19.9294C130.82 18.457 131.428 17.215 132.643 16.2034C133.858 15.1805 135.528 14.6691 137.654 14.6691C140.218 14.6691 142.457 15.4278 144.37 16.9452L142.598 20.0642C142.069 19.5135 141.355 19.0527 140.455 18.6817C139.566 18.3109 138.633 18.1254 137.654 18.1254C136.866 18.1254 136.231 18.2771 135.748 18.5807C135.274 18.8841 135.039 19.2718 135.039 19.7439C135.039 20.0362 135.179 20.2834 135.461 20.4857C135.742 20.6768 136.113 20.8285 136.574 20.9409C137.047 21.0421 137.575 21.1601 138.16 21.295C138.756 21.4298 139.364 21.5648 139.983 21.6996C140.613 21.8232 141.219 22.0256 141.804 22.3065C142.401 22.5763 142.93 22.891 143.39 23.2507C143.864 23.6104 144.241 24.0992 144.522 24.7175C144.802 25.3357 144.943 26.0494 144.943 26.8587C144.943 28.4322 144.296 29.7135 143.003 30.7027C141.721 31.6917 139.949 32.1863 137.688 32.1863C136.236 32.1863 134.847 31.9558 133.52 31.495C132.204 31.0342 131.108 30.3991 130.229 29.5898Z" fill="white"/>
<path fill-rule="evenodd" clip-rule="evenodd" d="M10.7647 22.5754V33.9075H9.31581V35.4678H1.44886V33.9075H0V21.4254V8.94336H14.5065H15.6979V10.4477H18.1466V12.5674H20.0805V19.3058H18.1466V21.0712H15.6979V22.5754H10.7647Z" fill="white"/>
<path fill-rule="evenodd" clip-rule="evenodd" d="M21.1585 7.55738V4.3747H17.4405V3.5293H4.38281V6.6436H17.4405V7.56981H19.8174V10.8084H23.3258V7.55738H21.1585Z" fill="white"/>
<path d="M10.7647 22.5754V33.9075H9.31581V35.4678H1.44886V33.9075H0V21.4254V8.94336H14.5065H15.6979V10.4477H18.1466V12.5674H20.0805V19.3058H18.1466V21.0712H15.6979V22.5754H10.7647Z" fill="#FDE85C"/>
<path d="M21.1585 7.55738V4.3747H17.4405V3.5293H4.38281V6.6436H17.4405V7.56981H19.8174V10.8084H23.3258V7.55738H21.1585Z" fill="#FDE85C"/>
</svg>
