<svg width="42" height="42" viewBox="0 0 42 42" fill="none" xmlns="http://www.w3.org/2000/svg">
<path d="M0 42L3.612 31.1647C1.77921 28.0821 0.724138 24.4846 0.724138 20.6379C0.724138 9.24 9.96414 0 21.3621 0C32.76 0 42 9.24 42 20.6379C42 32.0359 32.76 41.2759 21.3621 41.2759C17.8942 41.2759 14.6283 40.4163 11.76 38.9058L0 42Z" fill="#2CB742"/>
<path d="M34.5288 27.5064C33.5758 25.7054 30.0616 23.646 30.0616 23.646C29.2664 23.1927 28.307 23.142 27.8537 23.9501C27.8537 23.9501 26.7117 25.3195 26.4213 25.5164C25.0947 26.4151 23.8658 26.3803 22.6254 25.1399L19.7426 22.2571L16.8598 19.3743C15.6193 18.1339 15.5846 16.905 16.4832 15.5784C16.6802 15.288 18.0496 14.146 18.0496 14.146C18.8577 13.692 18.807 12.7332 18.3537 11.9381C18.3537 11.9381 16.2942 8.42389 14.4933 7.47092C13.7272 7.06541 12.7865 7.20734 12.1739 7.81996L10.9009 9.09299C6.86235 13.1315 8.85083 17.6907 12.8893 21.7292L16.5803 25.4201L20.2712 29.1111C24.3097 33.1496 28.8689 35.1381 32.9074 31.0995L34.1804 29.8265C34.7931 29.2124 34.9343 28.2718 34.5288 27.5064Z" fill="white"/>
</svg>
