<svg width="1440" height="1754" viewBox="0 0 1440 1754" fill="none" xmlns="http://www.w3.org/2000/svg">
<g opacity="0.07" clip-path="url(#clip0)">
<path d="M57.2442 461.436C59.1286 463.048 58.054 464.798 55.095 464.935C52.136 465.072 47.8296 462.385 49.4423 460.635C49.7976 460.566 50.1628 460.565 50.5183 460.634C51.6788 460.368 52.8837 460.363 54.0466 460.617C55.2096 460.872 56.3017 461.382 57.2448 462.108L57.2442 461.436Z" fill="#9A9A9A"/>
<path d="M142.228 431.501C144.247 432.979 143.98 434.997 140.752 435.403C137.524 435.81 131.469 432.855 133.216 430.836C133.557 430.514 133.973 430.283 134.426 430.162C135.747 429.814 137.127 429.754 138.473 429.985C139.819 430.216 141.099 430.733 142.228 431.501V431.501Z" fill="#9A9A9A"/>
<path d="M225.06 400.222C227.752 401.969 227.35 404.122 224.257 404.662C221.164 405.203 212.149 402.25 214.165 399.558C214.481 399.177 214.901 398.896 215.375 398.75C217.003 398.315 218.704 398.221 220.371 398.475C222.038 398.728 223.634 399.323 225.06 400.222V400.222Z" fill="#9A9A9A"/>
<path d="M306.68 367.33C310.044 369.346 309.777 371.768 306.684 372.577C300.901 373.927 292.155 370.033 294.305 367.071C294.678 366.571 295.193 366.196 295.783 365.994C299.621 364.908 303.733 365.388 307.218 367.33L306.68 367.33Z" fill="#9A9A9A"/>
<path d="M385.204 333.095C388.838 334.976 389.109 337.397 385.209 338.477C379.292 340.5 368.259 336.472 370.274 332.973C370.639 332.434 371.153 332.013 371.753 331.761C373.964 331.066 376.29 330.815 378.598 331.021C380.906 331.227 383.151 331.886 385.204 332.961L385.204 333.095Z" fill="#9A9A9A"/>
<path d="M460.903 297.652C464.94 299.532 465.48 301.953 462.118 303.167C456.202 305.324 444.093 301.432 445.839 297.799C446.133 297.252 446.608 296.823 447.183 296.587C451.636 295.299 456.401 295.629 460.634 297.518L460.903 297.652Z" fill="#9A9A9A"/>
<path d="M534.314 260.731C538.754 262.611 539.564 265.166 536.202 266.38C530.151 268.806 516.967 265.05 518.309 261.282C518.596 260.698 519.069 260.224 519.653 259.936C524.425 258.463 529.561 258.697 534.18 260.597L534.314 260.731Z" fill="#9A9A9A"/>
<path d="M603.958 222.467C608.533 224.212 609.746 226.633 606.518 228.116C600.602 230.676 586.88 227.324 587.953 223.556C588.167 222.968 588.6 222.486 589.162 222.21C593.951 220.535 599.166 220.531 603.958 222.198L603.958 222.467Z" fill="#9A9A9A"/>
<path d="M671.181 182.995C676.293 184.605 677.775 187.16 674.414 188.777C668.094 191.607 652.623 187.988 654.503 184.085C654.728 183.693 655.052 183.368 655.443 183.142C660.501 181.416 665.987 181.411 671.046 183.129L671.181 182.995Z" fill="#9A9A9A"/>
<path d="M734.232 142.718C739.479 144.194 741.364 146.748 738.272 148.231C732.49 151.195 716.212 148.249 717.554 144.077C717.736 143.621 718.068 143.241 718.495 143C723.601 141.293 729.123 141.289 734.232 142.987L734.232 142.718Z" fill="#9A9A9A"/>
<path d="M792.307 102.312C797.553 103.653 799.573 105.938 796.749 107.42C791.237 110.384 775.363 107.437 776.301 103.939C776.472 103.552 776.752 103.225 777.108 102.997C782.046 101.389 787.366 101.385 792.307 102.984L792.307 102.312Z" fill="#9A9A9A"/>
<path d="M845.808 61.6395C851.19 62.7114 853.343 64.8622 850.789 66.3441C845.949 69.1732 830.209 66.3607 830.745 63.4006C830.631 63.097 830.631 62.7626 830.744 62.4589C835.38 60.6676 840.462 60.381 845.27 61.6399L845.808 61.6395Z" fill="#9A9A9A"/>
<path d="M894.601 20.9714C899.848 21.9089 902.136 23.7905 899.985 25.2721C895.414 28.101 879.136 25.289 880.344 22.5973C884.62 20.9063 889.303 20.5278 893.795 21.5102L894.601 20.9714Z" fill="#9A9A9A"/>
<path d="M47.2317 554.944C51.5402 560.322 46.4331 565.438 38.0927 564.234C29.7523 563.03 23.2899 555.367 28.801 550.788C29.5125 550.331 30.281 549.968 31.0867 549.71C33.9319 549.004 36.9137 549.067 39.7268 549.892C42.54 550.717 45.0834 552.275 47.0968 554.406L47.2317 554.944Z" fill="#9A9A9A"/>
<path d="M141.496 524.06C146.612 529.572 142.312 535.091 133.3 534.56C124.287 534.029 115.134 525.83 119.838 521.118C120.713 520.263 121.77 519.618 122.93 519.232C126.147 518.363 129.533 518.338 132.762 519.16C135.991 519.982 138.953 521.624 141.362 523.926L141.496 524.06Z" fill="#9A9A9A"/>
<path d="M233.742 491.562C239.531 497.074 236.173 503.13 227.027 503.407C215.19 503.416 204.153 494.681 209.394 488.891C210.328 487.947 211.484 487.252 212.755 486.871C216.383 485.913 220.188 485.852 223.845 486.693C227.501 487.533 230.898 489.251 233.742 491.697L233.742 491.562Z" fill="#9A9A9A"/>
<path d="M323.566 457.588C330.296 463.367 327.208 469.693 317.389 470.239C304.611 470.249 291.96 461.515 297.066 455.322C297.977 454.289 299.132 453.502 300.427 453.032C304.377 451.984 308.513 451.85 312.522 452.639C316.532 453.428 320.308 455.121 323.566 457.588V457.588Z" fill="#9A9A9A"/>
<path d="M410.833 422.001C417.966 427.511 416.088 433.835 406.809 435.457C393.359 437.351 377.614 427.409 382.72 420.544C383.601 419.447 384.762 418.61 386.08 418.119C390.254 416.917 394.644 416.665 398.928 417.383C403.212 418.102 407.28 419.771 410.833 422.27L410.833 422.001Z" fill="#9A9A9A"/>
<path d="M495.408 384.936C503.348 390.311 501.874 396.904 492.325 398.392C478.876 400.689 461.113 390.883 465.411 383.615C466.275 382.469 467.438 381.584 468.772 381.056C473.267 379.689 478.007 379.327 482.657 379.998C487.306 380.668 491.752 382.354 495.677 384.936L495.408 384.936Z" fill="#9A9A9A"/>
<path d="M577.292 346.393C585.501 351.499 585.372 357.956 577.303 359.846C563.855 363.49 542.326 353.417 546.624 345.611C547.41 344.415 548.532 343.478 549.849 342.917C554.457 341.478 559.316 341.019 564.112 341.571C568.908 342.123 573.535 343.674 577.695 346.124L577.292 346.393Z" fill="#9A9A9A"/>
<path d="M656.35 306.238C665.366 311.209 665.64 317.935 657.168 320.498C643.721 324.545 619.905 314.609 623.799 307.072C624.51 305.83 625.591 304.841 626.891 304.244C631.727 302.677 636.83 302.106 641.893 302.564C646.956 303.022 651.874 304.501 656.35 306.911L656.35 306.238Z" fill="#9A9A9A"/>
<path d="M731.641 265.011C741.195 269.846 742.276 276.303 733.804 278.463C719.415 283.048 693.447 272.71 699.359 265.037C700.019 264.17 700.841 263.439 701.778 262.883C706.649 261.246 711.797 260.591 716.923 260.956C722.048 261.321 727.051 262.7 731.641 265.011V265.011Z" fill="#9A9A9A"/>
<path d="M804.106 222.036C814.197 226.602 815.817 233.462 807.48 236.294C793.226 241.149 766.316 231.349 770.883 222.87C771.464 221.982 772.247 221.244 773.168 220.716C778.157 218.888 783.459 218.063 788.768 218.29C794.077 218.516 799.29 219.789 804.106 222.036V222.036Z" fill="#9A9A9A"/>
<path d="M871.862 178.527C882.492 182.824 885.322 189.414 876.85 191.977C863.403 197.1 835.149 187.84 838.909 179.496C839.388 178.619 840.082 177.878 840.925 177.342C850.958 173.637 862.029 173.917 871.862 178.124L871.862 178.527Z" fill="#9A9A9A"/>
<path d="M934.238 134.889C944.464 138.647 947.696 144.295 941.781 147.529C930.353 153.726 899.275 145.141 902.093 136.664C902.477 135.805 903.079 135.063 903.839 134.51C913.568 130.711 924.368 130.702 934.103 134.485L934.238 134.889Z" fill="#9A9A9A"/>
<path d="M991.503 90.9847C1001.86 94.3396 1005.77 99.8523 1000.26 103.086C989.769 109.148 958.557 101.505 959.896 93.4318C960.161 92.582 960.676 91.8316 961.373 91.2781C970.936 87.5796 981.532 87.571 991.1 91.2541L991.503 90.9847Z" fill="#9A9A9A"/>
<path d="M1043.93 46.9497C1054.15 50.0357 1058.46 55.0099 1053.48 58.2427C1043.67 64.3046 1013.13 58.2753 1014.2 49.6644C1014.37 48.8759 1014.79 48.1656 1015.41 47.6454C1024.53 44.0215 1034.64 43.7748 1043.93 46.9497V46.9497Z" fill="#9A9A9A"/>
<path d="M1091.24 2.91943C1101.46 5.60183 1106.17 10.3067 1101.74 13.4045C1093 19.3311 1061.38 12.7645 1063.26 5.36366C1063.45 4.91433 1063.73 4.50384 1064.07 4.15221C1072.62 0.592921 1082.16 0.20357 1090.97 3.05421L1091.24 2.91943Z" fill="#9A9A9A"/>
<path d="M18.9367 661.517C24.5939 671.199 14.1092 679.817 0.790079 676.33C-12.529 672.843 -17.785 660.201 -8.77769 654.409C-7.55914 653.659 -6.24842 653.07 -4.87837 652.657C-0.479365 651.518 4.16331 651.757 8.42231 653.341C12.6813 654.926 16.3514 657.779 18.9367 661.517V661.517Z" fill="#9A9A9A"/>
<path d="M122.213 630.087C128.812 640.037 119.135 649.732 104.876 647.322C90.6159 644.912 80.3814 630.121 90.7327 622.982C92.023 622.121 93.4254 621.441 94.9007 620.961C99.7906 619.819 104.903 620.068 109.658 621.681C114.414 623.294 118.623 626.206 121.81 630.088L122.213 630.087Z" fill="#9A9A9A"/>
<path d="M222.933 597.045C231.012 607.667 221.47 617.899 205.731 615.759C189.992 613.619 178.142 598.023 188.493 590.212C189.813 589.251 191.262 588.48 192.796 587.922C198.169 586.467 203.843 586.552 209.171 588.165C214.499 589.778 219.267 592.855 222.933 597.045V597.045Z" fill="#9A9A9A"/>
<path d="M321.364 562.256C330.25 572.608 322.323 583.512 306.585 582.583C287.08 581.522 272.943 564.717 283.831 555.694C285.22 554.62 286.76 553.757 288.402 553.135C294.197 551.536 300.315 551.527 306.115 553.108C311.915 554.69 317.182 557.803 321.364 562.122L321.364 562.256Z" fill="#9A9A9A"/>
<path d="M417.642 525.72C427.873 536.474 420.35 548.05 403.401 547.391C382.821 546.601 366.397 529.259 377.15 519.699C378.531 518.578 380.072 517.67 381.721 517.004C387.949 515.206 394.539 515.064 400.838 516.593C407.138 518.121 412.93 521.267 417.642 525.72V525.72Z" fill="#9A9A9A"/>
<path d="M510.959 487.572C521.863 497.788 516.357 509.497 500.217 510.451C478.428 511.545 457.161 492.863 468.182 482.226C469.545 481.045 471.088 480.09 472.753 479.397C479.303 477.43 486.246 477.16 492.93 478.614C499.613 480.068 505.817 483.197 510.959 487.707L510.959 487.572Z" fill="#9A9A9A"/>
<path d="M601.72 447.676C613.834 458.026 609.002 470.137 592.324 471.496C569.728 473.263 546.174 454.313 556.925 443.139C558.261 441.853 559.807 440.805 561.496 440.041C568.346 437.939 575.606 437.549 582.642 438.904C589.678 440.258 596.274 443.317 601.855 447.811L601.72 447.676Z" fill="#9A9A9A"/>
<path d="M688.982 406.305C702.441 416.788 698.416 429.437 681.065 431.065C657.797 433.237 631.822 414.289 641.766 402.442C643.042 401.111 644.544 400.016 646.202 399.209C653.382 396.898 661.011 396.337 668.452 397.571C675.893 398.805 682.932 401.8 688.982 406.305V406.305Z" fill="#9A9A9A"/>
<path d="M773.014 363.321C786.473 372.862 784.734 385.106 769.268 388.078C746.137 392.536 715.453 373.188 724.859 360.535C726.077 359.162 727.535 358.021 729.16 357.168C736.449 354.738 744.201 354.03 751.809 355.097C759.418 356.165 766.675 358.979 773.014 363.321V363.321Z" fill="#9A9A9A"/>
<path d="M853.548 318.994C867.814 328.266 867.016 340.509 851.685 343.885C828.689 348.881 795.854 330.476 804.855 317.016C805.952 315.591 807.323 314.4 808.888 313.515C816.238 310.93 824.081 310.056 831.82 310.959C839.558 311.862 846.99 314.518 853.548 318.725L853.548 318.994Z" fill="#9A9A9A"/>
<path d="M930.719 273.057C945.925 282.058 945.936 294.57 930.739 298.214C907.878 303.883 873.026 285.749 881.085 272.424C882.09 270.978 883.368 269.743 884.848 268.789C892.333 266.059 900.331 265.026 908.263 265.764C916.196 266.502 923.866 268.993 930.719 273.057Z" fill="#9A9A9A"/>
<path d="M1002.51 226.584C1018.25 235.047 1019.34 247.154 1004.81 251.068C983.029 256.87 947.371 239.948 953.951 226.893C954.792 225.45 955.939 224.209 957.311 223.258C964.614 220.511 972.427 219.386 980.208 219.96C987.99 220.535 995.553 222.795 1002.37 226.585L1002.51 226.584Z" fill="#9A9A9A"/>
<path d="M1069.05 180.252C1084.26 187.773 1087.63 198.802 1075.93 203.386C1056.03 211.34 1015.66 194.825 1021.17 181.098C1021.86 179.714 1022.88 178.515 1024.12 177.597C1031.34 174.79 1039.08 173.573 1046.81 174.031C1054.54 174.489 1062.08 176.611 1068.92 180.252L1069.05 180.252Z" fill="#9A9A9A"/>
<path d="M1129.95 132.847C1145.55 139.83 1149.73 150.455 1138.84 155.038C1120.55 162.721 1079.79 147.552 1083.68 134.364C1084.15 132.999 1084.98 131.789 1086.09 130.865C1097.12 123.456 1118.24 127.475 1129.81 132.713L1129.95 132.847Z" fill="#9A9A9A"/>
<path d="M1185.46 85.9846C1200.93 92.4296 1206.05 102.515 1196.1 107.098C1178.49 115.184 1135.7 99.4781 1141.61 87.0963C1142.09 86.2983 1142.67 85.5728 1143.36 84.9424C1153.04 77.8043 1174.29 81.4195 1185.59 85.9845L1185.46 85.9846Z" fill="#9A9A9A"/>
<path d="M1235.59 38.7228C1251.06 44.6297 1256.86 54.1768 1247.71 58.7583C1231.58 66.8433 1188.93 52.4828 1193.9 40.5054C1194.29 39.7223 1194.78 38.9975 1195.37 38.3517C1204.11 31.349 1224.42 34.4268 1235.73 38.3191L1235.59 38.7228Z" fill="#9A9A9A"/>
<path d="M1280.21 -8.26535C1295.28 -3.03078 1301.61 5.84323 1293.68 10.1547C1279.42 17.8345 1238.12 5.08739 1241.07 -6.08118C1241.31 -6.81271 1241.67 -7.4964 1242.15 -8.10006C1249.81 -14.8329 1269.04 -12.2923 1280.35 -8.13095L1280.21 -8.26535Z" fill="#9A9A9A"/>
<path d="M84.5127 748.641C91.9227 763.568 76.3304 776.631 57.6293 770.995C38.9282 765.36 32.0511 744.11 47.3789 736.698L51.4129 735.08C57.6591 733.419 64.2754 733.83 70.2681 736.251C76.2608 738.672 81.3064 742.973 84.6471 748.507L84.5127 748.641Z" fill="#9A9A9A"/>
<path d="M193.84 715.323C203 731.459 186.87 745.733 166.017 739.965C145.164 734.197 136.537 712.14 152.537 703.248L156.705 701.496C163.521 699.573 170.768 699.834 177.428 702.241C184.089 704.649 189.828 709.082 193.84 714.919L193.84 715.323Z" fill="#9A9A9A"/>
<path d="M300.88 680.123C311.789 697.2 295.391 712.819 272.52 707.053C249.649 701.287 238.735 677.887 255.541 667.917C256.97 667.139 258.453 666.464 259.978 665.896C267.341 663.876 275.144 664.142 282.353 666.659C289.561 669.176 295.835 673.825 300.342 679.989L300.88 680.123Z" fill="#9A9A9A"/>
<path d="M405.496 643.042C417.346 659.58 403.102 676.139 380.233 672.66C354.943 668.779 339.858 644.844 354.779 632.321C356.76 630.864 358.931 629.685 361.232 628.818C369.198 626.536 377.659 626.656 385.557 629.162C393.455 631.668 400.438 636.45 405.631 642.908L405.496 643.042Z" fill="#9A9A9A"/>
<path d="M507.691 604.08C521.155 621.154 507.719 638.923 482.833 635.715C455.928 632.239 438.153 607.365 453.208 594.168C455.194 592.541 457.415 591.224 459.795 590.262C468.227 587.705 477.214 587.608 485.698 589.985C494.183 592.361 501.813 597.111 507.691 603.676L507.691 604.08Z" fill="#9A9A9A"/>
<path d="M606.521 563.371C621.196 580.041 610.315 597.943 586.103 597.021C556.645 595.834 533.488 569.081 549.213 554.269C551.17 552.532 553.395 551.122 555.801 550.093C564.666 547.399 574.107 547.226 583.065 549.595C592.023 551.964 600.145 556.781 606.521 563.506L606.521 563.371Z" fill="#9A9A9A"/>
<path d="M702.525 521.05C718.949 537.988 708.742 556.696 683.454 556.313C652.786 556.338 627.072 528.51 642.259 512.892C644.182 511.042 646.411 509.538 648.846 508.447C658.129 505.5 668.037 505.129 677.514 507.372C686.992 509.615 695.682 514.389 702.66 521.184L702.525 521.05Z" fill="#9A9A9A"/>
<path d="M795.3 476.445C812.934 493.247 803.669 513.031 778.112 513.051C746.772 513.077 718.369 486.193 732.883 469.365C734.713 467.49 736.849 465.941 739.201 464.786C748.745 461.578 758.971 460.967 768.829 463.016C778.687 465.065 787.823 469.699 795.3 476.445V476.445Z" fill="#9A9A9A"/>
<path d="M884.172 431.17C902.343 447.03 896.306 466.138 872.634 468.31C840.893 471.43 806.167 442.803 820.411 425.302C822.171 423.335 824.264 421.694 826.594 420.454C836.315 417.066 846.751 416.272 856.872 418.151C866.993 420.031 876.449 424.518 884.307 431.17L884.172 431.17Z" fill="#9A9A9A"/>
<path d="M969.546 384.014C989.062 399.604 984.37 419.115 960.43 421.96C928.421 425.753 891.274 397.531 904.441 379.358C906.077 377.299 908.082 375.564 910.355 374.241C920.242 370.634 930.888 369.626 941.276 371.314C951.663 373.001 961.444 377.328 969.681 383.88L969.546 384.014Z" fill="#9A9A9A"/>
<path d="M1051.02 335.248C1071.74 350.568 1068.26 370.212 1044.46 373.595C1012.72 378.06 973.554 350.512 985.376 332.072C986.842 329.97 988.716 328.184 990.886 326.821C1000.79 322.996 1011.5 321.751 1022.02 323.201C1032.54 324.651 1042.52 328.75 1051.02 335.113L1051.02 335.248Z" fill="#9A9A9A"/>
<path d="M1126.17 285.948C1147.57 300.595 1145.83 319.835 1122.97 323.485C1090.96 328.489 1048.97 299.464 1063.08 281.963C1064.17 280.757 1065.39 279.674 1066.71 278.732C1084.99 268.358 1112.44 276.677 1126.03 286.083L1126.17 285.948Z" fill="#9A9A9A"/>
<path d="M1196.61 236.383C1217.07 249.819 1218.69 267.173 1199.87 272.3C1171.63 279.991 1125.34 253.929 1134.06 235.088C1135.13 233.065 1136.65 231.315 1138.5 229.972C1155.3 219.599 1182.61 227.515 1196.74 236.382L1196.61 236.383Z" fill="#9A9A9A"/>
<path d="M1260.6 186.689C1281.45 198.915 1284.43 216.132 1266.68 221.259C1238.71 229.623 1190.26 202.486 1201.01 184.585C1201.85 183.388 1202.85 182.302 1203.96 181.354C1219.29 170.982 1246.33 178.225 1260.6 186.689Z" fill="#9A9A9A"/>
<path d="M1318.93 136.999C1339.79 148.418 1344.24 164.827 1327.7 170.087C1301.75 178.315 1253.04 153.062 1261.9 135.7C1262.57 134.569 1263.38 133.529 1264.32 132.604C1276.69 123.58 1302.25 127.73 1318.93 136.865L1318.93 136.999Z" fill="#9A9A9A"/>
<path d="M1371.48 87.1793C1392.21 97.7906 1398.41 113.391 1382.67 118.651C1358.6 127.146 1310.3 103.642 1317.28 86.8196C1317.83 85.6849 1318.56 84.6411 1319.43 83.7236C1331.52 73.8929 1357.22 79.7916 1371.62 87.0447L1371.48 87.1793Z" fill="#9A9A9A"/>
<path d="M1418.39 37.4986C1438.84 47.3029 1445.31 61.9617 1431.86 67.0848C1409.27 75.5786 1359.22 51.5378 1368.08 36.3285L1369.16 34.9823C1378.7 26.4991 1402.24 29.5743 1418.66 37.3639L1418.39 37.4986Z" fill="#9A9A9A"/>
<path d="M1459.64 -11.9078C1479.42 -3.04465 1486.56 10.4028 1474.59 14.9866C1454.42 23.2094 1405.98 1.58883 1412.97 -12.6773L1413.77 -14.0232C1422.78 -23.0442 1446.05 -18.4889 1459.77 -12.4461L1459.64 -11.9078Z" fill="#9A9A9A"/>
<path d="M29.4694 878.51C36.4794 897.742 14.8359 912.827 -6.28944 903.293C-27.4148 893.758 -28.9142 869.139 -9.28212 861.724L-6.86165 860.915C0.280461 859.059 7.84904 859.795 14.5003 862.991C21.1516 866.188 26.4552 871.638 29.4693 878.375L29.4694 878.51Z" fill="#9A9A9A"/>
<path d="M146.734 845.454C155.628 866.165 133.313 883 109.094 873.198C84.8744 863.397 82.1625 836.493 103.408 828.135L105.963 827.191C113.765 825.183 122.019 825.898 129.359 829.219C136.699 832.54 142.686 838.268 146.33 845.455L146.734 845.454Z" fill="#9A9A9A"/>
<path d="M261.843 810.248C272.083 831.361 251.249 849.675 225.686 842.027C200.124 834.379 190.819 805.193 211.39 793.741C213.089 792.872 214.841 792.107 216.633 791.45C225.168 789.226 234.197 789.86 242.337 793.255C250.478 796.649 257.282 802.618 261.709 810.248L261.843 810.248Z" fill="#9A9A9A"/>
<path d="M374.799 772.757C387.057 795.214 365.687 815.276 337.838 807.496C309.988 799.716 298.396 768.648 319.638 756.119C321.408 755.128 323.251 754.272 325.15 753.559C334.368 750.948 344.186 751.409 353.119 754.872C362.052 758.336 369.615 764.614 374.665 772.757L374.799 772.757Z" fill="#9A9A9A"/>
<path d="M485.064 733.787C499.341 757.319 477.837 778.996 447.836 771.352C417.834 763.708 403.954 731.028 425.733 717.557C427.591 716.478 429.523 715.533 431.515 714.727C441.36 711.783 451.888 712.056 461.567 715.508C471.246 718.96 479.572 725.411 485.333 733.922L485.064 733.787Z" fill="#9A9A9A"/>
<path d="M592.771 692.668C608.258 715.66 589.58 738.815 559.447 733.996C524.47 728.374 505.61 692.469 528.867 676.575C530.75 675.381 532.729 674.344 534.783 673.476C545.246 670.28 556.443 670.41 566.829 673.847C577.215 677.285 586.279 683.86 592.771 692.668Z" fill="#9A9A9A"/>
<path d="M697.383 649.533C715.023 673.331 696.75 698.1 664.734 693.551C627.74 688.335 605.516 651.087 629.31 633.982C631.237 632.705 633.26 631.579 635.36 630.614C646.396 627.095 658.242 627.02 669.322 630.399C680.401 633.779 690.189 640.453 697.383 649.533V649.533Z" fill="#9A9A9A"/>
<path d="M798.632 604.786C818.289 629.121 800.824 655.234 767.329 651.225C728.722 646.682 703.538 608.361 726.927 590.046C728.842 588.672 730.865 587.455 732.977 586.408C744.47 582.653 756.82 582.395 768.46 585.667C780.1 588.939 790.507 595.593 798.363 604.786L798.632 604.786Z" fill="#9A9A9A"/>
<path d="M896.38 558.159C918.325 583.165 901.803 610.488 866.694 607.018C826.338 603.015 798.194 563.754 821.448 544.363C823.355 542.897 825.378 541.591 827.498 540.457C839.441 536.339 852.327 535.809 864.568 538.931C876.808 542.053 887.867 548.69 896.38 558.025L896.38 558.159Z" fill="#9A9A9A"/>
<path d="M990.363 509.786C1012.71 533.176 1000.36 560.9 967.538 560.792C925.706 560.826 889.489 518.477 913.683 497.336C915.536 495.823 917.515 494.471 919.598 493.295C931.837 488.853 945.101 488.059 957.782 491.01C970.463 493.961 982.015 500.53 991.036 509.92L990.363 509.786Z" fill="#9A9A9A"/>
<path d="M1080.17 459.801C1104.27 483.325 1093.67 511.72 1060.17 512.285C1017.8 512.32 978.495 470.781 1000.94 448.699C1002.72 447.08 1004.66 445.636 1006.72 444.389C1033.61 430.914 1065.64 445.687 1080.17 459.801V459.801Z" fill="#9A9A9A"/>
<path d="M1165.14 408.879C1190.45 431.729 1181.32 460.392 1148.5 461.629C1106.67 463.143 1065.21 421.337 1086.04 399.526C1087.69 397.881 1089.49 396.394 1091.42 395.082C1116.83 381.608 1149.8 395.035 1165.14 408.476L1165.14 408.879Z" fill="#9A9A9A"/>
<path d="M1244.59 356.481C1271.51 378.658 1264.27 407.05 1232.26 408.69C1191.91 410.875 1147.89 370.686 1166.57 348.204C1168.07 346.556 1169.74 345.067 1171.54 343.76C1195.34 330.287 1228.58 342.907 1244.59 356.481V356.481Z" fill="#9A9A9A"/>
<path d="M1317.45 304.493C1343.03 324.653 1341.16 350.619 1313.73 354.946C1275.26 360.897 1224.93 320.712 1241.99 297.424C1243.31 295.832 1244.79 294.387 1246.42 293.115C1268.34 279.644 1301.17 291.591 1317.59 304.493L1317.45 304.493Z" fill="#9A9A9A"/>
<path d="M1383.99 252.376C1409.7 271.324 1409.72 296.078 1384.03 300.539C1348.26 306.891 1297.65 268.993 1311.76 246.784C1312.85 245.252 1314.11 243.852 1315.52 242.61C1335.15 229.141 1367.3 240.416 1383.72 252.645L1383.99 252.376Z" fill="#9A9A9A"/>
<path d="M1444.61 200.262C1470.32 218.134 1472.35 241.81 1448.55 246.403C1413.32 253.158 1360.96 214.186 1377.76 193.589L1379.64 191.57C1397.11 178.102 1428.19 188.84 1444.61 200.262Z" fill="#9A9A9A"/>
<path d="M1499.18 148.154C1524.62 164.681 1528.27 187.01 1506.48 191.737C1474.07 198.624 1422.12 162.342 1436.09 142.555L1437.71 140.67C1453.03 128.146 1482.9 137.539 1499.18 148.154Z" fill="#9A9A9A"/>
<path d="M81.8801 986.228C89.027 1008.55 64.2916 1025.93 41.5508 1014.78C18.81 1003.63 17.3068 974.441 39.6284 966.217L42.4524 965.407C50.5644 963.265 59.1823 964.208 66.6392 968.054C74.0961 971.9 79.862 978.375 82.8216 986.227L81.8801 986.228Z" fill="#9A9A9A"/>
<path d="M204.389 951.554C213.285 975.494 187.207 994.753 161.506 983.204C135.806 971.655 133.36 940.445 157.025 930.874L159.983 929.796C168.748 927.474 178.054 928.381 186.206 932.35C194.357 936.32 200.81 943.088 204.389 951.42L204.389 951.554Z" fill="#9A9A9A"/>
<path d="M325.012 914.864C335.928 940.82 308.775 962.232 280.115 950.148C251.455 938.063 247.527 904.298 272.537 893.515L275.63 892.302C285.181 889.693 295.345 890.523 304.346 894.647C313.348 898.77 320.615 905.926 324.878 914.864L325.012 914.864Z" fill="#9A9A9A"/>
<path d="M443.078 875.888C456.551 903.456 428.054 926.888 396.973 914.402C365.892 901.915 359.944 866.134 386.029 854.14L389.256 852.926C399.514 849.977 410.477 850.665 420.286 854.874C430.095 859.083 438.147 866.555 443.078 876.023L443.078 875.888Z" fill="#9A9A9A"/>
<path d="M558.721 834.762C573.271 862.464 548.004 887.642 515.176 878.252C479.255 867.922 467.788 826.898 496.83 812.749L500.326 811.266C511.283 808.031 523.011 808.591 533.61 812.855C544.209 817.12 553.057 824.839 558.721 834.762V834.762Z" fill="#9A9A9A"/>
<path d="M671.807 791.485C688.779 820.934 663.11 848.265 627.592 838.876C588.98 828.549 574.553 785.106 604.67 769.342L608.3 767.724C620.022 764.093 632.618 764.457 644.111 768.757C655.604 773.057 665.345 781.051 671.807 791.485V791.485Z" fill="#9A9A9A"/>
<path d="M781.126 746.329C800.115 776.314 774.314 806.202 737.317 797.083C696.957 786.891 679.03 741.299 709.684 724.323L713.315 722.571C725.59 718.741 738.774 718.986 750.899 723.268C763.024 727.55 773.438 735.64 780.588 746.329L781.126 746.329Z" fill="#9A9A9A"/>
<path d="M887.752 699.156C908.222 729.14 886.591 760.369 848.924 754.749C805.473 748.327 779.879 700.992 808.511 679.712C810.771 678.132 813.154 676.735 815.637 675.536C828.693 671.177 842.804 671.133 855.886 675.411C868.969 679.688 880.329 688.06 888.29 699.29L887.752 699.156Z" fill="#9A9A9A"/>
<path d="M990.476 650.103C1013.5 681.296 992.545 714.408 952.996 709.193C907.662 703.311 878.3 654.499 906.259 631.337C908.502 629.613 910.885 628.081 913.384 626.757C927.034 621.943 941.861 621.597 955.72 625.77C969.579 629.943 981.751 638.418 990.475 649.969L990.476 650.103Z" fill="#9A9A9A"/>
<path d="M1089.3 599.17C1114.88 631.302 1095 666.431 1053.7 661.756C1006.35 656.548 972.954 606.125 1001.05 581.079C1003.29 579.275 1005.67 577.653 1008.17 576.23C1040.04 561.809 1075.43 580.884 1088.89 598.901L1089.3 599.17Z" fill="#9A9A9A"/>
<path d="M1184.08 546.357C1212.36 579.294 1193.55 616.44 1150.64 612.574C1099.53 607.906 1062.63 551.163 1095.16 526.921L1099.06 524.497C1131.33 508.73 1168.2 527.804 1184.22 546.357L1184.08 546.357Z" fill="#9A9A9A"/>
<path d="M1274.29 492.201C1304.05 524.6 1286.99 563.628 1244.22 560.434C1192.43 556.709 1152.17 499.43 1183.49 474.248L1187.25 471.688C1218.85 454.981 1257.33 473.65 1274.43 492.201L1274.29 492.201Z" fill="#9A9A9A"/>
<path d="M1355.63 438.053C1384.7 467.761 1374.38 504.093 1336.45 505.335C1288.02 506.719 1240.23 453.214 1264.42 424.673C1266.29 422.626 1268.36 420.776 1270.6 419.153C1299.91 402.447 1337.86 420.175 1355.49 438.188L1355.63 438.053Z" fill="#9A9A9A"/>
<path d="M1430.5 384.18C1459.58 412.005 1452.34 446.72 1417.1 448.094C1369.89 450.016 1320.62 394.359 1346.96 369.449L1349.92 366.89C1376.14 350.591 1412.74 366.84 1430.64 384.18L1430.5 384.18Z" fill="#9A9A9A"/>
<path d="M1499.06 330.177C1527.73 356.118 1523.32 388.813 1490.9 390.723C1447.32 393.18 1398.19 341.694 1420.63 317.325L1423.18 314.901C1446.44 299.142 1481.43 314.854 1498.93 330.177L1499.06 330.177Z" fill="#9A9A9A"/>
<path d="M0.355146 1136.3C1.2474 1141.41 0.568275 1146.68 -1.5927 1151.41C-3.75367 1156.13 -7.29505 1160.09 -11.7499 1162.76C-16.2047 1165.42 -21.3638 1166.68 -26.5469 1166.36C-31.7301 1166.04 -36.694 1164.15 -40.7841 1160.95C-45.1566 1158.61 -48.7118 1155 -50.9741 1150.59C-53.2364 1146.17 -54.0981 1141.18 -53.444 1136.26C-52.7899 1131.35 -50.6511 1126.75 -47.3137 1123.08C-43.9763 1119.41 -39.5993 1116.85 -34.7679 1115.74C-27.3938 1113.99 -19.6288 1115.15 -13.0873 1118.98C-6.54583 1122.81 -1.73129 1129.01 0.355146 1136.3V1136.3Z" fill="#9A9A9A"/>
<path d="M129.993 1102.69C131.248 1108.07 130.871 1113.69 128.912 1118.84C126.954 1124 123.501 1128.45 118.997 1131.63C114.493 1134.82 109.142 1136.58 103.63 1136.71C98.1167 1136.83 92.6924 1135.3 88.051 1132.33C82.8102 1130.47 78.2725 1127.04 75.0615 1122.5C71.8505 1117.96 70.1241 1112.54 70.1197 1106.98C70.1152 1101.42 71.8328 1096 75.0364 1091.45C78.24 1086.91 82.7722 1083.47 88.0099 1081.61L90.8339 1080.66C99.104 1078.45 107.907 1079.51 115.421 1083.61C122.936 1087.71 128.586 1094.54 131.204 1102.69L129.993 1102.69Z" fill="#9A9A9A"/>
<path d="M257.209 1066.81C265.434 1091.96 238.683 1111.89 213.251 1099.53C187.819 1087.18 186.313 1054.49 210.382 1044.65L213.34 1043.57C222.216 1041.27 231.628 1042.37 239.739 1046.64C247.851 1050.91 254.079 1058.05 257.209 1066.67L257.209 1066.81Z" fill="#9A9A9A"/>
<path d="M382.673 1028.36C392.783 1055.26 364.555 1078.15 336.163 1064.99C307.771 1051.83 303.034 1015.78 333.827 1004.32C343.5 1001.51 353.876 1002.41 362.914 1006.86C371.953 1011.31 379.001 1018.98 382.673 1028.36V1028.36Z" fill="#9A9A9A"/>
<path d="M505.176 987.903C517.037 1016.95 488.003 1041.73 457.324 1028.3C426.646 1014.87 419.755 976.403 452.295 963.461C462.607 960.52 473.634 961.4 483.349 965.94C493.065 970.48 500.815 978.374 505.177 988.172L505.176 987.903Z" fill="#9A9A9A"/>
<path d="M625.258 945.428C638.733 976.36 609.432 1002.89 576.198 989.057C542.963 975.227 534.859 934.066 568.072 920.586C579.049 917.33 590.826 918.081 601.3 922.706C611.775 927.33 620.266 935.526 625.258 945.832L625.258 945.428Z" fill="#9A9A9A"/>
<path d="M742.109 900.669C757.333 931.33 730.992 959.469 696.55 949.272C658.879 938.002 646.736 892.674 677.122 876.775L680.753 875.158C692.364 871.576 704.863 872.181 716.074 876.867C727.286 881.553 736.498 890.024 742.109 900.804L742.109 900.669Z" fill="#9A9A9A"/>
<path d="M856.132 853.087C873.51 885.361 847.036 915.652 810.442 905.323C770.081 894.189 755.784 846.442 786.841 829.062L790.606 827.175C802.824 823.238 816.028 823.655 827.974 828.354C839.92 833.053 849.869 841.745 856.132 852.953L856.132 853.087Z" fill="#9A9A9A"/>
<path d="M966.255 804.97C985.786 838.452 959.717 870.761 921.24 860.703C879.399 849.839 861.873 800.076 893.333 781.351L897.098 779.33C909.816 775.016 923.631 775.21 936.224 779.878C948.817 784.547 959.42 793.407 966.255 804.97V804.97Z" fill="#9A9A9A"/>
<path d="M1072.74 754.03C1094.16 788.05 1068.23 822.78 1028.81 813.126C985.353 802.398 965.001 751.023 996.325 730.953L1000.09 728.797C1013.26 724.111 1027.64 724.058 1040.85 728.645C1054.06 733.232 1065.31 742.187 1072.74 754.03V754.03Z" fill="#9A9A9A"/>
<path d="M1174.93 701.345C1198.49 736.305 1173.64 772.918 1132.61 763.668C1087.27 753.481 1063.96 700.359 1095.28 678.808L1099.05 676.518C1130.24 663.04 1162.13 682.521 1174.79 701.346L1174.93 701.345Z" fill="#9A9A9A"/>
<path d="M1272.67 646.916C1296.91 680.529 1277.44 717.272 1237.89 712.461C1190.27 706.715 1159.28 648.891 1191.01 625.322L1194.77 622.897C1225.7 607.939 1258.94 627.823 1272.67 646.916Z" fill="#9A9A9A"/>
<path d="M1365.43 590.875C1391.29 624.487 1373.7 662.036 1334.01 658.166C1286.53 653.227 1253.26 595.405 1283.23 571.03L1286.86 568.471C1316.98 552.572 1351.03 572.052 1365.57 591.009L1365.43 590.875Z" fill="#9A9A9A"/>
<path d="M1450.94 534.705C1477.86 566.971 1462.83 603.98 1424.89 600.513C1379.02 596.379 1343.47 540.308 1371.02 515.935L1374.25 513.511C1401.95 497.614 1435.72 516.421 1450.8 534.84L1450.94 534.705Z" fill="#9A9A9A"/>
<path d="M1529.85 478.273C1556.77 509.328 1545.37 545.526 1509.32 542.461C1465.74 538.999 1428.57 484.947 1453.43 460.98L1456.39 458.556C1481.66 442.929 1514.63 460.661 1529.98 478.272L1529.85 478.273Z" fill="#9A9A9A"/>
<path d="M39.5994 1262.59C40.4291 1267.26 39.8209 1272.07 37.8553 1276.39C35.8897 1280.71 32.6595 1284.32 28.5925 1286.76C24.5255 1289.2 19.8136 1290.35 15.0809 1290.05C10.3481 1289.75 5.81777 1288.02 2.08992 1285.09C-1.80357 1282.77 -4.92121 1279.35 -6.86742 1275.26C-8.81363 1271.17 -9.50077 1266.59 -8.84151 1262.11C-8.18225 1257.62 -6.20636 1253.44 -3.16458 1250.08C-0.122805 1246.72 3.84784 1244.34 8.24342 1243.24C11.5736 1242.42 15.0338 1242.28 18.422 1242.81C21.8102 1243.34 25.0586 1244.54 27.9775 1246.34C30.8965 1248.14 33.4275 1250.51 35.4229 1253.3C37.4183 1256.09 38.8381 1259.25 39.5994 1262.59V1262.59Z" fill="#9A9A9A"/>
<path d="M173.272 1227.91C174.169 1232.97 173.6 1238.18 171.632 1242.92C169.665 1247.66 166.38 1251.75 162.167 1254.68C157.954 1257.62 152.989 1259.29 147.857 1259.5C142.726 1259.7 137.643 1258.43 133.209 1255.84C128.776 1253.25 125.176 1249.44 122.837 1244.87C120.497 1240.3 119.514 1235.15 120.006 1230.04C120.497 1224.92 122.441 1220.06 125.608 1216.01C128.775 1211.97 133.034 1208.92 137.88 1207.22C145.312 1205.36 153.177 1206.48 159.791 1210.35C166.406 1214.22 171.244 1220.52 173.272 1227.91Z" fill="#9A9A9A"/>
<path d="M304.655 1190.81C306.142 1196.05 305.999 1201.63 304.246 1206.79C302.493 1211.96 299.212 1216.47 294.839 1219.72C290.466 1222.98 285.206 1224.83 279.757 1225.03C274.308 1225.23 268.927 1223.77 264.327 1220.84C242.125 1209.56 239.409 1178.21 265.9 1169.04C273.936 1166.98 282.46 1168.08 289.701 1172.14C296.943 1176.19 302.346 1182.88 304.79 1190.81L304.655 1190.81Z" fill="#9A9A9A"/>
<path d="M434.02 1151.42C435.798 1157.02 435.828 1163.03 434.104 1168.65C432.381 1174.27 428.986 1179.23 424.373 1182.87C419.76 1186.52 414.147 1188.67 408.282 1189.04C402.417 1189.41 396.578 1187.98 391.543 1184.95C367.187 1173 362.855 1138.96 391.497 1128.45C400.215 1126.01 409.536 1127.02 417.528 1131.28C425.52 1135.53 431.57 1142.69 434.423 1151.28L434.02 1151.42Z" fill="#9A9A9A"/>
<path d="M560.558 1109.75C562.659 1115.63 562.908 1122.01 561.269 1128.04C559.63 1134.06 556.183 1139.44 551.393 1143.45C546.603 1147.46 540.699 1149.9 534.479 1150.45C528.258 1150.99 522.019 1149.62 516.604 1146.51C490.769 1134.56 484.955 1097.56 514.134 1085.97C523.461 1083.37 533.425 1084.37 542.049 1088.78C550.673 1093.18 557.327 1100.66 560.692 1109.75L560.558 1109.75Z" fill="#9A9A9A"/>
<path d="M684.403 1065.79C687.164 1071.93 687.901 1078.79 686.507 1085.38C685.112 1091.97 681.659 1097.94 676.647 1102.44C671.634 1106.94 665.322 1109.72 658.622 1110.4C651.923 1111.07 645.182 1109.59 639.376 1106.18C611.658 1093.96 604.228 1054.69 634.347 1041.88C644.219 1039 654.812 1039.89 664.064 1044.38C673.316 1048.87 680.566 1056.65 684.404 1066.19L684.403 1065.79Z" fill="#9A9A9A"/>
<path d="M804.885 1019.68C817.688 1049.54 790.135 1075.66 759.456 1062.63C728.778 1049.61 720.406 1009.52 751.735 995.372C762.049 992.19 773.174 992.923 782.981 997.433C792.787 1001.94 800.587 1009.91 804.885 1019.81L804.885 1019.68Z" fill="#9A9A9A"/>
<path d="M922.137 971.557C925.586 977.906 926.9 985.196 925.884 992.35C924.867 999.503 921.575 1006.14 916.494 1011.27C911.412 1016.41 904.813 1019.77 897.672 1020.86C890.531 1021.96 883.228 1020.72 876.845 1017.34C845.494 1003.91 834.297 962.48 866.297 946.983C877.001 943.502 888.609 944.067 898.924 948.571C909.24 953.075 917.546 961.205 922.272 971.423L922.137 971.557Z" fill="#9A9A9A"/>
<path d="M1035.89 921.284C1039.72 927.364 1041.54 934.497 1041.08 941.668C1040.63 948.84 1037.92 955.686 1033.35 961.232C1028.78 966.778 1022.58 970.743 1015.63 972.562C1008.68 974.381 1001.34 973.962 994.636 971.364C958.714 960.9 945.63 915.438 973.863 898.598L977.224 896.847C988.302 893.101 1000.36 893.515 1011.16 898.012C1021.95 902.509 1030.74 910.781 1035.89 921.284V921.284Z" fill="#9A9A9A"/>
<path d="M1145.47 868.997C1162.31 900.33 1139.2 930.753 1105.16 921.497C1068.16 911.303 1052.93 864.498 1080.89 846.717L1084.25 844.831C1095.62 840.818 1108.05 841.055 1119.25 845.497C1130.45 849.939 1139.67 858.287 1145.2 868.997L1145.47 868.997Z" fill="#9A9A9A"/>
<path d="M1250.61 814.964C1268.93 846.699 1246.9 878.467 1212.46 869.481C1178.02 860.495 1155.38 811.14 1188.32 791.337C1199.79 787.077 1212.41 787.108 1223.86 791.426C1235.31 795.743 1244.81 804.056 1250.61 814.83L1250.61 814.964Z" fill="#9A9A9A"/>
<path d="M1351.31 758.514C1370.98 790.517 1350.29 823.09 1315.58 814.643C1280.87 806.195 1256.21 756.438 1288.61 735.694C1314.7 723.027 1341.21 741.302 1351.72 758.379L1351.31 758.514Z" fill="#9A9A9A"/>
<path d="M1447.31 701.394C1468.05 733.262 1449.11 766.372 1414.4 758.732C1379.69 751.091 1353.28 701.335 1383.8 679.92C1409.08 666.446 1436.13 684.452 1447.17 701.528L1447.31 701.394Z" fill="#9A9A9A"/>
<path d="M75.3525 1396.69C76.0098 1400.41 75.5271 1404.24 73.9679 1407.68C72.4086 1411.11 69.8457 1414 66.6163 1415.95C63.3869 1417.9 59.6421 1418.83 55.8743 1418.62C52.1065 1418.4 48.4921 1417.05 45.5063 1414.74C42.529 1412.72 40.1883 1409.89 38.7576 1406.59C37.3269 1403.29 36.8653 1399.65 37.4266 1396.09C37.9878 1392.54 39.5489 1389.21 41.9275 1386.51C44.306 1383.81 47.4039 1381.84 50.8592 1380.84C53.5193 1380.25 56.2707 1380.19 58.9518 1380.68C61.6329 1381.17 64.1896 1382.18 66.4716 1383.67C68.7535 1385.16 70.7148 1387.1 72.2399 1389.35C73.765 1391.61 74.8233 1394.15 75.3526 1396.83L75.3525 1396.69Z" fill="#9A9A9A"/>
<path d="M212.386 1361.07C213.252 1365.2 212.834 1369.5 211.189 1373.38C209.544 1377.27 206.75 1380.57 203.182 1382.82C199.614 1385.08 195.442 1386.19 191.224 1386.01C187.007 1385.83 182.945 1384.36 179.583 1381.81C176.157 1379.66 173.418 1376.58 171.692 1372.92C169.966 1369.27 169.325 1365.19 169.846 1361.18C170.367 1357.18 172.027 1353.4 174.63 1350.31C177.233 1347.21 180.669 1344.93 184.529 1343.73C187.497 1343.03 190.573 1342.93 193.582 1343.42C196.59 1343.91 199.472 1345 202.061 1346.61C204.65 1348.22 206.894 1350.32 208.666 1352.81C210.439 1355.29 211.703 1358.09 212.386 1361.07V1361.07Z" fill="#9A9A9A"/>
<path d="M347.94 1323.02C349.097 1327.52 348.827 1332.28 347.167 1336.62C345.508 1340.97 342.54 1344.69 338.675 1347.28C334.809 1349.87 330.236 1351.19 325.586 1351.06C320.937 1350.94 316.44 1349.38 312.717 1346.59C308.831 1344.35 305.675 1341.03 303.629 1337.04C301.583 1333.05 300.735 1328.55 301.186 1324.08C301.637 1319.62 303.369 1315.38 306.172 1311.88C308.976 1308.38 312.731 1305.76 316.988 1304.34C323.566 1302.75 330.507 1303.82 336.303 1307.31C342.099 1310.81 346.28 1316.45 347.94 1323.02V1323.02Z" fill="#9A9A9A"/>
<path d="M480.665 1282.68C481.841 1287.22 481.66 1292 480.144 1296.44C478.628 1300.87 475.844 1304.77 472.137 1307.63C468.431 1310.5 463.964 1312.22 459.291 1312.57C454.618 1312.92 449.945 1311.9 445.85 1309.62C441.264 1307.56 437.382 1304.2 434.685 1299.96C431.987 1295.72 430.593 1290.78 430.675 1285.75C430.757 1280.73 432.311 1275.84 435.145 1271.68C437.979 1267.53 441.968 1264.3 446.619 1262.4C453.73 1260.57 461.274 1261.6 467.636 1265.27C473.999 1268.93 478.675 1274.94 480.665 1282.01L480.665 1282.68Z" fill="#9A9A9A"/>
<path d="M610.7 1239.93C612.425 1244.77 612.628 1250.02 611.28 1254.98C609.932 1259.94 607.099 1264.36 603.161 1267.66C599.224 1270.96 594.37 1272.98 589.254 1273.44C584.138 1273.9 579.004 1272.78 574.542 1270.23C569.347 1268.35 564.857 1264.91 561.683 1260.39C558.508 1255.87 556.803 1250.48 556.798 1244.95C556.794 1239.43 558.49 1234.03 561.658 1229.51C564.825 1224.98 569.309 1221.54 574.501 1219.65C582.078 1217.55 590.175 1218.49 597.064 1222.28C603.953 1226.07 609.088 1232.41 611.373 1239.93L610.7 1239.93Z" fill="#9A9A9A"/>
<path d="M738.042 1194.9C739.812 1199.95 740.035 1205.41 738.684 1210.59C737.333 1215.77 734.469 1220.42 730.457 1223.97C726.446 1227.51 721.469 1229.77 716.164 1230.47C710.859 1231.17 705.467 1230.27 700.675 1227.89C678.608 1217.41 673.739 1184.45 698.345 1174.08C706.387 1171.74 715.024 1172.61 722.431 1176.52C729.838 1180.43 735.436 1187.07 738.042 1195.03L738.042 1194.9Z" fill="#9A9A9A"/>
<path d="M861.885 1147.71C864.576 1152.91 865.495 1158.85 864.503 1164.63C863.51 1170.4 860.662 1175.69 856.388 1179.7C852.115 1183.71 846.652 1186.21 840.827 1186.83C835.003 1187.44 829.136 1186.14 824.117 1183.12C800.839 1172.51 794.624 1138.21 819.902 1126.62C828.268 1124.03 837.312 1124.78 845.139 1128.71C852.965 1132.64 858.967 1139.45 861.885 1147.71V1147.71Z" fill="#9A9A9A"/>
<path d="M982.499 1098.37C985.19 1103.66 986.14 1109.66 985.214 1115.52C984.287 1121.38 981.532 1126.8 977.341 1130.99C973.15 1135.19 967.74 1137.96 961.883 1138.89C956.026 1139.83 950.023 1138.89 944.733 1136.21C919.84 1125.2 912.145 1089.68 938.363 1076.88C947.072 1074.13 956.506 1074.82 964.719 1078.82C972.932 1082.82 979.296 1089.82 982.499 1098.37V1098.37Z" fill="#9A9A9A"/>
<path d="M1099.08 1046.89C1102.31 1052.17 1103.73 1058.37 1103.14 1064.53C1102.54 1070.7 1099.95 1076.5 1095.75 1081.07C1091.56 1085.63 1086 1088.71 1079.91 1089.83C1073.82 1090.95 1067.52 1090.05 1061.98 1087.28C1036.28 1076.4 1027.24 1039.95 1053.6 1026.21C1062.47 1023.24 1072.14 1023.78 1080.63 1027.73C1089.11 1031.68 1095.76 1038.72 1099.21 1047.42L1099.08 1046.89Z" fill="#9A9A9A"/>
<path d="M1212.02 993.386C1224.82 1020.28 1202.65 1046.4 1175.47 1035.39C1148.29 1024.38 1138.57 986.988 1164.65 972.437C1173.73 969.242 1183.69 969.631 1192.49 973.523C1201.29 977.416 1208.27 984.52 1212.02 993.386Z" fill="#9A9A9A"/>
<path d="M1320.25 937.871C1333.72 964.767 1314.91 990.209 1288.54 982.427C1262.17 974.646 1245.6 933.223 1272.22 917.192C1281.37 913.843 1291.45 914.119 1300.41 917.964C1309.36 921.808 1316.51 928.929 1320.39 937.871L1320.25 937.871Z" fill="#9A9A9A"/>
<path d="M1424.05 880.611C1437.52 907.506 1420.59 933.216 1394.36 926.107C1368.12 918.998 1350.2 877.441 1376.01 860.738C1396.72 850.632 1416.37 866.222 1424.18 880.476L1424.05 880.611Z" fill="#9A9A9A"/>
<path d="M108.421 1537.79C108.967 1540.25 108.733 1542.82 107.751 1545.14C106.77 1547.46 105.089 1549.41 102.944 1550.73C100.799 1552.05 98.2957 1552.67 95.7831 1552.5C93.2705 1552.33 90.8736 1551.38 88.9264 1549.78C86.9814 1548.42 85.4593 1546.54 84.5342 1544.35C83.6091 1542.16 83.3184 1539.76 83.6955 1537.41C84.0725 1535.07 85.1021 1532.88 86.6663 1531.09C88.2305 1529.3 90.2661 1527.99 92.54 1527.31C96.0155 1526.63 99.618 1527.35 102.566 1529.31C105.514 1531.28 107.569 1534.32 108.286 1537.79L108.421 1537.79Z" fill="#9A9A9A"/>
<path d="M248.952 1501.49C250.021 1504.36 250.08 1507.51 249.117 1510.41C248.155 1513.32 246.229 1515.81 243.658 1517.48C241.088 1519.14 238.026 1519.88 234.98 1519.57C231.933 1519.26 229.084 1517.92 226.904 1515.77C224.628 1514.22 222.831 1512.07 221.719 1509.56C220.608 1507.04 220.225 1504.26 220.616 1501.54C221.006 1498.82 222.154 1496.26 223.928 1494.16C225.702 1492.06 228.031 1490.5 230.649 1489.66C232.639 1489.19 234.705 1489.13 236.72 1489.48C238.735 1489.83 240.657 1490.59 242.37 1491.71C244.082 1492.83 245.549 1494.28 246.681 1495.99C247.812 1497.69 248.585 1499.61 248.952 1501.62L248.952 1501.49Z" fill="#9A9A9A"/>
<path d="M387.328 1462.76C388.247 1465.9 388.148 1469.25 387.045 1472.33C385.941 1475.41 383.891 1478.06 381.188 1479.9C378.484 1481.74 375.268 1482.68 371.999 1482.58C368.731 1482.47 365.579 1481.34 362.996 1479.33C360.337 1477.66 358.204 1475.28 356.84 1472.45C355.476 1469.62 354.938 1466.47 355.286 1463.35C355.635 1460.23 356.857 1457.27 358.811 1454.81C360.766 1452.36 363.373 1450.5 366.334 1449.46C368.597 1448.93 370.944 1448.85 373.236 1449.24C375.528 1449.63 377.718 1450.48 379.676 1451.73C381.634 1452.99 383.321 1454.62 384.635 1456.54C385.95 1458.46 386.866 1460.62 387.328 1462.9L387.328 1462.76Z" fill="#9A9A9A"/>
<path d="M523.417 1421.49C524.365 1424.72 524.327 1428.17 523.306 1431.38C522.286 1434.6 520.33 1437.44 517.689 1439.53C515.048 1441.63 511.841 1442.89 508.479 1443.15C505.118 1443.42 501.754 1442.67 498.817 1441.01C495.674 1439.4 493.057 1436.92 491.275 1433.86C489.493 1430.81 488.62 1427.31 488.759 1423.78C488.897 1420.24 490.041 1416.82 492.057 1413.92C494.072 1411.02 496.875 1408.75 500.135 1407.38C502.591 1406.74 505.151 1406.6 507.663 1406.96C510.175 1407.33 512.588 1408.19 514.759 1409.51C516.93 1410.82 518.815 1412.56 520.302 1414.62C521.79 1416.68 522.849 1419.01 523.417 1421.49V1421.49Z" fill="#9A9A9A"/>
<path d="M656.275 1377.93C657.551 1381.4 657.724 1385.19 656.772 1388.77C655.82 1392.35 653.788 1395.55 650.953 1397.93C648.118 1400.32 644.618 1401.77 640.929 1402.09C637.239 1402.42 633.54 1401.6 630.333 1399.74C626.802 1398.16 623.802 1395.6 621.696 1392.35C619.59 1389.11 618.467 1385.32 618.464 1381.45C618.461 1377.59 619.577 1373.8 621.678 1370.55C623.779 1367.3 626.775 1364.73 630.304 1363.15C632.979 1362.31 635.797 1362.04 638.582 1362.34C641.368 1362.64 644.062 1363.51 646.498 1364.9C648.933 1366.28 651.058 1368.15 652.74 1370.4C654.422 1372.64 655.625 1375.2 656.275 1377.93V1377.93Z" fill="#9A9A9A"/>
<path d="M786.979 1331.94C788.39 1335.6 788.654 1339.59 787.735 1343.4C786.816 1347.2 784.759 1350.64 781.837 1353.24C778.916 1355.85 775.269 1357.5 771.385 1357.97C767.5 1358.45 763.562 1357.73 760.097 1355.91C756.285 1354.19 753.051 1351.4 750.782 1347.88C748.513 1344.36 747.305 1340.27 747.302 1336.08C747.298 1331.89 748.5 1327.8 750.763 1324.28C753.027 1320.75 756.256 1317.96 760.065 1316.23C765.715 1314.82 771.69 1315.68 776.718 1318.61C781.745 1321.55 785.427 1326.33 786.979 1331.94V1331.94Z" fill="#9A9A9A"/>
<path d="M914.05 1283.55C915.508 1287.26 915.83 1291.33 914.976 1295.23C914.121 1299.13 912.129 1302.69 909.251 1305.46C906.373 1308.23 902.738 1310.08 898.807 1310.78C894.877 1311.48 890.826 1311 887.169 1309.4C883.156 1307.68 879.71 1304.87 877.228 1301.28C874.747 1297.69 873.331 1293.47 873.145 1289.11C872.959 1284.75 874.009 1280.42 876.175 1276.63C878.341 1272.84 881.535 1269.74 885.387 1267.69C888.353 1266.78 891.471 1266.47 894.558 1266.78C897.646 1267.09 900.641 1268 903.371 1269.48C906.101 1270.95 908.51 1272.96 910.459 1275.37C912.407 1277.79 913.857 1280.56 914.722 1283.54L914.05 1283.55Z" fill="#9A9A9A"/>
<path d="M1037.62 1233.26C1039.43 1237.14 1040.01 1241.48 1039.27 1245.7C1038.53 1249.91 1036.51 1253.8 1033.49 1256.83C1030.47 1259.86 1026.58 1261.88 1022.37 1262.63C1018.16 1263.38 1013.82 1262.81 1009.94 1261C1005.95 1260.05 1002.3 1258.06 999.343 1255.23C996.388 1252.4 994.242 1248.83 993.125 1244.9C992.008 1240.96 991.961 1236.8 992.99 1232.84C994.018 1228.88 996.084 1225.26 998.975 1222.36C1001.87 1219.47 1005.48 1217.4 1009.44 1216.36C1013.39 1215.33 1017.56 1215.37 1021.49 1216.48C1025.43 1217.59 1029 1219.73 1031.84 1222.68C1034.67 1225.63 1036.67 1229.28 1037.62 1233.26V1233.26Z" fill="#9A9A9A"/>
<path d="M1157.43 1180.7C1165.11 1200.87 1148.18 1218.91 1129.74 1210.32C1111.31 1201.72 1106.04 1174.42 1125.26 1164.31C1128.45 1163.26 1131.81 1162.85 1135.16 1163.11C1138.51 1163.37 1141.77 1164.28 1144.76 1165.81C1147.75 1167.33 1150.41 1169.43 1152.58 1171.99C1154.75 1174.54 1156.4 1177.5 1157.43 1180.7V1180.7Z" fill="#9A9A9A"/>
<path d="M1273.06 1126.12C1281.41 1146.7 1264.88 1165.55 1246.18 1157.22C1227.48 1148.89 1221.27 1120.38 1240.09 1109.87C1243.33 1108.73 1246.76 1108.24 1250.19 1108.45C1253.62 1108.65 1256.97 1109.53 1260.05 1111.04C1263.13 1112.56 1265.88 1114.67 1268.14 1117.26C1270.4 1119.85 1272.11 1122.86 1273.19 1126.12L1273.06 1126.12Z" fill="#9A9A9A"/>
<path d="M1384.38 1069.53C1393.28 1090.24 1377.42 1109.89 1358.32 1101.57C1339.21 1093.24 1332.46 1064.59 1350.74 1053.54C1353.99 1052.37 1357.44 1051.86 1360.89 1052.03C1364.34 1052.2 1367.72 1053.05 1370.83 1054.54C1373.95 1056.02 1376.74 1058.11 1379.04 1060.69C1381.35 1063.26 1383.12 1066.26 1384.25 1069.53L1384.38 1069.53Z" fill="#9A9A9A"/>
<path d="M1491.27 1010.78C1500.84 1031.76 1485.79 1051.15 1466.55 1043.9C1447.31 1036.65 1439.62 1006.79 1457.5 995.205C1460.73 993.982 1464.18 993.415 1467.64 993.538C1471.1 993.661 1474.5 994.471 1477.65 995.921C1480.79 997.37 1483.61 999.431 1485.95 1001.98C1488.29 1004.53 1490.1 1007.53 1491.27 1010.78V1010.78Z" fill="#9A9A9A"/>
<path d="M138.939 1686.16C139.087 1686.96 138.986 1687.79 138.65 1688.54C138.314 1689.28 137.759 1689.91 137.06 1690.33C136.36 1690.76 135.547 1690.96 134.731 1690.91C133.914 1690.86 133.131 1690.57 132.486 1690.06C131.862 1689.58 131.379 1688.93 131.088 1688.19C130.797 1687.46 130.709 1686.66 130.832 1685.87C130.954 1685.09 131.284 1684.36 131.787 1683.74C132.29 1683.13 132.947 1682.67 133.691 1682.39C134.866 1682.19 136.072 1682.46 137.052 1683.14C138.032 1683.82 138.71 1684.85 138.939 1686.02L138.939 1686.16Z" fill="#9A9A9A"/>
<path d="M282.429 1649.18C282.649 1650.29 282.527 1651.45 282.08 1652.49C281.633 1653.54 280.882 1654.42 279.923 1655.04C278.965 1655.65 277.844 1655.95 276.709 1655.92C275.573 1655.88 274.474 1655.5 273.556 1654.83C272.743 1654.31 272.075 1653.59 271.614 1652.73C271.153 1651.88 270.913 1650.93 270.917 1649.96C270.921 1648.99 271.167 1648.04 271.635 1647.19C272.102 1646.34 272.775 1645.62 273.592 1645.1C274.409 1644.58 275.343 1644.27 276.309 1644.21C277.276 1644.14 278.243 1644.32 279.123 1644.73C280.002 1645.13 280.766 1645.75 281.344 1646.53C281.921 1647.31 282.295 1648.22 282.429 1649.18Z" fill="#9A9A9A"/>
<path d="M423.899 1609.65C424.28 1611.08 424.205 1612.59 423.686 1613.98C423.167 1615.36 422.228 1616.56 421.002 1617.38C419.775 1618.21 418.32 1618.64 416.84 1618.61C415.36 1618.57 413.927 1618.07 412.741 1617.19C411.603 1616.37 410.71 1615.26 410.158 1613.98C409.605 1612.69 409.415 1611.28 409.608 1609.89C409.801 1608.51 410.37 1607.2 411.252 1606.12C412.134 1605.03 413.296 1604.21 414.613 1603.73C415.622 1603.48 416.674 1603.43 417.701 1603.6C418.728 1603.77 419.709 1604.15 420.582 1604.72C421.454 1605.29 422.199 1606.03 422.771 1606.9C423.342 1607.77 423.726 1608.75 423.899 1609.78L423.899 1609.65Z" fill="#9A9A9A"/>
<path d="M562.946 1567.69C563.417 1569.32 563.396 1571.06 562.886 1572.68C562.376 1574.29 561.398 1575.73 560.077 1576.79C558.756 1577.86 557.149 1578.51 555.459 1578.66C553.769 1578.81 552.071 1578.47 550.579 1577.66C548.996 1576.78 547.689 1575.49 546.806 1573.91C545.923 1572.33 545.499 1570.54 545.581 1568.73C545.664 1566.93 546.25 1565.18 547.273 1563.69C548.296 1562.2 549.716 1561.03 551.372 1560.3C552.62 1559.96 553.924 1559.89 555.202 1560.09C556.48 1560.28 557.703 1560.74 558.792 1561.44C559.882 1562.13 560.814 1563.05 561.529 1564.13C562.245 1565.2 562.727 1566.42 562.946 1567.69V1567.69Z" fill="#9A9A9A"/>
<path d="M699.435 1523.32C700.03 1525.22 700.05 1527.25 699.492 1529.16C698.935 1531.07 697.825 1532.78 696.302 1534.06C694.779 1535.34 692.911 1536.14 690.933 1536.36C688.955 1536.59 686.956 1536.22 685.187 1535.31C683.317 1534.31 681.767 1532.8 680.712 1530.96C679.658 1529.12 679.143 1527.02 679.225 1524.9C679.307 1522.78 679.984 1520.73 681.179 1518.98C682.373 1517.22 684.036 1515.84 685.978 1514.99C687.419 1514.63 688.917 1514.57 690.382 1514.81C691.848 1515.04 693.251 1515.57 694.508 1516.36C695.764 1517.15 696.849 1518.19 697.695 1519.4C698.542 1520.62 699.134 1522 699.435 1523.46L699.435 1523.32Z" fill="#9A9A9A"/>
<path d="M832.157 1476.67C833.087 1478.69 833.348 1480.96 832.904 1483.14C832.46 1485.32 831.333 1487.31 829.687 1488.81C828.04 1490.3 825.96 1491.24 823.746 1491.48C821.532 1491.72 819.299 1491.25 817.372 1490.13C815.33 1489.12 813.611 1487.56 812.409 1485.62C811.207 1483.68 810.569 1481.45 810.567 1479.17C810.566 1476.89 811.2 1474.66 812.399 1472.72C813.598 1470.78 815.314 1469.22 817.354 1468.2C818.892 1467.78 820.499 1467.68 822.078 1467.9C823.656 1468.13 825.172 1468.67 826.533 1469.5C827.894 1470.33 829.071 1471.43 829.992 1472.73C830.913 1474.03 831.558 1475.51 831.888 1477.07L832.157 1476.67Z" fill="#9A9A9A"/>
<path d="M962.589 1427.46C965.826 1438.62 956.149 1447.78 946.326 1442.67C944.042 1441.48 942.129 1439.68 940.793 1437.48C939.458 1435.27 938.751 1432.74 938.748 1430.17C938.746 1427.59 939.449 1425.06 940.781 1422.85C942.113 1420.65 944.024 1418.85 946.305 1417.65C948.045 1417.16 949.865 1417.03 951.656 1417.27C953.447 1417.5 955.173 1418.09 956.731 1419.01C958.288 1419.92 959.645 1421.14 960.721 1422.6C961.797 1424.05 962.569 1425.7 962.992 1427.46L962.589 1427.46Z" fill="#9A9A9A"/>
<path d="M1088.85 1376.23C1092.49 1387.93 1082.28 1398.03 1072.18 1392.79C1069.64 1391.64 1067.47 1389.81 1065.9 1387.49C1064.34 1385.17 1063.45 1382.47 1063.34 1379.68C1063.23 1376.89 1063.89 1374.12 1065.26 1371.68C1066.63 1369.25 1068.64 1367.24 1071.09 1365.89C1072.9 1365.25 1074.84 1365.01 1076.75 1365.19C1078.67 1365.37 1080.53 1365.95 1082.2 1366.91C1083.87 1367.86 1085.31 1369.16 1086.44 1370.73C1087.56 1372.29 1088.34 1374.07 1088.71 1375.96L1088.85 1376.23Z" fill="#9A9A9A"/>
<path d="M1211.34 1322.59C1215.39 1334.96 1205.31 1345.6 1194.54 1340.36C1191.96 1339.1 1189.76 1337.17 1188.16 1334.78C1186.56 1332.39 1185.62 1329.62 1185.44 1326.75C1185.26 1323.88 1185.84 1321.01 1187.13 1318.44C1188.42 1315.87 1190.37 1313.68 1192.77 1312.11C1194.68 1311.52 1196.69 1311.32 1198.67 1311.54C1200.66 1311.75 1202.58 1312.36 1204.32 1313.35C1206.06 1314.33 1207.58 1315.65 1208.78 1317.24C1209.99 1318.83 1210.86 1320.65 1211.34 1322.59V1322.59Z" fill="#9A9A9A"/>
<path d="M1329.93 1266.93C1334.38 1280.38 1324.3 1291.42 1313.14 1286.05C1310.45 1284.73 1308.16 1282.74 1306.47 1280.28C1304.78 1277.81 1303.76 1274.95 1303.5 1271.98C1303.24 1269 1303.75 1266.01 1304.99 1263.29C1306.23 1260.57 1308.14 1258.21 1310.56 1256.45C1312.51 1255.77 1314.59 1255.51 1316.66 1255.68C1318.72 1255.84 1320.73 1256.44 1322.55 1257.42C1324.37 1258.41 1325.97 1259.76 1327.24 1261.4C1328.51 1263.04 1329.43 1264.92 1329.93 1266.93Z" fill="#9A9A9A"/>
<path d="M1443.95 1209.12C1448.8 1222.57 1438.86 1234.29 1427.56 1229.05C1424.82 1227.71 1422.45 1225.71 1420.69 1223.22C1418.93 1220.73 1417.82 1217.84 1417.47 1214.81C1417.12 1211.78 1417.54 1208.71 1418.69 1205.89C1419.83 1203.06 1421.67 1200.57 1424.03 1198.65C1426.01 1197.94 1428.11 1197.65 1430.2 1197.8C1432.29 1197.94 1434.33 1198.52 1436.19 1199.49C1438.04 1200.46 1439.68 1201.81 1440.99 1203.44C1442.31 1205.08 1443.27 1206.97 1443.81 1208.99L1443.95 1209.12Z" fill="#9A9A9A"/>
<path d="M738.297 1676.12L737.893 1675.98L738.162 1675.45L738.7 1675.71L738.297 1676.12Z" fill="#9A9A9A"/>
<path d="M873.573 1629.73L871.959 1629.06L872.764 1627.17L874.244 1628.25L873.573 1629.73Z" fill="#9A9A9A"/>
<path d="M1005.62 1581.6L1002.66 1579.85L1003.87 1576.35L1006.96 1578.23L1005.62 1581.6Z" fill="#9A9A9A"/>
<path d="M1134.3 1530.37L1130.27 1528.35L1131.88 1523.78L1135.91 1525.93L1134.3 1530.37Z" fill="#9A9A9A"/>
<path d="M1259.08 1476.59L1254.64 1474.44L1256.25 1469.19L1260.69 1471.61L1259.08 1476.59Z" fill="#9A9A9A"/>
<path d="M1382.65 1415.41C1383.73 1419.04 1380.9 1422.95 1377.54 1421.07C1376.79 1420.58 1376.17 1419.91 1375.75 1419.12C1375.32 1418.34 1375.1 1417.46 1375.1 1416.56C1375.1 1415.67 1375.32 1414.79 1375.74 1414C1376.17 1413.21 1376.78 1412.54 1377.53 1412.05C1378.13 1411.85 1378.77 1411.77 1379.4 1411.84C1380.03 1411.9 1380.64 1412.1 1381.19 1412.42C1381.74 1412.73 1382.21 1413.17 1382.58 1413.68C1382.95 1414.2 1383.2 1414.79 1383.32 1415.41L1382.65 1415.41Z" fill="#9A9A9A"/>
</g>
<defs>
<clipPath id="clip0">
<rect width="3589.2" height="2378.81" fill="white" transform="translate(-1215 -625.097) rotate(-0.0463355)"/>
</clipPath>
</defs>
</svg>
