<svg width="100" height="101" viewBox="0 0 100 101" fill="none" xmlns="http://www.w3.org/2000/svg">
<circle cx="50" cy="50.1304" r="50" fill="white"/>
<g clip-path="url(#clip0_121_4)">
<path d="M52.56 27.1196L52.5621 33.6111C56.298 34.0834 59.7707 35.785 62.4332 38.4479C65.0957 41.1108 66.7968 44.5837 67.2686 48.3196H73.76V52.5596L67.2686 52.5617C66.7963 56.2973 65.095 59.7697 62.4326 62.4322C59.7701 65.0947 56.2977 66.796 52.5621 67.2682L52.56 73.7596H48.32V67.2682C44.584 66.7964 41.1111 65.0953 38.4482 62.4328C35.7854 59.7703 34.0838 56.2976 33.6114 52.5617L27.12 52.5596V48.3196H33.6114C34.0833 44.5834 35.7847 41.1102 38.4477 38.4473C41.1106 35.7844 44.5837 34.083 48.32 33.6111V27.1196H52.56ZM50.44 46.1996C49.3155 46.1996 48.237 46.6463 47.4419 47.4415C46.6467 48.2367 46.2 49.3151 46.2 50.4396C46.2 51.5641 46.6467 52.6426 47.4419 53.4378C48.237 54.2329 49.3155 54.6796 50.44 54.6796C51.5645 54.6796 52.643 54.2329 53.4381 53.4378C54.2333 52.6426 54.68 51.5641 54.68 50.4396C54.68 49.3151 54.2333 48.2367 53.4381 47.4415C52.643 46.6463 51.5645 46.1996 50.44 46.1996Z" fill="#34296B"/>
</g>
<defs>
<clipPath id="clip0_121_4">
<rect width="50.88" height="50.88" fill="white" transform="translate(25 24.9995)"/>
</clipPath>
</defs>
</svg>
