<svg width="207" height="87" viewBox="0 0 207 87" fill="none" xmlns="http://www.w3.org/2000/svg">
<g filter="url(#filter0_d_190_8310)">
<rect x="14" y="10" width="179" height="59" rx="29.5" fill="white" shape-rendering="crispEdges"/>
<g clip-path="url(#clip0_190_8310)">
<rect x="34" y="26.2856" width="37" height="26.4286" rx="5.28571" fill="white"/>
<path d="M52.8614 46.7548H52.136L52.3173 43.8529C52.3071 43.7 52.2337 43.6599 51.9546 43.6715L49.0526 44.0342C49.0526 44.0342 49.5967 43.3087 49.5967 42.946C49.5967 42.5833 46.332 40.2254 46.332 40.2254C46.332 40.2254 47.0575 40.044 47.2389 39.8627C47.4203 39.6813 46.5134 37.6862 46.5134 37.6862C46.5134 37.6862 48.3566 38.4117 48.5085 38.2303C48.6604 38.0489 48.8712 37.3234 48.8712 37.3234C48.8712 37.3234 50.3222 38.9558 50.685 38.9558C51.0477 38.9558 49.9595 34.9656 49.9595 34.9656C49.9595 34.9656 50.8663 35.6911 51.2291 35.6911C51.5918 35.6911 52.4987 33.3333 52.4987 33.3333C52.4987 33.3333 53.4056 35.6911 53.5869 35.6911C53.7683 35.6911 55.0379 34.9656 55.0379 34.9656C55.0379 34.9656 54.1311 38.7744 54.3124 38.9558C54.4938 39.1372 56.1261 37.3234 56.1261 37.3234C56.1261 37.3234 56.3075 38.0489 56.4889 38.2303C56.6703 38.4117 58.484 37.6862 58.484 37.6862C58.484 37.6862 57.5771 39.6813 57.7585 39.8627C57.9399 40.044 58.6654 40.2254 58.6654 40.2254C58.6654 40.2254 55.4007 42.5833 55.4007 42.946C55.4007 43.3087 55.7634 44.0342 55.7634 44.0342L53.0428 43.6715C52.8241 43.6088 52.7483 43.6564 52.6801 43.8529L52.8614 46.7548Z" fill="#F93939"/>
<rect x="62.1914" y="26.2856" width="8.80952" height="26.4286" fill="#F93939"/>
<rect x="34" y="26.2856" width="8.80952" height="26.4286" fill="#F93939"/>
</g>
<path d="M100.456 47.288C103.288 47.288 105.208 45.944 106.552 44.12L104.848 43.184C103.936 44.552 102.28 45.512 100.456 45.512C96.952 45.512 94.288 42.8 94.288 39.008C94.288 35.192 96.952 32.504 100.456 32.504C102.28 32.504 103.936 33.488 104.848 34.832L106.528 33.896C105.256 32.096 103.288 30.728 100.456 30.728C95.848 30.728 92.224 34.088 92.224 39.008C92.224 43.928 95.848 47.288 100.456 47.288ZM118.067 47V39.032C118.067 36.224 116.027 35.12 113.579 35.12C111.683 35.12 110.195 35.744 108.947 37.04L109.787 38.288C110.819 37.184 111.947 36.68 113.339 36.68C115.019 36.68 116.267 37.568 116.267 39.128V41.216C115.331 40.136 114.011 39.632 112.427 39.632C110.459 39.632 108.371 40.856 108.371 43.448C108.371 45.968 110.459 47.288 112.427 47.288C113.987 47.288 115.307 46.736 116.267 45.68V47H118.067ZM113.075 45.992C111.395 45.992 110.219 44.936 110.219 43.472C110.219 41.984 111.395 40.928 113.075 40.928C114.347 40.928 115.571 41.408 116.267 42.368V44.552C115.571 45.512 114.347 45.992 113.075 45.992ZM131.299 47V38.864C131.299 36.344 130.027 35.12 127.603 35.12C125.875 35.12 124.291 36.128 123.475 37.088V35.408H121.675V47H123.475V38.528C124.147 37.592 125.491 36.728 126.907 36.728C128.467 36.728 129.499 37.376 129.499 39.416V47H131.299ZM143.942 47V39.032C143.942 36.224 141.902 35.12 139.454 35.12C137.558 35.12 136.07 35.744 134.822 37.04L135.662 38.288C136.694 37.184 137.822 36.68 139.214 36.68C140.894 36.68 142.142 37.568 142.142 39.128V41.216C141.206 40.136 139.886 39.632 138.302 39.632C136.334 39.632 134.246 40.856 134.246 43.448C134.246 45.968 136.334 47.288 138.302 47.288C139.862 47.288 141.182 46.736 142.142 45.68V47H143.942ZM138.95 45.992C137.27 45.992 136.094 44.936 136.094 43.472C136.094 41.984 137.27 40.928 138.95 40.928C140.222 40.928 141.446 41.408 142.142 42.368V44.552C141.446 45.512 140.222 45.992 138.95 45.992ZM157.75 47V30.992H155.95V37.16C155.014 35.888 153.598 35.12 152.038 35.12C148.99 35.12 146.878 37.52 146.878 41.216C146.878 44.984 149.014 47.288 152.038 47.288C153.67 47.288 155.086 46.448 155.95 45.272V47H157.75ZM152.47 45.68C150.142 45.68 148.75 43.784 148.75 41.216C148.75 38.648 150.142 36.728 152.47 36.728C153.91 36.728 155.302 37.592 155.95 38.6V43.856C155.302 44.864 153.91 45.68 152.47 45.68ZM170.403 47V39.032C170.403 36.224 168.363 35.12 165.915 35.12C164.019 35.12 162.531 35.744 161.283 37.04L162.123 38.288C163.155 37.184 164.283 36.68 165.675 36.68C167.355 36.68 168.603 37.568 168.603 39.128V41.216C167.667 40.136 166.347 39.632 164.763 39.632C162.795 39.632 160.707 40.856 160.707 43.448C160.707 45.968 162.795 47.288 164.763 47.288C166.323 47.288 167.643 46.736 168.603 45.68V47H170.403ZM165.411 45.992C163.731 45.992 162.555 44.936 162.555 43.472C162.555 41.984 163.731 40.928 165.411 40.928C166.683 40.928 167.907 41.408 168.603 42.368V44.552C167.907 45.512 166.683 45.992 165.411 45.992Z" fill="#121212"/>
</g>
<defs>
<filter id="filter0_d_190_8310" x="0" y="0" width="207" height="87" filterUnits="userSpaceOnUse" color-interpolation-filters="sRGB">
<feFlood flood-opacity="0" result="BackgroundImageFix"/>
<feColorMatrix in="SourceAlpha" type="matrix" values="0 0 0 0 0 0 0 0 0 0 0 0 0 0 0 0 0 0 127 0" result="hardAlpha"/>
<feOffset dy="4"/>
<feGaussianBlur stdDeviation="7"/>
<feComposite in2="hardAlpha" operator="out"/>
<feColorMatrix type="matrix" values="0 0 0 0 0.0958333 0 0 0 0 0.0958333 0 0 0 0 0.0958333 0 0 0 0.08 0"/>
<feBlend mode="normal" in2="BackgroundImageFix" result="effect1_dropShadow_190_8310"/>
<feBlend mode="normal" in="SourceGraphic" in2="effect1_dropShadow_190_8310" result="shape"/>
</filter>
<clipPath id="clip0_190_8310">
<rect x="34" y="26.2856" width="37" height="26.4286" rx="5.28571" fill="white"/>
</clipPath>
</defs>
</svg>
