<svg width="186" height="87" viewBox="0 0 186 87" fill="none" xmlns="http://www.w3.org/2000/svg">
<g filter="url(#filter0_d_190_8314)">
<rect x="14" y="10" width="158" height="59" rx="29.5" fill="white" shape-rendering="crispEdges"/>
<g clip-path="url(#clip0_190_8314)">
<rect x="34" y="26.2856" width="37" height="26.4286" rx="5.28571" fill="#F93939"/>
<path d="M67.4762 26.2856H37.5238C35.5777 26.2856 34 27.8633 34 29.8095V49.1904C34 51.1366 35.5777 52.7142 37.5238 52.7142H67.4762C69.4223 52.7142 71 51.1366 71 49.1904V29.8095C71 27.8633 69.4223 26.2856 67.4762 26.2856Z" fill="#F93939"/>
<path fill-rule="evenodd" clip-rule="evenodd" d="M43.6898 39.0241L41.0998 40.3861L41.5931 37.5019L39.5 35.4581L42.3948 35.0405L43.6898 32.4152L44.983 35.0405L47.8779 35.4581L45.7812 37.5019L46.278 40.3843L43.6898 39.0241ZM49.86 31.5713H51.6219V33.3332H49.86V31.5713ZM51.6219 35.0951H53.3838V36.857H51.6219V35.0951ZM51.6219 38.6189H53.3838V40.3808H51.6219V38.6189ZM49.86 42.1427H51.6219V43.9046H49.86V42.1427Z" fill="#FFDA2C"/>
</g>
<path d="M100.456 47.288C103.288 47.288 105.208 45.944 106.552 44.12L104.848 43.184C103.936 44.552 102.28 45.512 100.456 45.512C96.952 45.512 94.288 42.8 94.288 39.008C94.288 35.192 96.952 32.504 100.456 32.504C102.28 32.504 103.936 33.488 104.848 34.832L106.528 33.896C105.256 32.096 103.288 30.728 100.456 30.728C95.848 30.728 92.224 34.088 92.224 39.008C92.224 43.928 95.848 47.288 100.456 47.288ZM118.667 47V38.816C118.667 36.296 117.395 35.12 114.971 35.12C113.219 35.12 111.635 36.128 110.819 37.088V30.992H109.019V47H110.819V38.528C111.515 37.592 112.859 36.728 114.251 36.728C115.811 36.728 116.867 37.328 116.867 39.368V47H118.667ZM123.149 33.752C123.821 33.752 124.373 33.224 124.373 32.552C124.373 31.88 123.821 31.328 123.149 31.328C122.501 31.328 121.949 31.88 121.949 32.552C121.949 33.224 122.501 33.752 123.149 33.752ZM124.061 47V35.408H122.261V47H124.061ZM137.276 47V38.864C137.276 36.344 136.004 35.12 133.58 35.12C131.852 35.12 130.268 36.128 129.452 37.088V35.408H127.652V47H129.452V38.528C130.124 37.592 131.468 36.728 132.884 36.728C134.444 36.728 135.476 37.376 135.476 39.416V47H137.276ZM149.918 47V39.032C149.918 36.224 147.878 35.12 145.43 35.12C143.534 35.12 142.046 35.744 140.798 37.04L141.638 38.288C142.67 37.184 143.798 36.68 145.19 36.68C146.87 36.68 148.118 37.568 148.118 39.128V41.216C147.182 40.136 145.862 39.632 144.278 39.632C142.31 39.632 140.222 40.856 140.222 43.448C140.222 45.968 142.31 47.288 144.278 47.288C145.838 47.288 147.158 46.736 148.118 45.68V47H149.918ZM144.926 45.992C143.246 45.992 142.07 44.936 142.07 43.472C142.07 41.984 143.246 40.928 144.926 40.928C146.198 40.928 147.422 41.408 148.118 42.368V44.552C147.422 45.512 146.198 45.992 144.926 45.992Z" fill="#121212"/>
</g>
<defs>
<filter id="filter0_d_190_8314" x="0" y="0" width="186" height="87" filterUnits="userSpaceOnUse" color-interpolation-filters="sRGB">
<feFlood flood-opacity="0" result="BackgroundImageFix"/>
<feColorMatrix in="SourceAlpha" type="matrix" values="0 0 0 0 0 0 0 0 0 0 0 0 0 0 0 0 0 0 127 0" result="hardAlpha"/>
<feOffset dy="4"/>
<feGaussianBlur stdDeviation="7"/>
<feComposite in2="hardAlpha" operator="out"/>
<feColorMatrix type="matrix" values="0 0 0 0 0.0958333 0 0 0 0 0.0958333 0 0 0 0 0.0958333 0 0 0 0.08 0"/>
<feBlend mode="normal" in2="BackgroundImageFix" result="effect1_dropShadow_190_8314"/>
<feBlend mode="normal" in="SourceGraphic" in2="effect1_dropShadow_190_8314" result="shape"/>
</filter>
<clipPath id="clip0_190_8314">
<rect x="34" y="26.2856" width="37" height="26.4286" rx="5.28571" fill="white"/>
</clipPath>
</defs>
</svg>
