<svg width="295" height="87" viewBox="0 0 295 87" fill="none" xmlns="http://www.w3.org/2000/svg">
<g filter="url(#filter0_d_190_8298)">
<rect x="14" y="10" width="267" height="59" rx="29.5" fill="white" shape-rendering="crispEdges"/>
<g clip-path="url(#clip0_190_8298)">
<rect x="34" y="26.2856" width="37" height="26.4286" rx="5.28571" fill="#1A47B8"/>
<path fill-rule="evenodd" clip-rule="evenodd" d="M37.936 26.2856H34V30.6904L67.0426 52.7142L71 52.7142V48.3095L37.936 26.2856Z" fill="white"/>
<path d="M35.3128 26.2856L71 50.1338V52.7142H69.718L34 28.8414V26.2856H35.3128Z" fill="#F93939"/>
<path fill-rule="evenodd" clip-rule="evenodd" d="M67.4762 26.2856H71V30.6904C71 30.6904 48.1125 45.3636 37.5238 52.7142H34V48.3095L67.4762 26.2856Z" fill="white"/>
<path d="M71 26.2856H69.805L34 50.1543V52.7142H35.3128L71 28.8607V26.2856Z" fill="#F93939"/>
<path fill-rule="evenodd" clip-rule="evenodd" d="M47.4558 26.2856H57.575V34.4377H71V44.5568H57.575V52.7142H47.4558V44.5568H34V34.4377H47.4558V26.2856Z" fill="white"/>
<path fill-rule="evenodd" clip-rule="evenodd" d="M49.5789 26.2856H55.4211V36.4505H71V42.5494H55.4211V52.7142H49.5789V42.5494H34V36.4505H49.5789V26.2856Z" fill="#F93939"/>
</g>
<path d="M99.4 47.288C103.744 47.288 105.928 44.744 105.928 40.76V30.992H103.936V40.736C103.936 43.664 102.352 45.512 99.4 45.512C96.448 45.512 94.864 43.664 94.864 40.736V30.992H92.872V40.784C92.872 44.72 95.056 47.288 99.4 47.288ZM119.229 47V38.864C119.229 36.344 117.957 35.12 115.533 35.12C113.805 35.12 112.221 36.128 111.405 37.088V35.408H109.605V47H111.405V38.528C112.077 37.592 113.421 36.728 114.837 36.728C116.397 36.728 117.429 37.376 117.429 39.416V47H119.229ZM123.711 33.752C124.383 33.752 124.935 33.224 124.935 32.552C124.935 31.88 124.383 31.328 123.711 31.328C123.063 31.328 122.511 31.88 122.511 32.552C122.511 33.224 123.063 33.752 123.711 33.752ZM124.623 47V35.408H122.823V47H124.623ZM131.142 47.288C132.198 47.288 132.846 46.976 133.302 46.544L132.774 45.2C132.534 45.464 132.054 45.68 131.55 45.68C130.758 45.68 130.374 45.056 130.374 44.192V36.992H132.726V35.408H130.374V32.24H128.574V35.408H126.654V36.992H128.574V44.576C128.574 46.304 129.438 47.288 131.142 47.288ZM140.501 47.288C142.397 47.288 143.957 46.664 145.109 45.512L144.245 44.336C143.333 45.272 141.989 45.8 140.669 45.8C138.173 45.8 136.637 43.976 136.493 41.792H145.877V41.336C145.877 37.856 143.813 35.12 140.309 35.12C136.997 35.12 134.597 37.832 134.597 41.192C134.597 44.816 137.069 47.288 140.501 47.288ZM144.101 40.472H136.493C136.589 38.696 137.813 36.608 140.285 36.608C142.925 36.608 144.077 38.744 144.101 40.472ZM158.992 47V30.992H157.192V37.16C156.256 35.888 154.84 35.12 153.28 35.12C150.232 35.12 148.12 37.52 148.12 41.216C148.12 44.984 150.256 47.288 153.28 47.288C154.912 47.288 156.328 46.448 157.192 45.272V47H158.992ZM153.712 45.68C151.384 45.68 149.992 43.784 149.992 41.216C149.992 38.648 151.384 36.728 153.712 36.728C155.152 36.728 156.544 37.592 157.192 38.6V43.856C156.544 44.864 155.152 45.68 153.712 45.68ZM181 47L173.752 38.6L180.424 30.992H177.928L170.848 39.272V30.992H168.856V47H170.848V41.624L172.456 39.8L178.528 47H181ZM184.086 33.752C184.758 33.752 185.31 33.224 185.31 32.552C185.31 31.88 184.758 31.328 184.086 31.328C183.438 31.328 182.886 31.88 182.886 32.552C182.886 33.224 183.438 33.752 184.086 33.752ZM184.998 47V35.408H183.198V47H184.998ZM198.213 47V38.864C198.213 36.344 196.941 35.12 194.517 35.12C192.789 35.12 191.205 36.128 190.389 37.088V35.408H188.589V47H190.389V38.528C191.061 37.592 192.405 36.728 193.821 36.728C195.381 36.728 196.413 37.376 196.413 39.416V47H198.213ZM206.464 51.704C209.296 51.704 211.984 50.504 211.984 46.664V35.408H210.184V37.16C209.248 35.888 207.856 35.12 206.296 35.12C203.248 35.12 201.136 37.424 201.136 41.144C201.136 44.888 203.272 47.144 206.296 47.144C207.928 47.144 209.344 46.256 210.184 45.08V46.736C210.184 49.28 208.384 50.216 206.464 50.216C204.808 50.216 203.656 49.784 202.696 48.632L201.784 49.976C203.152 51.32 204.496 51.704 206.464 51.704ZM206.728 45.56C204.4 45.56 203.008 43.688 203.008 41.144C203.008 38.576 204.4 36.728 206.728 36.728C208.168 36.728 209.56 37.592 210.184 38.6V43.664C209.56 44.672 208.168 45.56 206.728 45.56ZM225.789 47V30.992H223.989V37.16C223.053 35.888 221.637 35.12 220.077 35.12C217.029 35.12 214.917 37.52 214.917 41.216C214.917 44.984 217.053 47.288 220.077 47.288C221.709 47.288 223.125 46.448 223.989 45.272V47H225.789ZM220.509 45.68C218.181 45.68 216.789 43.784 216.789 41.216C216.789 38.648 218.181 36.728 220.509 36.728C221.949 36.728 223.341 37.592 223.989 38.6V43.856C223.341 44.864 221.949 45.68 220.509 45.68ZM234.458 47.288C237.986 47.288 240.194 44.552 240.194 41.192C240.194 37.832 237.986 35.12 234.458 35.12C230.93 35.12 228.722 37.832 228.722 41.192C228.722 44.552 230.93 47.288 234.458 47.288ZM234.458 45.68C231.986 45.68 230.594 43.568 230.594 41.192C230.594 38.84 231.986 36.728 234.458 36.728C236.93 36.728 238.298 38.84 238.298 41.192C238.298 43.568 236.93 45.68 234.458 45.68ZM258.92 47V38.624C258.92 36.296 257.792 35.12 255.68 35.12C254 35.12 252.44 36.224 251.792 37.28C251.456 36.08 250.448 35.12 248.672 35.12C246.968 35.12 245.408 36.344 244.928 37.088V35.408H243.128V47H244.928V38.528C245.552 37.592 246.8 36.728 247.976 36.728C249.488 36.728 250.112 37.664 250.112 39.128V47H251.912V38.504C252.512 37.592 253.784 36.728 254.984 36.728C256.472 36.728 257.12 37.664 257.12 39.128V47H258.92Z" fill="#121212"/>
</g>
<defs>
<filter id="filter0_d_190_8298" x="0" y="0" width="295" height="87" filterUnits="userSpaceOnUse" color-interpolation-filters="sRGB">
<feFlood flood-opacity="0" result="BackgroundImageFix"/>
<feColorMatrix in="SourceAlpha" type="matrix" values="0 0 0 0 0 0 0 0 0 0 0 0 0 0 0 0 0 0 127 0" result="hardAlpha"/>
<feOffset dy="4"/>
<feGaussianBlur stdDeviation="7"/>
<feComposite in2="hardAlpha" operator="out"/>
<feColorMatrix type="matrix" values="0 0 0 0 0.0958333 0 0 0 0 0.0958333 0 0 0 0 0.0958333 0 0 0 0.08 0"/>
<feBlend mode="normal" in2="BackgroundImageFix" result="effect1_dropShadow_190_8298"/>
<feBlend mode="normal" in="SourceGraphic" in2="effect1_dropShadow_190_8298" result="shape"/>
</filter>
<clipPath id="clip0_190_8298">
<rect x="34" y="26.2856" width="37" height="26.4286" rx="5.28571" fill="white"/>
</clipPath>
</defs>
</svg>
