<svg width="216" height="87" viewBox="0 0 216 87" fill="none" xmlns="http://www.w3.org/2000/svg">
<g filter="url(#filter0_d_190_8306)">
<rect x="14" y="10" width="188" height="59" rx="29.5" fill="white" shape-rendering="crispEdges"/>
<g clip-path="url(#clip0_190_8306)">
<rect x="34" y="26.2856" width="37" height="26.4286" rx="5.28571" fill="#1A47B8"/>
<path d="M67.4762 26.2856H37.5238C35.5777 26.2856 34 27.8633 34 29.8095V49.1904C34 51.1366 35.5777 52.7142 37.5238 52.7142H67.4762C69.4223 52.7142 71 51.1366 71 49.1904V29.8095C71 27.8633 69.4223 26.2856 67.4762 26.2856Z" fill="#1A47B8"/>
<path opacity="0.5" fill-rule="evenodd" clip-rule="evenodd" d="M41.0469 46.5475L42.8088 45.6665L43.6897 43.9046L44.5707 45.6665L46.3326 46.5475L44.5707 47.4284L43.6897 49.1903L42.8088 47.4284L41.0469 46.5475ZM58.6659 31.5713V33.3332H60.4278V31.5713H58.6659ZM63.9516 33.3332V35.0951H65.7135V33.3332H63.9516ZM56.904 36.857V38.6189H58.6659V36.857H56.904ZM62.1897 38.6189V40.3808H63.9516V38.6189H62.1897ZM60.4278 43.9046V45.6665H62.1897V43.9046H60.4278Z" fill="white"/>
<path d="M49.857 28.0476H37.5236C36.5506 28.0476 35.7617 28.8364 35.7617 29.8095V38.619C35.7617 39.5921 36.5506 40.3809 37.5236 40.3809H49.857C50.83 40.3809 51.6189 39.5921 51.6189 38.619V29.8095C51.6189 28.8364 50.83 28.0476 49.857 28.0476Z" fill="white"/>
<path fill-rule="evenodd" clip-rule="evenodd" d="M42.8092 35.0953H37.5234V33.3334H42.8092V29.8096H44.5711V33.3334H49.8568V35.0953H44.5711V38.6191H42.8092V35.0953ZM47.2139 36.8572V38.6191H49.8568V36.8572H47.2139ZM47.2139 29.8096V31.5715H49.8568V29.8096H47.2139ZM37.5234 36.8572V38.6191H40.1663V36.8572H37.5234ZM37.5234 29.8096V31.5715H40.1663V29.8096H37.5234Z" fill="#F93939"/>
</g>
<path d="M106.576 47L100.12 30.992H97.648L91.216 47H93.496L94.912 43.448H102.88L104.296 47H106.576ZM102.28 41.672H95.488L98.896 33.056L102.28 41.672ZM117.94 47V35.408H116.14V43.928C115.468 44.864 114.124 45.68 112.708 45.68C111.148 45.68 110.116 45.08 110.116 43.04V35.408H108.316V43.592C108.316 46.112 109.588 47.288 112.012 47.288C113.74 47.288 115.252 46.376 116.14 45.368V47H117.94ZM125.206 47.288C128.206 47.288 129.766 45.728 129.766 43.784C129.766 39.272 122.59 40.952 122.59 38.408C122.59 37.376 123.574 36.584 125.158 36.584C126.646 36.584 127.918 37.208 128.614 38.048L129.454 36.8C128.518 35.864 127.126 35.12 125.158 35.12C122.398 35.12 120.838 36.656 120.838 38.456C120.838 42.752 128.014 41.024 128.014 43.832C128.014 44.984 127.054 45.824 125.278 45.824C123.694 45.824 122.23 45.056 121.462 44.168L120.526 45.464C121.702 46.712 123.31 47.288 125.206 47.288ZM135.619 47.288C136.675 47.288 137.323 46.976 137.779 46.544L137.251 45.2C137.011 45.464 136.531 45.68 136.027 45.68C135.235 45.68 134.851 45.056 134.851 44.192V36.992H137.203V35.408H134.851V32.24H133.051V35.408H131.131V36.992H133.051V44.576C133.051 46.304 133.915 47.288 135.619 47.288ZM141.545 47V38.792C142.073 37.856 143.585 36.944 144.689 36.944C144.977 36.944 145.193 36.968 145.409 37.016V35.168C143.825 35.168 142.481 36.056 141.545 37.28V35.408H139.745V47H141.545ZM156.715 47V39.032C156.715 36.224 154.675 35.12 152.227 35.12C150.331 35.12 148.843 35.744 147.595 37.04L148.435 38.288C149.467 37.184 150.595 36.68 151.987 36.68C153.667 36.68 154.915 37.568 154.915 39.128V41.216C153.979 40.136 152.659 39.632 151.075 39.632C149.107 39.632 147.019 40.856 147.019 43.448C147.019 45.968 149.107 47.288 151.075 47.288C152.635 47.288 153.955 46.736 154.915 45.68V47H156.715ZM151.723 45.992C150.043 45.992 148.867 44.936 148.867 43.472C148.867 41.984 150.043 40.928 151.723 40.928C152.995 40.928 154.219 41.408 154.915 42.368V44.552C154.219 45.512 152.995 45.992 151.723 45.992ZM162.123 47V30.992H160.323V47H162.123ZM166.602 33.752C167.274 33.752 167.826 33.224 167.826 32.552C167.826 31.88 167.274 31.328 166.602 31.328C165.954 31.328 165.402 31.88 165.402 32.552C165.402 33.224 165.954 33.752 166.602 33.752ZM167.514 47V35.408H165.714V47H167.514ZM180.153 47V39.032C180.153 36.224 178.113 35.12 175.665 35.12C173.769 35.12 172.281 35.744 171.033 37.04L171.873 38.288C172.905 37.184 174.033 36.68 175.425 36.68C177.105 36.68 178.353 37.568 178.353 39.128V41.216C177.417 40.136 176.097 39.632 174.513 39.632C172.545 39.632 170.457 40.856 170.457 43.448C170.457 45.968 172.545 47.288 174.513 47.288C176.073 47.288 177.393 46.736 178.353 45.68V47H180.153ZM175.161 45.992C173.481 45.992 172.305 44.936 172.305 43.472C172.305 41.984 173.481 40.928 175.161 40.928C176.433 40.928 177.657 41.408 178.353 42.368V44.552C177.657 45.512 176.433 45.992 175.161 45.992Z" fill="#121212"/>
</g>
<defs>
<filter id="filter0_d_190_8306" x="0" y="0" width="216" height="87" filterUnits="userSpaceOnUse" color-interpolation-filters="sRGB">
<feFlood flood-opacity="0" result="BackgroundImageFix"/>
<feColorMatrix in="SourceAlpha" type="matrix" values="0 0 0 0 0 0 0 0 0 0 0 0 0 0 0 0 0 0 127 0" result="hardAlpha"/>
<feOffset dy="4"/>
<feGaussianBlur stdDeviation="7"/>
<feComposite in2="hardAlpha" operator="out"/>
<feColorMatrix type="matrix" values="0 0 0 0 0.0958333 0 0 0 0 0.0958333 0 0 0 0 0.0958333 0 0 0 0.08 0"/>
<feBlend mode="normal" in2="BackgroundImageFix" result="effect1_dropShadow_190_8306"/>
<feBlend mode="normal" in="SourceGraphic" in2="effect1_dropShadow_190_8306" result="shape"/>
</filter>
<clipPath id="clip0_190_8306">
<rect x="34" y="26.2856" width="37" height="26.4286" rx="5.28571" fill="white"/>
</clipPath>
</defs>
</svg>
