<svg width="194" height="87" viewBox="0 0 194 87" fill="none" xmlns="http://www.w3.org/2000/svg">
<g filter="url(#filter0_d_190_8302)">
<rect x="14" y="10" width="166" height="59" rx="29.5" fill="white" shape-rendering="crispEdges"/>
<g clip-path="url(#clip0_190_8302)">
<rect x="34" y="26.2856" width="37" height="26.4286" rx="5.28571" fill="#FFDA2C"/>
<path fill-rule="evenodd" clip-rule="evenodd" d="M34 43.9048H71V52.7143H34V43.9048Z" fill="#249F58"/>
<path fill-rule="evenodd" clip-rule="evenodd" d="M52.4984 41.7024L49.9084 43.0643L50.4017 40.1801L48.3086 38.1363L51.2034 37.7187L52.4984 35.0952L53.7934 37.7205L56.6882 38.138L54.5915 40.1818L55.0849 43.0643" fill="#151515"/>
<path fill-rule="evenodd" clip-rule="evenodd" d="M34 26.2856H71V35.0952H34V26.2856Z" fill="#F93939"/>
</g>
<path d="M100.456 47.312C103.072 47.312 105.256 46.208 106.744 44.552V38.768H99.256V40.544H104.752V43.808C103.96 44.6 102.376 45.536 100.456 45.536C96.952 45.536 94.288 42.8 94.288 39.008C94.288 35.192 96.952 32.504 100.456 32.504C102.376 32.504 104.08 33.416 105.088 34.712L106.672 33.728C105.256 31.976 103.288 30.728 100.456 30.728C95.896 30.728 92.224 34.04 92.224 39.008C92.224 43.976 95.896 47.312 100.456 47.312ZM119.557 47V38.816C119.557 36.296 118.285 35.12 115.861 35.12C114.109 35.12 112.525 36.128 111.709 37.088V30.992H109.909V47H111.709V38.528C112.405 37.592 113.749 36.728 115.141 36.728C116.701 36.728 117.757 37.328 117.757 39.368V47H119.557ZM132.2 47V39.032C132.2 36.224 130.16 35.12 127.712 35.12C125.816 35.12 124.328 35.744 123.08 37.04L123.92 38.288C124.952 37.184 126.08 36.68 127.472 36.68C129.152 36.68 130.4 37.568 130.4 39.128V41.216C129.464 40.136 128.144 39.632 126.56 39.632C124.592 39.632 122.504 40.856 122.504 43.448C122.504 45.968 124.592 47.288 126.56 47.288C128.12 47.288 129.44 46.736 130.4 45.68V47H132.2ZM127.208 45.992C125.528 45.992 124.352 44.936 124.352 43.472C124.352 41.984 125.528 40.928 127.208 40.928C128.48 40.928 129.704 41.408 130.4 42.368V44.552C129.704 45.512 128.48 45.992 127.208 45.992ZM145.432 47V38.864C145.432 36.344 144.16 35.12 141.736 35.12C140.008 35.12 138.424 36.128 137.608 37.088V35.408H135.808V47H137.608V38.528C138.28 37.592 139.624 36.728 141.04 36.728C142.6 36.728 143.632 37.376 143.632 39.416V47H145.432ZM158.075 47V39.032C158.075 36.224 156.035 35.12 153.587 35.12C151.691 35.12 150.203 35.744 148.955 37.04L149.795 38.288C150.827 37.184 151.955 36.68 153.347 36.68C155.027 36.68 156.275 37.568 156.275 39.128V41.216C155.339 40.136 154.019 39.632 152.435 39.632C150.467 39.632 148.379 40.856 148.379 43.448C148.379 45.968 150.467 47.288 152.435 47.288C153.995 47.288 155.315 46.736 156.275 45.68V47H158.075ZM153.083 45.992C151.403 45.992 150.227 44.936 150.227 43.472C150.227 41.984 151.403 40.928 153.083 40.928C154.355 40.928 155.579 41.408 156.275 42.368V44.552C155.579 45.512 154.355 45.992 153.083 45.992Z" fill="#121212"/>
</g>
<defs>
<filter id="filter0_d_190_8302" x="0" y="0" width="194" height="87" filterUnits="userSpaceOnUse" color-interpolation-filters="sRGB">
<feFlood flood-opacity="0" result="BackgroundImageFix"/>
<feColorMatrix in="SourceAlpha" type="matrix" values="0 0 0 0 0 0 0 0 0 0 0 0 0 0 0 0 0 0 127 0" result="hardAlpha"/>
<feOffset dy="4"/>
<feGaussianBlur stdDeviation="7"/>
<feComposite in2="hardAlpha" operator="out"/>
<feColorMatrix type="matrix" values="0 0 0 0 0.0958333 0 0 0 0 0.0958333 0 0 0 0 0.0958333 0 0 0 0.08 0"/>
<feBlend mode="normal" in2="BackgroundImageFix" result="effect1_dropShadow_190_8302"/>
<feBlend mode="normal" in="SourceGraphic" in2="effect1_dropShadow_190_8302" result="shape"/>
</filter>
<clipPath id="clip0_190_8302">
<rect x="34" y="26.2856" width="37" height="26.4286" rx="5.28571" fill="white"/>
</clipPath>
</defs>
</svg>
